<svg width="32" height="32" viewBox="0 0 32 32" fill="none" xmlns="http://www.w3.org/2000/svg">
<path d="M25.747 15.7139C25.8046 15.8088 25.8351 15.9177 25.8351 16.0287C25.8351 16.1397 25.8046 16.2486 25.747 16.3436L16.4736 31.6245C16.2364 32.0157 15.6674 32.0157 15.4301 31.6247L6.1564 16.3447C6.09881 16.2497 6.06836 16.1409 6.06836 16.0298C6.06836 15.9188 6.09881 15.8099 6.1564 15.715L15.4301 0.433901C15.6673 0.0428664 16.2364 0.0428664 16.4736 0.433901L25.747 15.7139ZM10.5164 15.1029C10.2703 15.5081 10.563 16.0258 11.0382 16.0258H20.8661C21.3412 16.0258 21.6339 15.5081 21.3879 15.1029L16.4736 7.00866C16.2364 6.61776 15.6676 6.61776 15.4302 7.00866L10.5164 15.1029ZM15.9519 10.8178C16.9077 10.8178 17.6825 11.5918 17.6825 12.5465C17.6825 13.5011 16.9076 14.2745 15.9519 14.2745C14.9963 14.2745 14.2214 13.5009 14.2212 12.5465C14.2212 11.5918 14.9961 10.8178 15.9519 10.8178Z" fill="url(#paint0_linear_2061_531)"/>
<defs>
<linearGradient id="paint0_linear_2061_531" x1="15.9516" y1="12.4522" x2="15.9516" y2="26.7604" gradientUnits="userSpaceOnUse">
<stop stop-color="#FE7109"/>
<stop offset="1" stop-color="#003BFF"/>
</linearGradient>
</defs>
</svg>
