<svg width="32" height="32" viewBox="0 0 32 32" fill="none" xmlns="http://www.w3.org/2000/svg">
<path d="M29.8757 10.3152C29.8757 12.4644 29.1824 14.4535 28.0076 16.0712C26.2083 13.593 23.2764 11.9808 19.9657 11.9808C15.6304 11.9808 11.656 13.5157 8.56424 16.0712C4.62694 12.8173 2.11914 7.91498 2.11914 2.42982V0.46875H19.965C22.7015 0.46875 25.1796 1.57139 26.9733 3.35325C28.7658 5.13376 29.8757 7.59691 29.8757 10.3152Z" fill="#FE693F"/>
<path d="M29.8757 21.8249C29.8757 24.5432 28.7658 27.0051 26.9733 28.7848C25.1796 30.5666 22.7015 31.6695 19.965 31.6695H2.11914V29.7084C2.11914 24.2232 4.62694 19.3208 8.56424 16.0703C11.656 18.6224 15.6304 20.1587 19.9657 20.1587C23.2764 20.1587 26.2064 18.5465 28.0076 16.0703C29.1824 17.688 29.8757 19.6771 29.8757 21.8249Z" fill="#FFA487"/>
</svg>
