<svg width="32" height="32" viewBox="0 0 32 32" fill="none" xmlns="http://www.w3.org/2000/svg">
<g clip-path="url(#clip0_2060_522)">
<mask id="mask0_2060_522" style="mask-type:luminance" maskUnits="userSpaceOnUse" x="0" y="0" width="32" height="32">
<path d="M31.673 0.242188H0.777344V31.1711H31.673V0.242188Z" fill="white"/>
</mask>
<g mask="url(#mask0_2060_522)">
<path d="M14.6341 24.9918C14.4182 25.1045 14.1548 25.0188 14.0469 24.803L12.847 22.4843C12.7343 22.2684 12.82 22.005 13.0359 21.8986L15.0753 20.8432C15.3117 20.7194 15.3879 20.4131 15.226 20.1973L12.9232 17.066C12.7613 16.8501 12.4502 16.8295 12.2614 17.0168L10.6474 18.653C10.4807 18.8244 10.2014 18.8244 10.0284 18.653L8.17152 16.8184C8.00012 16.6518 8.00012 16.3724 8.17152 16.1994L10.0062 14.3425C10.1728 14.1712 10.4521 14.1712 10.6251 14.3425L12.2614 15.9566C12.4502 16.1455 12.7677 16.1185 12.9232 15.9027L15.1943 12.7396C15.3498 12.5238 15.2753 12.2174 15.0388 12.0936L12.9835 11.0605C12.7677 10.9526 12.682 10.6891 12.7899 10.4733L13.9627 8.13868C14.0707 7.9228 14.3341 7.8371 14.55 7.94504L16.8846 9.11788C17.1004 9.22582 17.1861 9.48932 17.0782 9.70512L16.045 11.7604C15.926 12.0032 16.045 12.2873 16.3037 12.373L20.0111 13.5506C20.2635 13.6315 20.5333 13.4649 20.5761 13.2015L20.9205 10.9303C20.9586 10.6938 21.1792 10.5272 21.4156 10.5637L23.9978 10.9557C24.2343 10.9939 24.4009 11.2144 24.3645 11.4509L23.9724 14.0331C23.9343 14.2696 23.7138 14.4362 23.4773 14.3997L21.2061 14.0553C20.9427 14.0125 20.6999 14.222 20.7062 14.4918L20.7285 18.3816C20.7285 18.6515 20.9713 18.8546 21.2347 18.807L23.4994 18.4356C23.7359 18.3975 23.9629 18.5594 23.9994 18.7959L24.4247 21.3733C24.4628 21.6097 24.3009 21.8367 24.0645 21.8732L21.4871 22.2985C21.2506 22.3366 21.0237 22.1747 20.9871 21.9383L20.6158 19.6735C20.5729 19.4101 20.3031 19.2482 20.0508 19.3292L16.3592 20.5512C16.1069 20.6369 15.9879 20.9273 16.1069 21.1638L17.1607 23.2032C17.2734 23.419 17.1877 23.6825 16.9718 23.7904L14.6372 24.9902L14.6341 24.9918Z" fill="black"/>
<path d="M25.3122 24.896L27.0009 24.9373C27.2421 24.9436 27.4405 24.7532 27.4469 24.5119L27.4881 22.8233C27.4945 22.5821 27.304 22.3821 27.0628 22.3774L25.3741 22.3361C25.1329 22.3298 24.9345 22.5202 24.9282 22.7615L24.8869 24.45C24.8805 24.6913 25.071 24.8897 25.3122 24.896Z" fill="black"/>
<path d="M27.5179 26.3739L27.1957 27.3674C27.1401 27.5404 27.2338 27.7245 27.4068 27.7816L28.3987 28.1054C28.5717 28.1609 28.7558 28.0673 28.8129 27.8943L29.1351 26.9024C29.1906 26.7294 29.097 26.5453 28.924 26.4882L27.9321 26.1644C27.7591 26.1089 27.575 26.2025 27.5179 26.3755V26.3739Z" fill="black"/>
<path d="M11.5629 26.9417L12.0454 28.5605C12.1136 28.7906 12.3565 28.9224 12.5882 28.8541L14.207 28.3716C14.4371 28.3034 14.5689 28.0606 14.5006 27.8289L14.0182 26.2101C13.9499 25.9799 13.7071 25.8482 13.4753 25.9165L11.8565 26.399C11.6264 26.4672 11.4947 26.71 11.5629 26.9417Z" fill="black"/>
<path d="M10.863 29.4688H9.81874C9.63782 29.4688 9.49023 29.6163 9.49023 29.7973V30.8416C9.49023 31.0225 9.63782 31.1701 9.81874 31.1701H10.863C11.044 31.1701 11.1915 31.0225 11.1915 30.8416V29.7973C11.1915 29.6163 11.044 29.4688 10.863 29.4688Z" fill="black"/>
<path d="M5.3715 14.5068L3.98123 15.4671C3.78284 15.6035 3.73364 15.8749 3.87013 16.0733L4.83031 17.4636C4.9668 17.662 5.23819 17.7111 5.43657 17.5747L6.82685 16.6145C7.02524 16.478 7.07443 16.2066 6.93795 16.0083L5.97777 14.618C5.84128 14.4196 5.56989 14.3703 5.3715 14.5068Z" fill="black"/>
<path d="M2.73043 14.6112L2.40825 13.6177C2.3527 13.4447 2.16702 13.3511 1.99402 13.4066L1.00052 13.7288C0.82752 13.7844 0.733886 13.97 0.789432 14.1431L1.11161 15.1365C1.16716 15.3095 1.35284 15.4032 1.52584 15.3476L2.51934 15.0254C2.69233 14.9699 2.78597 14.7842 2.73043 14.6112Z" fill="black"/>
<path d="M15.2911 4.76321L13.9484 3.73796C13.7564 3.59195 13.4834 3.62846 13.3374 3.8189L12.3122 5.16157C12.1662 5.3536 12.2027 5.62658 12.3931 5.77259L13.7358 6.79784C13.9278 6.94385 14.2008 6.90735 14.3468 6.7169L15.372 5.37424C15.518 5.1822 15.4815 4.90922 15.2895 4.76321H15.2911Z" fill="black"/>
<path d="M14.3718 2.29308L15.2162 1.68048C15.3622 1.57415 15.3955 1.36941 15.2892 1.22181L14.6765 0.377489C14.5702 0.231479 14.3655 0.198149 14.2179 0.304484L13.3736 0.917092C13.2276 1.02343 13.1942 1.22816 13.3006 1.37576L13.9132 2.22009C14.0195 2.36609 14.2242 2.39942 14.3718 2.29308Z" fill="black"/>
<path d="M27.6179 11.1868L28.1781 9.59347C28.2575 9.3665 28.1384 9.11729 27.9115 9.03799L26.318 8.47768C26.0911 8.39838 25.8419 8.51741 25.7626 8.74437L25.2023 10.3377C25.123 10.5647 25.242 10.8139 25.4689 10.8932L27.0624 11.4534C27.2894 11.5328 27.5385 11.4138 27.6179 11.1868Z" fill="black"/>
<path d="M29.6943 9.55596L30.5386 10.1701C30.6847 10.2765 30.891 10.2447 30.9973 10.0972L31.6115 9.25282C31.7179 9.10679 31.6861 8.90051 31.5385 8.79413L30.6942 8.17996C30.5482 8.07358 30.3419 8.10535 30.2355 8.25294L29.6213 9.09727C29.515 9.2433 29.5467 9.44958 29.6943 9.55596Z" fill="black"/>
</g>
</g>
<defs>
<clipPath id="clip0_2060_522">
<rect width="32" height="31.2195" fill="white"/>
</clipPath>
</defs>
</svg>
