<svg width="32" height="32" viewBox="0 0 32 32" fill="none" xmlns="http://www.w3.org/2000/svg">
<g clip-path="url(#clip0_2063_553)">
<path d="M5.88001 16.0187V16.2714L5.88884 15.7969C5.87891 15.8708 5.87891 15.9403 5.87891 16.0176" fill="#0A0A0A"/>
<path d="M23.9806 10.8017L23.9894 11.2761V19.7286C23.9894 20.0047 23.935 20.2781 23.8293 20.5332C23.7236 20.7883 23.5686 21.0201 23.3733 21.2153C23.178 21.4105 22.9462 21.5654 22.691 21.6709C22.4358 21.7765 22.1624 21.8308 21.8862 21.8306H18.9709V19.0334H20.0247C20.1718 19.0338 20.3176 19.0052 20.4537 18.9493C20.5897 18.8933 20.7134 18.8111 20.8176 18.7072C20.9219 18.6034 21.0046 18.48 21.0611 18.3442C21.1176 18.2084 21.1468 18.0627 21.1469 17.9156V12.8353C21.1472 12.6879 21.1184 12.5418 21.0621 12.4055C21.0058 12.2692 20.9231 12.1454 20.8189 12.0411C20.7146 11.9369 20.5908 11.8542 20.4545 11.7979C20.3182 11.7416 20.1722 11.7128 20.0247 11.7131H14.8484C14.701 11.713 14.5549 11.7419 14.4187 11.7982C14.2824 11.8545 14.1585 11.9372 14.0542 12.0414C13.9499 12.1456 13.8671 12.2694 13.8107 12.4056C13.7542 12.5418 13.7251 12.6878 13.7251 12.8353V17.9156C13.7263 18.2126 13.8452 18.4971 14.0558 18.7066C14.2663 18.9162 14.5514 19.0337 14.8484 19.0334H16.1417V21.8306H12.9958C12.4381 21.8306 11.9034 21.6092 11.509 21.215C11.1146 20.8208 10.8929 20.2862 10.8926 19.7286V11.0223C10.8924 10.7462 10.9467 10.4727 11.0524 10.2175C11.1581 9.96232 11.313 9.73048 11.5083 9.53525C11.7037 9.34001 11.9356 9.1852 12.1908 9.07968C12.446 8.97415 12.7196 8.91999 12.9958 8.92028H20.7861L24.006 4.19531L23.9806 10.8017Z" fill="#1574AD"/>
<path d="M20.035 19.0397H14.3633V21.8369H19.502C19.9397 21.836 20.3592 21.6619 20.6687 21.3525C20.9783 21.0432 21.1527 20.6238 21.1539 20.1862V17.9219C21.1536 18.2184 21.0356 18.5027 20.8258 18.7123C20.616 18.9219 20.3316 19.0397 20.035 19.0397Z" fill="url(#paint0_linear_2063_553)"/>
<path d="M16.8735 13.9136H13.7265V16.7108H15.0197C15.1669 16.7102 15.3129 16.7387 15.4491 16.7947C15.5853 16.8507 15.7091 16.9331 15.8133 17.037C15.9176 17.141 16.0003 17.2646 16.0567 17.4006C16.1131 17.5366 16.142 17.6825 16.1419 17.8297V22.9056C16.1422 23.053 16.1134 23.1991 16.0571 23.3354C16.0008 23.4716 15.9181 23.5955 15.8139 23.6997C15.7096 23.804 15.5858 23.8867 15.4495 23.9429C15.3132 23.9992 15.1671 24.0281 15.0197 24.0278H9.83349C9.68604 24.0281 9.53998 23.9992 9.40369 23.9429C9.26741 23.8867 9.14358 23.804 9.03932 23.6997C8.93505 23.5955 8.8524 23.4716 8.79611 23.3354C8.73982 23.1991 8.71099 23.053 8.71128 22.9056V17.8297C8.71143 17.6825 8.74058 17.5368 8.79706 17.4009C8.85355 17.265 8.93627 17.1416 9.04049 17.0377C9.14471 16.9338 9.26839 16.8514 9.40446 16.7953C9.54053 16.7392 9.68631 16.7105 9.83349 16.7108H10.8895V13.9136H9.08645L5.86328 9.1875L5.88645 15.7961L5.87983 16.2694V24.7218C5.87969 24.9981 5.93399 25.2716 6.03963 25.5269C6.14527 25.7821 6.30019 26.014 6.49551 26.2093C6.69084 26.4047 6.92275 26.5596 7.17798 26.6652C7.43322 26.7709 7.70677 26.8252 7.98301 26.825H16.8779C17.4357 26.825 17.9706 26.6034 18.3651 26.209C18.7595 25.8146 18.9811 25.2796 18.9811 24.7218V16.0156C18.9796 15.4576 18.7569 14.923 18.3618 14.5289C17.9667 14.1349 17.4315 13.9136 16.8735 13.9136Z" fill="#3EC745"/>
<path d="M8.71299 22.9051V20.0703H5.89258V21.8469C5.89243 22.1333 5.94877 22.417 6.05836 22.6817C6.16796 22.9464 6.32866 23.1869 6.53127 23.3894C6.73389 23.5919 6.97444 23.7525 7.23918 23.8619C7.50391 23.9714 7.78763 24.0276 8.0741 24.0273H9.8352C9.53784 24.0264 9.25291 23.9079 9.04264 23.6976C8.83238 23.4874 8.71387 23.2024 8.71299 22.9051Z" fill="url(#paint1_linear_2063_553)"/>
<path d="M18.9774 24.7225V20.0703H16.1437V22.6844C16.1437 22.6844 16.5024 26.8212 13.8066 26.8212H16.8786C17.1544 26.8216 17.4276 26.7677 17.6825 26.6624C17.9374 26.5571 18.169 26.4025 18.364 26.2075C18.5591 26.0126 18.7138 25.781 18.8192 25.5262C18.9247 25.2714 18.9777 24.9982 18.9774 24.7225Z" fill="url(#paint2_linear_2063_553)"/>
<path d="M14.8447 13.9141H9.83398V16.7113H14.8436L14.8447 13.9141Z" fill="url(#paint3_linear_2063_553)"/>
<path d="M13.7271 13.9141H10.8945V16.7113H13.7293L13.7271 13.9141Z" fill="#1574AD"/>
<path d="M13.7262 17.916V12.9141H10.8926V17.1105C10.8935 17.6215 11.0968 18.1113 11.4582 18.4726C11.8195 18.8339 12.3093 19.0373 12.8203 19.0382H14.8495C14.702 19.0386 14.5558 19.0099 14.4194 18.9537C14.283 18.8975 14.159 18.8148 14.0547 18.7106C13.9503 18.6063 13.8675 18.4824 13.8112 18.346C13.7548 18.2097 13.7259 18.0635 13.7262 17.916Z" fill="url(#paint4_linear_2063_553)"/>
<path d="M15.5154 31.0246C12.9643 31.0247 10.4525 30.3957 8.20257 29.1933C5.95264 27.9908 4.034 26.2521 2.6166 24.131C1.19921 22.0099 0.326809 19.5719 0.0766924 17.0331C-0.173424 14.4943 0.206461 11.933 1.1827 9.57614C2.15893 7.21923 3.70138 5.13946 5.67341 3.52108C7.64543 1.90269 9.98616 0.795646 12.4882 0.298004C14.9903 -0.199638 17.5765 -0.0725145 20.0177 0.668115C22.459 1.40874 24.6798 2.74002 26.4836 4.544C29.3922 7.4534 31.0261 11.3989 31.0261 15.5128C31.0261 19.6268 29.3922 23.5723 26.4836 26.4817C25.0468 27.9268 23.3375 29.0724 21.4547 29.8522C19.572 30.632 17.5532 31.0305 15.5154 31.0246ZM15.5154 1.07035C7.55066 1.07035 1.07121 7.54869 1.07121 15.5145C1.07121 23.4781 7.54956 29.9575 15.5142 29.9575C23.4778 29.9575 29.9573 23.4781 29.9573 15.5134C29.9584 7.54979 23.4789 1.07035 15.5142 1.07035" fill="#34AF3A"/>
</g>
<defs>
<linearGradient id="paint0_linear_2063_553" x1="21.1528" y1="19.8794" x2="14.3611" y2="19.8794" gradientUnits="userSpaceOnUse">
<stop stop-opacity="0.3"/>
<stop offset="1" stop-color="#1574AD"/>
</linearGradient>
<linearGradient id="paint1_linear_2063_553" x1="7.86444" y1="24.0284" x2="7.86444" y2="20.0703" gradientUnits="userSpaceOnUse">
<stop stop-opacity="0.3"/>
<stop offset="0.07" stop-color="#071808" stop-opacity="0.35"/>
<stop offset="0.25" stop-color="#184D1B" stop-opacity="0.47"/>
<stop offset="0.42" stop-color="#26792A" stop-opacity="0.59"/>
<stop offset="0.58" stop-color="#309B36" stop-opacity="0.71"/>
<stop offset="0.74" stop-color="#38B33E" stop-opacity="0.82"/>
<stop offset="0.88" stop-color="#3CC243" stop-opacity="0.92"/>
<stop offset="1" stop-color="#3EC745"/>
</linearGradient>
<linearGradient id="paint2_linear_2063_553" x1="16.3909" y1="26.8201" x2="16.3909" y2="20.0703" gradientUnits="userSpaceOnUse">
<stop stop-opacity="0.3"/>
<stop offset="0.23" stop-color="#123914" stop-opacity="0.46"/>
<stop offset="0.49" stop-color="#257529" stop-opacity="0.65"/>
<stop offset="0.72" stop-color="#32A238" stop-opacity="0.8"/>
<stop offset="0.9" stop-color="#3BBD41" stop-opacity="0.93"/>
<stop offset="1" stop-color="#3EC745"/>
</linearGradient>
<linearGradient id="paint3_linear_2063_553" x1="14.8447" y1="15.3132" x2="9.83398" y2="15.3132" gradientUnits="userSpaceOnUse">
<stop stop-color="#3EC745"/>
<stop offset="0.06" stop-color="#3AB940" stop-opacity="0.92"/>
<stop offset="0.16" stop-color="#2F9534" stop-opacity="0.78"/>
<stop offset="0.3" stop-color="#1C5B20" stop-opacity="0.58"/>
<stop offset="0.48" stop-color="#040B04" stop-opacity="0.33"/>
<stop offset="0.5" stop-opacity="0.3"/>
<stop offset="0.61" stop-color="#123914" stop-opacity="0.46"/>
<stop offset="0.75" stop-color="#257529" stop-opacity="0.65"/>
<stop offset="0.86" stop-color="#32A238" stop-opacity="0.8"/>
<stop offset="0.95" stop-color="#3BBD41" stop-opacity="0.93"/>
<stop offset="1" stop-color="#3EC745"/>
</linearGradient>
<linearGradient id="paint4_linear_2063_553" x1="12.8711" y1="19.0382" x2="12.8711" y2="12.9152" gradientUnits="userSpaceOnUse">
<stop stop-opacity="0.3"/>
<stop offset="0.18" stop-color="#062233" stop-opacity="0.43"/>
<stop offset="0.37" stop-color="#0B3F5F" stop-opacity="0.56"/>
<stop offset="0.55" stop-color="#105681" stop-opacity="0.68"/>
<stop offset="0.72" stop-color="#136799" stop-opacity="0.8"/>
<stop offset="0.87" stop-color="#1471A8" stop-opacity="0.91"/>
<stop offset="1" stop-color="#1574AD"/>
</linearGradient>
<clipPath id="clip0_2063_553">
<rect width="32" height="32" fill="white"/>
</clipPath>
</defs>
</svg>
