<svg width="32" height="32" viewBox="0 0 32 32" fill="none" xmlns="http://www.w3.org/2000/svg">
<g clip-path="url(#clip0_2050_243)">
<path fill-rule="evenodd" clip-rule="evenodd" d="M1.05706 30.7557C0.691002 30.3733 0.410299 29.9202 0.22973 29.4229C0.049161 28.9254 -0.0263497 28.3969 0.00812263 27.87C0.0425949 27.343 0.18705 26.8276 0.431639 26.3597C0.676228 25.8902 1.01438 25.4782 1.42641 25.1483C2.40765 24.44 3.18587 24.2792 3.99755 24.1114C4.18664 24.0724 4.37754 24.0329 4.57324 23.9861C6.33297 23.5609 7.84646 22.2329 7.57233 20.2861C7.3352 18.6089 6.1229 18.1688 5.02534 17.7703C4.03344 17.4101 3.13525 17.0841 3.13525 15.9097C3.13525 14.7348 4.03284 14.4089 5.02446 14.0489C6.1207 13.6509 7.33186 13.2113 7.57233 11.5366C7.84646 9.60455 6.33297 8.27327 4.57324 7.83663C4.37999 7.79037 4.19144 7.75121 4.00471 7.71244C3.19055 7.54336 2.41112 7.38149 1.4297 6.67112C1.01767 6.34118 0.67787 5.92751 0.433281 5.45967C0.188692 4.98855 0.0442364 4.47475 0.00976415 3.94617C-0.0247082 3.41924 0.0508026 2.88902 0.231372 2.39164C0.411941 1.89425 0.694286 1.44119 1.06035 1.05871C1.44282 0.692644 1.89589 0.4103 2.39163 0.22973C2.88738 0.0491612 3.41759 -0.02635 3.94453 0.00812279C4.47146 0.0425948 4.98526 0.18705 5.45474 0.43164C5.92258 0.676228 6.33625 1.01603 6.6662 1.42805C7.37624 2.4117 7.53827 3.19242 7.70727 4.00668C7.74613 4.19389 7.78535 4.38288 7.83169 4.57652C8.25688 6.33789 9.58488 7.85143 11.5301 7.57725C13.2045 7.34014 13.6444 6.12705 14.0426 5.02868C14.4026 4.03593 14.7286 3.13689 15.9015 3.13689C17.0742 3.13689 17.4002 4.03463 17.7606 5.02661C18.1593 6.12436 18.5998 7.33753 20.2762 7.57725C22.2066 7.85143 23.5346 6.33789 23.9746 4.57652C24.0215 4.38024 24.0611 4.18873 24.1002 3.999C24.2678 3.18752 24.4286 2.40861 25.1351 1.42805C25.4651 1.01603 25.8787 0.676228 26.3466 0.43164C26.8144 0.18705 27.3298 0.0425948 27.8568 0.00812279C28.3838 -0.02635 28.9123 0.0491612 29.4097 0.22973C29.9054 0.4103 30.3602 0.692644 30.741 1.05871C31.107 1.43954 31.3894 1.89425 31.57 2.39164C31.7506 2.88902 31.826 3.4176 31.7916 3.94617C31.7571 4.47311 31.6126 4.98855 31.3681 5.45803C31.1234 5.92751 30.7837 6.33953 30.3717 6.66948C29.3884 7.37924 28.609 7.54143 27.7973 7.71035C27.6102 7.74927 27.4214 7.78856 27.2281 7.83495C25.4634 8.25687 23.9516 9.58815 24.2258 11.535C24.4627 13.2097 25.6742 13.6489 26.7714 14.0467C27.7638 14.4065 28.6628 14.7324 28.6628 15.9081C28.6628 17.0835 27.7649 17.4095 26.773 17.7696C25.6762 18.1678 24.4645 18.6077 24.2258 20.2844C23.9516 22.2165 25.4651 23.5445 27.2281 23.9664C27.4267 24.0148 27.6206 24.0553 27.8129 24.0956C28.6183 24.2642 29.395 24.4269 30.3717 25.1318C30.7837 25.4618 31.1234 25.8755 31.3681 26.3433C31.6126 26.8128 31.7571 27.3266 31.7916 27.8552C31.826 28.3821 31.7506 28.9123 31.57 29.4097C31.3894 29.9071 31.107 30.3601 30.741 30.7426C30.3602 31.1087 29.9054 31.391 29.4097 31.5716C28.9123 31.7521 28.3838 31.8277 27.8568 31.7932C27.3298 31.7588 26.8144 31.6143 26.3466 31.3697C25.8787 31.1251 25.4651 30.7853 25.1351 30.3717C24.428 29.392 24.2676 28.6137 24.1006 27.803C24.0614 27.6125 24.0218 27.4202 23.9746 27.2232C23.5494 25.4618 22.2214 23.9483 20.2762 24.2225C18.6001 24.4596 18.1603 25.6725 17.762 26.7709C17.402 27.7637 17.076 28.6628 15.9015 28.6628C14.7265 28.6628 14.4006 27.764 14.0408 26.7713C13.6431 25.674 13.2038 24.4621 11.5301 24.2225C9.5996 23.9483 8.2716 25.4618 7.83169 27.2265C7.78521 27.4201 7.74589 27.6091 7.70692 27.7965C7.53805 28.6084 7.37574 29.3887 6.6662 30.3717C6.33625 30.7853 5.92422 31.1251 5.45474 31.3697C4.9869 31.6143 4.47146 31.7588 3.94453 31.7932C3.41759 31.8277 2.88902 31.7521 2.39163 31.5716C1.89425 31.391 1.44118 31.1087 1.06035 30.7426L1.05706 30.7557Z" fill="black"/>
</g>
<defs>
<clipPath id="clip0_2050_243">
<rect width="32" height="32" fill="white"/>
</clipPath>
</defs>
</svg>
