<svg width="32" height="32" viewBox="0 0 32 32" fill="none" xmlns="http://www.w3.org/2000/svg">
<path d="M26.2927 12.3912C32.2454 11.0935 31.0766 23.5612 30.7964 26.7661C30.6479 28.4658 28.7941 29.23 27.89 29.23H16.3562C14.5247 29.23 13.8101 27.7879 13.9508 26.3817C14.3553 22.3387 15.1372 17.9508 17.7335 15.9895C19.6894 14.5121 23.493 13.0015 26.2927 12.3912Z" fill="#C295DC"/>
<path d="M15.1973 5.54198C15.1068 4.20161 16.0737 3.27386 17.0716 3.27344C17.6699 3.27346 18.4913 3.32203 19.7491 3.74141C21.8881 4.45457 24.9058 6.75555 25.3847 7.76635C25.6176 8.25796 25.6746 8.76661 25.5085 9.28049C25.237 10.1203 24.4881 10.6788 23.67 11.0102C22.1846 11.6121 19.6626 12.4678 18.6784 12.1205C16.7389 11.4359 15.2758 6.70254 15.1973 5.54198Z" fill="#26124B"/>
<path d="M9.10451 29.0972C9.78809 29.0972 10.3994 28.6824 10.6121 28.0504C12.1194 23.5717 13.7846 15.7472 14.157 12.9274C14.1953 10.2782 13.4739 8.29693 12.6815 6.01217C12.3737 5.12487 11.3112 4.04462 9.68925 4.75198C8.94355 5.07716 8.33265 5.75978 7.5674 6.39778C5.97155 7.72828 2.09565 13.1712 1.29032 16.0973C0.84958 18.4103 1.0069 21.4209 1.29031 24.0642C1.45792 25.6274 1.56095 29.0972 3.74601 29.0972H9.10451Z" fill="#FF6D46"/>
</svg>
