<svg width="32" height="32" viewBox="0 0 32 32" fill="none" xmlns="http://www.w3.org/2000/svg">
<path d="M25.9734 3.53125L21.8281 7.67651L25.9734 11.8218L30.1186 7.67651L25.9734 3.53125Z" fill="#030206"/>
<path d="M25.972 3.63001L30.0132 7.6712L25.972 11.7124L21.9308 7.6712L25.972 3.63001ZM25.972 3.42188L21.7227 7.6712L25.972 11.9205L30.2213 7.6712L25.972 3.42188Z" fill="#F3FF97"/>
<path d="M25.5574 3.14062L21.4121 7.28588L25.5574 11.4311L29.7026 7.28588L25.5574 3.14062Z" fill="#030206"/>
<path d="M25.556 3.24719L29.5972 7.28839L25.556 11.3296L21.5148 7.28839L25.556 3.24719ZM25.556 3.03906L21.3066 7.28839L25.556 11.5377L29.8053 7.28839L25.556 3.03906Z" fill="#F3FF97"/>
<path d="M25.1316 2.76562L20.9863 6.91088L25.1316 11.0561L29.2768 6.91088L25.1316 2.76562Z" fill="#030206"/>
<path d="M25.1321 2.87219L29.1733 6.91338L25.1321 10.9546L21.0909 6.91338L25.1321 2.86352V2.87219ZM25.1321 2.66406L20.8828 6.91338L25.1321 11.1627L29.3815 6.91338L25.1321 2.66406Z" fill="#F3FF97"/>
<path d="M24.6902 2.42188L20.5449 6.56713L24.6902 10.7124L28.8354 6.56713L24.6902 2.42188Z" fill="#030206"/>
<path d="M24.681 2.52063L28.7222 6.56182L24.681 10.603L20.6398 6.56182L24.681 2.52063ZM24.681 2.3125L20.4316 6.56182L24.681 10.8111L28.9303 6.56182L24.681 2.3125Z" fill="#F3FF97"/>
<path d="M24.239 2.10156L20.0938 6.24682L24.239 10.3921L28.3843 6.24682L24.239 2.10156Z" fill="#030206"/>
<path d="M24.2298 2.19165L28.271 6.23284L24.2298 10.274L20.1886 6.23284L24.2298 2.19165ZM24.2298 1.99219L19.9805 6.24151L24.2298 10.4908L28.4791 6.24151L24.2298 1.99219Z" fill="#F3FF97"/>
<path d="M23.7605 1.79688L19.6152 5.94213L23.7605 10.0874L27.9057 5.94213L23.7605 1.79688Z" fill="#030206"/>
<path d="M23.7708 1.90258L27.812 5.94378L23.7708 9.98497L19.7296 5.94378L23.7708 1.90258ZM23.7708 1.70312L19.5215 5.95245L23.7708 10.2018L28.0201 5.95245L23.7708 1.70312Z" fill="#F3FF97"/>
<path d="M23.2839 1.51562L19.1387 5.66088L23.2839 9.80614L27.4292 5.66088L23.2839 1.51562Z" fill="#030206"/>
<path d="M23.2923 1.62133L27.3335 5.66253L23.2923 9.70372L19.2511 5.66253L23.2923 1.62133ZM23.2923 1.42188L19.043 5.6712L23.2923 9.92052L27.5416 5.6712L23.2923 1.42188Z" fill="#F3FF97"/>
<path d="M22.7996 1.27344L18.6543 5.41869L22.7996 9.56395L26.9448 5.41869L22.7996 1.27344Z" fill="#030206"/>
<path d="M22.8079 1.38001L26.8491 5.4212L22.8079 9.46239L18.7667 5.4212L22.8079 1.38001ZM22.8079 1.17188L18.5586 5.4212L22.8079 9.67052L27.0572 5.4212L22.8079 1.17188Z" fill="#F3FF97"/>
<path d="M22.3054 1.03906L18.1602 5.18432L22.3054 9.32958L26.4507 5.18432L22.3054 1.03906Z" fill="#030206"/>
<path d="M22.3138 1.15344L26.355 5.19464L22.3138 9.23583L18.2726 5.19464L22.3138 1.15344ZM22.3138 0.945312L18.0645 5.19464L22.3138 9.44396L26.5631 5.19464L22.3138 0.945312Z" fill="#F3FF97"/>
<path d="M21.8015 0.84375L17.6562 4.98901L21.8015 9.13427L25.9468 4.98901L21.8015 0.84375Z" fill="#030206"/>
<path d="M21.8021 0.941645L25.8432 4.98284L21.8021 9.0327L17.7609 4.99151L21.8021 0.941645ZM21.8021 0.742188L17.5527 4.99151L21.8021 9.24083L26.0514 4.99151L21.8021 0.742188Z" fill="#F3FF97"/>
<path d="M21.2996 0.671875L17.1543 4.81713L21.2996 8.96239L25.4448 4.81713L21.2996 0.671875Z" fill="#030206"/>
<path d="M21.2982 0.77063L25.3393 4.81182L21.2982 8.85301L17.257 4.81182L21.2982 0.77063ZM21.2982 0.5625L17.0488 4.81182L21.2982 9.06115L25.5475 4.81182L21.2982 0.5625Z" fill="#F3FF97"/>
<path d="M20.7781 0.507812L16.6328 4.65307L20.7781 8.79833L24.9233 4.65307L20.7781 0.507812Z" fill="#030206"/>
<path d="M20.7786 0.61352L24.8198 4.65471L20.7786 8.69591L16.7374 4.65471L20.7786 0.61352ZM20.7786 0.414062L16.5293 4.66339L20.7786 8.91271L25.0279 4.66339L20.7786 0.414062Z" fill="#F3FF97"/>
<path d="M20.2585 0.390625L16.1133 4.53588L20.2585 8.68114L24.4038 4.53588L20.2585 0.390625Z" fill="#030206"/>
<path d="M20.2571 0.48852L24.2983 4.52971L20.2571 8.57958L16.2159 4.53839L20.2571 0.48852ZM20.2571 0.289062L16.0078 4.53839L20.2571 8.78771L24.5065 4.53839L20.2571 0.289062Z" fill="#F3FF97"/>
<path d="M19.7292 0.28125L15.584 4.42651L19.7292 8.57177L23.8745 4.42651L19.7292 0.28125Z" fill="#030206"/>
<path d="M19.7298 0.379146L23.771 4.42034L19.7298 8.46153L15.6886 4.42034L19.7298 0.379146ZM19.7298 0.179688L15.4805 4.42901L19.7298 8.67833L23.9791 4.42901L19.7298 0.179688Z" fill="#F3FF97"/>
<path d="M19.1999 0.195312L15.0547 4.34057L19.1999 8.48583L23.3452 4.34057L19.1999 0.195312Z" fill="#030206"/>
<path d="M19.2005 0.30188L23.2417 4.34307L19.2005 8.38426L15.1593 4.34307L19.2005 0.30188ZM19.2005 0.09375L14.9512 4.34307L19.2005 8.5924L23.4498 4.34307L19.2005 0.09375Z" fill="#F3FF97"/>
<path d="M18.6706 0.148438L14.5254 4.29369L18.6706 8.43895L22.8159 4.29369L18.6706 0.148438Z" fill="#030206"/>
<path d="M18.6712 0.246333L22.7124 4.28753L18.6712 8.33739L14.63 4.2962L18.6712 0.246333ZM18.6712 0.046875L14.4219 4.2962L18.6712 8.54552L22.9205 4.2962L18.6712 0.046875Z" fill="#F3FF97"/>
<path d="M18.1414 0.109375L13.9961 4.25463L18.1414 8.39989L22.2866 4.25463L18.1414 0.109375Z" fill="#030206"/>
<path d="M18.1419 0.207271L22.1831 4.24846L18.1419 8.28966L14.1007 4.24846L18.1419 0.207271ZM18.1419 0.0078125L13.8926 4.25714L18.1419 8.50646L22.3912 4.25714L18.1419 0.0078125Z" fill="#F3FF97"/>
<path d="M17.6042 0.101562L13.459 4.24682L17.6042 8.39208L21.7495 4.24682L17.6042 0.101562Z" fill="#030206"/>
<path d="M17.6048 0.20813L21.646 4.24932L17.6048 8.29051L13.5636 4.24932L17.6048 0.20813ZM17.6048 0L13.3555 4.24932L17.6048 8.49865L21.8541 4.24932L17.6048 0Z" fill="#F3FF97"/>
<path d="M17.0671 0.125L12.9219 4.27026L17.0671 8.41551L21.2124 4.27026L17.0671 0.125Z" fill="#030206"/>
<path d="M17.0677 0.223755L21.1089 4.26495L17.0677 8.30614L13.0265 4.26495L17.0677 0.223755ZM17.0677 0.015625L12.8184 4.26495L17.0677 8.51427L21.317 4.26495L17.0677 0.015625Z" fill="#F3FF97"/>
<path d="M16.5378 0.15625L12.3926 4.30151L16.5378 8.44676L20.6831 4.30151L16.5378 0.15625Z" fill="#030206"/>
<path d="M16.5384 0.261958L20.5796 4.30315L16.5384 8.34434L12.4972 4.30315L16.5384 0.261958ZM16.5384 0.0625L12.2891 4.31182L16.5384 8.56115L20.7877 4.31182L16.5384 0.0625Z" fill="#F3FF97"/>
<path d="M16.0007 0.226562L11.8555 4.37182L16.0007 8.51708L20.146 4.37182L16.0007 0.226562Z" fill="#030206"/>
<path d="M15.9993 0.33313L20.0405 4.37432L15.9993 8.41551L11.9581 4.37432L15.9993 0.33313ZM15.9993 0.125L11.75 4.37432L15.9993 8.62365L20.2486 4.37432L15.9993 0.125Z" fill="#F3FF97"/>
<path d="M15.4792 0.3125L11.334 4.45776L15.4792 8.60301L19.6245 4.45776L15.4792 0.3125Z" fill="#030206"/>
<path d="M15.472 0.419068L19.5132 4.46026L15.472 8.50145L11.4308 4.46026L15.472 0.419068ZM15.472 0.210938L11.2227 4.46026L15.472 8.70958L19.7213 4.46026L15.472 0.210938Z" fill="#F3FF97"/>
<path d="M14.9499 0.421875L10.8047 4.56713L14.9499 8.71239L19.0952 4.56713L14.9499 0.421875Z" fill="#030206"/>
<path d="M14.9505 0.528443L18.9917 4.56964L14.9505 8.61083L10.9093 4.56964L14.9505 0.528443ZM14.9505 0.320312L10.7012 4.56964L14.9505 8.81896L19.1998 4.56964L14.9505 0.320312Z" fill="#F3FF97"/>
<path d="M14.4304 0.5625L10.2852 4.70776L14.4304 8.85301L18.5757 4.70776L14.4304 0.5625Z" fill="#030206"/>
<path d="M14.431 0.669068L18.4722 4.71026L14.431 8.75145L10.3898 4.71026L14.431 0.669068ZM14.431 0.460938L10.1816 4.71026L14.431 8.95958L18.6803 4.71026L14.431 0.460938Z" fill="#F3FF97"/>
<path d="M13.9187 0.726562L9.77344 4.87182L13.9187 9.01708L18.064 4.87182L13.9187 0.726562Z" fill="#030206"/>
<path d="M13.9192 0.824458L17.9604 4.86565L13.9192 8.91552L9.87805 4.87432L13.9192 0.824458ZM13.9192 0.625L9.66992 4.87432L13.9192 9.12365L18.1686 4.87432L13.9192 0.625Z" fill="#F3FF97"/>
<path d="M13.4148 0.914062L9.26953 5.05932L13.4148 9.20458L17.56 5.05932L13.4148 0.914062Z" fill="#030206"/>
<path d="M13.4153 1.00415L17.4565 5.04534L13.4153 9.08653L9.37415 5.04534L13.4153 1.00415ZM13.4153 0.804688L9.16602 5.05401L13.4153 9.30333L17.6647 5.05401L13.4153 0.804688Z" fill="#F3FF97"/>
<path d="M12.9128 1.11719L8.76758 5.26245L12.9128 9.4077L17.0581 5.26245L12.9128 1.11719Z" fill="#030206"/>
<path d="M12.9134 1.2229L16.9546 5.26409L12.9134 9.30528L8.87219 5.26409L12.9134 1.2229ZM12.9134 1.02344L8.66406 5.27276L12.9134 9.52208L17.1627 5.27276L12.9134 1.02344Z" fill="#F3FF97"/>
<path d="M12.4187 1.35156L8.27344 5.49682L12.4187 9.64208L16.564 5.49682L12.4187 1.35156Z" fill="#030206"/>
<path d="M12.4192 1.45813L16.4691 5.49932L12.4279 9.54051L8.37805 5.49932L12.4192 1.45813ZM12.4192 1.25L8.16992 5.49932L12.4192 9.74865L16.6686 5.49932L12.4192 1.25Z" fill="#F3FF97"/>
<path d="M11.9324 1.60938L7.78711 5.75463L11.9324 9.89989L16.0776 5.75463L11.9324 1.60938Z" fill="#030206"/>
<path d="M11.9329 1.70727L15.9741 5.74846L11.9329 9.78966L7.89172 5.74846L11.9329 1.70727ZM11.9329 1.50781L7.68359 5.75714L11.9329 10.0065L16.1822 5.75714L11.9329 1.50781Z" fill="#F3FF97"/>
<path d="M11.4636 1.89062L7.31836 6.03588L11.4636 10.1811L15.6089 6.03588L11.4636 1.89062Z" fill="#030206"/>
<path d="M11.4642 1.99633L15.5054 6.03753L11.4642 10.0874L7.42297 6.0462L11.4642 1.99633ZM11.4642 1.79688L7.21484 6.0462L11.4642 10.2955L15.7135 6.0462L11.4642 1.79688Z" fill="#F3FF97"/>
<path d="M10.9968 2.20312L6.85156 6.34838L10.9968 10.4936L15.1421 6.34838L10.9968 2.20312Z" fill="#030206"/>
<path d="M10.9954 2.30969L15.0366 6.35088L10.9954 10.3921L6.95422 6.35088L10.9954 2.30969ZM10.9954 2.10156L6.74609 6.35088L10.9954 10.6002L15.2447 6.35088L10.9867 2.10156H10.9954Z" fill="#F3FF97"/>
<path d="M10.5456 2.53125L6.40039 6.67651L10.5456 10.8218L14.6909 6.67651L10.5456 2.53125Z" fill="#030206"/>
<path d="M10.554 2.63782L14.5952 6.67901L10.554 10.7289L6.51282 6.68768L10.554 2.63782ZM10.554 2.42969L6.30469 6.67901L10.554 10.9283L14.8033 6.67901L10.554 2.42969Z" fill="#F3FF97"/>
<path d="M10.1121 2.89062L5.9668 7.03588L10.1121 11.1811L14.2573 7.03588L10.1121 2.89062Z" fill="#030206"/>
<path d="M10.1107 2.98938L14.1518 7.03057L10.1107 11.0718L6.06946 7.03057L10.1107 2.98938ZM10.1107 2.78125L5.86133 7.03057L10.1107 11.2799L14.36 7.03057L10.1107 2.78125Z" fill="#F3FF97"/>
<path d="M9.68627 3.27344L5.54102 7.41869L9.68627 11.564L13.8315 7.41869L9.68627 3.27344Z" fill="#030206"/>
<path d="M9.68682 3.36352L13.728 7.40471L9.68682 11.4546L5.64563 7.41339L9.68682 3.36352ZM9.68682 3.16406L5.4375 7.41339L9.68682 11.6627L13.9361 7.41339L9.68682 3.16406Z" fill="#F3FF97"/>
<path d="M9.28002 3.67188L5.13477 7.81713L9.28002 11.9624L13.4253 7.81713L9.28002 3.67188Z" fill="#030206"/>
<path d="M9.27862 3.76977L13.3198 7.81096L9.27862 11.8522L5.23743 7.81096L9.27862 3.76977ZM9.27862 3.57031L5.0293 7.81963L9.27862 12.069L13.5279 7.81963L9.27862 3.57031Z" fill="#F3FF97"/>
<path d="M8.8894 4.08594L4.74414 8.2312L8.8894 12.3765L13.0347 8.2312L8.8894 4.08594Z" fill="#030206"/>
<path d="M8.88799 4.19165L12.9292 8.23284L8.88799 12.2827L4.8468 8.24151L8.88799 4.19165ZM8.88799 3.99219L4.63867 8.24151L8.88799 12.4908L13.1373 8.24151L8.88799 3.99219Z" fill="#F3FF97"/>
<path d="M8.52416 4.52344L4.37891 8.66869L8.52416 12.814L12.6694 8.66869L8.52416 4.52344Z" fill="#030206"/>
<path d="M8.52471 4.63001L12.5659 8.6712L8.52471 12.7124L4.48352 8.6712L8.52471 4.63001ZM8.52471 4.42188L4.27539 8.6712L8.52471 12.9205L12.774 8.6712L8.52471 4.42188Z" fill="#F3FF97"/>
<path d="M8.18627 4.96875L4.04102 9.11401L8.18627 13.2593L12.3315 9.11401L8.18627 4.96875Z" fill="#030206"/>
<path d="M8.18682 5.07532L12.228 9.11651L8.18682 13.1577L4.14563 9.11651L8.18682 5.07532ZM8.18682 4.86719L3.9375 9.11651L8.18682 13.3658L12.4361 9.11651L8.18682 4.86719Z" fill="#F3FF97"/>
<path d="M7.87377 5.42969L3.72852 9.57495L7.87377 13.7202L12.019 9.57495L7.87377 5.42969Z" fill="#030206"/>
<path d="M7.87432 5.53625L11.9155 9.57745L7.87432 13.6186L3.83313 9.57745L7.87432 5.53625ZM7.87432 5.32812L3.625 9.57745L7.87432 13.8268L12.1236 9.57745L7.87432 5.32812Z" fill="#F3FF97"/>
<path d="M7.57885 5.89844L3.43359 10.0437L7.57885 14.189L11.7241 10.0437L7.57885 5.89844Z" fill="#030206"/>
<path d="M7.5794 5.99719L11.6206 10.0384L7.5794 14.0796L3.53821 10.0384L7.5794 5.99719ZM7.5794 5.78906L3.33008 10.0384L7.5794 14.2877L11.8287 10.0384L7.5794 5.78906Z" fill="#F3FF97"/>
<path d="M7.31127 6.38281L3.16602 10.5281L7.31127 14.6733L11.4565 10.5281L7.31127 6.38281Z" fill="#030206"/>
<path d="M7.30987 6.48071L11.3511 10.5219L7.30987 14.5631L3.26868 10.5219L7.30987 6.48071ZM7.30987 6.28125L3.06055 10.5306L7.30987 14.7799L11.5592 10.5306L7.30987 6.28125Z" fill="#F3FF97"/>
<path d="M7.06713 6.86719L2.92188 11.0124L7.06713 15.1577L11.2124 11.0124L7.06713 6.86719Z" fill="#030206"/>
<path d="M7.07635 6.97376L11.1175 11.0149L7.07635 15.0561L3.02649 11.0149L7.06768 6.97376H7.07635ZM7.07635 6.76562L2.81836 11.0236L7.06768 15.2729L11.317 11.0236L7.06768 6.7743L7.07635 6.76562Z" fill="#F3FF97"/>
<path d="M6.8601 7.35938L2.71484 11.5046L6.8601 15.6499L11.0054 11.5046L6.8601 7.35938Z" fill="#030206"/>
<path d="M6.8587 7.46594L10.8999 11.5071L6.8587 15.5483L2.80883 11.5071L6.8587 7.46594ZM6.8587 7.25781L2.60938 11.5071L6.8587 15.7565L11.108 11.5071L6.8587 7.25781Z" fill="#F3FF97"/>
<path d="M6.66088 7.86719L2.51562 12.0124L6.66088 16.1577L10.8061 12.0124L6.66088 7.86719Z" fill="#030206"/>
<path d="M6.65948 7.98157L10.7007 12.0228L6.65948 16.064L2.60961 12.0228L6.65948 7.98157ZM6.65948 7.77344L2.41016 12.0228L6.65948 16.2721L10.9088 12.0228L6.65948 7.77344Z" fill="#F3FF97"/>
<path d="M6.49573 8.38281L2.3418 12.5281L6.48705 16.6733L10.6323 12.5281L6.48705 8.38281H6.49573Z" fill="#030206"/>
<path d="M6.4876 8.48071L10.5288 12.5219L6.4876 16.5631L2.44641 12.5219L6.4876 8.48071ZM6.4876 8.28125L2.23828 12.5306L6.4876 16.7799L10.7369 12.5306L6.4876 8.28125Z" fill="#F3FF97"/>
<path d="M6.34729 8.89844L2.19336 13.0524L6.33862 17.1976L10.4839 13.0524L6.33862 8.90711L6.34729 8.89844Z" fill="#030206"/>
<path d="M6.34698 9.00501L10.3882 13.0462L6.34698 17.0874L2.29711 13.0549L6.33831 9.01368L6.34698 9.00501ZM6.34698 8.79688L2.09766 13.0549L6.34698 17.3042L10.5963 13.0549L6.34698 8.80555V8.79688Z" fill="#F3FF97"/>
<path d="M6.22729 9.42969L2.08203 13.5749L6.22729 17.7202L10.3725 13.5749L6.22729 9.42969Z" fill="#030206"/>
<path d="M6.22589 9.52844L10.2671 13.5696L6.22589 17.6195L2.18469 13.5696L6.22589 9.52844ZM6.22589 9.32031L1.97656 13.5696L6.22589 17.819L10.4752 13.5696L6.22589 9.32031Z" fill="#F3FF97"/>
<path d="M6.13159 9.95312L1.98633 14.0984L6.13159 18.2436L10.2768 14.0984L6.13159 9.95312Z" fill="#030206"/>
<path d="M6.13018 10.051L10.1714 14.0922L6.13018 18.1334L2.08032 14.1009L6.12151 10.0597L6.13018 10.051ZM6.13018 9.85156L1.88086 14.1009L6.13018 18.3502L10.3795 14.1009L6.13018 9.85156Z" fill="#F3FF97"/>
<path d="M6.06213 10.4766L1.9082 14.6305L6.05346 18.7757L10.1987 14.6305L6.05346 10.4852L6.06213 10.4766Z" fill="#030206"/>
<path d="M6.06268 10.5823L10.1039 14.6235L6.06268 18.6647L2.01282 14.6321L6.05401 10.5909L6.06268 10.5823ZM6.06268 10.3828L1.80469 14.6321L6.05401 18.8815L10.3033 14.6321L6.05401 10.3828H6.06268Z" fill="#F3FF97"/>
<path d="M6.01049 11.0156L1.86523 15.1609L6.01049 19.3061L10.1557 15.1609L6.01049 11.0156Z" fill="#030206"/>
<path d="M6.00909 11.1144L10.0503 15.1556L6.00909 19.2054L1.9679 15.1642L6.00909 11.1144ZM6.00909 10.9062L1.75977 15.1642L6.00909 19.4136L10.2584 15.1642L6.00909 10.9149V10.9062Z" fill="#F3FF97"/>
<path d="M5.98315 11.5391L1.83789 15.693L5.98315 19.8382L10.1284 15.693L5.98315 11.5477V11.5391Z" fill="#030206"/>
<path d="M5.9837 11.6448L10.0249 15.686L5.9837 19.7272L1.94251 15.6946L5.9837 11.6534V11.6448ZM5.9837 11.4453L1.73438 15.6946L5.9837 19.944L10.233 15.6946L5.9837 11.4453Z" fill="#F3FF97"/>
<path d="M5.98315 12.0781L1.83789 16.2321L5.98315 20.3773L10.1284 16.2321L5.98315 12.0868V12.0781Z" fill="#030206"/>
<path d="M5.9837 12.1847L10.0249 16.2259L5.9837 20.2671L1.94251 16.2259L5.9837 12.1847ZM5.9837 11.9766L1.73438 16.2346L5.9837 20.4839L10.233 16.2346L5.9837 11.9852V11.9766Z" fill="#F3FF97"/>
<path d="M6.0094 12.6094L1.85547 16.7633L6.00073 20.9086L10.146 16.7633L6.00073 12.618L6.0094 12.6094Z" fill="#030206"/>
<path d="M6.00909 12.7151L10.0503 16.7563L6.00909 20.7975L1.9679 16.7649L6.00909 12.7238V12.7151ZM6.00909 12.5156L1.75977 16.7649L6.00909 21.0143L10.2584 16.7649L6.00909 12.5156Z" fill="#F3FF97"/>
<path d="M6.05346 13.1484L1.9082 17.2937L6.05346 21.439L10.1987 17.2937L6.05346 13.1484Z" fill="#030206"/>
<path d="M6.06268 13.2472L10.1039 17.2884L6.06268 21.3296L2.01282 17.2884L6.05401 13.2472H6.06268ZM6.06268 13.0391L1.80469 17.2884L6.05401 21.5377L10.3033 17.2884L6.05401 13.0391H6.06268Z" fill="#F3FF97"/>
<path d="M6.13049 13.6797L1.97656 17.8249L6.12182 21.9702L10.2671 17.8249L6.12182 13.6797H6.13049Z" fill="#030206"/>
<path d="M6.13018 13.7784L10.1714 17.8196L6.13018 21.8608L2.08032 17.8196L6.12151 13.7784H6.13018ZM6.13018 13.5703L1.88086 17.8196L6.13018 22.069L10.3795 17.8196L6.13018 13.5703Z" fill="#F3FF97"/>
<path d="M6.22729 14.2031L2.08203 18.3484L6.22729 22.4936L10.3725 18.3484L6.22729 14.2031Z" fill="#030206"/>
<path d="M6.22589 14.301L10.2671 18.3422L6.22589 22.3834L2.18469 18.3509L6.22589 14.301ZM6.22589 14.1016L1.97656 18.3509L6.22589 22.6002L10.4752 18.3509L6.22589 14.1016Z" fill="#F3FF97"/>
<path d="M6.34838 14.7266L2.20312 18.8805L6.34838 23.0257L10.4936 18.8805L6.34838 14.7352V14.7266Z" fill="#030206"/>
<path d="M6.34698 14.8323L10.3882 18.8735L6.34698 22.9147L2.29711 18.8735L6.33831 14.8323H6.34698ZM6.34698 14.6328L2.09766 18.8821L6.34698 23.1315L10.5963 18.8821L6.34698 14.6328Z" fill="#F3FF97"/>
<path d="M6.48705 15.2422L2.3418 19.3874L6.48705 23.5327L10.6323 19.3874L6.48705 15.2422Z" fill="#030206"/>
<path d="M6.4876 15.3488L10.5288 19.3899L6.4876 23.4398L2.44641 19.3986L6.4876 15.3488ZM6.4876 15.1406L2.23828 19.3986L6.4876 23.6479L10.7369 19.3986L6.4876 15.1493V15.1406Z" fill="#F3FF97"/>
<path d="M6.66088 15.7578L2.51562 19.9031L6.66088 24.0483L10.8061 19.9031L6.66088 15.7578Z" fill="#030206"/>
<path d="M6.65948 15.8557L10.7007 19.8969L6.65948 23.9381L2.60961 19.8969L6.65948 15.847V15.8557ZM6.65948 15.6562L2.41016 19.9056L6.65948 24.1549L10.9088 19.9056L6.65948 15.6562Z" fill="#F3FF97"/>
<path d="M6.8601 16.2578L2.71484 20.4031L6.8601 24.5483L11.0054 20.4031L6.8601 16.2578Z" fill="#030206"/>
<path d="M6.8587 16.3644L10.8999 20.4056L6.8587 24.4468L2.80883 20.4056L6.8587 16.3644ZM6.8587 16.1562L2.60938 20.4056L6.8587 24.6549L11.108 20.4056L6.8587 16.1562Z" fill="#F3FF97"/>
<path d="M7.0769 16.7656L2.93164 20.9109L7.0769 25.0561L11.2222 20.9109L7.0769 16.7656Z" fill="#030206"/>
<path d="M7.07549 16.8557L11.1167 20.8969L7.07549 24.9381L3.0343 20.8969L7.07549 16.8557ZM7.07549 16.6562L2.82617 20.9056L7.07549 25.1549L11.3248 20.9056L7.07549 16.6562Z" fill="#F3FF97"/>
<path d="M7.31127 17.25L3.16602 21.3953L7.31127 25.5405L11.4565 21.3953L7.31127 17.25Z" fill="#030206"/>
<path d="M7.30987 17.3566L11.3511 21.3978L7.30987 25.439L3.26868 21.3978L7.30987 17.3566ZM7.30987 17.1484L3.06055 21.3978L7.30987 25.6471L11.5592 21.3978L7.30987 17.1484Z" fill="#F3FF97"/>
<path d="M7.57885 17.7266L3.43359 21.8718L7.57885 26.0171L11.7241 21.8718L7.57885 17.7266Z" fill="#030206"/>
<path d="M7.5794 17.8323L11.6206 21.8735L7.5794 25.9147L3.53821 21.8735L7.5794 17.8323ZM7.5794 17.6328L3.33008 21.8821L7.5794 26.1315L11.8287 21.8821L7.5794 17.6328Z" fill="#F3FF97"/>
<path d="M7.87377 18.2031L3.72852 22.3484L7.87377 26.4936L12.019 22.3484L7.87377 18.2031Z" fill="#030206"/>
<path d="M7.87432 18.301L11.9155 22.3422L7.87432 26.3834L3.83313 22.3422L7.87432 18.301ZM7.87432 18.1016L3.625 22.3509L7.87432 26.6002L12.1236 22.3509L7.87432 18.1016Z" fill="#F3FF97"/>
<path d="M8.18627 18.6562L4.04102 22.8015L8.18627 26.9468L12.3315 22.8015L8.18627 18.6562Z" fill="#030206"/>
<path d="M8.18682 18.7541L12.228 22.7953L8.18682 26.8452L4.14563 22.804L8.18682 18.7541ZM8.18682 18.5547L3.9375 22.804L8.18682 27.0533L12.4361 22.804L8.18682 18.5547Z" fill="#F3FF97"/>
<path d="M8.52416 19.1016L4.37891 23.2468L8.52416 27.3921L12.6694 23.2468L8.52416 19.1016Z" fill="#030206"/>
<path d="M8.52471 19.2081L12.5659 23.2493L8.52471 27.2905L4.48352 23.2493L8.52471 19.2081ZM8.52471 19L4.27539 23.2493L8.52471 27.4986L12.774 23.2493L8.52471 19Z" fill="#F3FF97"/>
<path d="M8.8894 19.5391L4.74414 23.6843L8.8894 27.8296L13.0347 23.6843L8.8894 19.5391Z" fill="#030206"/>
<path d="M8.88799 19.6456L12.9292 23.6868L8.88799 27.728L4.8468 23.6868L8.88799 19.6456ZM8.88799 19.4375L4.63867 23.6868L8.88799 27.9361L13.1373 23.6868L8.88799 19.4375Z" fill="#F3FF97"/>
<path d="M9.27026 19.9531L5.125 24.0984L9.27026 28.2436L13.4155 24.0984L9.27026 19.9531Z" fill="#030206"/>
<path d="M9.27862 20.0588L13.3198 24.1L9.27862 28.1499L5.23743 24.1087L9.27862 20.0588ZM9.27862 19.8594L5.0293 24.1087L9.27862 28.358L13.5279 24.1087L9.27862 19.8594Z" fill="#F3FF97"/>
<path d="M9.68627 20.3594L5.54102 24.5046L9.68627 28.6499L13.8315 24.5046L9.68627 20.3594Z" fill="#030206"/>
<path d="M9.68682 20.4659L13.728 24.5071L9.68682 28.557L5.64563 24.5158L9.68682 20.4659ZM9.68682 20.2578L5.4375 24.5071L9.68682 28.7565L13.9361 24.5071L9.68682 20.2578Z" fill="#F3FF97"/>
<path d="M10.1121 20.7344L5.9668 24.8796L10.1121 29.0249L14.2573 24.8796L10.1121 20.7344Z" fill="#030206"/>
<path d="M10.1107 20.8488L14.1518 24.8899L10.1107 28.9311L6.06946 24.8899L10.1107 20.8488ZM10.1107 20.6406L5.86133 24.8899L10.1107 29.1393L14.36 24.8899L10.1107 20.6406Z" fill="#F3FF97"/>
<path d="M10.5535 21.0938L6.4082 25.239L10.5535 29.3843L14.6987 25.239L10.5535 21.0938Z" fill="#030206"/>
<path d="M10.554 21.1916L14.5952 25.2328L10.554 29.2827L6.51282 25.2415L10.554 21.1916ZM10.554 20.9922L6.30469 25.2415L10.554 29.4908L14.8033 25.2415L10.554 20.9922Z" fill="#F3FF97"/>
<path d="M10.9968 21.4297L6.85156 25.5749L10.9968 29.7202L15.1421 25.5749L10.9968 21.4297Z" fill="#030206"/>
<path d="M10.9954 21.5276L15.0366 25.5688L10.9954 29.61L6.95422 25.5688L10.9954 21.5276ZM10.9954 21.3281L6.74609 25.5774L10.9954 29.8268L15.2447 25.5774L10.9867 21.3281H10.9954Z" fill="#F3FF97"/>
<path d="M11.4636 21.7344L7.31836 25.8796L11.4636 30.0249L15.6089 25.8796L11.4636 21.7344Z" fill="#030206"/>
<path d="M11.4642 21.8401L15.5054 25.8813L11.4642 29.9311L7.42297 25.8899L11.4642 21.8401ZM11.4642 21.6406L7.21484 25.8899L11.4642 30.1393L15.7135 25.8899L11.4642 21.6406Z" fill="#F3FF97"/>
<path d="M11.9324 22.0156L7.78711 26.1609L11.9324 30.3061L16.0776 26.1609L11.9324 22.0156Z" fill="#030206"/>
<path d="M11.9329 22.1222L15.9741 26.1634L11.9329 30.2046L7.89172 26.1634L11.9329 22.1222ZM11.9329 21.9141L7.68359 26.1634L11.9329 30.4127L16.1822 26.1634L11.9329 21.9141Z" fill="#F3FF97"/>
<path d="M12.4187 22.2812L8.27344 26.4265L12.4187 30.5718L16.564 26.4265L12.4187 22.2812Z" fill="#030206"/>
<path d="M12.4192 22.3713L16.4691 26.4212L12.4279 30.4624L8.37805 26.4212L12.4192 22.3713ZM12.4192 22.1719L8.16992 26.4212L12.4192 30.6705L16.6686 26.4212L12.4106 22.1719H12.4192Z" fill="#F3FF97"/>
<path d="M12.9128 22.5078L8.76758 26.6531L12.9128 30.7983L17.0581 26.6531L12.9128 22.5078Z" fill="#030206"/>
<path d="M12.9134 22.6057L16.9546 26.6469L12.9134 30.6968L8.87219 26.6556L12.9134 22.6057ZM12.9134 22.4062L8.66406 26.6556L12.9134 30.9049L17.1627 26.6556L12.9134 22.4062Z" fill="#F3FF97"/>
<path d="M13.407 22.7109L9.26172 26.8562L13.407 31.0015L17.5522 26.8562L13.407 22.7109Z" fill="#030206"/>
<path d="M13.4153 22.8253L17.4565 26.8665L13.4153 30.9077L9.37415 26.8665L13.4153 22.8253ZM13.4153 22.6172L9.16602 26.8665L13.4153 31.1158L17.6647 26.8665L13.4153 22.6172Z" fill="#F3FF97"/>
<path d="M13.9187 22.9062L9.77344 27.0515L13.9187 31.1968L18.064 27.0515L13.9187 22.9062Z" fill="#030206"/>
<path d="M13.9192 23.005L17.9604 27.0462L13.9192 31.0961L9.87805 27.0549L13.9192 23.005ZM13.9192 22.7969L9.66992 27.0462L13.9192 31.2955L18.1686 27.0462L13.9192 22.7969Z" fill="#F3FF97"/>
<path d="M14.4304 23.0703L10.2852 27.2156L14.4304 31.3608L18.5757 27.2156L14.4304 23.0703Z" fill="#030206"/>
<path d="M14.431 23.1604L18.4722 27.2016L14.431 31.2428L10.3898 27.2016L14.431 23.1604ZM14.431 22.9609L10.1816 27.2103L14.431 31.4596L18.6803 27.2103L14.431 22.9609Z" fill="#F3FF97"/>
<path d="M14.9499 23.2031L10.8047 27.3484L14.9499 31.4936L19.0952 27.3484L14.9499 23.2031Z" fill="#030206"/>
<path d="M14.9505 23.301L18.9917 27.3422L14.9505 31.3834L10.9093 27.3422L14.9505 23.301ZM14.9505 23.1016L10.7012 27.3509L14.9505 31.6002L19.1998 27.3509L14.9505 23.1016Z" fill="#F3FF97"/>
<path d="M15.4714 23.3203L11.3262 27.4656L15.4714 31.6108L19.6167 27.4656L15.4714 23.3203Z" fill="#030206"/>
<path d="M15.472 23.4113L19.5132 27.4524L15.472 31.4936L11.4308 27.4524L15.472 23.4113ZM15.472 23.2031L11.2227 27.4524L15.472 31.7018L19.7213 27.4524L15.472 23.2031Z" fill="#F3FF97"/>
<path d="M16.0085 23.4062L11.8633 27.5515L16.0085 31.6968L20.1538 27.5515L16.0085 23.4062Z" fill="#030206"/>
<path d="M15.9993 23.5041L20.0405 27.5453L15.9993 31.5865L11.9581 27.5453L15.9993 23.5041ZM15.9993 23.3047L11.75 27.554L15.9993 31.8033L20.2486 27.554L15.9993 23.3047Z" fill="#F3FF97"/>
<path d="M16.5378 23.4688L12.3926 27.614L16.5378 31.7593L20.6831 27.614L16.5378 23.4688Z" fill="#030206"/>
<path d="M16.5384 23.5675L20.5796 27.6087L16.5384 31.6586L12.4972 27.6174L16.5384 23.5675ZM16.5384 23.3594L12.2891 27.6087L16.5384 31.858L20.7877 27.6087L16.5384 23.3594Z" fill="#F3FF97"/>
<path d="M17.0671 23.5078L12.9219 27.6531L17.0671 31.7983L21.2124 27.6531L17.0671 23.5078Z" fill="#030206"/>
<path d="M17.0677 23.6057L21.1089 27.6469L17.0677 31.6881L13.0265 27.6469L17.0677 23.6057ZM17.0677 23.4062L12.8184 27.6556L17.0677 31.9049L21.317 27.6556L17.0677 23.4062Z" fill="#F3FF97"/>
<path d="M17.6042 23.5234L13.459 27.6687L17.6042 31.814L21.7495 27.6687L17.6042 23.5234Z" fill="#030206"/>
<path d="M17.6048 23.6213L21.646 27.6625L17.6048 31.7037L13.5636 27.6625L17.6048 23.6127V23.6213ZM17.6048 23.4219L13.3555 27.6712L17.6048 31.9205L21.8541 27.6712L17.6048 23.4219Z" fill="#F3FF97"/>
<path d="M18.1335 23.5078L13.9883 27.6531L18.1335 31.7983L22.2788 27.6531L18.1335 23.5078Z" fill="#030206"/>
<path d="M18.1419 23.6222L22.1831 27.6634L18.1419 31.7133L14.1007 27.6721L18.1419 23.6222ZM18.1419 23.4141L13.8926 27.6634L18.1419 31.9127L22.3912 27.6634L18.1419 23.4141Z" fill="#F3FF97"/>
<path d="M18.6706 23.4844L14.5254 27.6296L18.6706 31.7749L22.8159 27.6296L18.6706 23.4844Z" fill="#030206"/>
<path d="M18.6712 23.5909L22.7124 27.6321L18.6712 31.6733L14.63 27.6321L18.6712 23.5909ZM18.6712 23.3828L14.4219 27.6321L18.6712 31.8815L22.9205 27.6321L18.6712 23.3828Z" fill="#F3FF97"/>
<path d="M19.1999 23.4297L15.0547 27.5749L19.1999 31.7202L23.3452 27.5749L19.1999 23.4297Z" fill="#030206"/>
<path d="M19.2005 23.5276L23.2417 27.5774L19.2005 31.6186L15.1593 27.5774L19.2005 23.5276ZM19.2005 23.3281L14.9512 27.5774L19.2005 31.8268L23.4498 27.5774L19.2005 23.3281Z" fill="#F3FF97"/>
<path d="M19.7292 23.3438L15.584 27.489L19.7292 31.6343L23.8745 27.489L19.7292 23.3438Z" fill="#030206"/>
<path d="M19.7298 23.4503L23.771 27.4915L19.7298 31.5327L15.6886 27.4915L19.7298 23.4503ZM19.7298 23.2422L15.4805 27.4915L19.7298 31.7408L23.9791 27.4915L19.7298 23.2422Z" fill="#F3FF97"/>
<path d="M20.2585 23.2422L16.1133 27.3874L20.2585 31.5327L24.4038 27.3874L20.2585 23.2422Z" fill="#030206"/>
<path d="M20.2571 23.3488L24.2983 27.3899L20.2571 31.4311L16.2159 27.3899L20.2571 23.3488ZM20.2571 23.1406L16.0078 27.3899L20.2571 31.6393L24.5065 27.3899L20.2571 23.1406Z" fill="#F3FF97"/>
<path d="M20.7781 23.1094L16.6328 27.2546L20.7781 31.3999L24.9233 27.2546L20.7781 23.1094Z" fill="#030206"/>
<path d="M20.7786 23.2159L24.8198 27.2571L20.7786 31.2983L16.7374 27.2571L20.7786 23.2159ZM20.7786 23.0078L16.5293 27.2571L20.7786 31.5065L25.0279 27.2571L20.7786 23.0078Z" fill="#F3FF97"/>
<path d="M21.2898 22.9531L17.1445 27.0984L21.2898 31.2436L25.435 27.0984L21.2898 22.9531Z" fill="#030206"/>
<path d="M21.2982 23.0588L25.3393 27.1L21.2982 31.1412L17.257 27.1L21.2982 23.0588ZM21.2982 22.8594L17.0488 27.1087L21.2982 31.358L25.5475 27.1087L21.2982 22.8594Z" fill="#F3FF97"/>
<path d="M21.8015 22.7812L17.6562 26.9265L21.8015 31.0718L25.9468 26.9265L21.8015 22.7812Z" fill="#030206"/>
<path d="M21.8021 22.8878L25.8432 26.929L21.8021 30.9789L17.7609 26.9377L21.8021 22.8878ZM21.8021 22.6797L17.5527 26.929L21.8021 31.1783L26.0514 26.929L21.8021 22.6797Z" fill="#F3FF97"/>
<path d="M22.3132 22.5781L18.168 26.7234L22.3132 30.8686L26.4585 26.7234L22.3132 22.5781Z" fill="#030206"/>
<path d="M22.3138 22.676L26.355 26.7172L22.3138 30.7584L18.2726 26.7172L22.3138 22.676ZM22.3138 22.4766L18.0645 26.7259L22.3138 30.9752L26.5631 26.7259L22.3138 22.4766Z" fill="#F3FF97"/>
<path d="M22.8074 22.3594L18.6621 26.5046L22.8074 30.6499L26.9526 26.5046L22.8074 22.3594Z" fill="#030206"/>
<path d="M22.8079 22.4495L26.8491 26.4906L22.8079 30.5318L18.7667 26.4906L22.8079 22.4495ZM22.8079 22.25L18.5586 26.4993L22.8079 30.7486L27.0572 26.4993L22.8079 22.25Z" fill="#F3FF97"/>
<path d="M23.2937 22.1016L19.1484 26.2468L23.2937 30.3921L27.439 26.2468L23.2937 22.1016Z" fill="#030206"/>
<path d="M23.2923 22.2081L27.3335 26.2493L23.2923 30.2905L19.2511 26.2493L23.2923 22.2081ZM23.2923 22L19.043 26.2493L23.2923 30.4986L27.5416 26.2493L23.2923 22Z" fill="#F3FF97"/>
<path d="M23.7703 21.8281L19.625 25.9734L23.7703 30.1186L27.9155 25.9734L23.7703 21.8281Z" fill="#030206"/>
<path d="M23.7708 21.9338L27.812 25.975L23.7708 30.0162L19.7296 25.975L23.7708 21.9338ZM23.7708 21.7344L19.5215 25.9837L23.7708 30.233L28.0201 25.9837L23.7708 21.7344Z" fill="#F3FF97"/>
<path d="M24.2292 21.5312L20.084 25.6765L24.2292 29.8218L28.3745 25.6765L24.2292 21.5312Z" fill="#030206"/>
<path d="M24.2298 21.6378L28.271 25.679L24.2298 29.7202L20.1886 25.679L24.2298 21.6378ZM24.2298 21.4297L19.9805 25.679L24.2298 29.9283L28.4791 25.679L24.2298 21.4297Z" fill="#F3FF97"/>
<path d="M24.6804 21.2109L20.5352 25.3562L24.6804 29.5015L28.8257 25.3562L24.6804 21.2109Z" fill="#030206"/>
<path d="M24.681 21.3088L28.7222 25.35L24.681 29.3999L20.6398 25.3587L24.681 21.3088ZM24.681 21.1094L20.4316 25.3587L24.681 29.608L28.9303 25.3587L24.681 21.1094Z" fill="#F3FF97"/>
<path d="M25.1238 20.8672L20.9785 25.0124L25.1238 29.1577L29.269 25.0124L25.1238 20.8672Z" fill="#030206"/>
<path d="M25.1321 20.9573L29.1733 24.9985L25.1321 29.0397L21.0909 24.9985L25.1321 20.9573ZM25.1321 20.7578L20.8828 25.0071L25.1321 29.2565L29.3815 25.0071L25.1321 20.7578Z" fill="#F3FF97"/>
<path d="M25.5574 20.4922L21.4121 24.6374L25.5574 28.7827L29.7026 24.6374L25.5574 20.4922Z" fill="#030206"/>
<path d="M25.556 20.5988L29.5972 24.6399L25.556 28.6811L21.5148 24.6399L25.556 20.5988ZM25.556 20.3906L21.3066 24.6399L25.556 28.8893L29.8053 24.6399L25.556 20.3906Z" fill="#F3FF97"/>
<path d="M25.9734 20.0938L21.8281 24.239L25.9734 28.3843L30.1186 24.239L25.9734 20.0938Z" fill="#030206"/>
<path d="M25.972 20.2003L30.0132 24.2415L25.972 28.2827L21.9308 24.2415L25.972 20.2003ZM25.972 19.9922L21.7227 24.2415L25.972 28.4908L30.2213 24.2415L25.972 19.9922Z" fill="#F3FF97"/>
</svg>
