<svg width="32" height="32" viewBox="0 0 32 32" fill="none" xmlns="http://www.w3.org/2000/svg">
<path d="M16 32C24.8366 32 32 24.8366 32 16C32 7.16344 24.8366 0 16 0C7.16344 0 0 7.16344 0 16C0 24.8366 7.16344 32 16 32Z" fill="#28D358"/>
<path d="M25.8356 28.6178V23.7498L25.7442 23.7224C25.7197 23.715 25.6945 23.7084 25.6712 23.7025C25.6471 23.6963 25.6254 23.6906 25.6044 23.6847L25.5088 23.6573L25.4584 23.743C23.5299 27.0318 20.3897 29.1188 15.8757 29.1188C8.6994 29.1188 2.87891 23.1887 2.87891 15.8719C2.87891 8.55508 8.6994 2.625 15.8757 2.625C22.3213 2.625 27.8231 7.40856 28.8506 13.6812H25.5437C24.5679 9.16856 20.6363 5.89667 15.8757 5.89667C10.3719 5.89667 5.97502 10.2658 5.97502 15.8719C5.97502 21.4794 10.3711 25.7682 15.8735 25.7682C20.8171 25.7682 24.775 22.3072 25.5472 17.5405H28.8704V25.5046C28.0044 26.6748 26.9826 27.7226 25.8356 28.6178Z" fill="white"/>
<path d="M12.384 16.44C13.8366 16.44 15.0142 15.2624 15.0142 13.8098C15.0142 12.3572 13.8366 11.1797 12.384 11.1797C10.9315 11.1797 9.75391 12.3572 9.75391 13.8098C9.75391 15.2624 10.9315 16.44 12.384 16.44Z" fill="white"/>
<path d="M19.3977 16.44C20.8503 16.44 22.0279 15.2624 22.0279 13.8098C22.0279 12.3572 20.8503 11.1797 19.3977 11.1797C17.9451 11.1797 16.7676 12.3572 16.7676 13.8098C16.7676 15.2624 17.9451 16.44 19.3977 16.44Z" fill="white"/>
</svg>
