<svg width="33" height="32" viewBox="0 0 33 32" fill="none" xmlns="http://www.w3.org/2000/svg">
<path fill-rule="evenodd" clip-rule="evenodd" d="M27.4155 23.1698L25.0617 20.8199L16.0015 29.8653L0.421875 14.3109L5.4283 9.31264L7.78206 11.6626L16.8422 2.61719L32.4219 18.1715L27.4155 23.1698ZM10.1358 21.025L3.41078 14.3109L5.4283 12.2967L7.78206 14.6466L16.8422 5.60123L21.2135 9.9654L19.1959 11.9797L16.8422 9.62972L9.79954 16.6609L12.1533 19.0108L10.1358 21.025ZM11.6303 22.517L16.0015 26.8812L25.0617 17.8359L27.4155 20.1858L29.433 18.1715L22.7079 11.4574L20.6904 13.4717L23.0441 15.8216L16.0015 22.8528L13.6477 20.5029L11.6303 22.517ZM16.0015 19.8687L12.7885 16.6609L16.8422 12.6138L20.0553 15.8216L16.0015 19.8687Z" fill="black"/>
</svg>
