<svg width="32" height="32" viewBox="0 0 32 32" fill="none" xmlns="http://www.w3.org/2000/svg">
<path d="M29.0581 8.44867V6.28683H26.8817V4.125H22.529V6.28683H18.1763V4.125H13.8237V6.28683H9.47102V4.125H5.11831V6.28683H2.94196V8.44867H0.765625V27.9052H31.2344V8.44867H29.0581Z" fill="#371D70"/>
<path d="M26.8826 8.45089V6.28906H24.7062V8.45089H22.5299V10.6127H20.3536V8.45089H18.1772V6.28906H16.0009V8.45089H13.8245V10.6127H11.6482V8.45089H9.47178V6.28906H7.29549V8.45089H5.11914V25.7455H29.0588V8.45089H26.8826Z" fill="#CBBBFB"/>
<path d="M7.29297 10.615V23.586H26.88V8.45312H24.7037V10.615H22.5273V12.7767H20.351V10.615H18.1746V8.45312H15.9983V10.615H13.822V12.7767H11.6456V10.615H9.46934V8.45312H7.29297V10.615Z" fill="#9F7AF8"/>
<path d="M15.9987 21.4231H20.3512V19.2612H15.9987V17.0994H20.3512V14.9375H13.8223V21.4231H15.9987Z" fill="#371D70"/>
</svg>
