<svg width="32" height="32" viewBox="0 0 32 32" fill="none" xmlns="http://www.w3.org/2000/svg">
<g clip-path="url(#clip0_2056_486)">
<path d="M32 0H0V32H32V0Z" fill="#2973FF"/>
<path opacity="0.8" d="M9.38477 18.8734V23.5303C9.38477 23.8171 9.62739 23.9361 9.70288 23.9631C9.77837 23.9956 10.0318 24.0659 10.2582 23.855L13.7813 20.4692C14.0814 20.1811 14.3709 19.8779 14.5885 19.5233C14.6909 19.3566 14.7334 19.2628 14.7334 19.2628C14.9491 18.8246 14.9491 18.4027 14.7387 17.9809C14.4261 17.3534 13.6281 16.7151 12.4257 16.1094L10.3715 17.2561C9.76221 17.6022 9.38477 18.2134 9.38477 18.8734Z" fill="white"/>
<path d="M7.35938 8.51386V13.3982C7.35938 14.0094 7.76915 14.5503 8.35147 14.7233C10.3356 15.2967 13.7917 16.5299 14.6275 18.3419C14.7352 18.58 14.7999 18.8124 14.8216 19.056C15.377 18.0444 15.6304 16.8816 15.5117 15.7024C15.3499 14.031 14.4656 12.5111 13.0854 11.5429L8.16275 8.09736C8.07648 8.03245 7.97403 8 7.8716 8C7.78531 8 7.70984 8.01622 7.62896 8.0595C7.4672 8.15146 7.35938 8.31914 7.35938 8.51386Z" fill="white"/>
<path opacity="0.8" d="M22.4896 18.8734V23.5303C22.4896 23.8171 22.247 23.9361 22.1714 23.9631C22.096 23.9956 21.8424 24.0659 21.6162 23.855L18.011 20.3905C17.7656 20.1547 17.5312 19.9052 17.3464 19.6193C17.2 19.3931 17.141 19.2628 17.141 19.2628C16.9253 18.8246 16.9253 18.4027 17.1355 17.9809C17.4483 17.3534 18.2462 16.7151 19.4485 16.1094L21.5029 17.2561C22.1176 17.6022 22.4896 18.2134 22.4896 18.8734Z" fill="white"/>
<path d="M24.519 8.51386V13.3981C24.519 14.0094 24.1091 14.5503 23.5267 14.7233C21.5427 15.2967 18.0865 16.5299 17.2508 18.3419C17.1428 18.58 17.0782 18.8125 17.0566 19.056C16.5014 18.0445 16.248 16.8816 16.3665 15.7024C16.5281 14.031 17.4124 12.5111 18.7929 11.5429L23.7156 8.09736C23.8019 8.03245 23.9043 8 24.0067 8C24.0929 8 24.1684 8.01622 24.2492 8.0595C24.411 8.15146 24.519 8.31914 24.519 8.51386Z" fill="white"/>
</g>
<defs>
<clipPath id="clip0_2056_486">
<rect width="32" height="32" fill="white"/>
</clipPath>
</defs>
</svg>
