<svg width="32" height="32" viewBox="0 0 32 32" fill="none" xmlns="http://www.w3.org/2000/svg">
<g clip-path="url(#clip0_2062_539)">
<path d="M31.942 5.91834C31.8949 5.8458 31.8244 5.79674 31.7431 5.77967L30.9646 5.61327C30.8127 5.61327 30.6929 5.71567 30.6737 5.85647L28.6632 16.4143C28.6247 16.5487 28.4086 16.5231 28.4193 16.3759V16.3717L29.0375 5.63674C29.0375 5.48314 28.9241 5.3594 28.7787 5.3466C28.7123 5.33807 28.6375 5.33594 28.5541 5.33594C28.4086 5.33594 28.291 5.44687 28.2782 5.59194L27.2088 17.9951C27.2002 18.1509 26.9885 18.1423 26.9735 18.0015L26.2976 5.75194C26.2869 5.6218 26.1821 5.52367 26.011 5.52367C26.0067 5.52367 25.8463 5.54927 25.8463 5.54927C25.7265 5.56207 25.6346 5.66874 25.6346 5.79674L25.8356 18.8997C25.8314 19.0447 25.6239 19.0618 25.5982 18.9125L23.423 6.55834C23.4038 6.41967 23.2883 6.3194 23.1492 6.3194C23.115 6.3194 23.0808 6.3258 23.0102 6.35567C22.8776 6.409 22.807 6.5306 22.8305 6.65007L24.4903 19.5333C24.501 19.6783 24.2957 19.7189 24.2529 19.5802L20.5185 8.06874C20.4757 7.95994 20.3773 7.89167 20.264 7.89167C20.2083 7.89167 20.1549 7.90874 20.1121 7.94074C20.0351 7.99194 19.9945 8.07087 20.0051 8.22874L23.0509 19.7594C23.0808 19.8959 22.8926 19.9642 22.822 19.8341L22.8156 19.8213L18.0139 10.2362C17.9754 10.1594 17.9006 10.1125 17.8171 10.1125C17.753 10.1125 17.691 10.1402 17.6524 10.185C17.6118 10.2234 17.5904 10.2789 17.5904 10.3365C17.5904 10.3493 17.6011 10.4133 17.6054 10.4239L21.6371 19.6485C21.6991 19.7807 21.513 19.8853 21.4254 19.7637L21.4125 19.7445L16.2879 12.6234C16.2472 12.5743 16.1895 12.5466 16.1296 12.5466C16.1125 12.5466 16.0269 12.5807 16.0119 12.5893C15.9649 12.6213 15.9393 12.6725 15.9393 12.7322C15.9393 12.7493 15.9606 12.8261 15.9713 12.841L19.8533 18.7397C19.9324 18.8634 19.7656 18.9957 19.6587 18.889C19.6587 18.889 7.51006 6.66287 7.50366 6.66287C7.50366 6.66287 7.50366 6.66287 7.50366 6.665C7.07588 6.25754 6.51763 6.03354 5.93159 6.03354C4.90284 6.03354 4.02804 6.73967 3.80347 7.75087L0.00489117 25.8479C-0.0122196 25.9311 0.00275232 26.0165 0.0498068 26.0869C0.0968614 26.1594 0.167443 26.2085 0.250857 26.2255L1.02939 26.3919C1.17911 26.3919 1.29889 26.2895 1.32027 26.1487L3.32864 15.5951C3.36501 15.4543 3.5853 15.4799 3.57675 15.6314L2.95863 26.3706C2.95863 26.5242 3.07198 26.6479 3.21956 26.6607C3.27517 26.6693 3.33934 26.6693 3.39495 26.6693C3.4035 26.6693 3.43986 26.6693 3.44414 26.6693C3.58745 26.6693 3.70722 26.5583 3.72005 26.4133L4.78947 14.0122C4.79803 13.8522 5.01833 13.8607 5.029 14.0122L5.70061 26.2554C5.71132 26.3855 5.8161 26.4837 5.9872 26.4837C5.99152 26.4837 6.15191 26.4581 6.15191 26.4581C6.27166 26.4453 6.36364 26.3386 6.36364 26.2106L6.16049 13.1119C6.16049 12.9605 6.37222 12.9434 6.4 13.0927L8.57523 25.4469C8.59448 25.5855 8.70997 25.6858 8.84897 25.6858C8.8832 25.6858 8.91743 25.6794 8.98803 25.6495C9.1185 25.5983 9.19118 25.4767 9.16766 25.3551L7.5058 12.4783C7.48868 12.329 7.70042 12.2842 7.74536 12.425V12.4293L11.4798 23.9343C11.5225 24.0431 11.6209 24.1135 11.7343 24.1135C11.7899 24.1135 11.8433 24.0965 11.8861 24.0645C11.9632 24.0133 12.0038 23.9343 11.9931 23.7743L8.94735 12.2479C8.91099 12.105 9.10565 12.0346 9.17625 12.1669L13.9822 21.7647C14.0207 21.8394 14.0956 21.8863 14.179 21.8863C14.2432 21.8863 14.3052 21.8586 14.3437 21.8138C14.3822 21.7754 14.4057 21.7199 14.4057 21.6623C14.4057 21.6495 14.395 21.5855 14.3907 21.5749L10.359 12.3503C10.297 12.2181 10.4831 12.1135 10.5708 12.2351L10.5814 12.2501L15.7082 19.3754C15.7489 19.4245 15.8066 19.4522 15.8665 19.4522C15.8836 19.4522 15.9692 19.4181 15.982 19.4095C16.0312 19.3775 16.0569 19.3263 16.0569 19.2645C16.0569 19.2474 16.0355 19.1706 16.0248 19.1557L12.1428 13.257C12.0637 13.1333 12.2305 13.0031 12.3353 13.1055C23.9641 24.6981 24.4817 25.3317 24.4924 25.3317C24.4924 25.3317 24.4924 25.3317 24.4924 25.3295C24.9202 25.737 25.4785 25.961 26.0645 25.961C27.0911 25.961 27.9659 25.2549 28.1926 24.2437L31.9912 6.15087C32.0083 6.06767 31.9934 5.98234 31.9463 5.91194L31.942 5.91834Z" fill="black"/>
</g>
<defs>
<clipPath id="clip0_2062_539">
<rect width="32" height="32" fill="white"/>
</clipPath>
</defs>
</svg>
