<svg width="32" height="32" viewBox="0 0 32 32" fill="none" xmlns="http://www.w3.org/2000/svg">
<path d="M15.3956 0.617188C6.89207 0.617188 0 7.50434 0 16.0018C0 24.4993 6.89207 31.3864 15.3956 31.3864C23.8992 31.3864 30.7913 24.4993 30.7913 16.0018C30.7913 7.50434 23.8992 0.617188 15.3956 0.617188ZM15.3956 28.5489C8.47105 28.5489 2.83957 22.9192 2.83957 16.0018C2.83957 9.08435 8.47105 3.45473 15.3956 3.45473C22.3201 3.45473 27.9516 9.08435 27.9516 16.0018C27.9516 22.9192 22.318 28.5489 15.3956 28.5489Z" fill="black"/>
<path d="M16.8405 14.5547H13.9512V17.4421H16.8405V14.5547Z" fill="black"/>
<path d="M16.8405 10H13.9512V12.8873H16.8405V10Z" fill="black"/>
<path d="M16.8405 5.44531H13.9512V8.33264H16.8405V5.44531Z" fill="black"/>
</svg>
