<svg width="32" height="32" viewBox="0 0 32 32" fill="none" xmlns="http://www.w3.org/2000/svg">
<g clip-path="url(#clip0_2052_349)">
<path d="M27.9055 17.2509C26.4042 16.5351 24.5012 16.919 23.6238 18.3067C22.6802 19.7943 23.4718 22.0097 25.1407 22.3137L25.1875 22.1617C23.9904 21.6818 23.4445 19.9103 24.392 18.8905C25.8816 17.3189 28.584 18.5266 28.584 21.078C28.584 24.1773 25.866 26.6006 22.8206 26.3647C17.1272 25.9168 15.0137 19.4744 11.9292 16.0073C13.0678 16.4912 14.3858 16.8351 16.0588 16.8351C21.791 16.8351 23.3742 12.8121 27.7924 12.8121V12.7321C24.357 12.7321 22.5437 7.60938 16.0588 7.60938C9.57383 7.60938 7.7606 12.7321 4.32513 12.7321V12.8121C6.1228 12.8121 8.26751 13.7398 8.26751 15.7833C8.26751 17.2149 7.40184 18.9185 3.7207 18.9185V18.9985C6.80132 18.9985 9.72207 22.3897 9.72207 26.5966H9.80007V14.8876C9.84687 14.9156 9.89751 14.9475 9.94823 14.9755C13.3135 18.1307 13.9882 26.4646 21.3738 28.3721C27.2465 29.8878 31.6061 24.1813 29.9644 19.6624C29.5706 18.5706 28.857 17.7069 27.9016 17.2509H27.9055ZM5.3195 12.7561C8.52879 12.4041 9.86631 10.3847 13.3018 9.64086C13.0678 10.0888 12.9353 10.6006 12.9353 11.1405C12.9353 12.9081 14.3352 14.3437 16.0588 14.3437C17.7823 14.3437 19.1822 12.9081 19.1822 11.1405C19.1822 10.5966 19.0497 10.0888 18.8158 9.64086C22.2512 10.3847 23.5887 12.4041 26.798 12.7561C21.6038 12.9921 21.0696 15.0795 16.0588 15.0795C11.0479 15.0795 10.5098 12.9921 5.3195 12.7561Z" fill="black"/>
<path d="M27.7875 10.1793V10.0993C24.3521 10.0993 22.5388 4.97656 16.0539 4.97656C9.56906 4.97656 7.75578 10.0993 4.32031 10.0993V10.1793C9.11674 10.1793 9.92778 6.73212 16.0539 6.73212C22.1801 6.73212 22.9911 10.1793 27.7875 10.1793Z" fill="black"/>
<path d="M15.6019 0C6.99962 0 0 7.17821 0 16C0 24.8218 6.99962 32 15.6019 32C17.7155 32 19.7666 31.5721 21.6969 30.7323L21.6228 30.5484C19.985 31.1842 18.2614 31.5082 16.5027 31.5082C8.536 31.5082 2.05894 24.8618 2.05894 16.6958C2.05894 8.52984 8.53992 1.87953 16.5027 1.87953C24.4655 1.87953 30.9466 8.52584 30.9466 16.6918C30.9466 17.0318 30.931 17.3917 30.8998 17.8195L31.0947 17.8395C31.1649 17.2117 31.2 16.5918 31.2 16C31.2039 7.17821 24.2042 0 15.6019 0Z" fill="black"/>
</g>
<defs>
<clipPath id="clip0_2052_349">
<rect width="32" height="32" fill="white"/>
</clipPath>
</defs>
</svg>
