<svg width="33" height="33" viewBox="0 0 33 33" fill="none" xmlns="http://www.w3.org/2000/svg">
<g clip-path="url(#clip0_2059_504)">
<path d="M3.55078 7.21468C5.53326 4.52236 8.32871 2.51841 11.5364 1.49003C14.7441 0.461656 18.1994 0.461656 21.4071 1.49003L16.4718 16.4774L3.55078 7.21468Z" fill="#1E1E1E"/>
<path d="M2.24076 23.6333C1.28858 21.7894 0.713793 19.7785 0.549235 17.7154C0.384677 15.6523 0.633565 13.5775 1.28169 11.6094L16.4712 16.479L2.24076 23.6333Z" fill="#1E1E1E"/>
<path d="M23.7232 2.4375C27.4971 4.33539 30.3524 7.63476 31.6608 11.6098L16.4707 16.4777L23.7232 2.4375Z" fill="#1E1E1E"/>
<path d="M32.4419 16.4766C32.4419 18.9634 31.8453 21.415 30.7011 23.6308C29.5569 25.8466 27.8974 27.7638 25.8583 29.2255L16.4707 16.4766H32.4419Z" fill="#1E1E1E"/>
<path d="M21.4059 31.4639C18.1982 32.4922 14.7429 32.4922 11.5352 31.4639L16.4706 16.4766L21.4059 31.4639Z" fill="#1E1E1E"/>
<path d="M7.08412 29.2255C5.72825 28.2535 4.53587 27.077 3.55078 25.7392L16.4718 16.4766L7.08412 29.2255Z" fill="#1E1E1E"/>
</g>
<defs>
<clipPath id="clip0_2059_504">
<rect width="33" height="33" fill="white"/>
</clipPath>
</defs>
</svg>
