<svg width="32" height="32" viewBox="0 0 32 32" fill="none" xmlns="http://www.w3.org/2000/svg">
<g clip-path="url(#clip0_2053_469)">
<path d="M15.9807 17.4684C17.3013 16.6677 19.1848 15.56 20.6657 15.56C23.036 15.56 25.0177 17.238 25.0177 20.4259C25.0177 25.5112 18.972 30.1997 10.4289 28.1576C10.4006 28.1508 10.373 28.1723 10.373 28.2011V30.4877V30.766V30.9501C10.373 30.9688 10.3843 30.9851 10.4018 30.9919C11.5795 31.4323 12.8234 31.7377 14.1141 31.8891C24.1235 33.0657 32.7716 24.7168 31.9467 14.6725C31.7101 11.7924 30.7356 9.14383 29.1648 6.90347C29.1529 6.88652 29.1321 6.8758 29.1027 6.89104L15.9885 14.4709C14.498 15.3212 12.7839 16.3849 11.3057 16.3849C8.93548 16.3849 6.95371 14.7069 6.95371 11.5191C6.95371 6.43315 13.0001 1.7452 21.5432 3.78796C21.5715 3.79473 21.5985 3.77384 21.5985 3.74448V1.03775C21.5985 1.01912 21.5872 1.00218 21.5697 0.995969C19.8347 0.352316 17.9591 0 16.0004 0C7.16375 0 0 7.16319 0 15.9999C0 19.352 1.03154 22.4629 2.79368 25.0336C2.80723 25.0528 2.8332 25.0591 2.85353 25.0472L15.9807 17.4684Z" fill="#032322"/>
</g>
<defs>
<clipPath id="clip0_2053_469">
<rect width="32" height="32" fill="white"/>
</clipPath>
</defs>
</svg>
