<svg width="32" height="32" viewBox="0 0 32 32" fill="none" xmlns="http://www.w3.org/2000/svg">
<g clip-path="url(#clip0_2057_491)">
<path d="M15.9994 31.7958C24.7235 31.7958 31.7958 24.7235 31.7958 15.9994C31.7958 7.27538 24.7235 0.203125 15.9994 0.203125C7.27538 0.203125 0.203125 7.27538 0.203125 15.9994C0.203125 24.7235 7.27538 31.7958 15.9994 31.7958Z" fill="url(#paint0_linear_2057_491)" stroke="url(#paint1_linear_2057_491)" stroke-width="0.407359"/>
<path d="M10.0489 20.2396H7.82227C8.00403 23.7109 10.9123 26.7284 16.07 26.7284C21.205 26.7284 24.4768 23.9151 24.4768 20.285C24.4768 13.3879 14.0479 13.7736 14.0479 9.78053C14.0479 8.66885 14.8885 7.35291 16.8426 7.35291C19.0238 7.35291 21.5913 9.05453 21.7731 11.2325H23.977C23.7498 7.71592 20.3189 5.26562 15.9564 5.26562C11.4349 5.26562 8.02675 7.89743 8.02675 11.6182C8.02675 18.7196 18.4558 17.7894 18.4558 22.1681C18.4558 23.5294 17.6151 24.6638 15.502 24.6638C12.8663 24.6638 10.2079 22.8261 10.0489 20.2396ZM11.9121 10.3024C11.9121 15.702 22.2502 14.6357 22.2502 20.3984C22.2502 22.1228 21.1141 23.6428 19.7508 24.0285C20.228 23.5748 20.5915 22.5765 20.5915 21.6236C20.5915 16.292 10.2307 17.018 10.2307 11.5502C10.2307 9.71245 11.4122 8.23773 12.8891 7.78399C12.3211 8.46461 11.9121 9.34949 11.9121 10.3024Z" fill="white"/>
</g>
<defs>
<linearGradient id="paint0_linear_2057_491" x1="15.9994" y1="-0.000554994" x2="15.9994" y2="31.9994" gradientUnits="userSpaceOnUse">
<stop stop-color="#02C2A1"/>
<stop offset="1" stop-color="#9FDE88"/>
</linearGradient>
<linearGradient id="paint1_linear_2057_491" x1="15.9994" y1="-0.000554994" x2="15.9994" y2="31.9994" gradientUnits="userSpaceOnUse">
<stop stop-color="#9FDE88"/>
<stop offset="1" stop-color="#02C2A1"/>
</linearGradient>
<clipPath id="clip0_2057_491">
<rect width="32" height="32" fill="white"/>
</clipPath>
</defs>
</svg>
