<svg width="32" height="32" viewBox="0 0 32 32" fill="none" xmlns="http://www.w3.org/2000/svg">
<g clip-path="url(#clip0_2052_363)">
<path d="M16.0002 0.601562H16.0009C24.5031 0.601562 31.3956 7.49405 31.3956 15.9964V15.997C31.3956 24.4992 24.5031 31.3918 16.0009 31.3918H16.0002C7.49795 31.3918 0.605469 24.4992 0.605469 15.997V15.9964C0.605469 7.49405 7.49795 0.601562 16.0002 0.601562Z" fill="white" stroke="#111111" stroke-width="0.567125"/>
<path d="M16.0012 0.320312H16.0006C7.3417 0.320312 0.322266 7.33975 0.322266 15.9987V15.9993C0.322266 24.6582 7.3417 31.6776 16.0006 31.6776H16.0012C24.6601 31.6776 31.6795 24.6582 31.6795 15.9993V15.9987C31.6795 7.33975 24.6601 0.320312 16.0012 0.320312Z" fill="url(#paint0_radial_2052_363)" fill-opacity="0.7"/>
<path d="M16.0012 0.320312H16.0006C7.3417 0.320312 0.322266 7.33975 0.322266 15.9987V15.9993C0.322266 24.6582 7.3417 31.6776 16.0006 31.6776H16.0012C24.6601 31.6776 31.6795 24.6582 31.6795 15.9993V15.9987C31.6795 7.33975 24.6601 0.320312 16.0012 0.320312Z" stroke="url(#paint1_linear_2052_363)" stroke-width="0.574304"/>
<path fill-rule="evenodd" clip-rule="evenodd" d="M13.4919 3.10156C7.43701 4.26785 2.86328 9.59489 2.86328 15.9902C2.86328 22.3856 7.43701 27.7127 13.4919 28.8789V27.6488C8.1073 26.5009 4.06872 21.7173 4.06872 15.9902C4.06872 10.2633 8.1073 5.47956 13.4919 4.33175V3.10156ZM18.5091 4.33657V3.10592C24.5528 4.28106 29.1152 9.60285 29.1152 15.9902C29.1152 22.3777 24.5528 27.6994 18.5091 28.8746V27.6439C23.8824 26.4876 27.9098 21.7092 27.9098 15.9902C27.9098 10.2712 23.8824 5.49291 18.5091 4.33657Z" fill="black"/>
<path d="M17.8582 15.551C18.8596 15.7419 19.6365 16.11 20.1886 16.6554C20.7407 17.1871 21.0168 17.8687 21.0168 18.7004V20.0093C21.0168 21.0045 20.6573 21.8089 19.9382 22.4224C19.2192 23.0222 18.2754 23.3222 17.107 23.3222H16.7025V25.4082H15.3158V23.3222H14.8921C14.1218 23.3222 13.4413 23.1518 12.8506 22.8109C12.26 22.4564 11.7978 21.9657 11.4639 21.3385C11.1429 20.6977 10.9824 19.9615 10.9824 19.1298H12.3691C12.3691 19.9752 12.6003 20.6636 13.0625 21.1953C13.5375 21.7135 14.1603 21.9724 14.9306 21.9724H17.0685C17.8261 21.9724 18.4359 21.7952 18.8982 21.4407C19.3604 21.0726 19.5915 20.5955 19.5915 20.0093V18.7004C19.5915 18.2369 19.4182 17.8415 19.0715 17.5143C18.7377 17.1871 18.2754 16.9758 17.6848 16.8803L14.218 16.2668C13.2422 16.0896 12.4847 15.7214 11.9454 15.1625C11.4061 14.6035 11.1365 13.9014 11.1365 13.0561V11.9518C11.1365 10.9565 11.4832 10.1658 12.1766 9.5795C12.8827 8.97962 13.8136 8.67972 14.9692 8.67972H15.3158V6.59375H16.7025V8.67972H17.1456C18.2369 8.67972 19.1165 9.03414 19.7841 9.74312C20.4518 10.4384 20.7857 11.3587 20.7857 12.5039H19.3989C19.3989 11.7541 19.1935 11.1542 18.7826 10.7042C18.3718 10.2544 17.8261 10.0294 17.1456 10.0294H14.9692C14.2373 10.0294 13.6531 10.2066 13.2166 10.5611C12.78 10.902 12.5618 11.3656 12.5618 11.9518V13.0561C12.5618 13.5333 12.7222 13.9354 13.0432 14.2627C13.377 14.5898 13.8328 14.808 14.4107 14.9171L17.8582 15.551Z" fill="black"/>
</g>
<defs>
<radialGradient id="paint0_radial_2052_363" cx="0" cy="0" r="1" gradientUnits="userSpaceOnUse" gradientTransform="translate(16.0346 4.89888) rotate(90) scale(33.0574 23.2691)">
<stop offset="0.03125" stop-color="#FAFAFA"/>
<stop offset="1" stop-color="#E3E3E3"/>
</radialGradient>
<linearGradient id="paint1_linear_2052_363" x1="16.0009" y1="0.0244862" x2="16.0009" y2="31.9735" gradientUnits="userSpaceOnUse">
<stop stop-color="#F4F4F4"/>
<stop offset="1" stop-color="#BEBEBE"/>
</linearGradient>
<clipPath id="clip0_2052_363">
<rect width="32" height="32" fill="white"/>
</clipPath>
</defs>
</svg>
