<svg width="32" height="32" viewBox="0 0 32 32" fill="none" xmlns="http://www.w3.org/2000/svg">
<g clip-path="url(#clip0_2053_394)">
<mask id="mask0_2053_394" style="mask-type:luminance" maskUnits="userSpaceOnUse" x="0" y="0" width="32" height="32">
<path d="M31.7538 0H0.246094V31.5077H31.7538V0Z" fill="white"/>
</mask>
<g mask="url(#mask0_2053_394)">
<path d="M15.9999 31.5077C24.7005 31.5077 31.7538 24.4544 31.7538 15.7538C31.7538 7.05324 24.7005 0 15.9999 0C7.29934 0 0.246094 7.05324 0.246094 15.7538C0.246094 24.4544 7.29934 31.5077 15.9999 31.5077Z" fill="#EFEFEF"/>
<path d="M21.5113 4.84375C20.0717 4.84375 18.8927 5.39842 17.9952 6.24435C16.7678 7.37927 16.108 8.65868 15.5173 10.805L15.2821 11.7698C14.1723 16.5729 12.8272 22.5342 12.3312 23.9814C12.0958 24.825 11.8121 25.1886 11.3645 25.1886C11.0046 25.1886 10.1302 24.2075 10.0955 24.1585C9.83718 23.8462 9.44727 23.6459 9.01355 23.6459C8.84971 23.6459 8.69281 23.6761 8.54748 23.7274C7.99836 23.9231 7.60156 24.4498 7.60156 25.0721C7.60156 25.2305 7.62923 25.382 7.67536 25.5242C7.85993 26.2093 8.68129 26.6614 9.43108 26.6614C10.1809 26.6614 10.9654 26.4936 11.8144 25.9856C13.584 24.9485 15.0236 23.4268 15.9903 21.3037C16.6502 19.8076 17.6191 16.3072 18.6805 11.7698L18.9158 10.805C19.2688 9.25998 19.5526 8.15066 19.8825 7.11362C20.1663 6.31662 20.5423 5.64078 21.0153 5.64078C21.4167 5.64078 21.5575 5.9787 21.5575 6.53334C21.5575 6.61491 21.5505 6.71273 21.539 6.81533C21.5367 6.83862 21.5344 6.8619 21.5298 6.88755C21.5275 6.9225 21.5252 6.95746 21.5252 6.99241C21.5252 7.70084 22.0951 8.27886 22.7987 8.27886C22.9741 8.27886 23.1379 8.24386 23.2901 8.17863C23.7239 7.9945 24.0353 7.57501 24.0676 7.07866C24.0769 7.00408 24.0838 6.92718 24.0838 6.84792C24.0838 5.61745 23.0917 4.84375 21.5113 4.84375Z" fill="#1D1D1F"/>
<path d="M13.7529 10.3438L13.3652 11.6068H20.6604L21.0204 10.3438H13.7529Z" fill="#1D1D1F"/>
<path d="M20.0804 26.6819C19.2395 26.6819 18.5547 25.9977 18.5547 25.1574C18.5547 24.3171 19.2395 23.6328 20.0804 23.6328C20.9214 23.6328 21.6062 24.3171 21.6062 25.1574C21.6062 25.9977 20.9214 26.6819 20.0804 26.6819Z" fill="#F96D30"/>
</g>
</g>
<defs>
<clipPath id="clip0_2053_394">
<rect width="32" height="32" fill="white"/>
</clipPath>
</defs>
</svg>
