<svg width="32" height="32" viewBox="0 0 32 32" fill="none" xmlns="http://www.w3.org/2000/svg">
<g clip-path="url(#clip0_2053_401)">
<path d="M16 32C24.8366 32 32 24.8366 32 16C32 7.16344 24.8366 0 16 0C7.16344 0 0 7.16344 0 16C0 24.8366 7.16344 32 16 32Z" fill="#314012"/>
<path fill-rule="evenodd" clip-rule="evenodd" d="M27.8943 16.8678C27.4338 23.0217 22.2933 27.8715 16.0194 27.8715C9.44281 27.8715 4.11133 22.5417 4.11133 15.9669C4.11133 9.39235 9.44281 4.0625 16.0196 4.0625C22.2828 4.0625 27.4168 8.89635 27.8918 15.0358H22.1987C23.4414 12.2896 23.5167 9.7946 22.1575 8.65429C20.1503 6.97081 15.7751 8.87993 12.3852 12.9185C8.99543 16.9571 7.8744 21.5958 9.88158 23.2795C11.8888 24.9632 16.2639 23.0541 19.6539 19.0155C20.2244 18.3374 20.7461 17.6197 21.2151 16.8678H27.8943Z" fill="#C7E36C"/>
<path d="M16.916 16.8674H21.6781L19.8391 19.275L16.916 18.1019V16.8672V16.8674Z" fill="#C7E36C"/>
</g>
<defs>
<clipPath id="clip0_2053_401">
<rect width="32" height="32" fill="white"/>
</clipPath>
</defs>
</svg>
