<svg width="32" height="32" viewBox="0 0 32 32" fill="none" xmlns="http://www.w3.org/2000/svg">
<g clip-path="url(#clip0_2061_527)">
<path d="M16 32C24.8366 32 32 24.8366 32 16C32 7.16344 24.8366 0 16 0C7.16344 0 0 7.16344 0 16C0 24.8366 7.16344 32 16 32Z" fill="#A8F230"/>
<path d="M17.6396 25.9346V24.8322C17.6396 24.7186 17.7196 24.6226 17.83 24.5986C20.4988 24.0098 22.238 22.1906 22.238 19.6274C22.238 16.1554 19.2876 15.2226 16.7052 14.5506C14.774 14.0514 13.126 13.6386 13.126 12.3154C13.126 11.2962 14.2764 10.5794 15.8812 10.5794C17.486 10.5794 18.6668 11.3282 19.4108 12.6418L19.614 13.0098C19.6828 13.1346 19.8444 13.1714 19.9612 13.0898L22.1756 11.5346C22.2716 11.4674 22.3052 11.3394 22.254 11.2322L22.0844 10.885H22.086C22.0652 10.8402 22.0412 10.797 22.0204 10.7538L22.014 10.741C21.2588 9.24338 19.87 7.95538 17.8268 7.47538C17.718 7.44978 17.6396 7.35378 17.6396 7.24178V6.07218C17.6396 5.92338 17.7756 5.80817 17.9212 5.83537C22.1084 6.62417 25.414 9.94258 26.1804 14.1378C26.2012 14.2514 26.2988 14.3362 26.4156 14.3362H28.7596C28.9052 14.3362 29.0188 14.2066 28.998 14.0626C28.0556 7.73298 22.5884 2.85938 16.0012 2.85938C9.41402 2.85938 3.94522 7.73138 3.00442 14.0626C2.98362 14.2066 3.09722 14.3362 3.24282 14.3362H5.58682C5.70362 14.3362 5.80122 14.253 5.82202 14.1378C6.58842 9.94258 9.89402 6.62417 14.0812 5.83537C14.2284 5.80817 14.3628 5.92338 14.3628 6.07218V7.26737C14.3628 7.37777 14.286 7.47217 14.1788 7.49937C11.6716 8.13137 9.89242 9.98738 9.89242 12.4018C9.89242 16.0034 12.9948 16.8066 15.5548 17.4994C17.5292 18.0418 18.982 18.5186 18.982 19.821C18.982 20.8194 17.854 21.5346 15.966 21.5346C14.2956 21.5346 12.9724 20.797 12.1484 19.061H12.1468L12.094 18.9538C12.03 18.821 11.8604 18.7762 11.7404 18.8626L9.39322 20.5122C9.29722 20.5794 9.26362 20.7074 9.31482 20.813L9.41562 21.0226H9.41882C10.31 22.8514 11.9436 24.1954 14.1676 24.645C14.2796 24.6674 14.3628 24.765 14.3628 24.8802V25.9362C14.3628 26.085 14.2268 26.2002 14.0812 26.173C9.89402 25.3842 6.58842 22.0658 5.82202 17.8706C5.80122 17.757 5.70362 17.6722 5.58682 17.6722H3.24282C3.09722 17.6722 2.98362 17.8018 3.00442 17.9458C3.94682 24.2754 9.41402 29.149 16.0012 29.149C22.5884 29.149 28.0572 24.277 28.998 17.9458C29.0188 17.8018 28.9052 17.6722 28.7596 17.6722H26.4156C26.2988 17.6722 26.2012 17.7554 26.1804 17.8706C25.414 22.0658 22.1084 25.3842 17.9212 26.173C17.774 26.2002 17.6396 26.085 17.6396 25.9362V25.9346Z" fill="black"/>
</g>
<defs>
<clipPath id="clip0_2061_527">
<rect width="32" height="32" fill="white"/>
</clipPath>
</defs>
</svg>
