<svg width="32" height="32" viewBox="0 0 32 32" fill="none" xmlns="http://www.w3.org/2000/svg">
<g clip-path="url(#clip0_2054_478)">
<path d="M22.857 0C27.906 0 32 4.094 32 9.143V22.857C32 27.906 27.906 32 22.857 32H9.143C4.094 32 0 27.906 0 22.857V9.143C0 4.094 4.094 0 9.143 0H22.857Z" fill="#1C3966"/>
<mask id="mask0_2054_478" style="mask-type:luminance" maskUnits="userSpaceOnUse" x="4" y="4" width="24" height="24">
<path d="M28 4H4V28H28V4Z" fill="white"/>
</mask>
<g mask="url(#mask0_2054_478)">
<path fill-rule="evenodd" clip-rule="evenodd" d="M24.8008 16C24.8008 11.1399 20.8609 7.2 16.0008 7.2V4C16.8292 4 17.638 4.08395 18.4192 4.2438C23.8874 5.36275 28.0008 10.201 28.0008 16C28.0008 22.6274 22.6282 28 16.0008 28C10.7759 28 6.33094 24.6608 4.68359 20H8.1603C9.61687 22.8493 12.581 24.8 16.0008 24.8C20.8609 24.8 24.8008 20.8601 24.8008 16ZM5.38485 10.4C7.39684 14.2062 11.3959 16.8 16.0008 16.8V13.6C12.0569 13.6 8.71903 11.0056 7.60064 7.43042C6.71762 8.29608 5.96782 9.29714 5.38485 10.4ZM8.95424 6.28574C9.63892 9.54935 12.5337 12 16.0008 12C18.2099 12 20.0008 13.7909 20.0008 16C20.0008 18.2091 18.2099 20 16.0008 20H10.0132C11.3048 21.9296 13.5045 23.2 16.0008 23.2C19.9772 23.2 23.2008 19.9764 23.2008 16C23.2008 12.0236 19.9772 8.8 16.0008 8.8C13.7916 8.8 12.0008 7.00914 12.0008 4.8V4.68282C10.9032 5.07076 9.8789 5.61385 8.95424 6.28574Z" fill="white"/>
</g>
</g>
<defs>
<clipPath id="clip0_2054_478">
<rect width="32" height="32" fill="white"/>
</clipPath>
</defs>
</svg>
