<svg width="32" height="32" viewBox="0 0 32 32" fill="none" xmlns="http://www.w3.org/2000/svg">
<g clip-path="url(#clip0_2041_20)">
<path d="M16.0023 31.9726L0.464844 31.9816L8.23812 24.2109L16.0023 31.9726Z" fill="#AEBFC3"/>
<path d="M31.5466 16.4268C31.5466 20.7202 29.8105 24.6043 26.9966 27.4169L16 16.4268V0.882812C24.5869 0.882812 31.5453 7.84249 31.5453 16.4268H31.5466Z" fill="#4281A4"/>
<path d="M15.9984 0.882812C7.4128 0.882812 0.453125 7.84249 0.453125 16.4268H15.9984V0.882812Z" fill="#6696AE"/>
<path d="M0.453125 16.4297L16.0023 31.9724H31.5385L31.5449 31.9672L15.9984 16.4297H0.453125Z" fill="#8AAAB8"/>
<path d="M15.9984 16.4268L26.995 27.4169C29.8089 24.6043 31.5449 20.7202 31.5449 16.4268H31.5437C31.5437 7.84249 24.5853 0.882812 15.9984 0.882812M15.9984 16.4268V0.882812M15.9984 16.4268H0.453125C0.453125 7.84249 7.4128 0.882812 15.9984 0.882812M16.0023 31.9695L0.464785 31.9785L8.23806 24.2078L16.0023 31.9695Z" stroke="#F6E8D7" stroke-width="0.777328" stroke-linecap="round" stroke-linejoin="round"/>
<path d="M0.453125 16.4297L16.0023 31.9724H31.5385L31.5449 31.9672L15.9984 16.4297H0.453125Z" stroke="#F6E8D7" stroke-width="0.777328" stroke-linecap="round" stroke-linejoin="round"/>
</g>
<defs>
<clipPath id="clip0_2041_20">
<rect width="32" height="32" fill="white"/>
</clipPath>
</defs>
</svg>
