<svg width="32" height="32" viewBox="0 0 32 32" fill="none" xmlns="http://www.w3.org/2000/svg">
<g clip-path="url(#clip0_2053_410)">
<mask id="mask0_2053_410" style="mask-type:luminance" maskUnits="userSpaceOnUse" x="0" y="0" width="32" height="32">
<path d="M32 0H0V32H32V0Z" fill="white"/>
</mask>
<g mask="url(#mask0_2053_410)">
<path d="M16 32C24.8366 32 32 24.8366 32 16C32 7.16345 24.8366 0 16 0C7.16345 0 0 7.16345 0 16C0 24.8366 7.16345 32 16 32Z" fill="#002855"/>
<path d="M13.3004 25.2797H9.35955C9.11206 25.2797 8.95823 25.0108 9.08374 24.7974L9.93609 23.3485C10.2235 22.8597 10.7482 22.5597 11.3151 22.5597H12.3327C12.9168 22.5597 13.4547 22.2413 13.7356 21.7291L20.9846 8.51034C21.2654 7.99812 21.8032 7.67969 22.3875 7.67969H23.2H24.2611C24.5039 7.67969 24.6582 7.93969 24.5419 8.15294L23.84 9.43969L16.1097 23.612C15.549 24.64 14.4714 25.2797 13.3004 25.2797Z" fill="white"/>
<path opacity="0.7" d="M11.3431 7.67969H9.50406C9.26003 7.67969 9.10582 7.94183 9.22434 8.15514L14.3717 17.4176C14.4935 17.6367 14.8085 17.637 14.9308 17.4181L15.8851 15.7091C16.1555 15.2249 16.156 14.6353 15.8862 14.1507L12.741 8.50142C12.4587 7.99415 11.9236 7.67969 11.3431 7.67969Z" fill="white"/>
</g>
</g>
<defs>
<clipPath id="clip0_2053_410">
<rect width="32" height="32" fill="white"/>
</clipPath>
</defs>
</svg>
