<svg width="32" height="32" viewBox="0 0 32 32" fill="none" xmlns="http://www.w3.org/2000/svg">
<path fill-rule="evenodd" clip-rule="evenodd" d="M10.9875 21.4324C10.4641 21.0433 9.83243 20.7173 9.1339 20.5192C8.43536 20.3212 7.66999 20.2512 6.92159 20.3342C6.17318 20.4172 5.44178 20.6533 4.80362 20.9996C4.16548 21.3459 3.6206 21.8024 3.19521 22.2968C2.76865 22.7901 2.39703 23.3961 2.14813 24.0782C1.89923 24.7602 1.77305 25.5184 1.80079 26.2709C1.8285 27.0233 2.01013 27.7702 2.30853 28.4321C2.60695 29.0939 3.02215 29.671 3.48387 30.1316C3.94448 30.5933 4.52147 31.0085 5.18337 31.3069C5.84527 31.6053 6.59209 31.7869 7.34456 31.8146C8.09703 31.8424 8.85518 31.7162 9.53724 31.4673C10.2193 31.2184 10.8253 30.8468 11.3186 30.4202C11.813 29.9948 12.2695 29.4499 12.6159 28.8118C12.9621 28.1736 13.1982 27.4422 13.2812 26.6938C13.3643 25.9454 13.2942 25.1801 13.0962 24.4815C12.8982 23.783 12.5721 23.1513 12.183 22.6279L13.4683 21.3427L14.4038 22.2782H14.9351L15.5764 21.6369V21.1056L14.6409 20.17L15.9991 18.8118L17.3573 20.17L16.4218 21.1056V21.6369L17.0631 22.2782H17.5944L18.53 21.3427L19.8152 22.6279C19.4261 23.1513 19.1001 23.783 18.9021 24.4815C18.704 25.1801 18.634 25.9454 18.717 26.6938C18.8 27.4422 19.0361 28.1736 19.3824 28.8118C19.7287 29.4499 20.1853 29.9948 20.6796 30.4202C21.1729 30.8468 21.7789 31.2184 22.461 31.4673C23.1431 31.7162 23.9012 31.8424 24.6537 31.8146C25.4062 31.7869 26.1529 31.6053 26.8149 31.3069C27.4768 31.0085 28.0538 30.5933 28.5144 30.1316C28.9761 29.671 29.3913 29.0939 29.6897 28.4321C29.9881 27.7702 30.1697 27.0233 30.1974 26.2709C30.2252 25.5184 30.099 24.7602 29.8501 24.0782C29.6012 23.3961 29.2296 22.7901 28.803 22.2968C28.3777 21.8024 27.8328 21.3459 27.1946 20.9996C26.5565 20.6533 25.8251 20.4172 25.0767 20.3342C24.3283 20.2512 23.5629 20.3212 22.8643 20.5192C22.1658 20.7173 21.5341 21.0433 21.0108 21.4324L19.7494 20.169L20.6844 19.234V18.7027L20.0202 18.0385H19.4889L18.5534 18.974L17.1947 17.6163L24.3178 10.4932L27.2012 13.3766V10.3765H30.2014L27.3179 7.49305L30.2014 4.6096V4.07825L29.5372 3.41406H29.0058L15.9991 16.4208L2.99241 3.41406H2.46107L1.79688 4.07825V4.6096L4.68032 7.49305L1.79688 10.3765H4.79704V13.3766L7.68045 10.4932L14.8036 17.6163L13.4449 18.974L12.5094 18.0385H11.978L11.3138 18.7027V19.234L12.2488 20.169L10.9875 21.4324ZM22.5464 28.0309C22.2531 28.6325 22.3141 29.4662 22.6917 30.0188C23.0387 30.5912 23.7725 30.9914 24.4416 30.9732C25.1107 30.9914 25.8446 30.5912 26.1915 30.0188C26.5692 29.4662 26.6301 28.6325 26.3368 28.0309L26.4098 27.9522C27.0114 28.2471 27.8464 28.1873 28.3998 27.8099C28.9731 27.4632 29.3743 26.7285 29.356 26.0588C29.3743 25.3891 28.9731 24.6544 28.3998 24.3077C27.8464 23.9302 27.0114 23.8705 26.4098 24.1654L26.3368 24.0867C26.6301 23.4851 26.5692 22.6514 26.1915 22.0988C25.8446 21.5264 25.1107 21.1262 24.4416 21.1444C23.7725 21.1262 23.0387 21.5264 22.6917 22.0988C22.3141 22.6514 22.2531 23.4851 22.5464 24.0867L22.4734 24.1654C21.8718 23.8705 21.0369 23.9302 20.4834 24.3077C19.9101 24.6544 19.5089 25.3891 19.5272 26.0588C19.5089 26.7285 19.9101 27.4632 20.4834 27.8099C21.0369 28.1873 21.8718 28.2471 22.4734 27.9522L22.5464 28.0309ZM9.30627 30.0188C9.6839 29.4662 9.74481 28.6325 9.45153 28.0309L9.52459 27.9522C10.1262 28.2471 10.9611 28.1873 11.5146 27.8099C12.0879 27.4632 12.489 26.7285 12.4707 26.0588C12.489 25.3891 12.0879 24.6544 11.5146 24.3077C10.9611 23.9302 10.1262 23.8705 9.52459 24.1654L9.45153 24.0867C9.74481 23.4851 9.6839 22.6514 9.30627 22.0988C8.9593 21.5264 8.22542 21.1262 7.55634 21.1444C6.88728 21.1262 6.15341 21.5264 5.80644 22.0988C5.4288 22.6514 5.36789 23.4851 5.66118 24.0867L5.58816 24.1654C4.98656 23.8705 4.15162 23.9302 3.59813 24.3077C3.02482 24.6544 2.62366 25.3891 2.64198 26.0588C2.62366 26.7285 3.02482 27.4632 3.59813 27.8099C4.15162 28.1873 4.98656 28.2471 5.58816 27.9522L5.66118 28.0309C5.36789 28.6325 5.4288 29.4662 5.80644 30.0188C6.15341 30.5912 6.88728 30.9914 7.55634 30.9732C8.22542 30.9914 8.9593 30.5912 9.30627 30.0188Z" fill="black"/>
<path fill-rule="evenodd" clip-rule="evenodd" d="M15.9898 3.41432L19.4042 0L21.0949 1.69074V7.38995L16.4125 12.0723H15.5672L10.8848 7.38995V1.69074L12.5755 0L15.9898 3.41432ZM12.5756 1.19554L15.5672 4.18718V9.68126L12.5756 6.68962V1.19554ZM16.4127 4.18718L19.4044 1.19554V6.68962L16.4127 9.68126V4.18718Z" fill="black"/>
</svg>
