<svg width="32" height="33" viewBox="0 0 32 33" fill="none" xmlns="http://www.w3.org/2000/svg">
<path d="M22.2793 12.3907L26.4784 21.3286C26.4985 21.3749 26.5043 21.4261 26.4952 21.4757C26.486 21.5254 26.4623 21.5711 26.427 21.6072L15.3807 32.2805C15.3631 32.2972 15.3408 32.3083 15.3168 32.3123C15.2929 32.3163 15.2682 32.3132 15.2461 32.3032C15.2239 32.2932 15.2052 32.2768 15.1923 32.2562C15.1795 32.2355 15.1731 32.2115 15.1739 32.1872V22.3819L22.1346 15.6625C22.1587 15.6402 22.1776 15.613 22.1901 15.5826C22.2026 15.5523 22.2083 15.5196 22.2069 15.4868L22.2273 12.3907C22.2273 12.3698 22.2713 12.3698 22.2793 12.3907Z" fill="#6000FF"/>
<path fill-rule="evenodd" clip-rule="evenodd" d="M15.1739 22.3776V32.1835C15.1732 32.2077 15.1796 32.2316 15.1925 32.2522C15.2054 32.2727 15.2242 32.2892 15.2463 32.2991C15.2685 32.309 15.293 32.312 15.3169 32.3079C15.3409 32.3039 15.3631 32.2929 15.3807 32.2762L26.4264 21.6036C26.4619 21.5678 26.4859 21.5221 26.4951 21.4726C26.5044 21.423 26.4984 21.3717 26.4783 21.3255L22.1655 15.625L15.1739 22.3776Z" fill="url(#paint0_linear_2044_54)"/>
<path fill-rule="evenodd" clip-rule="evenodd" d="M22.2485 12.3594C22.2453 12.3592 22.2422 12.3599 22.2391 12.3611C22.2361 12.3622 22.2332 12.364 22.2309 12.3663C22.2285 12.3686 22.2268 12.3713 22.2256 12.3743C22.2244 12.3773 22.2236 12.3804 22.2237 12.3837L22.2063 15.4798C22.2074 15.5307 22.1932 15.581 22.166 15.6241L26.4957 21.4675C26.5043 21.4148 26.4969 21.3608 26.4748 21.3122L22.2758 12.3743C22.2732 12.37 22.2694 12.3663 22.2651 12.3638C22.2607 12.3613 22.256 12.36 22.251 12.3599L22.2485 12.3594Z" fill="url(#paint1_linear_2044_54)"/>
<path fill-rule="evenodd" clip-rule="evenodd" d="M26.4947 21.4712C26.5033 21.4187 26.4963 21.3648 26.474 21.3164L26.2569 20.8518L22.3477 15.875L26.4947 21.4712Z" fill="url(#paint2_linear_2044_54)"/>
<path d="M12.3492 4.88645L10.3714 10.4808C10.3491 10.545 10.3527 10.6153 10.3816 10.6769L12.2232 14.2996L7.15494 17.1691C7.12467 17.1849 7.08948 17.1883 7.05673 17.1787C7.02397 17.1691 6.99619 17.1473 6.9792 17.1177L5.88294 14.8364C5.86312 14.799 5.85456 14.7566 5.85827 14.7144C5.86198 14.6722 5.8778 14.632 5.90385 14.5985L12.2955 4.85481C12.3003 4.84916 12.307 4.8454 12.3143 4.84418C12.3217 4.84296 12.3292 4.84436 12.3356 4.84813C12.342 4.85191 12.3469 4.85782 12.3494 4.86482C12.3518 4.87183 12.3518 4.87949 12.3492 4.88645Z" fill="#6000FF"/>
<path fill-rule="evenodd" clip-rule="evenodd" d="M12.3191 4.85163C12.3154 4.85151 12.3117 4.8522 12.3083 4.85356C12.3049 4.85492 12.3019 4.85702 12.2994 4.85963L6.18059 14.1868L6.17383 14.1992L10.3758 10.4851L10.3888 10.4476V10.4442L12.3501 4.89109C12.3516 4.88636 12.352 4.88133 12.3511 4.87646C12.3502 4.87159 12.3481 4.86711 12.345 4.86322C12.342 4.85933 12.3381 4.85614 12.3336 4.85411C12.3291 4.85209 12.324 4.85131 12.3191 4.85163Z" fill="url(#paint3_linear_2044_54)"/>
<path fill-rule="evenodd" clip-rule="evenodd" d="M5.90724 14.6033C5.88139 14.6366 5.86574 14.6766 5.86213 14.7186C5.85852 14.7606 5.86717 14.8028 5.88696 14.84L6.98264 17.1219C6.99983 17.1514 7.02775 17.1731 7.06058 17.1826C7.09342 17.1921 7.12866 17.1885 7.15895 17.1727L12.2266 14.3037L10.3856 10.6808C10.371 10.6503 10.3626 10.6174 10.3609 10.5837C10.3591 10.55 10.364 10.5162 10.3753 10.4844L5.90724 14.6033Z" fill="url(#paint4_linear_2044_54)"/>
<path fill-rule="evenodd" clip-rule="evenodd" d="M15.1733 0.361617V9.06384C15.172 9.11631 15.1539 9.16718 15.1218 9.2087L5.24474 22.596C5.20916 22.6435 5.19264 22.7025 5.19839 22.7616C5.20414 22.8207 5.23185 22.8755 5.27592 22.9153L12.2049 29.6041C12.2189 29.6185 12.2362 29.6291 12.2554 29.635C12.2746 29.6409 12.295 29.6419 12.3146 29.6378C12.3343 29.6336 12.3525 29.6247 12.3677 29.6116C12.3829 29.5984 12.3946 29.5815 12.4015 29.5627L19.9307 11.9436C19.9517 11.8834 19.9517 11.8178 19.9307 11.7576L15.2665 0.342855C15.2637 0.334008 15.2581 0.326538 15.2505 0.321057C15.243 0.315576 15.234 0.312529 15.2247 0.312503C15.2114 0.312348 15.1986 0.317386 15.189 0.326575C15.1794 0.335765 15.1737 0.348327 15.1733 0.361617Z" fill="url(#paint5_linear_2044_54)"/>
<path fill-rule="evenodd" clip-rule="evenodd" d="M15.2217 0.3125C15.2081 0.312499 15.1952 0.317878 15.1855 0.3274C15.1759 0.336921 15.1705 0.349729 15.1704 0.363269L15.1737 9.06549C15.173 9.08993 15.1686 9.1141 15.1607 9.13723L19.8695 11.6169L15.2635 0.343955C15.2607 0.334988 15.2553 0.327277 15.2478 0.321605C15.2403 0.315934 15.2311 0.312773 15.2217 0.3125Z" fill="url(#paint6_linear_2044_54)"/>
<path fill-rule="evenodd" clip-rule="evenodd" d="M19.9469 11.8576C19.947 11.8269 19.9421 11.7962 19.9323 11.7671L19.8723 11.6203L15.1602 9.14062L16.0642 9.65659L19.9469 11.8576Z" fill="url(#paint7_linear_2044_54)"/>
<path d="M6.17009 14.2021L5.91016 14.5976L10.3743 10.4844L6.17009 14.2021Z" fill="#B46CF3"/>
<defs>
<linearGradient id="paint0_linear_2044_54" x1="21.4482" y1="25.3021" x2="15.4251" y2="23.9094" gradientUnits="userSpaceOnUse">
<stop stop-color="#6000FF"/>
<stop offset="0.651" stop-color="#4900C3"/>
<stop offset="1" stop-color="#320086"/>
</linearGradient>
<linearGradient id="paint1_linear_2044_54" x1="22.426" y1="11.567" x2="26.8325" y2="15.2086" gradientUnits="userSpaceOnUse">
<stop stop-color="#6A0AFF"/>
<stop offset="0.047" stop-color="#892AFF"/>
<stop offset="0.102" stop-color="#6A0AFF"/>
<stop offset="0.902" stop-color="#A94AFF"/>
<stop offset="1" stop-color="#A94AFF"/>
</linearGradient>
<linearGradient id="paint2_linear_2044_54" x1="22.4971" y1="15.8918" x2="27.614" y2="19.7629" gradientUnits="userSpaceOnUse">
<stop stop-color="#9335FE"/>
<stop offset="0.031" stop-color="#A954FE"/>
<stop offset="1" stop-color="#BF73FF"/>
</linearGradient>
<linearGradient id="paint3_linear_2044_54" x1="12.7902" y1="5.43112" x2="4.36007" y2="11.0653" gradientUnits="userSpaceOnUse">
<stop stop-color="#6A0AFF"/>
<stop offset="0.51" stop-color="#8C2DFF"/>
<stop offset="0.969" stop-color="#AF50FF"/>
<stop offset="1" stop-color="#AF50FF"/>
</linearGradient>
<linearGradient id="paint4_linear_2044_54" x1="8.71298" y1="12.4753" x2="9.34619" y2="15.8357" gradientUnits="userSpaceOnUse">
<stop stop-color="#6000FF"/>
<stop offset="1" stop-color="#3E00A5"/>
</linearGradient>
<linearGradient id="paint5_linear_2044_54" x1="-2.60504" y1="31.6639" x2="21.599" y2="30.0945" gradientUnits="userSpaceOnUse">
<stop stop-color="#9838FF"/>
<stop offset="0.322" stop-color="#AF50FF"/>
<stop offset="1" stop-color="#6000FF"/>
</linearGradient>
<linearGradient id="paint6_linear_2044_54" x1="14.6374" y1="3.40991" x2="22.3416" y2="6.51173" gradientUnits="userSpaceOnUse">
<stop stop-color="#6F0FFF"/>
<stop offset="0.702" stop-color="#A94AFF"/>
<stop offset="1" stop-color="#A94AFF"/>
</linearGradient>
<linearGradient id="paint7_linear_2044_54" x1="15.232" y1="9.15964" x2="17.5328" y2="13.0923" gradientUnits="userSpaceOnUse">
<stop stop-color="#AE60FF"/>
<stop offset="0.031" stop-color="#B669FF"/>
<stop offset="1" stop-color="#BF73FF"/>
</linearGradient>
</defs>
</svg>
