<svg width="32" height="32" viewBox="0 0 32 32" fill="none" xmlns="http://www.w3.org/2000/svg">
<g clip-path="url(#clip0_2053_436)">
<path fill-rule="evenodd" clip-rule="evenodd" d="M11.4206 14.7657C11.508 14.7806 11.5678 14.8735 11.5552 14.973C11.5418 15.0725 11.4607 15.1413 11.3734 15.1264L6.73742 14.313C7.235 15.0029 7.99482 15.5717 8.76877 15.7624L14.1433 16.8071L7.34995 20.7307C8.1775 21.1195 9.11364 21.0441 9.88209 20.535L10.023 20.4355L12.5276 18.6619C12.5969 18.613 12.689 18.6371 12.7323 18.7158C12.7757 18.7954 12.7544 18.899 12.6851 18.9488L10.086 20.7895C10.8025 21.127 11.6174 21.0175 12.2426 20.5101L14.2212 18.773C14.2858 18.7158 14.3795 18.7299 14.4291 18.8037C14.4795 18.8775 14.4669 18.9836 14.4023 19.0408L12.3827 20.8136C13.0859 20.9014 14.0134 20.6784 14.5913 20.1942C15.2597 19.5856 16.0943 18.6984 16.825 18.2938C17.2777 18.0434 17.7816 17.9157 18.4123 18.0077C18.8422 18.1769 19.2949 18.2573 19.7493 18.244C20.0484 18.3021 20.3106 18.5002 20.4736 18.7871C20.5681 18.3261 20.3933 17.7913 19.9949 17.6545C20.0004 17.487 19.9296 17.3319 19.8123 17.2408L19.7044 17.1802L16.8242 15.5692C15.4723 14.813 14.1204 14.056 12.7686 13.2998C12.1615 12.9781 11.5277 12.726 10.8773 12.5477C10.4836 12.44 10.1372 12.3819 9.73643 12.309L0 10.5312C0.534615 11.3082 1.24088 11.7352 2.08256 11.8869L8.95538 13.129C9.0428 13.1447 9.10185 13.2376 9.08768 13.3371C9.0735 13.4366 8.99241 13.5038 8.90499 13.488L3.44941 12.5021C3.85253 13.1132 4.44383 13.5253 5.10287 13.6572L5.20757 13.6754L11.4206 14.7657Z" fill="#EAAC08"/>
<path fill-rule="evenodd" clip-rule="evenodd" d="M28.8037 12.4914L23.2812 13.5112C23.1961 13.5261 23.1166 13.459 23.104 13.3595C23.0906 13.26 23.1489 13.1671 23.2339 13.1522L30.2965 11.8479C30.9917 11.6879 31.609 11.217 32.0137 10.5312L21.9198 12.4541C21.9198 12.4541 21.9198 12.4541 21.919 12.4541C21.1096 12.6083 20.5695 12.8222 19.8341 13.2293L16.543 15.0509L19.2735 16.5625C20.8167 16.245 22.2339 16.0252 23.778 15.7076C24.5165 15.5319 25.1653 15.0145 25.5731 14.2691L20.8561 15.1405C20.7711 15.1554 20.6915 15.0883 20.6789 14.9888C20.6655 14.8893 20.7238 14.7964 20.8089 14.7815L26.9376 13.6497C27.6455 13.498 28.2982 13.0942 28.8052 12.4922L28.8037 12.4914Z" fill="#EAAC08"/>
</g>
<defs>
<clipPath id="clip0_2053_436">
<rect width="32" height="32" fill="white"/>
</clipPath>
</defs>
</svg>
