<svg width="32" height="32" viewBox="0 0 32 32" fill="none" xmlns="http://www.w3.org/2000/svg">
<g clip-path="url(#clip0_2053_433)">
<path fill-rule="evenodd" clip-rule="evenodd" d="M18.6475 0H22.3284C23.5897 0 24.651 0 25.5195 0.0711111C26.4279 0.146667 27.2928 0.311111 28.115 0.735111C29.3709 1.38592 30.3886 2.41735 31.0226 3.68178C31.4422 4.51467 31.603 5.39111 31.6777 6.312C31.7488 7.192 31.7488 8.26756 31.7488 9.54489V13.0827C31.7488 14.3618 31.7488 15.4364 31.6777 16.3164C31.603 17.2373 31.4422 18.1138 31.0235 18.9476C30.3891 20.2118 29.3711 21.2429 28.115 21.8933C27.2928 22.3182 26.4279 22.4818 25.5195 22.5564C24.651 22.6284 23.5897 22.6284 22.3284 22.6284H11.3346C10.955 22.627 10.5844 22.5131 10.2696 22.3011C9.95474 22.089 9.7098 21.7885 9.56571 21.4373C9.41977 21.0844 9.37988 20.6966 9.45092 20.3213C9.52197 19.946 9.70086 19.5996 9.96571 19.3244L19.0457 9.95289L21.7817 12.6756L15.9035 18.7431H22.2519C23.6102 18.7431 24.5133 18.7413 25.2066 18.6836C25.8786 18.6284 26.1826 18.5307 26.3746 18.4311C26.9065 18.1552 27.3376 17.7185 27.6066 17.1831C27.7044 16.9893 27.8004 16.68 27.8555 16.0009C27.9124 15.2969 27.9133 14.3822 27.9133 13.0053V9.62311C27.9133 8.24622 27.9124 7.33156 27.8555 6.62844C27.8004 5.94844 27.7044 5.64 27.6066 5.44622C27.3378 4.91052 26.9066 4.47343 26.3746 4.19733C26.1826 4.09867 25.8786 4 25.2066 3.94489C24.5133 3.88711 23.6102 3.88533 22.2519 3.88533H18.7248C17.3515 3.88533 16.4377 3.88711 15.7364 3.94578C15.0573 4.00178 14.7497 4.10222 14.5577 4.20178C14.0244 4.48 13.5924 4.92356 13.3239 5.46756C13.2279 5.66311 13.1328 5.97511 13.0857 6.664C13.0368 7.37511 13.0466 8.30133 13.0635 9.69244L13.0822 11.2907L9.24837 11.3378L9.22793 9.66133C9.21193 8.36978 9.19948 7.28356 9.26082 6.39378C9.32482 5.464 9.47771 4.57689 9.89282 3.73333C10.5211 2.45337 11.5412 1.40713 12.8048 0.746667C13.6324 0.313778 14.5062 0.148444 15.4217 0.072C16.2999 0 17.3719 0 18.6475 0Z" fill="url(#paint0_linear_2053_433)"/>
<path fill-rule="evenodd" clip-rule="evenodd" d="M18.6475 0H22.3284C23.5897 0 24.651 0 25.5195 0.0711111C26.4279 0.146667 27.2928 0.311111 28.115 0.735111C29.3709 1.38592 30.3886 2.41735 31.0226 3.68178C31.4422 4.51467 31.603 5.39111 31.6777 6.312C31.7488 7.192 31.7488 8.26756 31.7488 9.54489V13.0827C31.7488 14.3618 31.7488 15.4364 31.6777 16.3164C31.603 17.2373 31.4422 18.1138 31.0235 18.9476C30.3891 20.2118 29.3711 21.2429 28.115 21.8933C27.2928 22.3182 26.4279 22.4818 25.5195 22.5564C24.651 22.6284 23.5897 22.6284 22.3284 22.6284H11.3346C10.955 22.627 10.5844 22.5131 10.2696 22.3011C9.95474 22.089 9.7098 21.7885 9.56571 21.4373C9.41977 21.0844 9.37988 20.6966 9.45092 20.3213C9.52197 19.946 9.70086 19.5996 9.96571 19.3244L19.0457 9.95289L21.7817 12.6756L15.9035 18.7431H22.2519C23.6102 18.7431 24.5133 18.7413 25.2066 18.6836C25.8786 18.6284 26.1826 18.5307 26.3746 18.4311C26.9065 18.1552 27.3376 17.7185 27.6066 17.1831C27.7044 16.9893 27.8004 16.68 27.8555 16.0009C27.9124 15.2969 27.9133 14.3822 27.9133 13.0053V9.62311C27.9133 8.24622 27.9124 7.33156 27.8555 6.62844C27.8004 5.94844 27.7044 5.64 27.6066 5.44622C27.3378 4.91052 26.9066 4.47343 26.3746 4.19733C26.1826 4.09867 25.8786 4 25.2066 3.94489C24.5133 3.88711 23.6102 3.88533 22.2519 3.88533H18.7248C17.3515 3.88533 16.4377 3.88711 15.7364 3.94578C15.0573 4.00178 14.7497 4.10222 14.5577 4.20178C14.0244 4.48 13.5924 4.92356 13.3239 5.46756C13.2279 5.66311 13.1328 5.97511 13.0857 6.664C13.0368 7.37511 13.0466 8.30133 13.0635 9.69244L13.0822 11.2907L9.24837 11.3378L9.22793 9.66133C9.21193 8.36978 9.19948 7.28356 9.26082 6.39378C9.32482 5.464 9.47771 4.57689 9.89282 3.73333C10.5211 2.45337 11.5412 1.40713 12.8048 0.746667C13.6324 0.313778 14.5062 0.148444 15.4217 0.072C16.2999 0 17.3719 0 18.6475 0Z" fill="url(#paint1_radial_2053_433)"/>
<path fill-rule="evenodd" clip-rule="evenodd" d="M18.6475 0H22.3284C23.5897 0 24.651 0 25.5195 0.0711111C26.4279 0.146667 27.2928 0.311111 28.115 0.735111C29.3709 1.38592 30.3886 2.41735 31.0226 3.68178C31.4422 4.51467 31.603 5.39111 31.6777 6.312C31.7488 7.192 31.7488 8.26756 31.7488 9.54489V13.0827C31.7488 14.3618 31.7488 15.4364 31.6777 16.3164C31.603 17.2373 31.4422 18.1138 31.0235 18.9476C30.3891 20.2118 29.3711 21.2429 28.115 21.8933C27.2928 22.3182 26.4279 22.4818 25.5195 22.5564C24.651 22.6284 23.5897 22.6284 22.3284 22.6284H11.3346C10.955 22.627 10.5844 22.5131 10.2696 22.3011C9.95474 22.089 9.7098 21.7885 9.56571 21.4373C9.41977 21.0844 9.37988 20.6966 9.45092 20.3213C9.52197 19.946 9.70086 19.5996 9.96571 19.3244L19.0457 9.95289L21.7817 12.6756L15.9035 18.7431H22.2519C23.6102 18.7431 24.5133 18.7413 25.2066 18.6836C25.8786 18.6284 26.1826 18.5307 26.3746 18.4311C26.9065 18.1552 27.3376 17.7185 27.6066 17.1831C27.7044 16.9893 27.8004 16.68 27.8555 16.0009C27.9124 15.2969 27.9133 14.3822 27.9133 13.0053V9.62311C27.9133 8.24622 27.9124 7.33156 27.8555 6.62844C27.8004 5.94844 27.7044 5.64 27.6066 5.44622C27.3378 4.91052 26.9066 4.47343 26.3746 4.19733C26.1826 4.09867 25.8786 4 25.2066 3.94489C24.5133 3.88711 23.6102 3.88533 22.2519 3.88533H18.7248C17.3515 3.88533 16.4377 3.88711 15.7364 3.94578C15.0573 4.00178 14.7497 4.10222 14.5577 4.20178C14.0244 4.48 13.5924 4.92356 13.3239 5.46756C13.2279 5.66311 13.1328 5.97511 13.0857 6.664C13.0368 7.37511 13.0466 8.30133 13.0635 9.69244L13.0822 11.2907L9.24837 11.3378L9.22793 9.66133C9.21193 8.36978 9.19948 7.28356 9.26082 6.39378C9.32482 5.464 9.47771 4.57689 9.89282 3.73333C10.5211 2.45337 11.5412 1.40713 12.8048 0.746667C13.6324 0.313778 14.5062 0.148444 15.4217 0.072C16.2999 0 17.3719 0 18.6475 0Z" fill="url(#paint2_radial_2053_433)"/>
<path fill-rule="evenodd" clip-rule="evenodd" d="M18.6475 0H22.3284C23.5897 0 24.651 0 25.5195 0.0711111C26.4279 0.146667 27.2928 0.311111 28.115 0.735111C29.3709 1.38592 30.3886 2.41735 31.0226 3.68178C31.4422 4.51467 31.603 5.39111 31.6777 6.312C31.7488 7.192 31.7488 8.26756 31.7488 9.54489V13.0827C31.7488 14.3618 31.7488 15.4364 31.6777 16.3164C31.603 17.2373 31.4422 18.1138 31.0235 18.9476C30.3891 20.2118 29.3711 21.2429 28.115 21.8933C27.2928 22.3182 26.4279 22.4818 25.5195 22.5564C24.651 22.6284 23.5897 22.6284 22.3284 22.6284H11.3346C10.955 22.627 10.5844 22.5131 10.2696 22.3011C9.95474 22.089 9.7098 21.7885 9.56571 21.4373C9.41977 21.0844 9.37988 20.6966 9.45092 20.3213C9.52197 19.946 9.70086 19.5996 9.96571 19.3244L19.0457 9.95289L21.7817 12.6756L15.9035 18.7431H22.2519C23.6102 18.7431 24.5133 18.7413 25.2066 18.6836C25.8786 18.6284 26.1826 18.5307 26.3746 18.4311C26.9065 18.1552 27.3376 17.7185 27.6066 17.1831C27.7044 16.9893 27.8004 16.68 27.8555 16.0009C27.9124 15.2969 27.9133 14.3822 27.9133 13.0053V9.62311C27.9133 8.24622 27.9124 7.33156 27.8555 6.62844C27.8004 5.94844 27.7044 5.64 27.6066 5.44622C27.3378 4.91052 26.9066 4.47343 26.3746 4.19733C26.1826 4.09867 25.8786 4 25.2066 3.94489C24.5133 3.88711 23.6102 3.88533 22.2519 3.88533H18.7248C17.3515 3.88533 16.4377 3.88711 15.7364 3.94578C15.0573 4.00178 14.7497 4.10222 14.5577 4.20178C14.0244 4.48 13.5924 4.92356 13.3239 5.46756C13.2279 5.66311 13.1328 5.97511 13.0857 6.664C13.0368 7.37511 13.0466 8.30133 13.0635 9.69244L13.0822 11.2907L9.24837 11.3378L9.22793 9.66133C9.21193 8.36978 9.19948 7.28356 9.26082 6.39378C9.32482 5.464 9.47771 4.57689 9.89282 3.73333C10.5211 2.45337 11.5412 1.40713 12.8048 0.746667C13.6324 0.313778 14.5062 0.148444 15.4217 0.072C16.2999 0 17.3719 0 18.6475 0Z" fill="url(#paint3_radial_2053_433)"/>
<path fill-rule="evenodd" clip-rule="evenodd" d="M6.54222 28.0516C7.23556 28.1094 8.13867 28.1103 9.49689 28.1103H13.0827C14.3218 28.1103 15.1449 28.1103 15.7796 28.0614C16.3947 28.0152 16.6764 27.9325 16.8524 27.8507C17.4676 27.5629 17.9595 27.0644 18.2391 26.4454C18.3209 26.2659 18.4027 25.9805 18.448 25.3574C18.4951 24.7147 18.4969 23.8801 18.4969 22.625H22.3316V22.6961C22.3316 23.8605 22.3316 24.8419 22.272 25.6472C22.2098 26.4872 22.0764 27.2916 21.7253 28.065C21.0661 29.5268 19.9045 30.7038 18.4516 31.3823C17.6871 31.7379 16.8951 31.8739 16.0649 31.9361C15.2711 31.9965 14.3031 31.9965 13.1529 31.9965H9.41956C8.15822 31.9965 7.09778 31.9965 6.22844 31.9254C5.32089 31.849 4.45511 31.6854 3.63289 31.2614C2.37705 30.6106 1.3593 29.5792 0.725333 28.3147C0.306667 27.4819 0.144889 26.6054 0.0711111 25.6854C0 24.8054 0 23.7299 0 22.4525V18.9121C0 17.6347 0 16.5592 0.0711111 15.6792C0.144889 14.7583 0.306667 13.8819 0.725333 13.0481C1.35945 11.784 2.37718 10.7529 3.63289 10.1023C4.45511 9.67741 5.32089 9.51385 6.22844 9.43919C7.09778 9.36719 8.15822 9.36719 9.41956 9.36719H20.4142C21.4729 9.36719 22.3316 10.2365 22.3316 11.3103C22.3316 12.3841 21.4729 13.2525 20.4142 13.2525H9.49689C8.13867 13.2525 7.23467 13.2543 6.54133 13.3121C5.87022 13.3672 5.56533 13.465 5.37422 13.5645C4.84356 13.8383 4.41244 14.2756 4.14222 14.8125C4.04444 15.0063 3.94756 15.3156 3.89333 15.9947C3.83644 16.6987 3.83467 17.6134 3.83467 18.9903V22.3725C3.83467 23.7494 3.83644 24.6641 3.89244 25.3672C3.94756 26.0472 4.04444 26.3556 4.14133 26.5494C4.41244 27.0872 4.84356 27.5245 5.37422 27.7983C5.56533 27.897 5.87022 27.9956 6.54133 28.0507" fill="url(#paint4_linear_2053_433)"/>
<path fill-rule="evenodd" clip-rule="evenodd" d="M6.54222 28.0516C7.23556 28.1094 8.13867 28.1103 9.49689 28.1103H13.0827C14.3218 28.1103 15.1449 28.1103 15.7796 28.0614C16.3947 28.0152 16.6764 27.9325 16.8524 27.8507C17.4676 27.5629 17.9595 27.0644 18.2391 26.4454C18.3209 26.2659 18.4027 25.9805 18.448 25.3574C18.4951 24.7147 18.4969 23.8801 18.4969 22.625H22.3316V22.6961C22.3316 23.8605 22.3316 24.8419 22.272 25.6472C22.2098 26.4872 22.0764 27.2916 21.7253 28.065C21.0661 29.5268 19.9045 30.7038 18.4516 31.3823C17.6871 31.7379 16.8951 31.8739 16.0649 31.9361C15.2711 31.9965 14.3031 31.9965 13.1529 31.9965H9.41956C8.15822 31.9965 7.09778 31.9965 6.22844 31.9254C5.32089 31.849 4.45511 31.6854 3.63289 31.2614C2.37705 30.6106 1.3593 29.5792 0.725333 28.3147C0.306667 27.4819 0.144889 26.6054 0.0711111 25.6854C0 24.8054 0 23.7299 0 22.4525V18.9121C0 17.6347 0 16.5592 0.0711111 15.6792C0.144889 14.7583 0.306667 13.8819 0.725333 13.0481C1.35945 11.784 2.37718 10.7529 3.63289 10.1023C4.45511 9.67741 5.32089 9.51385 6.22844 9.43919C7.09778 9.36719 8.15822 9.36719 9.41956 9.36719H20.4142C21.4729 9.36719 22.3316 10.2365 22.3316 11.3103C22.3316 12.3841 21.4729 13.2525 20.4142 13.2525H9.49689C8.13867 13.2525 7.23467 13.2543 6.54133 13.3121C5.87022 13.3672 5.56533 13.465 5.37422 13.5645C4.84356 13.8383 4.41244 14.2756 4.14222 14.8125C4.04444 15.0063 3.94756 15.3156 3.89333 15.9947C3.83644 16.6987 3.83467 17.6134 3.83467 18.9903V22.3725C3.83467 23.7494 3.83644 24.6641 3.89244 25.3672C3.94756 26.0472 4.04444 26.3556 4.14133 26.5494C4.41244 27.0872 4.84356 27.5245 5.37422 27.7983C5.56533 27.897 5.87022 27.9956 6.54133 28.0507" fill="url(#paint5_radial_2053_433)"/>
</g>
<defs>
<linearGradient id="paint0_linear_2053_433" x1="15.1275" y1="22.4524" x2="15.3853" y2="-0.028444" gradientUnits="userSpaceOnUse">
<stop offset="0.431" stop-color="#498FFD"/>
<stop offset="1" stop-color="#16D1D6"/>
</linearGradient>
<radialGradient id="paint1_radial_2053_433" cx="0" cy="0" r="1" gradientTransform="matrix(13.9586 -3.90039 3.88402 13.9737 8.94882 6.85156)" gradientUnits="userSpaceOnUse">
<stop stop-color="#18CFD7"/>
<stop offset="1" stop-color="#18CFD7" stop-opacity="0"/>
</radialGradient>
<radialGradient id="paint2_radial_2053_433" cx="0" cy="0" r="1" gradientTransform="matrix(-4.80541 2.52378 -2.51319 -4.8106 17.4155 13.2756)" gradientUnits="userSpaceOnUse">
<stop stop-color="#4990FE"/>
<stop offset="0.354" stop-color="#4990FE"/>
<stop offset="1" stop-color="#4990FE" stop-opacity="0"/>
</radialGradient>
<radialGradient id="paint3_radial_2053_433" cx="0" cy="0" r="1" gradientTransform="matrix(6.86487 -7.11247 7.08262 6.87229 10.779 20.6178)" gradientUnits="userSpaceOnUse">
<stop stop-color="#4990FE"/>
<stop offset="0.406" stop-color="#4990FE"/>
<stop offset="1" stop-color="#4990FE" stop-opacity="0"/>
</radialGradient>
<linearGradient id="paint4_linear_2053_433" x1="22.4498" y1="32.0854" x2="22.5333" y2="9.1423" gradientUnits="userSpaceOnUse">
<stop stop-color="#2950FF"/>
<stop offset="0.822" stop-color="#498FFD"/>
</linearGradient>
<radialGradient id="paint5_radial_2053_433" cx="0" cy="0" r="1" gradientTransform="matrix(-6.17838 7.57134 -7.47191 -6.12956 22.4498 22.4499)" gradientUnits="userSpaceOnUse">
<stop offset="0.337" stop-color="#2950FF"/>
<stop offset="0.792" stop-color="#2950FF" stop-opacity="0"/>
</radialGradient>
<clipPath id="clip0_2053_433">
<rect width="32" height="32" fill="white"/>
</clipPath>
</defs>
</svg>
