<?xml version="1.0" standalone="no"?>
<!DOCTYPE svg PUBLIC "-//W3C//DTD SVG 20010904//EN"
 "http://www.w3.org/TR/2001/REC-SVG-20010904/DTD/svg10.dtd">
<svg version="1.0" xmlns="http://www.w3.org/2000/svg"
 width="1000.000000pt" height="1000.000000pt" viewBox="0 0 1000.000000 1000.000000"
 preserveAspectRatio="xMidYMid meet">
<metadata>
Created by potrace 1.14, written by Peter Selinger 2001-2017
</metadata>
<g transform="translate(0.000000,1000.000000) scale(0.100000,-0.100000)"
fill="#000000" stroke="none">
<path d="M4450 9994 c-695 -31 -1094 -63 -1625 -130 -539 -67 -690 -99 -925
-191 -729 -286 -1311 -880 -1578 -1609 -68 -185 -90 -278 -131 -570 -241
-1681 -238 -3342 9 -5043 46 -311 103 -494 246 -781 138 -276 292 -489 513
-710 236 -236 459 -394 761 -539 262 -125 435 -178 731 -221 1702 -247 3357
-250 5043 -9 291 41 385 63 570 131 643 234 1196 730 1507 1350 141 280 196
465 249 828 135 940 188 1743 177 2705 -7 583 -21 872 -68 1385 -35 382 -93
858 -139 1127 -23 134 -94 353 -169 522 -307 688 -898 1226 -1619 1475 -144
50 -197 62 -383 91 -503 78 -1102 139 -1729 176 -175 10 -1279 20 -1440 13z
m3087 -2300 c102 -49 159 -150 151 -267 -5 -73 -29 -128 -78 -177 -62 -62
-115 -80 -269 -90 -582 -39 -1037 -424 -1188 -1004 -26 -100 -27 -106 -30
-523 l-4 -423 563 0 563 0 50 -24 c103 -47 174 -170 162 -277 -12 -101 -73
-185 -166 -231 -45 -22 -57 -23 -426 -28 -411 -6 -411 -6 -513 -66 -140 -82
-232 -242 -232 -403 0 -597 -293 -1178 -775 -1536 -623 -463 -1467 -500 -2132
-94 -245 150 -487 396 -641 651 -283 468 -346 1048 -171 1573 137 411 392 745
754 987 293 196 614 302 952 315 178 7 217 -3 291 -71 68 -62 87 -106 87 -201
0 -70 -4 -87 -29 -133 -59 -106 -130 -142 -306 -153 -266 -16 -470 -84 -680
-224 -314 -209 -523 -532 -585 -904 -27 -159 -17 -388 23 -541 54 -208 137
-370 273 -534 196 -237 476 -402 786 -462 132 -26 368 -24 500 4 288 62 508
185 710 395 184 193 296 408 355 686 20 92 21 138 28 1131 8 1120 5 1062 64
1286 177 663 746 1197 1423 1334 224 45 403 46 490 4z"/>
</g>
</svg>
