<?xml version="1.0" standalone="no"?>
<!DOCTYPE svg PUBLIC "-//W3C//DTD SVG 20010904//EN"
 "http://www.w3.org/TR/2001/REC-SVG-20010904/DTD/svg10.dtd">
<svg version="1.0" xmlns="http://www.w3.org/2000/svg"
 width="500.000000pt" height="500.000000pt" viewBox="0 0 500.000000 500.000000"
 preserveAspectRatio="xMidYMid meet">
<metadata>
Created by potrace 1.11, written by Peter Selinger 2001-2013
</metadata>
<g transform="translate(0.000000,500.000000) scale(0.100000,-0.100000)"
fill="#000000" stroke="none">
<path d="M334 4982 c-132 -46 -228 -132 -291 -260 l-38 -76 0 -2146 0 -2146
39 -78 c51 -104 128 -181 232 -232 l78 -39 2146 0 2146 0 80 39 c105 52 178
125 230 230 l39 80 0 2145 0 2146 -37 78 c-50 105 -130 185 -235 235 l-78 37
-2130 2 c-2019 2 -2133 2 -2181 -15z m3828 -672 c79 -22 131 -91 131 -175 0
-60 -19 -101 -67 -143 -38 -33 -55 -37 -181 -48 -304 -24 -574 -210 -710 -489
-76 -154 -87 -217 -92 -537 l-5 -278 378 0 c364 0 379 -1 422 -21 103 -50 134
-191 60 -275 -59 -67 -65 -68 -353 -74 -305 -6 -328 -12 -414 -106 -64 -70
-80 -120 -91 -284 -23 -338 -147 -609 -384 -838 -395 -382 -972 -469 -1460
-219 -620 317 -869 1074 -557 1697 61 123 136 226 241 330 222 223 508 351
815 367 108 5 124 4 160 -15 49 -24 70 -46 90 -95 19 -46 19 -88 0 -135 -36
-86 -86 -113 -225 -123 -236 -18 -430 -108 -591 -276 -116 -120 -196 -266
-235 -429 -26 -110 -22 -296 9 -415 86 -327 337 -572 673 -656 103 -26 314
-23 419 6 243 66 461 241 574 461 33 65 48 103 87 230 4 14 11 347 14 740 7
685 8 719 29 813 93 417 363 744 747 903 170 70 419 111 516 84z"/>
</g>
</svg>
