<?xml version="1.0" encoding="utf-8"?>
<!-- Generator: Adobe Illustrator 26.1.0, SVG Export Plug-In . SVG Version: 6.00 Build 0)  -->
<svg version="1.1" id="Layer_1" xmlns="http://www.w3.org/2000/svg" xmlns:xlink="http://www.w3.org/1999/xlink" x="0px" y="0px"
	 viewBox="0 0 500 500" style="enable-background:new 0 0 500 500;" xml:space="preserve">
<style type="text/css">
	.st0{fill:#D53127;}
	.st1{fill:#F47320;}
	.st2{fill:url(#SVGID_1_);}
</style>
<path class="st0" d="M83.5,119.1h71.2L99.3,254.4c0,0-28.9-0.5-37.8-25.7c-2.5-7.5-2.7-15.6-0.6-23.2L83.5,119.1z"/>
<path class="st1" d="M359.5,122l-90.5-1.6l20.4-67.2C296,31.5,283.8,8.4,262,1.8c-3.9-1.2-7.9-1.8-11.9-1.8h-82.6L73.1,339.2
	c0,0-33.8,145.1,94.4,158.2c0,0,202.8,41.5,267.8-203.6C435.4,293.8,469.7,145.6,359.5,122z M297.7,290.2c0,0-3.6,62.6-50.8,73.6
	c-7,1.8-14.3,1-20.8-2.1c-7.4-3.8-15-11.6-14.9-28c0.1-4.7,0.9-9.5,2.3-14l17.4-65.1h47.6C278.5,254.4,300,261.5,297.7,290.2z"/>
<linearGradient id="SVGID_1_" gradientUnits="userSpaceOnUse" x1="423.0765" y1="142.4901" x2="280.4499" y2="361.3564" gradientTransform="matrix(1 0 0 -1 0 501.16)">
	<stop  offset="0.41" style="stop-color:#F47320"/>
	<stop  offset="0.5" style="stop-color:#F16D21"/>
	<stop  offset="0.62" style="stop-color:#E95C22"/>
	<stop  offset="0.75" style="stop-color:#DC4125"/>
	<stop  offset="0.81" style="stop-color:#D53127"/>
</linearGradient>
<path class="st2" d="M439.7,225.5c-8.7-99.6-80.2-103.5-80.2-103.5l-90.5-1.6l-38.9,134.8h47.5c8.7,0.5,24.6,14.9,19.5,40.3"/>
</svg>
