<?xml version="1.0" encoding="utf-8"?>
<!-- Generator: Adobe Illustrator 26.1.0, SVG Export Plug-In . SVG Version: 6.00 Build 0)  -->
<svg version="1.1" id="Layer_1" xmlns="http://www.w3.org/2000/svg" xmlns:xlink="http://www.w3.org/1999/xlink" x="0px" y="0px"
	 viewBox="0 0 500 500" style="enable-background:new 0 0 500 500;" xml:space="preserve">
<style type="text/css">
	.st0{fill-rule:evenodd;clip-rule:evenodd;}
</style>
<path class="st0" d="M309.9,128.9L193.5,371.1h-8.6l116.4-242.2H309.9z M324.9,209.1c0-6.8,2.6-12.3,7.8-16.5
	c5.3-4.2,12.1-6.4,20.5-6.4c5.5,0,10.7,0.6,15.7,1.7c5.2,1.1,11.2,3.3,18.1,6.6l-3.9,7.2c-6.3-3.1-11.7-5.3-16.1-6.6
	c-4.5-1.1-9-1.7-13.6-1.7c-6.2,0-11,1.4-14.4,4.2c-3.6,2.8-5.4,6.6-5.4,11.2c0,4.5,1.4,8.4,4.3,11.7c3,3.1,9.7,7.6,20,13.6
	c9.3,5.4,16.1,10,20.2,13.8c4.3,4,7.5,8.2,9.5,12.7c1.9,4.5,2.8,10,2.8,16.3c0,12.6-3.5,22.5-10.5,29.9c-7,7.2-16.9,10.8-29.5,10.8
	c-12.2,0-22-3.5-29.3-10.4c-7.2-6.8-10.8-15.9-10.8-27.4c0-10.7,3.1-19.5,9.3-26.3c6-6.9,15.7-12.1,29.1-15.5
	c-8.9-4.9-15.1-9.6-18.5-14C326.6,219.6,324.9,214.6,324.9,209.1z M421,195l33.2,51.7l33.6-51.7h9.3l-38.1,57.9L500,316h-9.7
	l-36.4-56.4l-37,56.4h-9.5l41.4-63.2L411.3,195H421z M337.1,248.7c-4.3,2.1-7.8,4.7-10.3,7.6c-2.6,2.8-4.5,6.2-5.8,10.2
	c-1.4,4-2.2,8.4-2.2,13.3c0,9.2,2.9,16.5,8.6,22c5.7,5.5,13.4,8.3,23.1,8.3c9.9,0,17.6-2.8,23.1-8.5c5.5-5.8,8.2-14.1,8.2-25
	c0-7.3-2-13.7-6-19.1c-3.9-5.4-10.6-10.4-20-15C347.5,244.5,341.3,246.6,337.1,248.7z M58.6,187.9c5.2,1.1,11.2,3.3,18.1,6.6
	l-3.9,7.2c-6.3-3.1-11.7-5.3-16.1-6.6c-4.4-1.1-9-1.7-13.6-1.7c-6.2,0-11,1.4-14.4,4.2c-3.6,2.8-5.4,6.6-5.4,11.2
	c0,4.5,1.4,8.4,4.3,11.7c3,3.1,9.7,7.6,20,13.6c9.3,5.4,16.1,10,20.2,13.8c4.3,4,7.5,8.2,9.5,12.7c1.9,4.5,2.8,10,2.8,16.3
	c0,12.6-3.5,22.5-10.5,29.9c-7,7.2-16.9,10.8-29.5,10.8c-12.2,0-22-3.5-29.3-10.4c-7.2-6.8-10.8-15.9-10.8-27.4
	c0-10.7,3.1-19.5,9.3-26.3c6-6.9,15.7-12.1,29.1-15.5c-8.9-4.9-15.1-9.6-18.5-14c-3.4-4.5-5.2-9.5-5.2-15c0-6.8,2.6-12.3,7.8-16.5
	c5.3-4.2,12.1-6.4,20.5-6.4C48.4,186.2,53.6,186.8,58.6,187.9z M27,248.7c-4.3,2.1-7.8,4.7-10.3,7.6c-2.6,2.8-4.5,6.2-5.8,10.2
	c-1.4,4-2.2,8.4-2.2,13.3c0,9.2,2.9,16.5,8.6,22c5.7,5.5,13.4,8.3,23.1,8.3c9.9,0,17.6-2.8,23.1-8.5c5.5-5.8,8.2-14.1,8.2-25
	c0-7.3-2-13.7-6-19.1c-3.9-5.4-10.6-10.4-20-15C37.4,244.5,31.2,246.6,27,248.7z M188.9,195L148,269.1V316h-8.8v-46.2L98,195h9.9
	l35.8,66.1l36-66.1H188.9z"/>
</svg>
