<svg width="24" height="24" viewBox="0 0 24 24" fill="none" xmlns="http://www.w3.org/2000/svg">
<g clip-path="url(#clip0_3_979)">
<path d="M0 0H24V24H0V0Z" fill="#090909"/>
<path d="M12 24C18.6274 24 24 18.6274 24 12C24 5.37258 18.6274 0 12 0C5.37258 0 0 5.37258 0 12C0 18.6274 5.37258 24 12 24Z" fill="#090909"/>
<path d="M13.7707 11.2019L14.925 9.24319L18.0363 14.0892L18.0378 15.0193L18.0277 8.61961C18.0203 8.46318 17.9372 8.32007 17.8047 8.23567L12.2031 5.01355C12.0722 4.94912 11.9059 4.94987 11.7751 5.0156C11.7575 5.0244 11.7408 5.03404 11.725 5.04456L11.7055 5.05683L6.26831 8.20763L6.24723 8.21721C6.2201 8.22968 6.19265 8.24554 6.16694 8.26396C6.06383 8.33788 5.99538 8.44722 5.97324 8.56985C5.96991 8.58844 5.96744 8.60733 5.96631 8.62647L5.97486 13.8415L8.8729 9.34966C9.2378 8.75406 10.0327 8.5622 10.7707 8.57263L11.6368 8.59548L6.53342 16.78L7.13502 17.1263L12.2995 8.6038L14.5823 8.59552L9.43108 17.3331L11.5777 18.5678L11.8342 18.7153C11.9427 18.7594 12.0706 18.7616 12.18 18.7221L17.8603 15.4303L16.7743 16.0596L13.7707 11.2019ZM14.2111 17.545L12.0429 14.1421L13.3665 11.8962L16.2139 16.3843L14.2111 17.545Z" fill="white" fill-opacity="0.1"/>
<path d="M12.043 14.1421L14.2111 17.545L16.214 16.3843L13.3665 11.8962L12.043 14.1421Z" fill="white"/>
<path d="M18.0381 15.0192L18.0366 14.0892L14.9253 9.24316L13.771 11.2019L16.7746 16.0595L17.8605 15.4302C17.9671 15.3436 18.0315 15.2167 18.0383 15.0797L18.0381 15.0192Z" fill="white"/>
<path d="M5 15.8963L6.53357 16.78L11.637 8.59552L10.7709 8.57266C10.0329 8.56224 9.23789 8.75409 8.87303 9.34969L5.97497 13.8416L5 15.3396V15.8963Z" fill="white"/>
<path d="M14.5826 8.59558L12.2998 8.60386L7.13525 17.1263L8.94042 18.1657L9.43132 17.3331L14.5826 8.59558Z" fill="white"/>
<path d="M19 8.58379C18.9809 8.10639 18.7224 7.66936 18.3175 7.41492L12.6425 4.15136C12.242 3.9497 11.7417 3.94944 11.3405 4.15123C11.293 4.17516 5.82165 7.34833 5.82165 7.34833C5.74592 7.38465 5.67298 7.42791 5.60438 7.47702C5.24294 7.73605 5.02263 8.1386 5 8.58084V15.3396L5.97497 13.8416L5.96646 8.62652C5.96759 8.60746 5.96999 8.58868 5.97339 8.57016C5.99544 8.44746 6.06394 8.338 6.16709 8.26402C6.19283 8.2456 11.7577 5.02445 11.7753 5.01561C11.9061 4.94992 12.0724 4.94915 12.2033 5.01357L17.8049 8.23563C17.9375 8.32003 18.0205 8.46313 18.0279 8.61956V15.0797C18.0211 15.2167 17.967 15.3437 17.8605 15.4302L16.7745 16.0595L16.2141 16.3843L14.2113 17.545L12.1802 18.722C12.0708 18.7615 11.9429 18.7593 11.8344 18.7152L9.43123 17.333L8.94033 18.1656L11.0999 19.409C11.1714 19.4496 11.235 19.4856 11.2872 19.5149C11.368 19.5603 11.4231 19.5906 11.4426 19.6001C11.5961 19.6746 11.817 19.718 12.016 19.718C12.1984 19.718 12.3764 19.6845 12.5447 19.6185L18.4443 16.202C18.7829 15.9396 18.9821 15.544 19 15.1153V8.58379Z" fill="white" fill-opacity="0.6"/>
</g>
<defs>
<clipPath id="clip0_3_979">
<rect width="24" height="24" rx="12" fill="white"/>
</clipPath>
</defs>
</svg>
