<svg width="25" height="24" viewBox="0 0 25 24" fill="none" xmlns="http://www.w3.org/2000/svg">
<path d="M12.9521 24C19.5796 24 24.9521 18.6274 24.9521 12C24.9521 5.37258 19.5796 0 12.9521 0C6.32473 0 0.952148 5.37258 0.952148 12C0.952148 18.6274 6.32473 24 12.9521 24Z" fill="#090909"/>
<path d="M17.1855 12.312C17.6031 11.592 18.2703 11.592 18.6879 12.312L21.2751 16.8576C21.6927 17.5776 21.3519 18.1632 20.5215 18.1632H15.3039C14.4831 18.1632 14.1423 17.5776 14.5503 16.8576L17.1855 12.312ZM12.1791 3.56161C12.5967 2.84161 13.2543 2.84161 13.6719 3.56161L14.2479 4.60321L15.6063 6.99361C15.9375 7.67521 15.9375 8.47681 15.6063 9.15841L11.0415 17.0688C10.6239 17.712 9.93752 18.12 9.16952 18.1632H5.38232C4.55192 18.1632 4.21112 17.5872 4.62872 16.8576L12.1791 3.56161Z" fill="white"/>
</svg>
