<svg xmlns="http://www.w3.org/2000/svg" width="458.917" height="457.936" viewBox="0 0 458.917 457.936"><g transform="translate(-317.021 -144.451)"><g transform="translate(0 -0.569)" fill="none" stroke-linecap="round" stroke-linejoin="round" opacity="0.75"><path d="M768.463,376.236c0,124.11-100.611,224.721-224.721,224.721S319.021,500.346,319.021,376.236,419.632,151.515,543.742,151.515,768.463,252.126,768.463,376.236ZM640.108,344.222c4.474-29.9-18.3-45.976-49.43-56.7l10.1-40.506-24.659-6.145-9.833,39.439c-6.482-1.616-13.141-3.139-19.756-4.648l9.9-39.7-24.645-6.144-10.106,40.491c-5.366-1.222-10.633-2.43-15.746-3.7l.028-.127-34.007-8.491L465.4,284.328s18.3,4.193,17.91,4.452c9.987,2.493,11.792,9.1,11.49,14.34l-11.5,46.145-.043.176-16.126,64.642c-1.222,3.034-4.32,7.584-11.3,5.857.246.358-17.923-4.474-17.923-4.474L425.66,443.689l32.09,8c5.97,1.5,11.82,3.062,17.579,4.536l-10.2,40.969,24.631,6.144L499.861,462.8q9.8,2.656,19.651,5.1L509.44,508.245,534.1,514.39,544.3,473.5c42.048,7.957,73.668,4.747,86.976-33.28,10.725-30.618-.534-48.28-22.657-59.8,16.111-3.713,28.248-14.31,31.485-36.2Zm-56.341,79c-7.621,30.618-59.178,14.066-75.893,9.916l13.541-54.276C538.13,383.028,591.732,391.287,583.768,423.218Zm7.627-79.438c-6.953,27.851-49.865,13.7-63.785,10.232l12.276-49.228C553.806,308.253,598.635,314.728,591.395,343.78Z" stroke="none"/><path d="M 543.741943359375 600.9569702148438 C 667.852294921875 600.9569702148438 768.4629516601562 500.3463439941406 768.4629516601562 376.2360534667969 C 768.4629516601562 252.1257019042969 667.852294921875 151.5149993896484 543.741943359375 151.5149993896484 C 419.6316528320312 151.5149993896484 319.02099609375 252.1257019042969 319.02099609375 376.2360534667969 C 319.02099609375 500.3463439941406 419.6316528320312 600.9569702148438 543.741943359375 600.9569702148438 M 499.8607177734375 462.8025207519531 L 489.7545776367188 503.3365783691406 L 465.1240539550781 497.1921081542969 L 475.3289489746094 456.2231140136719 C 469.5704650878906 454.7488098144531 463.7196044921875 453.1829833984375 457.75 451.6869812011719 L 425.6601867675781 443.6885070800781 L 437.9020690917969 415.4652404785156 C 437.9020690917969 415.4652404785156 454.7966003417969 419.9578857421875 455.7828674316406 419.957763671875 C 455.8193664550781 419.957763671875 455.8341369628906 419.9515991210938 455.8253479003906 419.9388122558594 C 456.8858642578125 420.201171875 457.8560180664062 420.3186645507812 458.7443237304688 420.318603515625 C 463.7032165527344 420.3182678222656 466.0890502929688 416.6544189453125 467.1257019042969 414.0815734863281 L 483.2512817382812 349.4398193359375 L 483.2938842773438 349.2640380859375 L 494.7981872558594 303.1192321777344 C 495.1007690429688 297.8808898925781 493.2957763671875 291.2724609375 483.308349609375 288.7796325683594 C 483.6943664550781 288.5205078125 465.3986511230469 284.327880859375 465.3986511230469 284.327880859375 L 471.9581298828125 257.9937438964844 L 505.9653015136719 266.4842834472656 L 505.9371643066406 266.6111145019531 C 511.0496520996094 267.8815307617188 516.3169555664062 269.0894165039062 521.68310546875 270.311767578125 L 531.7891845703125 229.8202819824219 L 556.4342041015625 235.9648132324219 L 546.5310668945312 275.6625366210938 C 553.146728515625 277.172119140625 559.8049926757812 278.6953430175781 566.2874145507812 280.3110046386719 L 576.1199340820312 240.8724060058594 L 600.7785034179688 247.0168762207031 L 590.6787719726562 287.5228881835938 C 621.8126220703125 298.2460632324219 644.5819091796875 314.32080078125 640.1083374023438 344.2223510742188 C 636.8706665039062 366.1117553710938 624.7339477539062 376.7080993652344 608.6228637695312 380.4214782714844 C 630.7461547851562 391.9384155273438 642.0048828125 409.5998229980469 631.2798461914062 440.2180480957031 C 621.6405029296875 467.7610473632812 602.4013061523438 477.0382995605469 576.5445556640625 477.0367431640625 C 566.7025756835938 477.0361633300781 555.8963012695312 475.6912536621094 544.3037719726562 473.4975891113281 L 534.0989379882812 514.3895263671875 L 509.4403686523438 508.2451171875 L 519.511962890625 467.9013366699219 C 512.9434204101562 466.2729797363281 506.3921203613281 464.5731201171875 499.8607177734375 462.8025207519531 M 553.437255859375 441.3271179199219 C 567.7001953125 441.3271179199219 580.2955322265625 437.1686096191406 583.7677001953125 423.2181091308594 C 591.731689453125 391.286865234375 538.1303100585938 383.0284118652344 521.415771484375 378.8574523925781 L 507.8745422363281 433.1339416503906 C 516.9739379882812 435.3930969238281 536.396240234375 441.3271179199219 553.437255859375 441.3271179199219 M 564.4869384765625 360.6854553222656 C 576.905029296875 360.6854553222656 588.1253051757812 356.8760375976562 591.3945922851562 343.7801208496094 C 598.635498046875 314.7276916503906 553.806396484375 308.2533569335938 539.885498046875 304.7846984863281 L 527.6091918945312 354.0122375488281 C 534.9837646484375 355.849853515625 550.4956665039062 360.6854553222656 564.4869384765625 360.6854553222656 M 543.741943359375 602.9569702148438 C 528.3604736328125 602.9569702148438 512.9880981445312 601.4072875976562 498.0517578125 598.3508911132812 C 483.4940490722656 595.3719482421875 469.1745910644531 590.9269409179688 455.4911804199219 585.1393432617188 C 442.0565795898438 579.45703125 429.0990600585938 572.4240112304688 416.9785766601562 564.2355346679688 C 404.9736938476562 556.125244140625 393.6849975585938 546.8111572265625 383.4258728027344 536.5521240234375 C 373.1668395996094 526.29296875 363.8527526855469 515.0042724609375 355.7424621582031 502.9993896484375 C 347.5540161132812 490.8789367675781 340.5209350585938 477.9214172363281 334.8386535644531 464.48681640625 C 329.0510559082031 450.8034057617188 324.6060485839844 436.4839477539062 321.6271057128906 421.9262390136719 C 318.5707092285156 406.9898681640625 317.02099609375 391.6175231933594 317.02099609375 376.2360534667969 C 317.02099609375 360.8545837402344 318.5707092285156 345.482177734375 321.6271057128906 330.5458679199219 C 324.6060485839844 315.9880981445312 329.0510559082031 301.6686401367188 334.8386535644531 287.9852294921875 C 340.5209350585938 274.5506286621094 347.5540161132812 261.5931091308594 355.7424621582031 249.4725799560547 C 363.8527526855469 237.4677581787109 373.1668395996094 226.1789855957031 383.4258728027344 215.9199371337891 C 393.6849975585938 205.6608123779297 404.9736938476562 196.3467559814453 416.9785766601562 188.2364654541016 C 429.0990600585938 180.0480499267578 442.0565795898438 173.0149993896484 455.4911804199219 167.3326416015625 C 469.1745910644531 161.5450439453125 483.4940490722656 157.1000518798828 498.0517578125 154.1211090087891 C 512.9880981445312 151.064697265625 528.3604736328125 149.5149993896484 543.741943359375 149.5149993896484 C 559.1234130859375 149.5149993896484 574.495849609375 151.064697265625 589.43212890625 154.1211090087891 C 603.9898681640625 157.1000518798828 618.309326171875 161.5450439453125 631.9927368164062 167.3326416015625 C 645.4273681640625 173.0149993896484 658.3848876953125 180.0480499267578 670.50537109375 188.2364654541016 C 682.5101928710938 196.3467559814453 693.7989501953125 205.6608123779297 704.0580444335938 215.9199371337891 C 714.317138671875 226.1789855957031 723.6311645507812 237.4677581787109 731.741455078125 249.4725799560547 C 739.9298706054688 261.5931091308594 746.9630126953125 274.5506286621094 752.6453247070312 287.9852294921875 C 758.432861328125 301.6686401367188 762.8778686523438 315.9880981445312 765.8568115234375 330.5458679199219 C 768.9132080078125 345.482177734375 770.4629516601562 360.8545837402344 770.4629516601562 376.2360534667969 C 770.4629516601562 391.6175231933594 768.9132080078125 406.9898681640625 765.8568115234375 421.9262390136719 C 762.8778686523438 436.4839477539062 758.432861328125 450.8034057617188 752.6453247070312 464.48681640625 C 746.9630126953125 477.9214172363281 739.9298706054688 490.8789367675781 731.741455078125 502.9993896484375 C 723.6311645507812 515.0042724609375 714.317138671875 526.29296875 704.0580444335938 536.5521240234375 C 693.7989501953125 546.8111572265625 682.5101928710938 556.125244140625 670.50537109375 564.2355346679688 C 658.3848876953125 572.4240112304688 645.4273681640625 579.45703125 631.9927368164062 585.1393432617188 C 618.309326171875 590.9269409179688 603.9898681640625 595.3719482421875 589.43212890625 598.3508911132812 C 574.495849609375 601.4072875976562 559.1234130859375 602.9569702148438 543.741943359375 602.9569702148438 Z M 511.8654479980469 506.7882385253906 L 532.642578125 511.9654846191406 L 542.36328125 473.0133361816406 C 542.5889892578125 472.1088256835938 543.4010620117188 471.4972839355469 544.302001953125 471.4972839355469 C 544.4253540039062 471.4972839355469 544.5502319335938 471.5087280273438 544.6756591796875 471.532470703125 C 557.134033203125 473.8899230957031 567.5584716796875 475.0362243652344 576.544677734375 475.0367431640625 L 576.5509643554688 477.0367431640625 L 576.5509643554688 475.0367431640625 C 589.9456176757812 475.0367431640625 600.5396728515625 472.4923400878906 608.9384155273438 467.258056640625 C 613.4241333007812 464.4624633789062 617.380859375 460.8055114746094 620.6988525390625 456.3887634277344 C 624.1807861328125 451.7535095214844 627.1056518554688 446.0906372070312 629.39208984375 439.5574035644531 C 631.9302978515625 432.3112182617188 633.2705078125 425.577392578125 633.375732421875 419.5424499511719 C 633.4259033203125 416.6625366210938 633.1963500976562 413.8748168945312 632.6934204101562 411.2567443847656 C 632.2061157226562 408.72021484375 631.4471435546875 406.2649230957031 630.4374389648438 403.9589233398438 C 629.4558715820312 401.7173461914062 628.2064208984375 399.5459289550781 626.7236328125 397.5050048828125 C 625.2788696289062 395.516357421875 623.5670776367188 393.5888061523438 621.6356811523438 391.7759399414062 C 617.9449462890625 388.3115234375 613.2560424804688 385.0881652832031 607.6993408203125 382.1954650878906 C 606.956298828125 381.8086242675781 606.5330810546875 380.9996948242188 606.638916015625 380.168701171875 C 606.7448120117188 379.3377075195312 607.3573608398438 378.6607055664062 608.1737060546875 378.4725952148438 C 612.1280517578125 377.5610961914062 615.749267578125 376.2298278808594 618.9367065429688 374.5155944824219 C 622.2756958007812 372.7198181152344 625.2342529296875 370.4516906738281 627.7301635742188 367.774169921875 C 630.3616943359375 364.9512329101562 632.5594482421875 361.5870361328125 634.2623901367188 357.7751159667969 C 636.0674438476562 353.7346496582031 637.36865234375 349.0763549804688 638.1298828125 343.9296875 C 638.6563720703125 340.4105224609375 638.798095703125 337.00146484375 638.5516357421875 333.7940368652344 C 638.314453125 330.70751953125 637.7103881835938 327.7144775390625 636.7562255859375 324.8980407714844 C 635.834716796875 322.1781616210938 634.5576782226562 319.5376281738281 632.9605102539062 317.0498046875 C 631.4135131835938 314.6401062011719 629.5180053710938 312.2982788085938 627.3265380859375 310.08935546875 C 619.3873291015625 302.0868835449219 607.1867065429688 295.3238830566406 590.0274658203125 289.4138793945312 C 589.0470581054688 289.076171875 588.4873046875 288.045166015625 588.7381591796875 287.0390014648438 L 598.35400390625 248.473876953125 L 577.5767822265625 243.2965698242188 L 568.22802734375 280.7948303222656 C 568.0013427734375 281.7041015625 567.185546875 282.3114318847656 566.2889404296875 282.3114929199219 C 566.1287841796875 282.3114929199219 565.9661865234375 282.2921142578125 565.8037719726562 282.2516479492188 C 559.1546630859375 280.5944519042969 552.2117309570312 279.0101623535156 546.0861206054688 277.6123962402344 C 545.5621948242188 277.4928894042969 545.1083984375 277.1674499511719 544.8270874023438 276.7095947265625 C 544.5457153320312 276.251708984375 544.46044921875 275.6998596191406 544.5905151367188 275.1784057617188 L 554.0094604492188 237.4215087890625 L 533.2454833984375 232.2445831298828 L 523.6235961914062 270.7960510253906 C 523.3970947265625 271.7034606933594 522.582763671875 272.3121032714844 521.684814453125 272.3121948242188 C 521.5376586914062 272.3121948242188 521.3883666992188 272.2958679199219 521.2389526367188 272.2618103027344 C 515.8302612304688 271.0297546386719 510.5531311035156 269.8189392089844 505.4548950195312 268.5521240234375 C 505.2114562988281 268.4916076660156 504.9895324707031 268.3888549804688 504.7949523925781 268.2534484863281 L 473.4151611328125 260.4189147949219 L 467.8312377929688 282.8365173339844 C 469.5578308105469 283.2364501953125 472.1856079101562 283.8488159179688 474.7961730957031 284.4715270996094 C 477.4032897949219 285.0934143066406 479.4857788085938 285.6042785644531 480.9857177734375 285.989990234375 C 481.9043579101562 286.2262268066406 482.5927124023438 286.4121704101562 483.0899353027344 286.558349609375 C 483.3873596191406 286.6458129882812 483.6163635253906 286.71923828125 483.7900085449219 286.7828063964844 C 483.9046325683594 286.8247985839844 484.0128784179688 286.8710327148438 484.1148376464844 286.9216003417969 C 488.962890625 288.1927795410156 492.4897155761719 290.5221252441406 494.6006469726562 293.8481750488281 C 496.264892578125 296.470458984375 497.003173828125 299.6285095214844 496.7948303222656 303.2345886230469 C 496.7876586914062 303.35888671875 496.7688903808594 303.4822387695312 496.73876953125 303.6030578613281 L 485.2369384765625 349.7379760742188 L 485.195068359375 349.9108276367188 C 485.1940002441406 349.9151611328125 485.1929321289062 349.9195251464844 485.1918334960938 349.9238891601562 L 469.0662231445312 414.5656433105469 C 469.0438842773438 414.6553344726562 469.0152893066406 414.7433471679688 468.9807739257812 414.8290405273438 C 468.4417724609375 416.166748046875 467.4454040527344 418.0868225097656 465.7595825195312 419.6369934082031 C 463.82470703125 421.4162292480469 461.4644775390625 422.3184509277344 458.7444152832031 422.3186340332031 C 457.7627258300781 422.3186950683594 456.7279968261719 422.1967468261719 455.6640625 421.9558410644531 C 455.2296447753906 421.9374084472656 454.0720520019531 421.7407531738281 445.9722900390625 419.6479187011719 C 443.3175048828125 418.9620056152344 440.68798828125 418.2705688476562 439.0525817871094 417.8387145996094 L 428.4343566894531 442.3187866210938 L 458.2337036132812 449.746337890625 C 461.8217163085938 450.6455078125 465.4004821777344 451.5785827636719 468.8614196777344 452.4808654785156 C 471.1520080566406 453.078125 473.5206604003906 453.6956481933594 475.8250122070312 454.2855834960938 C 476.8901062011719 454.5582885742188 477.535400390625 455.6396484375 477.2696533203125 456.7065124511719 L 467.5480041503906 495.7355041503906 L 488.2979125976562 500.9118957519531 L 497.9201049804688 462.3186950683594 C 498.0501098632812 461.7971801757812 498.3846435546875 461.3499450683594 498.8481750488281 461.0777587890625 C 499.1578674316406 460.8959350585938 499.5078735351562 460.8025207519531 499.8607788085938 460.8025207519531 C 500.0360107421875 460.8025207519531 500.2118835449219 460.8255310058594 500.3840026855469 460.8721618652344 C 506.8733520507812 462.6314086914062 513.4708251953125 464.3432312011719 519.9931640625 465.9601135253906 C 520.5086059570312 466.0878601074219 520.9520263671875 466.4153442382812 521.2257690429688 466.8703308105469 C 521.4994506835938 467.3254089355469 521.5809936523438 467.8705749511719 521.452392578125 468.3857421875 L 511.8654479980469 506.7882385253906 Z M 553.437255859375 443.3271179199219 C 546.936279296875 443.3271179199219 539.6136474609375 442.5069885253906 531.05078125 440.8199462890625 C 523.8728637695312 439.4057006835938 517.3856201171875 437.6924743652344 512.1729736328125 436.3158874511719 C 510.3408203125 435.8320007324219 508.758544921875 435.4141235351562 507.392578125 435.0749816894531 C 506.8774108886719 434.9471130371094 506.4342346191406 434.61962890625 506.16064453125 434.1647644042969 C 505.8870544433594 433.7098083496094 505.8055419921875 433.1648254394531 505.9339904785156 432.6498107910156 L 519.4752197265625 378.3733520507812 C 519.6036376953125 377.858642578125 519.9312133789062 377.4160461425781 520.385986328125 377.1429443359375 C 520.6995849609375 376.95458984375 521.0559692382812 376.8574523925781 521.415771484375 376.8574523925781 C 521.5776977539062 376.8574523925781 521.7402954101562 376.8771057128906 521.9000244140625 376.9169921875 C 523.5567016601562 377.3304138183594 525.5745239257812 377.7831115722656 527.9109497070312 378.3072814941406 C 535.9864501953125 380.1190490722656 547.0463256835938 382.6004028320312 557.4764404296875 386.6321105957031 C 563.2410888671875 388.8603515625 568.2014770507812 391.3451538085938 572.2199096679688 394.0175170898438 C 577.0144653320312 397.2061157226562 580.6544799804688 400.7821655273438 583.0387573242188 404.6463928222656 C 586.5460815429688 410.3306884765625 587.4441528320312 416.741943359375 585.708251953125 423.7021179199219 C 583.9484252929688 430.7729187011719 579.8644409179688 436.0142211914062 573.5699462890625 439.2794189453125 C 570.8358154296875 440.69775390625 567.640869140625 441.756103515625 564.0739135742188 442.4251098632812 C 560.8827514648438 443.0236511230469 557.3040771484375 443.3271179199219 553.437255859375 443.3271179199219 Z M 564.4869384765625 362.6854553222656 C 559.1573486328125 362.6854553222656 553.2164916992188 362.022216796875 546.3250122070312 360.6578063964844 C 540.548095703125 359.5140991210938 535.331298828125 358.1221618652344 531.1394653320312 357.0036926269531 C 529.5994873046875 356.5927429199219 528.2694091796875 356.2379455566406 527.1256103515625 355.952880859375 C 526.61083984375 355.8246459960938 526.1680908203125 355.4971008300781 525.8948974609375 355.0424194335938 C 525.6216430664062 354.587646484375 525.5402221679688 354.0430603027344 525.6685791015625 353.5282897949219 L 537.9448852539062 304.3007507324219 C 538.171630859375 303.3915710449219 538.9873657226562 302.7842407226562 539.8839111328125 302.7842407226562 C 540.0440063476562 302.7842407226562 540.2066040039062 302.8035888671875 540.3690185546875 302.8440551757812 C 541.7506713867188 303.1882934570312 543.4423217773438 303.5626831054688 545.4010620117188 303.9962158203125 C 551.99853515625 305.4563598632812 561.0340576171875 307.4561157226562 569.5900268554688 310.8025207519531 C 574.3270263671875 312.6552734375 578.423095703125 314.7435302734375 581.7645874023438 317.0092163085938 C 585.7564697265625 319.7160034179688 588.8263549804688 322.777587890625 590.8888549804688 326.1089477539062 C 594.1869506835938 331.4358825683594 595.010009765625 337.5440368652344 593.3352661132812 344.2637634277344 C 591.6762084960938 350.9091796875 587.972412109375 355.8336486816406 582.3263549804688 358.9011840820312 C 579.87841796875 360.2311096191406 577.0289916992188 361.2225341796875 573.8572387695312 361.8478088378906 C 571.0382080078125 362.4036254882812 567.8855590820312 362.6854553222656 564.4869384765625 362.6854553222656 Z" stroke="none" fill="#fd9526"/></g><path d="M768.463,376.236c0,124.11-100.611,224.721-224.721,224.721S319.021,500.346,319.021,376.236,419.632,151.515,543.742,151.515,768.463,252.126,768.463,376.236ZM640.108,344.222c4.474-29.9-18.3-45.976-49.43-56.7l10.1-40.506-24.659-6.145-9.833,39.439c-6.482-1.616-13.141-3.139-19.756-4.648l9.9-39.7-24.645-6.144-10.106,40.491c-5.366-1.222-10.633-2.43-15.746-3.7l.028-.127-34.007-8.491L465.4,284.328s18.3,4.193,17.91,4.452c9.987,2.493,11.792,9.1,11.49,14.34l-11.5,46.145a20.44,20.44,0,0,1,2.563.822c-.822-.2-1.7-.429-2.606-.646l-16.126,64.642c-1.222,3.034-4.32,7.584-11.3,5.857.246.358-17.923-4.474-17.923-4.474L425.66,443.689l32.09,8c5.97,1.5,11.82,3.062,17.579,4.536l-10.2,40.969,24.631,6.144L499.861,462.8q9.8,2.656,19.651,5.1L509.44,508.245,534.1,514.39,544.3,473.5c42.048,7.957,73.668,4.747,86.976-33.28,10.725-30.618-.534-48.28-22.657-59.8,16.111-3.713,28.248-14.31,31.485-36.2Zm-56.341,79c-7.621,30.618-59.178,14.066-75.893,9.916l13.541-54.276C538.13,383.028,591.732,391.287,583.768,423.218Zm7.627-79.438c-6.953,27.851-49.865,13.7-63.785,10.232l12.276-49.228C553.806,308.253,598.635,314.728,591.395,343.78Z" transform="translate(0 -0.569)" fill="#ff9500" opacity="0.3"/><g transform="translate(461.154 145.451)"><line x2="148.923" transform="translate(6.454 4.122)" stroke-width="2" stroke="#ff9500" stroke-linecap="round" stroke-linejoin="round" fill="#fff"/><rect width="9.149" height="9.149" rx="2.507" transform="translate(88.912) rotate(90)" fill="#fff" stroke="#ff9500" stroke-miterlimit="10" stroke-width="2"/><circle cx="3.069" cy="3.069" r="3.069" transform="translate(0 1.287)" fill="#ff9500"/><circle cx="3.069" cy="3.069" r="3.069" transform="translate(155.377 1.287)" fill="#ff9500"/></g><g transform="translate(629.241 310.377)"><line x1="11.953" y2="62.099" transform="translate(3.652 4.526)" stroke-width="2" stroke="#ff9500" stroke-linecap="round" stroke-linejoin="round" fill="#fff"/><rect width="9.149" height="9.149" rx="2.507" transform="matrix(-0.982, -0.188, 0.188, -0.982, 13.261, 41.365)" fill="#fff" stroke="#ff9500" stroke-miterlimit="10" stroke-width="2"/><circle cx="3.069" cy="3.069" r="3.069" transform="translate(13.12)" fill="#ff9500"/><circle cx="3.069" cy="3.069" r="3.069" transform="translate(0 65.598)" fill="#ff9500"/></g><g transform="translate(573.284 238.272)"><line x2="23.413" y2="5.974" transform="translate(3.069 3.069)" stroke-width="2" stroke="#ff9500" stroke-linecap="round" stroke-linejoin="round" fill="#fff"/><line x1="5.618" y2="22.422" transform="translate(19.485 13.848)" stroke-width="2" stroke="#ff9500" stroke-linecap="round" stroke-linejoin="round" fill="#fff"/><rect width="9.149" height="9.149" rx="2.507" transform="translate(32.028 5.712) rotate(104.015)" fill="#fff" stroke="#ff9500" stroke-miterlimit="10" stroke-width="2"/><circle cx="3.069" cy="3.069" r="3.069" fill="#ff9500"/><circle cx="3.069" cy="3.069" r="3.069" transform="translate(16.416 33.201)" fill="#ff9500"/></g><g transform="translate(529.226 296.963)"><line x1="23.47" y1="5.746" transform="translate(9.708 5.549)" stroke-width="2" stroke="#ff9500" stroke-linecap="round" stroke-linejoin="round" fill="#fff"/><line x1="5.594" y2="22.428" transform="translate(3.069 10.437)" stroke-width="2" stroke="#ff9500" stroke-linecap="round" stroke-linejoin="round" fill="#fff"/><rect width="9.149" height="9.149" rx="2.507" transform="matrix(-0.243, 0.97, -0.97, -0.243, 15.256, 2.222)" fill="#fff" stroke="#ff9500" stroke-miterlimit="10" stroke-width="2"/><circle cx="3.069" cy="3.069" r="3.069" transform="translate(30.109 8.226)" fill="#ff9500"/><circle cx="3.069" cy="3.069" r="3.069" transform="translate(0 29.796)" fill="#ff9500"/></g><g transform="translate(765.789 290.87)"><line y2="148.923" transform="translate(5.028 6.454)" stroke-width="2" stroke="#ff9500" stroke-linecap="round" stroke-linejoin="round" fill="#fff"/><rect width="9.149" height="9.149" rx="2.507" transform="translate(9.149 88.912) rotate(180)" fill="#fff" stroke="#ff9500" stroke-miterlimit="10" stroke-width="2"/><circle cx="3.069" cy="3.069" r="3.069" transform="translate(1.725)" fill="#ff9500"/><circle cx="3.069" cy="3.069" r="3.069" transform="translate(1.725 155.377)" fill="#ff9500"/></g><rect width="9.149" height="9.149" rx="2.507" transform="translate(478.233 255.348) rotate(103.571)" fill="#fff" stroke="#ff9500" stroke-miterlimit="10" stroke-width="2"/></g></svg>