<svg width="21" height="24" viewBox="0 0 21 24" fill="none" xmlns="http://www.w3.org/2000/svg">
<path d="M10.4803 0L0 6.00201V18.002L10.4803 24L20.9523 18.002V6.00201L10.4803 0Z" fill="white"/>
<path d="M10.4802 0.748291L0.748535 6.36734V17.6017L10.4802 23.217L20.2043 17.6017V6.36734L10.4802 0.748291ZM17.3233 15.9371L10.4802 19.8877L3.63339 15.9371V8.02821L10.4802 4.07754L17.3233 8.02821V15.9371Z" fill="#090909"/>
<path style="mix-blend-mode:multiply" d="M10.48 23.217L20.2041 17.6017V6.36734L10.48 0.748291V4.0813L17.323 8.03197V15.9408L10.48 19.8877V23.217Z" fill="#090909"/>
<path style="mix-blend-mode:multiply" d="M10.4727 0.748291L0.748535 6.36358V17.5979L10.4727 23.217V19.884L3.62961 15.9333V8.02443L10.4727 4.07754V0.748291Z" fill="#090909"/>
<path d="M15.0183 14.6076L10.4764 17.2289L5.93066 14.6076V9.36143L10.4764 6.73645L15.0183 9.36143L13.1277 10.4536L10.4764 8.92081L7.82502 10.4536V13.5117L10.4764 15.0445L13.1277 13.5117L15.0183 14.6076Z" fill="#090909"/>
</svg>
