<svg width="25" height="24" viewBox="0 0 25 24" fill="none" xmlns="http://www.w3.org/2000/svg">
<g clip-path="url(#clip0_3_992)">
<path d="M0.952148 0H24.9521V24H0.952148V0Z" fill="#090909"/>
<path d="M12.9521 24C19.5795 24 24.9521 18.6274 24.9521 12C24.9521 5.37258 19.5795 0 12.9521 0C6.32473 0 0.952148 5.37258 0.952148 12C0.952148 18.6274 6.32473 24 12.9521 24Z" fill="#090909"/>
<path d="M12.5715 4.15327C12.9604 3.94891 13.5521 3.94891 13.941 4.15327L17.9091 6.23853C18.1433 6.36161 18.2719 6.54501 18.295 6.73433H18.2988V17.216C18.2936 17.4225 18.1638 17.6276 17.9091 17.7615L13.941 19.8467C13.5521 20.0511 12.9604 20.0511 12.5715 19.8467L8.60347 17.7615C8.34987 17.6282 8.22817 17.4216 8.22215 17.216C8.22155 17.1957 8.22147 17.1788 8.22205 17.1648L8.22202 6.80166C8.22162 6.79031 8.22158 6.77897 8.22191 6.76768L8.22215 6.73433L8.22392 6.73432C8.24155 6.54292 8.36433 6.36421 8.60347 6.23853L12.5715 4.15327ZM17.6741 12.582L13.941 14.5438C13.5521 14.7481 12.9604 14.7481 12.5715 14.5438L8.84665 12.5864V17.1952L12.5715 19.1423C12.7819 19.2542 13.0002 19.3632 13.2136 19.3771L13.2563 19.3785C13.4787 19.3792 13.6946 19.2668 13.9136 19.1605L17.6741 17.1785V12.582ZM7.57674 16.9881C7.57674 17.3896 7.62365 17.6536 7.71679 17.8396C7.79399 17.9937 7.90982 18.1115 8.12132 18.2548L8.1334 18.263C8.17981 18.2941 8.23095 18.3267 8.29318 18.365L8.36658 18.4097L8.59197 18.5451L8.26871 19.0768L8.01644 18.9252L7.97404 18.8993C7.9011 18.8545 7.84064 18.8161 7.78425 18.7782C7.18146 18.3738 6.95665 17.9331 6.95222 17.016L6.95215 16.9881H7.57674ZM12.9439 9.77259C12.915 9.78246 12.8879 9.79388 12.8632 9.80685L8.89517 11.8921C8.89101 11.8943 8.88703 11.8965 8.88326 11.8986L8.8799 11.9006L8.88612 11.9041L8.89517 11.909L12.8632 13.9943C12.8879 14.0072 12.915 14.0186 12.9439 14.0285V9.77259ZM13.5686 9.77259V14.0285C13.5975 14.0186 13.6246 14.0072 13.6493 13.9943L17.6174 11.909C17.6216 11.9068 17.6255 11.9046 17.6293 11.9025L17.6327 11.9006L17.6264 11.897L17.6174 11.8921L13.6493 9.80685C13.6246 9.79388 13.5975 9.78246 13.5686 9.77259ZM17.6741 7.47787L14.1145 9.34849L17.6741 11.2191V7.47787ZM8.84665 7.48224V11.2147L12.398 9.34849L8.84665 7.48224ZM13.6493 4.70277C13.4429 4.59433 13.0696 4.59433 12.8632 4.70277L8.89517 6.78804C8.89101 6.79023 8.88703 6.79239 8.88326 6.79453L8.8799 6.79647L8.88612 6.80002L8.89517 6.80491L12.8632 8.89018C13.0696 8.99861 13.4429 8.99861 13.6493 8.89018L17.6174 6.80491C17.6216 6.80272 17.6255 6.80056 17.6293 6.79841L17.6327 6.79647L17.6264 6.79292L17.6174 6.78804L13.6493 4.70277ZM18.2605 4.93144L18.5128 5.08303L18.5552 5.10893C18.6281 5.15373 18.6886 5.19221 18.745 5.23004C19.3478 5.63437 19.5726 6.07521 19.5769 6.99226L19.5771 7.02019H18.9525C18.9525 6.61859 18.9056 6.35465 18.8124 6.16868C18.7352 6.01456 18.6194 5.89677 18.4079 5.75345L18.3958 5.74531C18.3494 5.71417 18.2983 5.68156 18.236 5.64322L18.1626 5.5985L17.9373 5.46317L18.2605 4.93144Z" fill="white"/>
</g>
<defs>
<clipPath id="clip0_3_992">
<rect x="0.952148" width="24" height="24" rx="12" fill="white"/>
</clipPath>
</defs>
</svg>
