<svg width="71" height="18" xmlns="http://www.w3.org/2000/svg"><path d="M5.472 14.192c-.976 0-1.816-.215-2.519-.646a4.268 4.268 0 0 1-1.62-1.79C.956 10.994.767 10.118.767 9.13c0-1.001.192-1.882.575-2.643A4.343 4.343 0 0 1 2.97 4.7c.701-.43 1.531-.646 2.49-.646.8 0 1.508.146 2.122.438.59.272 1.098.697 1.47 1.23.367.529.575 1.149.627 1.86H7.466a2.139 2.139 0 0 0-.636-1.185c-.335-.318-.781-.477-1.34-.477-.71 0-1.285.28-1.722.841-.437.56-.655 1.337-.655 2.33 0 1.001.216 1.788.649 2.359.432.57 1.009.856 1.729.856.507 0 .938-.145 1.294-.435.356-.29.583-.698.68-1.227h2.213c-.056.695-.26 1.308-.614 1.841-.354.533-.835.95-1.445 1.253-.61.302-1.325.454-2.147.454Zm10.393 0c-.959 0-1.79-.211-2.493-.633a4.272 4.272 0 0 1-1.633-1.774c-.386-.76-.578-1.646-.578-2.656 0-1.014.192-1.901.578-2.662a4.3 4.3 0 0 1 1.633-1.777c.703-.424 1.534-.636 2.493-.636.959 0 1.79.212 2.496.636a4.265 4.265 0 0 1 1.633 1.777c.384.76.576 1.648.576 2.662 0 1.01-.192 1.895-.576 2.656a4.244 4.244 0 0 1-1.633 1.774c-.705.422-1.537.633-2.496.633Zm.013-1.854c.524 0 .96-.143 1.307-.428.347-.286.607-.672.78-1.16.172-.488.259-1.03.259-1.627a4.86 4.86 0 0 0-.26-1.633c-.172-.488-.432-.877-.779-1.167-.347-.29-.783-.435-1.307-.435-.529 0-.969.145-1.32.435-.352.29-.615.679-.79 1.167a4.819 4.819 0 0 0-.262 1.633c0 .596.088 1.139.262 1.627.175.488.438.874.79 1.16.351.285.791.428 1.32.428Zm10.291 1.835a3.718 3.718 0 0 1-2.071-.595c-.61-.396-1.09-.971-1.445-1.726-.353-.754-.53-1.67-.53-2.748 0-1.091.18-2.012.54-2.762.36-.75.847-1.319 1.46-1.706a3.762 3.762 0 0 1 2.052-.582c.58 0 1.054.097 1.423.29.368.195.662.427.882.698.22.27.386.525.502.763h.095V.91h2.32V14h-2.275v-1.547h-.14c-.12.239-.292.491-.518.758-.25.284-.554.516-.895.68-.37.188-.837.282-1.4.282Zm.646-1.899c.737 0 1.306-.293 1.706-.879.4-.586.601-1.354.601-2.304 0-.955-.198-1.716-.594-2.285-.397-.57-.968-.854-1.713-.854-.772 0-1.353.294-1.745.883-.392.588-.588 1.34-.588 2.256 0 .92.198 1.681.594 2.282.396.6.976.901 1.739.901ZM33.87 14V4.182h2.244v1.636h.102c.18-.57.487-1.01.924-1.317.437-.306.936-.46 1.499-.46.128 0 .272.006.431.016.16.01.293.027.4.048v2.129a2.547 2.547 0 0 0-.464-.093 4.69 4.69 0 0 0-.61-.042c-.635 0-1.162.2-1.582.598-.42.399-.63.909-.63 1.531V14H33.87Zm11.014.192c-.959 0-1.79-.211-2.493-.633a4.272 4.272 0 0 1-1.633-1.774c-.386-.76-.579-1.646-.579-2.656 0-1.014.193-1.901.579-2.662a4.3 4.3 0 0 1 1.633-1.777c.703-.424 1.534-.636 2.493-.636.959 0 1.79.212 2.496.636a4.265 4.265 0 0 1 1.633 1.777c.384.76.575 1.648.575 2.662 0 1.01-.191 1.895-.575 2.656a4.244 4.244 0 0 1-1.633 1.774c-.705.422-1.537.633-2.496.633Zm.013-1.854c.524 0 .96-.143 1.307-.428.347-.286.607-.672.78-1.16.172-.488.259-1.03.259-1.627a4.86 4.86 0 0 0-.26-1.633c-.172-.488-.432-.877-.78-1.167-.346-.29-.782-.435-1.306-.435-.529 0-.969.145-1.32.435-.352.29-.615.679-.79 1.167a4.819 4.819 0 0 0-.262 1.633c0 .596.088 1.139.262 1.627.175.488.438.874.79 1.16.351.285.791.428 1.32.428Zm6.647 5.344v-13.5h2.276v1.623h.134c.12-.238.287-.493.502-.763.215-.271.51-.503.882-.697.373-.194.847-.291 1.422-.291.759 0 1.444.194 2.055.582.612.387 1.098.956 1.458 1.706.36.75.54 1.67.54 2.762 0 1.078-.177 1.994-.53 2.748-.354.755-.836 1.33-1.445 1.726a3.72 3.72 0 0 1-2.071.595c-.563 0-1.03-.094-1.4-.282a2.785 2.785 0 0 1-.892-.68 4.211 4.211 0 0 1-.52-.758h-.097v5.229h-2.314Zm2.27-8.591c0 .95.2 1.718.6 2.304.401.586.97.88 1.707.88.763 0 1.342-.301 1.739-.902.396-.601.594-1.362.594-2.282 0-.916-.196-1.668-.588-2.256-.392-.589-.974-.883-1.745-.883-.746 0-1.317.285-1.713.854-.396.569-.594 1.33-.594 2.285Zm16.734-2.314-2.11.23a1.708 1.708 0 0 0-.571-.856c-.292-.248-.705-.371-1.237-.371-.482 0-.886.104-1.212.313-.326.209-.486.48-.482.812-.011.27.106.53.316.7.215.18.572.327 1.07.438L68 8.4c1.836.4 2.757 1.286 2.76 2.659 0 .618-.178 1.162-.536 1.633-.358.47-.852.838-1.483 1.102-.63.265-1.355.397-2.173.397-1.206 0-2.174-.254-2.902-.76-.729-.508-1.166-1.211-1.31-2.11l2.256-.218c.2.895.85 1.343 1.95 1.343.55 0 .991-.112 1.326-.336.334-.224.501-.504.501-.84 0-.55-.44-.923-1.323-1.119L65.391 9.8c-.942-.196-1.639-.527-2.09-.994-.452-.466-.676-1.057-.672-1.773 0-.605.166-1.13.499-1.576.332-.445.797-.79 1.393-1.035.597-.246 1.29-.368 2.078-.368 1.15 0 2.057.246 2.72.738.662.492 1.072 1.154 1.23 1.985h-.001Z" fill="#334BF7" fill-rule="nonzero"/></svg>