<svg width="25" height="24" viewBox="0 0 25 24" fill="none" xmlns="http://www.w3.org/2000/svg">
<g clip-path="url(#clip0_3_1001)">
<path d="M24.9521 0H0.952148V24H24.9521V0Z" fill="#090909"/>
<path d="M12.9521 24C19.5796 24 24.9521 18.6275 24.9521 12C24.9521 5.37258 19.5796 0 12.9521 0C6.32473 0 0.952148 5.37258 0.952148 12C0.952148 18.6275 6.32473 24 12.9521 24Z" fill="#090909"/>
<path fill-rule="evenodd" clip-rule="evenodd" d="M6.10107 6.66252L12.9805 13.3517L19.774 6.80169L19.515 6.52337C17.8315 4.71168 15.4129 3.66669 12.8945 3.66669H12.8799C10.3899 3.66669 8.07291 4.64253 6.37475 6.38417L6.10107 6.66252ZM12.9814 12.2509L7.22427 6.66252C8.74944 5.22753 10.7497 4.44669 12.8945 4.44669H12.9091C15.0678 4.44669 17.1403 5.29752 18.6663 6.77417L12.9814 12.2509Z" fill="white"/>
<path d="M19.2849 8.44665L19.9184 7.8333L20.076 8.0841C20.8669 9.34912 21.2851 10.7996 21.2853 12.2783C21.2714 16.7241 17.5429 20.3333 12.9519 20.3333H12.9372C8.3464 20.3333 4.60406 16.6958 4.6187 12.2508C4.61996 10.7704 5.0432 9.31912 5.84176 8.05665L5.98547 7.81995L6.74807 8.55832C6.60431 8.76667 6.47435 8.98995 6.38828 9.24082C5.78416 10.8433 6.64736 12.6133 8.31712 13.1983C9.31037 13.5325 10.3613 13.3791 11.1815 12.85L12.9519 14.5783L14.9814 12.6133C15.1691 12.7391 15.3843 12.8366 15.6149 12.9199C17.2417 13.4775 19.0259 12.655 19.6017 11.0941C19.9468 10.1749 19.7884 9.2133 19.2849 8.44665Z" fill="white"/>
<path d="M7.33936 10.4675C7.339 10.1057 7.46013 9.75352 7.68453 9.46417L10.0738 11.7634C9.78631 11.9858 9.42654 12.1117 9.03751 12.1117C8.10196 12.1117 7.33936 11.3734 7.33936 10.4675Z" fill="white"/>
<path d="M16.0181 11.6233C16.2919 11.8042 16.6085 11.9017 16.9684 11.9017C17.9039 11.9017 18.6664 11.1634 18.6664 10.2575C18.6664 9.92329 18.5658 9.60244 18.379 9.33746L16.0181 11.6233Z" fill="white"/>
</g>
<defs>
<clipPath id="clip0_3_1001">
<rect x="0.952148" width="24" height="24" rx="12" fill="white"/>
</clipPath>
</defs>
</svg>
