<?xml version="1.0" encoding="utf-8"?>
<!-- Generator: Adobe Illustrator 26.1.0, SVG Export Plug-In . SVG Version: 6.00 Build 0)  -->
<svg version="1.1" id="Layer_1" xmlns="http://www.w3.org/2000/svg" xmlns:xlink="http://www.w3.org/1999/xlink" x="0px" y="0px"
	 viewBox="0 0 30 30" style="enable-background:new 0 0 30 30;" xml:space="preserve">
<style type="text/css">
	.st0{fill:#F0F0F2;}
	.st1{fill:#19191A;}
</style>
<g transform="translate(-7 -7)">
	<circle class="st0" cx="22" cy="22" r="15"/>
	<path class="st1" d="M17.3,26c-0.4,0.4-0.4,1.1,0,1.5c0.4,0.4,1,0.4,1.5,0l3.6-3.6l3.6,3.6c0.4,0.4,1.1,0.4,1.5,0
		c0.4-0.4,0.4-1.1,0-1.5l-3.6-3.6l3.6-3.6c0.4-0.4,0.4-1.1,0-1.5c-0.4-0.4-1.1-0.4-1.5,0l-3.6,3.6l-3.6-3.6c-0.4-0.4-1.1-0.4-1.5,0
		c-0.4,0.4-0.4,1.1,0,1.5l3.6,3.6L17.3,26z"/>
</g>
</svg>
