<svg xmlns="http://www.w3.org/2000/svg" width="71.849" height="70.052" viewBox="0 0 71.849 70.052"><path d="M59.126,70.053h-46.4A12.712,12.712,0,0,1,0,57.33V12.723A12.712,12.712,0,0,1,12.723,0h46.4A12.712,12.712,0,0,1,71.849,12.723V57.33A12.712,12.712,0,0,1,59.126,70.053Z" fill="#ff26be"/><path d="M159.193,168.263H115.066A10.886,10.886,0,0,1,104.2,157.4v-42.33A10.886,10.886,0,0,1,115.066,104.2h44.1a10.865,10.865,0,0,1,10.866,10.866v42.3a10.849,10.849,0,0,1-10.838,10.9Z" transform="translate(-101.205 -101.205)" fill="#2e001f"/><path d="M481.686,608.543l8.383,16.106c.149.239.06.48-.181.48h-5.21a.587.587,0,0,1-.629-.388c-1.917-3.952-3.863-7.9-5.869-12.154h-.06c-1.8,4.012-3.773,8.234-5.688,12.186a.578.578,0,0,1-.54.331h-4.935c-.3,0-.331-.239-.178-.42l8.2-15.629-7.932-15.807a.242.242,0,0,1,.178-.42h5.15a.469.469,0,0,1,.537.331c1.885,3.952,3.8,8.024,5.6,12h.06c1.736-3.952,3.653-8.053,5.509-11.976.149-.239.239-.388.54-.388h4.82c.239,0,.331.181.181.42Zm9.852,4.88c0-6.975,4.641-12.424,12-12.424a13.182,13.182,0,0,1,1.558.06v-7.932a.3.3,0,0,1,.3-.3h4.731c.239,0,.3.089.3.239v27.484a21.386,21.386,0,0,0,.149,2.934c0,.181-.06.239-.239.33a17.821,17.821,0,0,1-7.665,1.736c-6.5.026-11.139-3.983-11.137-12.128Zm13.559-7.662a4.5,4.5,0,0,0-1.736-.3c-3.773,0-6.406,2.9-6.406,7.725,0,5.509,2.7,7.725,6.078,7.725a5.612,5.612,0,0,0,2.066-.331V605.761Z" transform="translate(-453.277 -575.763)" fill="#ffd9f2"/></svg>