<svg xmlns="http://www.w3.org/2000/svg" xmlns:xlink="http://www.w3.org/1999/xlink" width="71.453" height="69.667" viewBox="0 0 71.453 69.667"><defs><radialGradient id="a" cx="0.329" cy="0.224" r="0.781" gradientTransform="translate(-0.01 0.01) scale(0.973 0.968)" gradientUnits="objectBoundingBox"><stop offset="0" stop-color="#423325" stop-opacity="0.98"/><stop offset="1" stop-color="#1c0a00"/></radialGradient></defs><g transform="translate(0 -130.746)"><path d="M24.8,155.549H90.3v63.712H24.8Z" transform="translate(-21.826 -21.826)" fill="url(#a)"/><path d="M2.977,133.723h65.5v63.712H2.977ZM0,200.413H71.453V130.746H0Zm46.8-44.837c0-.238.089-.357.357-.357h4.674c.238,0,.357.089.357.357v23.49c0,.238-.06.357-.357.357H47.219c-.3,0-.387-.149-.387-.387V155.576Zm-.327-6.758a3.037,3.037,0,0,1,6.074,0,2.845,2.845,0,0,1-3.1,3.037A2.8,2.8,0,0,1,46.474,148.818Zm-13.4,16.553c-.834-3.3-2.8-10.51-3.543-13.993h-.06c-.625,3.483-2.2,9.378-3.453,13.993ZM24.8,170.194l-2.352,8.932c-.06.238-.149.3-.447.3H17.625c-.3,0-.357-.089-.3-.447l8.455-29.594a9.644,9.644,0,0,0,.3-2.471c0-.208.089-.3.238-.3h6.252c.208,0,.3.06.357.3L42.4,179.036c.06.238,0,.387-.238.387H37.215c-.238,0-.387-.06-.447-.268l-2.441-8.961H24.8Z" transform="translate(0 0)" fill="#ff7f18"/></g></svg>