<svg xmlns="http://www.w3.org/2000/svg" width="76.993" height="69.667" viewBox="0 0 76.993 69.667"><g transform="translate(-0.17 -0.42)"><path d="M15.592,0l22.9,44.825L0,0Z" transform="translate(0.17 25.262)" fill="#ea6c00" fill-rule="evenodd"/><path d="M15.592,44.825,38.493,0,0,44.825Z" transform="translate(77.163 70.087) rotate(180)" fill="#ea6c00" fill-rule="evenodd"/><path d="M0,0H45.8L22.9,44.825Z" transform="translate(15.761 25.262)" fill="#fdad00" fill-rule="evenodd"/><path d="M22.9,0,1.205,2.293,0,24.842Z" transform="translate(15.761 0.42)" fill="#fdd231" fill-rule="evenodd"/><path d="M22.9,24.842l-21.7-2.293L0,0Z" transform="translate(61.564 25.262) rotate(180)" fill="#fdd231" fill-rule="evenodd"/><path d="M0,0,16.8,22.549,15.592,0Z" transform="translate(77.163 25.262) rotate(180)" fill="#fdad00" fill-rule="evenodd"/><path d="M0,22.549,16.8,0,15.592,22.549Z" transform="translate(0.17 2.713)" fill="#fdad00" fill-rule="evenodd"/><path d="M22.9,0,0,24.842H45.8Z" transform="translate(15.761 0.42)" fill="#feeeb7" fill-rule="evenodd"/></g></svg>