<?xml version="1.0" encoding="utf-8"?>
<!-- Generator: Adobe Illustrator 26.1.0, SVG Export Plug-In . SVG Version: 6.00 Build 0)  -->
<svg version="1.1" id="Layer_1" xmlns="http://www.w3.org/2000/svg" xmlns:xlink="http://www.w3.org/1999/xlink" x="0px" y="0px"
	 viewBox="0 0 500 500" style="enable-background:new 0 0 500 500;" xml:space="preserve">
<style type="text/css">
	.st0{fill-rule:evenodd;clip-rule:evenodd;fill:#007BFF;}
	.st1{fill:#FFFFFF;}
</style>
<path id="Shape_00000008864012763810838920000008717089365175983236_" class="st0" d="M111.5,11c92-14.8,185.6-14.8,277.7,0
	c49.1,12.5,87.4,50.7,99.8,99.8c14.8,92,14.8,185.6,0,277.7c-12.5,49.1-50.7,87.4-99.8,99.8c-92,14.8-185.6,14.8-277.7,0
	c-49.1-12.5-87.4-50.7-99.8-99.8c-14.8-92-14.8-185.6,0-277.7C24.1,61.7,62.3,23.5,111.5,11z"/>
<path class="st1" d="M325.4,160.5c12.1-12,28.1-18.7,45-18.7c7.4,0,13.8-5.8,14.2-13.2c0.5-8.2-6-14.9-14-14.9
	c-24.4,0-47.6,9.5-65,26.9c-17.4,17.2-27.2,40.1-27.8,64.7v33.3l0,0v51.7c0,37-29.6,67.7-66.6,68.1c-37.4,0.4-67.9-30-67.9-67.2
	c0-37,30.1-67.2,67-67.3c7.4,0,13.8-5.8,14.2-13.2c0.5-8.2-6-14.9-14-14.9c-53.9,0-97.4,44.9-95.3,99.2c1.9,49.5,42,89.6,91.5,91.5
	c54.3,2.1,99.2-41.4,99.2-95.3l0,0c0-13.1,10.6-23.7,23.7-23.7h28.8c7.6,0,14.1-5.8,14.5-13.4c0.4-8.1-6-14.8-14.1-14.8h-53v-33.6
	C306.4,188.6,313.3,172.6,325.4,160.5z"/>
</svg>
