<?xml version="1.0" encoding="utf-8"?>
<!-- Generator: Adobe Illustrator 26.4.1, SVG Export Plug-In . SVG Version: 6.00 Build 0)  -->
<svg version="1.1" id="Layer_1" xmlns="http://www.w3.org/2000/svg" xmlns:xlink="http://www.w3.org/1999/xlink" x="0px" y="0px"
	 viewBox="0 0 30 30" style="enable-background:new 0 0 30 30;" xml:space="preserve">
<style type="text/css">
	.st0{fill:#19191A;}
</style>
<g transform="translate(-7 -7)">
	<path class="st0" d="M12,31.4c-0.4,0.4-0.4,1.1,0,1.5c0.4,0.4,1,0.4,1.5,0l8.8-9.1l9,9.1c0.4,0.4,1.1,0.4,1.5,0
		c0.4-0.4,0.4-1.1,0-1.5l-9-9.1l9.4-9.7c0.4-0.4,0.4-1.1,0-1.5s-1.1-0.4-1.5,0l-9.4,9.7l-9.8-9.6c-0.5-0.4-1.1-0.4-1.5,0
		s-0.4,1.1,0,1.5l9.8,9.6L12,31.4z"/>
</g>
</svg>
