<svg width="24" height="24" viewBox="0 0 24 24" fill="none" xmlns="http://www.w3.org/2000/svg">
<path d="M12 24C18.6274 24 24 18.6274 24 12C24 5.37258 18.6274 0 12 0C5.37258 0 0 5.37258 0 12C0 18.6274 5.37258 24 12 24Z" fill="#090909"/>
<path d="M15.4703 14.5895L18.8654 12.6291C19.0452 12.5253 19.1564 12.3322 19.1564 12.1245V8.20417C19.1564 7.99691 19.0447 7.80337 18.8654 7.69949L15.4703 5.7391C15.2905 5.63522 15.0676 5.63571 14.8878 5.7391L11.4927 7.69949C11.3129 7.80337 11.2017 7.99691 11.2017 8.20417V15.2103L8.82089 16.5847L6.44009 15.2103V12.4611L8.82089 11.0867L10.3913 11.9932V10.1489L9.11193 9.41049C9.02374 9.35953 8.9228 9.33258 8.8204 9.33258C8.71799 9.33258 8.61706 9.35953 8.52935 9.41049L5.13431 11.3709C4.95449 11.4748 4.84326 11.6678 4.84326 11.8756V15.7959C4.84326 16.0031 4.95498 16.1967 5.13431 16.3005L8.52935 18.2609C8.70868 18.3643 8.93211 18.3643 9.11193 18.2609L12.507 16.301C12.6868 16.1971 12.798 16.0036 12.798 15.7963V8.79018L12.8411 8.76568L15.1788 7.4158L17.5596 8.79018V11.5394L15.1788 12.9138L13.6109 12.0083V13.8526L14.8878 14.59C15.0676 14.6934 15.2905 14.6934 15.4703 14.59V14.5895Z" fill="white"/>
</svg>
