<svg xmlns="http://www.w3.org/2000/svg" xmlns:xlink="http://www.w3.org/1999/xlink" width="1283.719" height="302.208" viewBox="0 0 1283.719 302.208"><defs><linearGradient id="a" y1="0.5" x2="1" y2="0.5" gradientUnits="objectBoundingBox"><stop offset="0" stop-color="#f2a467"/><stop offset="1" stop-color="#fff" stop-opacity="0"/></linearGradient><linearGradient id="b" y1="0.5" x2="1" y2="0.5" gradientUnits="objectBoundingBox"><stop offset="0" stop-color="#4570c4"/><stop offset="1" stop-color="#fff" stop-opacity="0"/></linearGradient><linearGradient id="c" y1="0.5" x2="1" y2="0.5" gradientUnits="objectBoundingBox"><stop offset="0" stop-color="#d4dde7"/><stop offset="1" stop-color="#fff" stop-opacity="0"/></linearGradient><linearGradient id="d" y1="0.5" x2="1" y2="0.5" gradientUnits="objectBoundingBox"><stop offset="0" stop-color="#46c180"/><stop offset="1" stop-color="#fff" stop-opacity="0"/></linearGradient></defs><g transform="translate(3.719 -2770.5)"><path d="M1272.28,967.3h-1278v76.767L1278,1236.2Z" transform="translate(2 1803.197)" fill="#f5f8ff"/><g transform="translate(-690.663 2560.844)"><g transform="translate(0 -72)"><rect width="68" height="26" transform="translate(1017.147 557.864)" opacity="0.6" fill="url(#a)"/><path d="M1017.147,583.863l22-12v-26l-22,13Z" fill="#f2a467"/><path d="M995.147,545.863l22-13,22,13-22,13Z" fill="#f9da7a"/><path d="M995.147,571.863v-26l22,13v25Z" fill="#f6bb64"/></g><g transform="translate(0 -72)"><rect width="68" height="26" transform="translate(1131.765 436.153)" opacity="0.5" fill="url(#b)"/><path d="M1131.759,436.18l22-13v26l-22,13Z" fill="#4570c4"/><path d="M1131.759,410.18l22,13-22,13-22-13Z" fill="#64b6f9"/><path d="M1109.759,449.18v-26l22,13v26Z" fill="#547fd4"/></g><rect width="68" height="26" transform="translate(940.099 252.092)" fill="url(#c)"/><path d="M939.663,252.155l22-13v26l-22,13Z" fill="#d4dde7"/><path d="M939.663,226.155l22,13-22,13-22-13Z" fill="#fff"/><path d="M917.663,265.155v-26l22,13v26Z" fill="#eef3f7"/><g transform="translate(0 -72)"><rect width="68" height="26" transform="translate(990.305 465.338)" opacity="0.5" fill="url(#d)"/><path d="M990.3,465.322l22-13v26l-22,13Z" fill="#46c180"/><path d="M990.3,439.322l22,13-22,13-22-13Z" fill="#66f7b8"/><path d="M968.3,478.322v-26l22,13v26Z" fill="#54d3a5"/></g></g></g></svg>