<svg width="25" height="24" viewBox="0 0 25 24" fill="none" xmlns="http://www.w3.org/2000/svg">
<path d="M12.9521 0C19.5761 0 24.9521 5.3712 24.9521 12C24.9521 18.6288 19.5761 24 12.9521 24C6.32815 24 0.952148 18.624 0.952148 12C0.952148 5.376 6.32335 0 12.9521 0Z" fill="#090909"/>
<path fill-rule="evenodd" clip-rule="evenodd" d="M6.50075 10.8528H17.6079C17.7471 10.8528 17.8767 10.9056 17.9727 11.0064L19.7295 12.7728C20.0559 13.0992 19.8255 13.656 19.3647 13.656H8.25755C8.11835 13.656 7.98875 13.6032 7.89275 13.5024L6.13595 11.736C5.80955 11.4144 6.03995 10.8528 6.50075 10.8528ZM6.13115 8.51039L7.88795 6.74399C7.98875 6.64319 8.11835 6.59039 8.25275 6.59039H19.3551C19.8159 6.59039 20.0511 7.14719 19.7199 7.47359L17.9679 9.23999C17.8719 9.34079 17.7375 9.39359 17.6031 9.39359H6.50075C6.03995 9.39359 5.80955 8.83679 6.13115 8.51039ZM19.7247 16.008L17.9679 17.7792C17.8719 17.8752 17.7375 17.9328 17.6031 17.9328H6.50075C6.03995 17.9328 5.80955 17.376 6.13115 17.0496L7.88795 15.2784C7.98875 15.1824 8.11835 15.1248 8.25275 15.1248H19.3551C19.8207 15.12 20.0559 15.6768 19.7247 16.008Z" fill="white"/>
</svg>
