<?xml version="1.0" encoding="utf-8"?>
<!-- Generator: Adobe Illustrator 26.1.0, SVG Export Plug-In . SVG Version: 6.00 Build 0)  -->
<svg version="1.1" id="Layer_1" xmlns="http://www.w3.org/2000/svg" xmlns:xlink="http://www.w3.org/1999/xlink" x="0px" y="0px"
	 viewBox="0 0 500 500" style="enable-background:new 0 0 500 500;" xml:space="preserve">
<style type="text/css">
	.st0{fill:#97C554;}
	.st1{fill:#709B30;}
</style>
<path class="st0" d="M19,427.5c23,24.4,149.7,141.4,348.4,5.6C511.1,321.2,507.5,78.5,493.7,5.2C488.9,15.9,322.1,381.4,19,427.5
	L19,427.5z M493.7,5.2C491.9,4.4,307-20.8,124.2,97C10.7,170.1-4.3,277.1,0.9,348.6C266.6,318.7,487.6,13.6,493.7,5.2L493.7,5.2z"/>
<path class="st1" d="M493.7,5.2C491.9,4.4,307-20.8,124.2,97C10.7,170.1-4.3,277.1,0.9,348.6C266.6,318.7,487.6,13.6,493.7,5.2
	L493.7,5.2z"/>
</svg>
