<?xml version="1.0" encoding="utf-8"?>
<!-- Generator: Adobe Illustrator 26.1.0, SVG Export Plug-In . SVG Version: 6.00 Build 0)  -->
<svg version="1.1" id="Layer_1" xmlns="http://www.w3.org/2000/svg" xmlns:xlink="http://www.w3.org/1999/xlink" x="0px" y="0px"
	 viewBox="0 0 500 500" style="enable-background:new 0 0 500 500;" xml:space="preserve">
<style type="text/css">
	.st0{fill:#EB4A60;}
	.st1{fill:#595FB5;}
</style>
<path class="st0" d="M172.1,92.4h189.1c-0.1,2.5-1,4.9-2.5,6.9c-6.4,11-12.2,22.4-18.5,33.4c-8.9,15.8-17.2,31.8-26.3,47.5
	c-5.7,11.3-12.2,22.2-18.3,33.4c-36.7,0-73.5,0-110.2,0c-1.9,0-3.8,0.1-5.7,0.2c-1.6,4.2-4.3,7.9-6.4,11.9
	c-2.8,4.5-5.1,9.4-7.8,13.9c-2.9,6.1-7,11.6-9.9,17.7c-6.1,10.3-11.8,20.8-17.7,31.2c-6.2,10.7-12.3,21.5-18.2,32.5
	c-2.5,3.9-4.8,7.9-6.9,12c-12.4,21.6-24.5,43.5-36.9,65.1c-1.1,2.3-2.4,4.5-4.1,6.4c-21.3-0.1-42.6,0-63.9,0c-2.6,0-5.2,0.4-7.8,1.1
	c0-5.9,3.9-10.6,6.6-15.6c3.2-6.6,7.5-12.8,10.7-19.5c25.5-45.6,50.8-91.5,76.2-137.1c5.8-9.9,10.7-20.1,16.5-29.8
	c7.2-12.8,14-25.9,21.5-38.6c2.4-5.3,5.6-10.1,8.3-15.3c9.4-16.7,18.6-33.5,27.9-50.2C168.8,97,170.3,94.6,172.1,92.4L172.1,92.4z"
	/>
<path class="st1" d="M391.2,159.6c12.6-22,24.8-44.3,37.5-66.2h68.3c1,0.1,2,0.2,2.9,0.5c-2.3,3.4-4.2,7.1-6.2,10.7
	c-16.5,29.6-32.9,59.1-49.3,88.7c-6.9,12.1-13.3,24.4-20.3,36.4l-0.7,0.2l-0.1,1.5c-32.1,57.6-64.1,115.3-96,173
	c-62.7,0.1-125.4,0.1-188.1,0c3.6-7.5,7.8-14.6,11.8-21.8c17.9-32.8,36.2-65.4,53.8-98.2c38.5-0.1,77.1-0.1,115.6,0
	C344.2,242.9,367.5,201.1,391.2,159.6L391.2,159.6z"/>
</svg>
