<svg width="65" height="64" viewBox="0 0 65 64" fill="none" xmlns="http://www.w3.org/2000/svg">
<g clip-path="url(#clip0_149_119)">
<path d="M32.5 0C50.164 0 64.5 14.3232 64.5 32C64.5 49.6768 50.164 64 32.5 64C14.836 64 0.5 49.664 0.5 32C0.5 14.336 14.8232 0 32.5 0Z" fill="black"/>
<path fill-rule="evenodd" clip-rule="evenodd" d="M15.2969 28.9409H44.9161C45.2873 28.9409 45.6329 29.0817 45.8889 29.3505L50.5737 34.0609C51.4441 34.9313 50.8297 36.4161 49.6009 36.4161H19.9817C19.6105 36.4161 19.2649 36.2753 19.0089 36.0065L14.3241 31.2961C13.4537 30.4385 14.0681 28.9409 15.2969 28.9409ZM14.3113 22.6945L18.9961 17.9841C19.2649 17.7153 19.6105 17.5745 19.9689 17.5745H49.5753C50.8041 17.5745 51.4313 19.0593 50.5481 19.9297L45.8761 24.6401C45.6201 24.9089 45.2617 25.0497 44.9033 25.0497H15.2969C14.0681 25.0497 13.4537 23.5649 14.3113 22.6945ZM50.5609 42.6881L45.8761 47.4113C45.6201 47.6673 45.2617 47.8209 44.9033 47.8209H15.2969C14.0681 47.8209 13.4537 46.3361 14.3113 45.4657L18.9961 40.7425C19.2649 40.4865 19.6105 40.3329 19.9689 40.3329H49.5753C50.8169 40.3201 51.4441 41.8049 50.5609 42.6881Z" fill="url(#paint0_linear_149_119)"/>
</g>
<defs>
<linearGradient id="paint0_linear_149_119" x1="16.0214" y1="49.1092" x2="48.8637" y2="16.2669" gradientUnits="userSpaceOnUse">
<stop stop-color="#CB4EE8"/>
<stop offset="1" stop-color="#10F4B1"/>
</linearGradient>
<clipPath id="clip0_149_119">
<rect width="64" height="64" fill="white" transform="translate(0.5)"/>
</clipPath>
</defs>
</svg>
