<svg width="65" height="64" viewBox="0 0 65 64" fill="none" xmlns="http://www.w3.org/2000/svg">
<g clip-path="url(#clip0_149_110)">
<path d="M0.5 0H64.5V64H0.5V0Z" fill="#1F2937"/>
<path d="M32.5 64C50.1731 64 64.5 49.6731 64.5 32C64.5 14.3269 50.1731 0 32.5 0C14.8269 0 0.5 14.3269 0.5 32C0.5 49.6731 14.8269 64 32.5 64Z" fill="#1F2937"/>
<path d="M37.2224 29.8719L40.3005 24.6487L48.5973 37.5713L48.6013 40.0516L48.5744 22.9858C48.5547 22.5686 48.3331 22.187 47.9797 21.962L33.0421 13.3696C32.6931 13.1978 32.2496 13.1998 31.9008 13.3751C31.8539 13.3985 31.8093 13.4243 31.7672 13.4523L31.7152 13.4851L17.216 21.8872L17.1598 21.9127C17.0874 21.946 17.0142 21.9883 16.9457 22.0374C16.6707 22.2345 16.4882 22.5261 16.4291 22.8531C16.4202 22.9027 16.4137 22.9531 16.4106 23.0041L16.4334 36.9108L24.1616 24.9326C25.1346 23.3443 27.2544 22.8327 29.2224 22.8605L31.532 22.9215L17.9229 44.7468L19.5272 45.6703L33.2992 22.9436L39.3867 22.9216L25.65 46.2217L31.3744 49.5143L32.0584 49.9076C32.3477 50.0252 32.6888 50.0311 32.9805 49.9257L48.128 41.1476L45.232 42.8257L37.2224 29.8719ZM38.3968 46.7868L32.6149 37.7124L36.1445 31.7233L43.7376 43.6916L38.3968 46.7868Z" fill="#2D374B"/>
<path d="M32.6152 37.7122L38.3968 46.7866L43.7379 43.6914L36.1446 31.7231L32.6152 37.7122Z" fill="#28A0F0"/>
<path d="M48.6011 40.0512L48.5971 37.5712L40.3003 24.6484L37.2222 29.8717L45.2318 42.8253L48.1275 41.1472C48.4118 40.9163 48.5835 40.5779 48.6016 40.2125L48.6011 40.0512Z" fill="#28A0F0"/>
<path d="M13.8335 42.3901L17.923 44.7466L31.5321 22.9214L29.2225 22.8604C27.2545 22.8327 25.1345 23.3443 24.1616 24.9325L16.4334 36.9109L13.8335 40.9056V42.3901Z" fill="white"/>
<path d="M39.3868 22.9216L33.2994 22.9437L19.5273 45.6702L24.3411 48.442L25.6502 46.2217L39.3868 22.9216Z" fill="white"/>
<path d="M51.1668 22.8902C51.1159 21.6171 50.4266 20.4517 49.3468 19.7732L34.2135 11.0704C33.1455 10.5326 31.8114 10.5319 30.7415 11.07C30.6148 11.1338 16.0246 19.5956 16.0246 19.5956C15.8226 19.6925 15.6281 19.8078 15.4452 19.9388C14.4813 20.6295 13.8938 21.703 13.8335 22.8823V40.9057L16.4334 36.911L16.4107 23.0041C16.4137 22.9533 16.4201 22.9032 16.4292 22.8538C16.488 22.5266 16.6707 22.2347 16.9457 22.0375C17.0144 21.9883 31.854 13.3986 31.901 13.375C32.2498 13.1999 32.6932 13.1978 33.0423 13.3696L47.9799 21.9618C48.3335 22.1868 48.5548 22.5684 48.5746 22.9856V40.2126C48.5564 40.5779 48.4122 40.9166 48.1282 41.1473L45.2322 42.8254L43.7378 43.6915L38.397 46.7867L32.9807 49.9254C32.689 50.0307 32.3479 50.0249 32.0586 49.9073L25.6501 46.2214L24.341 48.4417L30.0999 51.7574C30.2906 51.8657 30.4602 51.9617 30.5994 52.0398C30.8148 52.1609 30.9618 52.2417 31.0138 52.267C31.4231 52.4657 32.0122 52.5814 32.5428 52.5814C33.0292 52.5814 33.5039 52.4921 33.9527 52.3161L49.685 43.2054C50.5879 42.5057 51.1191 41.4507 51.1668 40.3075V22.8902Z" fill="#96BEDC"/>
</g>
<defs>
<clipPath id="clip0_149_110">
<rect x="0.5" width="64" height="64" rx="32" fill="white"/>
</clipPath>
</defs>
</svg>
