<svg width="64" height="64" viewBox="0 0 64 64" fill="none" xmlns="http://www.w3.org/2000/svg">
<g clip-path="url(#clip0_149_177)">
<path d="M64 0H0V64H64V0Z" fill="#037A5B"/>
<path d="M32 64C49.6733 64 64 49.6733 64 32C64 14.3269 49.6733 0 32 0C14.3269 0 0 14.3269 0 32C0 49.6733 14.3269 64 32 64Z" fill="#037A5B"/>
<path fill-rule="evenodd" clip-rule="evenodd" d="M13.7305 17.7667L32.0757 35.6045L50.1917 18.1378L49.5011 17.3956C45.0117 12.5645 38.5621 9.77783 31.8464 9.77783H31.8075C25.1674 9.77783 18.9887 12.3801 14.4603 17.0244L13.7305 17.7667ZM32.0781 32.6691L16.7257 17.7667C20.7928 13.9401 26.1268 11.8578 31.8464 11.8578H31.8853C37.6419 11.8578 43.1685 14.1267 47.2379 18.0644L32.0781 32.6691Z" fill="white"/>
<path d="M48.8875 22.5245L50.5768 20.8889L50.9971 21.5577C53.1061 24.9311 54.2213 28.799 54.2219 32.7422C54.1848 44.5977 44.2421 54.2222 31.9995 54.2222H31.9603C19.718 54.2222 9.73842 44.5222 9.77746 32.6689C9.78082 28.7211 10.9095 24.8511 13.039 21.4845L13.4222 20.8533L15.4558 22.8223C15.0724 23.3779 14.7259 23.9733 14.4963 24.6423C12.8854 28.9155 15.1872 33.6355 19.6399 35.1955C22.2886 36.0867 25.091 35.6777 27.2784 34.2667L31.9995 38.8755L37.4115 33.6355C37.912 33.971 38.4859 34.231 39.1008 34.4531C43.4389 35.9401 48.1968 33.7467 49.7323 29.5843C50.6525 27.1331 50.2301 24.5689 48.8875 22.5245Z" fill="white"/>
<path d="M17.0332 27.9133C17.0322 26.9485 17.3553 26.0094 17.9537 25.2378L24.325 31.3691C23.5584 31.9621 22.599 32.2979 21.5616 32.2979C19.0668 32.2979 17.0332 30.3291 17.0332 27.9133Z" fill="white"/>
<path d="M40.1758 30.9954C40.9059 31.4778 41.7502 31.7378 42.7099 31.7378C45.2046 31.7378 47.2379 29.769 47.2379 27.3533C47.2379 26.4621 46.9696 25.6065 46.4715 24.8999L40.1758 30.9954Z" fill="white"/>
</g>
<defs>
<clipPath id="clip0_149_177">
<rect width="64" height="64" rx="32" fill="white"/>
</clipPath>
</defs>
</svg>
