<svg width="64" height="64" viewBox="0 0 64 64" fill="none" xmlns="http://www.w3.org/2000/svg">
<g clip-path="url(#clip0_149_92)">
<path d="M32 64C49.6731 64 64 49.6731 64 32C64 14.3269 49.6731 0 32 0C14.3269 0 0 14.3269 0 32C0 49.6731 14.3269 64 32 64Z" fill="#FF0420"/>
<path d="M22.6732 40.5051C20.7678 40.5051 19.2067 40.0567 17.9898 39.16C16.7889 38.2474 16.1885 36.9505 16.1885 35.2692C16.1885 34.917 16.2285 34.4846 16.3085 33.9722C16.5168 32.8194 16.813 31.4344 17.1972 29.8172C18.286 25.414 21.0961 23.2124 25.6275 23.2124C26.8603 23.2124 27.9651 23.4205 28.9419 23.8368C29.9187 24.237 30.6872 24.8456 31.2475 25.6622C31.8079 26.4627 32.0883 27.4235 32.0883 28.5442C32.0883 28.8805 32.0482 29.3048 31.9681 29.8172C31.7279 31.2422 31.4397 32.6273 31.1034 33.9722C30.543 36.1659 29.5743 37.8071 28.1973 38.8959C26.8203 39.9686 24.979 40.5051 22.6732 40.5051ZM23.0095 37.0465C23.9062 37.0465 24.6667 36.7823 25.2912 36.2539C25.9317 35.7256 26.388 34.917 26.6602 33.8282C27.0284 32.3231 27.3087 31.01 27.5009 29.8893C27.5649 29.553 27.5969 29.2088 27.5969 28.8564C27.5969 27.3994 26.8363 26.6708 25.3153 26.6708C24.4185 26.6708 23.65 26.935 23.0095 27.4634C22.3851 27.9919 21.9367 28.8005 21.6646 29.8893C21.3763 30.962 21.0881 32.2751 20.7999 33.8282C20.7358 34.1483 20.7038 34.4846 20.7038 34.8368C20.7038 36.31 21.4724 37.0465 23.0095 37.0465Z" fill="white"/>
<path d="M33.1909 40.2651C33.0148 40.2651 32.8786 40.209 32.7826 40.0969C32.7024 39.9687 32.6785 39.8247 32.7105 39.6646L36.0249 24.0531C36.0569 23.877 36.145 23.7328 36.2891 23.6207C36.4333 23.5087 36.5853 23.4526 36.7454 23.4526H43.1342C44.9115 23.4526 46.3365 23.8209 47.4093 24.5574C48.4981 25.294 49.0425 26.3587 49.0425 27.7518C49.0425 28.152 48.9945 28.5684 48.8984 29.0007C48.4981 30.8421 47.6896 32.2031 46.4727 33.0837C45.2718 33.9644 43.6225 34.4047 41.525 34.4047H38.2826L37.1778 39.6646C37.1457 39.8407 37.0576 39.9847 36.9136 40.0969C36.7695 40.209 36.6173 40.2651 36.4573 40.2651H33.1909ZM41.6932 31.0903C42.3655 31.0903 42.95 30.9061 43.4464 30.5378C43.9588 30.1696 44.295 29.6412 44.4551 28.9527C44.5031 28.6804 44.5272 28.4403 44.5272 28.2322C44.5272 27.7678 44.3911 27.4155 44.1189 27.1754C43.8466 26.9191 43.3824 26.7911 42.7259 26.7911H39.8437L38.931 31.0903H41.6932Z" fill="white"/>
</g>
<defs>
<clipPath id="clip0_149_92">
<rect width="64" height="64" fill="white"/>
</clipPath>
</defs>
</svg>
