<svg width="64" height="64" viewBox="0 0 64 64" fill="none" xmlns="http://www.w3.org/2000/svg">
<g clip-path="url(#clip0_149_122)">
<path d="M48.2944 20.9793C47.1168 20.2881 45.5808 20.2881 44.2752 20.9793L35.0592 26.3169L28.8 29.7985L19.584 35.1361C18.4064 35.8273 16.8704 35.8273 15.5648 35.1361L8.2432 30.9633C7.0656 30.2721 6.2336 28.9921 6.2336 27.5969V19.3665C6.2336 17.9713 6.9376 16.7041 8.2432 16.0001L15.4496 11.9425C16.6272 11.2513 18.1632 11.2513 19.4688 11.9425L26.6752 16.0001C27.8528 16.6913 28.6848 17.9713 28.6848 19.3665V24.7041L34.944 21.1073V15.7697C34.944 14.3745 34.24 13.1073 32.9344 12.4033L19.5968 4.74887C18.4192 4.05767 16.8832 4.05767 15.5776 4.74887L2.0096 12.4033C0.704 13.0945 0 14.3745 0 15.7697V31.1937C0 32.5889 0.704 33.8561 2.0096 34.5601L15.5904 42.2145C16.768 42.9057 18.304 42.9057 19.6096 42.2145L28.8256 36.9921L35.0848 33.3953L44.3008 28.1729C45.4784 27.4817 47.0144 27.4817 48.32 28.1729L55.5264 32.2305C56.704 32.9217 57.536 34.2017 57.536 35.5969V43.8273C57.536 45.2225 56.832 46.4897 55.5264 47.1937L48.32 51.3665C47.1424 52.0577 45.6064 52.0577 44.3008 51.3665L37.0944 47.3089C35.9168 46.6177 35.0848 45.3377 35.0848 43.9425V38.6049L28.8256 42.2017V47.5393C28.8256 48.9345 29.5296 50.2017 30.8352 50.9057L44.416 58.5601C45.5936 59.2513 47.1296 59.2513 48.4352 58.5601L62.016 50.9057C63.1936 50.2145 64.0256 48.9345 64.0256 47.5393V32.1153C64.0256 30.7201 63.3216 29.4529 62.016 28.7489L48.2944 20.9793Z" fill="#8247E5"/>
</g>
<defs>
<clipPath id="clip0_149_122">
<rect width="64" height="64" fill="white"/>
</clipPath>
</defs>
</svg>
