<svg width="64" height="64" viewBox="0 0 64 64" fill="none" xmlns="http://www.w3.org/2000/svg">
<path d="M32 64C49.6731 64 64 49.6731 64 32C64 14.3269 49.6731 0 32 0C14.3269 0 0 14.3269 0 32C0 49.6731 14.3269 64 32 64Z" fill="#E84142"/>
<path d="M43.2895 32.832C44.4031 30.912 46.1823 30.912 47.2959 32.832L54.1951 44.9536C55.3087 46.8736 54.3999 48.4352 52.1855 48.4352H38.2719C36.0831 48.4352 35.1743 46.8736 36.2623 44.9536L43.2895 32.832ZM29.9391 9.49762C31.0527 7.57762 32.8063 7.57762 33.9199 9.49762L35.4559 12.2752L39.0783 18.6496C39.9615 20.4672 39.9615 22.6048 39.0783 24.4224L26.9055 45.5168C25.7919 47.232 23.9615 48.32 21.9135 48.4352H11.8143C9.59988 48.4352 8.69108 46.8992 9.80468 44.9536L29.9391 9.49762Z" fill="white"/>
</svg>
