<svg width="64" height="64" viewBox="0 0 64 64" fill="none" xmlns="http://www.w3.org/2000/svg">
<g clip-path="url(#clip0_149_187)">
<path d="M0 0H64V64H0V0Z" fill="#0310FF"/>
<path d="M32 64C49.6731 64 64 49.6731 64 32C64 14.3269 49.6731 0 32 0C14.3269 0 0 14.3269 0 32C0 49.6731 14.3269 64 32 64Z" fill="#0310FF"/>
<path d="M30.9851 11.0755C32.0221 10.5305 33.6 10.5305 34.6371 11.0755L45.2187 16.6362C45.8432 16.9644 46.1861 17.4534 46.2477 17.9583H46.2579V45.9094C46.244 46.4601 45.8979 47.007 45.2187 47.3641L34.6371 52.9246C33.6 53.4697 32.0221 53.4697 30.9851 52.9246L20.4035 47.3641C19.7273 47.0086 19.4027 46.4577 19.3867 45.9094C19.3851 45.8553 19.3849 45.8102 19.3864 45.7729L19.3863 18.1378C19.3853 18.1076 19.3851 18.0773 19.386 18.0472L19.3867 17.9583L19.3914 17.9583C19.4384 17.4479 19.7658 16.9713 20.4035 16.6362L30.9851 11.0755ZM44.592 33.5521L34.6371 38.7835C33.6 39.3283 32.0221 39.3283 30.9851 38.7835L21.052 33.5638V45.8539L30.9851 51.0462C31.5461 51.3446 32.1283 51.6353 32.6973 51.6723L32.8112 51.6761C33.4043 51.6779 33.98 51.3782 34.564 51.0947L44.592 45.8094V33.5521ZM17.6656 45.3017C17.6656 46.3723 17.7907 47.0763 18.039 47.5723C18.2449 47.9833 18.5538 48.2974 19.1178 48.6796L19.15 48.7014C19.2738 48.7844 19.4101 48.8713 19.5761 48.9734L19.7718 49.0926L20.3729 49.4537L19.5108 50.8715L18.8381 50.4673L18.725 50.3982C18.5305 50.2787 18.3693 50.1763 18.2189 50.0753C16.6115 48.9969 16.012 47.8217 16.0002 45.3761L16 45.3017H17.6656ZM31.9781 26.0603C31.9011 26.0866 31.8288 26.1171 31.7629 26.1517L21.1814 31.7123C21.1703 31.7182 21.1597 31.7241 21.1496 31.7297L21.1407 31.735L21.1573 31.7443L21.1814 31.7574L31.7629 37.3182C31.8288 37.3526 31.9011 37.383 31.9781 37.4094V26.0603ZM33.644 26.0603V37.4094C33.7211 37.383 33.7933 37.3526 33.8592 37.3182L44.4408 31.7574C44.452 31.7515 44.4624 31.7457 44.4725 31.7401L44.4816 31.735L44.4648 31.7254L44.4408 31.7123L33.8592 26.1517C33.7933 26.1171 33.7211 26.0866 33.644 26.0603ZM44.592 19.9411L35.0997 24.9294L44.592 29.9177V19.9411ZM21.052 19.9527V29.9059L30.5224 24.9294L21.052 19.9527ZM33.8592 12.5408C33.3088 12.2516 32.3133 12.2516 31.7629 12.5408L21.1814 18.1015C21.1703 18.1074 21.1597 18.1131 21.1496 18.1188L21.1407 18.124L21.1573 18.1335L21.1814 18.1465L31.7629 23.7072C32.3133 23.9964 33.3088 23.9964 33.8592 23.7072L44.4408 18.1465C44.452 18.1407 44.4624 18.1349 44.4725 18.1292L44.4816 18.124L44.4648 18.1145L44.4408 18.1015L33.8592 12.5408ZM46.1557 13.1506L46.8285 13.5548L46.9416 13.6239C47.136 13.7434 47.2973 13.846 47.4477 13.9469C49.0552 15.0251 49.6547 16.2006 49.6661 18.6461L49.6667 18.7206H48.0011C48.0011 17.6497 47.876 16.9458 47.6275 16.4499C47.4216 16.0389 47.1128 15.7248 46.5488 15.3426L46.5165 15.3209C46.3928 15.2379 46.2565 15.1509 46.0904 15.0487L45.8947 14.9294L45.2939 14.5685L46.1557 13.1506Z" fill="white"/>
</g>
<defs>
<clipPath id="clip0_149_187">
<rect width="64" height="64" rx="32" fill="white"/>
</clipPath>
</defs>
</svg>
