<svg width="65" height="64" viewBox="0 0 65 64" fill="none" xmlns="http://www.w3.org/2000/svg">
<g clip-path="url(#clip0_149_21)">
<path d="M32.5 0C50.1744 0 64.5 14.3256 64.5 32C64.5 49.6744 50.1744 64 32.5 64C14.8256 64 0.5 49.6744 0.5 32C0.5 14.3256 14.8256 0 32.5 0Z" fill="#F0B90B"/>
<path d="M18.0871 32.0001L18.1102 40.4616L25.2999 44.6924V49.6463L13.9025 42.9616V29.5257L18.0871 32.0001ZM18.0871 23.5386V28.4693L13.8999 25.9924V21.0616L18.0871 18.5847L22.2948 21.0616L18.0871 23.5386ZM28.3025 21.0616L32.4896 18.5847L36.6973 21.0616L32.4896 23.5386L28.3025 21.0616Z" fill="white"/>
<path d="M21.1128 38.7078V33.7539L25.3 36.2309V41.1616L21.1128 38.7078ZM28.3025 46.4668L32.4897 48.9437L36.6974 46.4668V51.3975L32.4897 53.8745L28.3025 51.3975V46.4668ZM42.7025 21.0616L46.8897 18.5847L51.0974 21.0616V25.9924L46.8897 28.4693V23.5386L42.7025 21.0616ZM46.8897 40.4616L46.9128 32.0001L51.1 29.5232V42.9591L39.7025 49.6437V44.6898L46.8897 40.4616Z" fill="white"/>
<path d="M43.8874 38.7078L39.7002 41.1616V36.2308L43.8874 33.7539V38.7078Z" fill="white"/>
<path d="M43.8872 25.2924L43.9102 30.2462L36.7 34.477V42.9591L32.5128 45.4129L28.3256 42.9591V34.477L21.1154 30.2462V25.2924L25.3205 22.8155L32.4872 27.0668L39.6974 22.8155L43.9051 25.2924H43.8872ZM21.1128 16.8334L32.4897 10.1257L43.8872 16.8334L39.7 19.3103L32.4897 15.0591L25.3 19.3103L21.1128 16.8334Z" fill="white"/>
</g>
<defs>
<clipPath id="clip0_149_21">
<rect width="64" height="64" fill="white" transform="translate(0.5)"/>
</clipPath>
</defs>
</svg>
