<svg width="25" height="24" viewBox="0 0 25 24" fill="none" xmlns="http://www.w3.org/2000/svg">
<circle cx="12.9521" cy="12" r="12" fill="#090909"/>
<path d="M12.9526 5.21172C13.2384 5.21081 13.5187 5.28992 13.7619 5.44008C14.005 5.59025 14.2013 5.80548 14.3285 6.06141L18.6554 14.7153C18.7728 14.9498 18.8283 15.2105 18.8166 15.4725C18.8049 15.7346 18.7264 15.9893 18.5885 16.2124C18.4506 16.4356 18.258 16.6197 18.0289 16.7475C17.7998 16.8752 17.5419 16.9422 17.2796 16.9422H8.62571C8.36345 16.9421 8.10555 16.8751 7.87651 16.7473C7.64747 16.6195 7.4549 16.4353 7.31709 16.2122C7.17928 15.9891 7.1008 15.7344 7.08912 15.4724C7.07743 15.2104 7.13292 14.9498 7.25032 14.7153L11.5768 6.06141C11.704 5.80548 11.9002 5.59025 12.1434 5.44008C12.3865 5.28992 12.6669 5.21081 12.9526 5.21172ZM12.9526 4.15387C12.4706 4.15382 11.998 4.28799 11.5879 4.54134C11.1778 4.7947 10.8463 5.15723 10.6306 5.58833L6.30371 14.2422C6.10565 14.638 6.01209 15.0779 6.0319 15.5201C6.05171 15.9622 6.18424 16.392 6.41691 16.7685C6.64957 17.1451 6.97463 17.4559 7.36122 17.6714C7.74782 17.8869 8.18309 18.0001 8.62571 18H17.2796C17.7221 18 18.1574 17.8868 18.5439 17.6712C18.9304 17.4557 19.2554 17.1449 19.488 16.7683C19.7206 16.3918 19.8531 15.9621 19.8729 15.52C19.8927 15.0778 19.7991 14.638 19.6011 14.2422L15.2746 5.58833C15.0589 5.15723 14.7275 4.7947 14.3173 4.54134C13.9072 4.28799 13.4347 4.15382 12.9526 4.15387Z" fill="white"/>
</svg>
