<?xml version="1.0" encoding="utf-8"?>
<!-- Generator: Adobe Illustrator 28.0.0, SVG Export Plug-In . SVG Version: 6.00 Build 0)  -->
<svg version="1.1" id="Layer_1" focusable="false" xmlns="http://www.w3.org/2000/svg" xmlns:xlink="http://www.w3.org/1999/xlink"
	 x="0px" y="0px" viewBox="0 0 137 24" style="enable-background:new 0 0 137 24;" xml:space="preserve">
<style type="text/css">
	.st0{fill:#F0B90B;}
</style>
<path class="st0" d="M4,3.7L10.4,0l6.4,3.7L14.4,5l-4-2.3L6.3,5L4,3.7z M16.7,8.3L14.4,7l-4,2.3L6.3,7L4,8.3V11l4,2.3V18l2.3,1.4
	l2.3-1.4v-4.6l4-2.3V8.3z M16.7,15.7v-2.7l-2.3,1.4V17L16.7,15.7z M18.4,16.6l-4,2.3v2.7l6.4-3.7v-7.4L18.4,12V16.6z M16.1,6
	l2.3,1.4v2.7l2.3-1.4V6l-2.3-1.4L16.1,6z M8,19.9v2.7l2.3,1.4l2.3-1.4v-2.7l-2.3,1.4L8,19.9z M4,15.7L6.3,17v-2.7L4,12.9V15.7z M8,6
	l2.3,1.4L12.7,6l-2.3-1.4L8,6z M2.3,7.4L4.7,6L2.3,4.6L0,6v2.7l2.3,1.4V7.4z M2.3,12L0,10.6V18l6.4,3.7v-2.7l-4-2.3V12z"/>
<path class="st0" d="M39.2,15.1L39.2,15.1c0-1.8-1-2.7-2.5-3.3c1-0.5,1.8-1.4,1.8-2.9v0c0-2.1-1.7-3.5-4.4-3.5h-6.2v13.4h6.4
	C37.2,18.7,39.2,17.5,39.2,15.1z M35.5,9.4c0,1-0.8,1.4-2.1,1.4h-2.7V7.9h2.9C34.9,7.9,35.5,8.4,35.5,9.4L35.5,9.4z M36.3,14.7
	c0,1-0.8,1.5-2.1,1.5h-3.5v-2.9h3.4C35.6,13.2,36.3,13.8,36.3,14.7L36.3,14.7z"/>
<path class="st0" d="M53.7,18.7V5.4h-2.9v8.2l-6.3-8.2h-2.7v13.4h2.9v-8.5l6.5,8.5H53.7z"/>
<path class="st0" d="M68.4,15.1L68.4,15.1c0-1.8-1-2.7-2.5-3.3c1-0.5,1.8-1.4,1.8-2.9v0c0-2.1-1.7-3.5-4.4-3.5h-6.2v13.4h6.4
	C66.4,18.7,68.4,17.5,68.4,15.1z M64.8,9.4c0,1-0.8,1.4-2.1,1.4h-2.7V7.9h2.9C64.1,7.9,64.8,8.4,64.8,9.4L64.8,9.4z M65.5,14.7
	c0,1-0.8,1.5-2.1,1.5h-3.5v-2.9h3.4C64.8,13.2,65.5,13.8,65.5,14.7L65.5,14.7z"/>
<path class="st0" d="M86.1,16.4l-1.5-1.5c-1.1,1.1-2.2,1.7-3.8,1.7c-2.6,0-4.4-2.1-4.4-4.8c0-2.6,1.9-4.7,4.4-4.7
	c1.5,0,2.7,0.7,3.7,1.7L86,7c-1.3-1.2-2.8-2.1-5.2-2.1c-4,0-6.9,3.1-6.9,6.9c0,3.9,2.9,6.9,6.8,6.9C83.2,18.7,84.7,17.8,86.1,16.4z"
	/>
<path class="st0" d="M97.5,12.9v5.6h2.3V5.1h-2.3v5.6h-6.4V5.1h-2.3v13.4h2.3v-5.6H97.5z"/>
<path class="st0" d="M110.4,5.1h-2.2l-5.9,13.5h2.4l1.4-3.2h6.3l1.4,3.2h2.5L110.4,5.1z M111.6,13.2H107l2.3-5.3L111.6,13.2z"/>
<path class="st0" d="M118.9,5.1v13.4h2.3V5.1H118.9z"/>
<path class="st0" d="M134.3,14.4l-7.2-9.2H125v13.4h2.3V9l7.4,9.5h2V5.1h-2.3V14.4z"/>
</svg>
