<svg width="25" height="24" viewBox="0 0 25 24" fill="none" xmlns="http://www.w3.org/2000/svg">
<path d="M12.9521 0C19.58 0 24.9521 5.37212 24.9521 12C24.9521 18.6279 19.58 24 12.9521 24C6.32426 24 0.952148 18.6279 0.952148 12C0.952148 5.37212 6.32426 0 12.9521 0Z" fill="#090909"/>
<path d="M7.54724 12L7.5559 15.1731L10.2521 16.7596V18.6173L5.97801 16.1106V11.0721L7.54724 12ZM7.54724 8.82693V10.676L5.97705 9.74712V7.89808L7.54724 6.96924L9.12513 7.89808L7.54724 8.82693ZM11.378 7.89808L12.9482 6.96924L14.5261 7.89808L12.9482 8.82693L11.378 7.89808Z" fill="white"/>
<path d="M8.68164 14.5154V12.6577L10.2518 13.5865V15.4356L8.68164 14.5154ZM11.3778 17.425L12.948 18.3539L14.5259 17.425V19.274L12.948 20.2029L11.3778 19.274V17.425ZM16.7778 7.89808L18.348 6.96924L19.9259 7.89808V9.74712L18.348 10.676V8.82693L16.7778 7.89808ZM18.348 15.1731L18.3566 12L19.9268 11.0712V16.1096L15.6528 18.6164V16.7587L18.348 15.1731Z" fill="white"/>
<path d="M17.2225 14.5154L15.6523 15.4356V13.5866L17.2225 12.6577V14.5154Z" fill="white"/>
<path d="M17.222 9.48462L17.2307 11.3423L14.5268 12.9288V16.1096L12.9566 17.0298L11.3864 16.1096V12.9288L8.6826 11.3423V9.48462L10.2595 8.55577L12.947 10.15L15.6509 8.55577L17.2288 9.48462H17.222ZM8.68164 6.3125L12.948 3.79712L17.222 6.3125L15.6518 7.24135L12.948 5.64712L10.2518 7.24135L8.68164 6.3125Z" fill="white"/>
</svg>
