<?xml version="1.0" encoding="utf-8"?>
<!-- Generator: Adobe Illustrator 24.2.0, SVG Export Plug-In . SVG Version: 6.00 Build 0)  -->
<svg version="1.1" id="Layer_1" xmlns="http://www.w3.org/2000/svg" xmlns:xlink="http://www.w3.org/1999/xlink" x="0px" y="0px"
	 viewBox="0 0 500 500" style="enable-background:new 0 0 500 500;" xml:space="preserve">
<style type="text/css">
	.st0{fill:#007BFF;}
	.st1{fill:#FFFFFF;}
</style>
<path class="st0" d="M451.4,500H48.7C21.8,500,0,478.2,0,451.3V48.6C0,21.7,21.8-0.1,48.7-0.1h402.7c26.9,0,48.7,21.8,48.7,48.7
	v402.7C500.1,478.2,478.3,500,451.4,500z"/>
<path class="st1" d="M350.7,130.5c16.2-16,37.5-24.9,60.1-25c9.9,0,18.4-7.7,19-17.6c0.7-10.9-8-19.9-18.7-19.9
	c-32.6,0-63.5,12.7-86.8,35.9c-23.2,23-36.3,53.6-37.1,86.4v44.5l0,0v69c0,49.4-39.5,90.4-88.9,90.9c-49.9,0.5-90.7-40-90.7-89.7
	c0-49.4,40.2-89.7,89.5-89.8c9.9,0,18.4-7.7,19-17.6c0.7-10.9-8-19.9-18.7-19.9c-71.9,0-130.1,59.9-127.2,132.4
	c2.5,66.1,56.1,119.6,122.2,122.2c72.5,2.8,132.4-55.3,132.4-127.2l0,0c0-17.5,14.2-31.6,31.6-31.6h38.5c10.1,0,18.8-7.7,19.3-17.9
	c0.5-10.8-8-19.7-18.8-19.7h-70.7v-44.8C325.3,167.9,334.5,146.6,350.7,130.5z"/>
</svg>
