<svg width="394" height="256" viewBox="0 0 394 256" fill="none" xmlns="http://www.w3.org/2000/svg">
<circle cx="11" cy="2" r="2" fill="#CDCDCD"/>
<circle cx="33" cy="2" r="2" fill="#EBEBEB"/>
<circle cx="55" cy="2" r="2" fill="#EBEBEB"/>
<circle cx="77" cy="2" r="2" fill="#EBEBEB"/>
<circle cx="99" cy="2" r="2" fill="#EBEBEB"/>
<circle cx="121" cy="2" r="2" fill="#CDCDCD"/>
<circle cx="143" cy="2" r="2" fill="#EBEBEB"/>
<circle cx="165" cy="2" r="2" fill="#EBEBEB"/>
<circle cx="187" cy="2" r="2" fill="#EBEBEB"/>
<circle cx="209" cy="2" r="2" fill="#EBEBEB"/>
<circle cx="231" cy="2" r="2" fill="#CDCDCD"/>
<circle cx="253" cy="2" r="2" fill="#EBEBEB"/>
<circle cx="275" cy="2" r="2" fill="#EBEBEB"/>
<circle cx="297" cy="2" r="2" fill="#EBEBEB"/>
<circle cx="319" cy="2" r="2" fill="#EBEBEB"/>
<circle cx="341" cy="2" r="2" fill="#CDCDCD"/>
<circle cx="363" cy="2" r="2" fill="#EBEBEB"/>
<circle cx="385" cy="2" r="2" fill="#EBEBEB"/>
<circle cx="11" cy="24" r="2" fill="#EBEBEB"/>
<circle cx="33" cy="24" r="2" fill="#EBEBEB"/>
<circle cx="55" cy="24" r="2" fill="#EBEBEB"/>
<circle cx="77" cy="24" r="2" fill="#EBEBEB"/>
<circle cx="99" cy="24" r="2" fill="#EBEBEB"/>
<circle cx="121" cy="24" r="2" fill="#EBEBEB"/>
<circle cx="143" cy="24" r="2" fill="#EBEBEB"/>
<circle cx="165" cy="24" r="2" fill="#EBEBEB"/>
<circle cx="187" cy="24" r="2" fill="#EBEBEB"/>
<circle cx="209" cy="24" r="2" fill="#EBEBEB"/>
<circle cx="231" cy="24" r="2" fill="#EBEBEB"/>
<circle cx="253" cy="24" r="2" fill="#EBEBEB"/>
<circle cx="275" cy="24" r="2" fill="#EBEBEB"/>
<circle cx="297" cy="24" r="2" fill="#EBEBEB"/>
<circle cx="319" cy="24" r="2" fill="#EBEBEB"/>
<circle cx="341" cy="24" r="2" fill="#EBEBEB"/>
<circle cx="363" cy="24" r="2" fill="#EBEBEB"/>
<circle cx="385" cy="24" r="2" fill="#EBEBEB"/>
<circle cx="11" cy="46" r="2" fill="#EBEBEB"/>
<circle cx="33" cy="46" r="2" fill="#EBEBEB"/>
<circle cx="55" cy="46" r="2" fill="#EBEBEB"/>
<circle cx="77" cy="46" r="2" fill="#EBEBEB"/>
<circle cx="99" cy="46" r="2" fill="#EBEBEB"/>
<circle cx="121" cy="46" r="2" fill="#EBEBEB"/>
<circle cx="143" cy="46" r="2" fill="#EBEBEB"/>
<circle cx="165" cy="46" r="2" fill="#EBEBEB"/>
<circle cx="187" cy="46" r="2" fill="#EBEBEB"/>
<circle cx="209" cy="46" r="2" fill="#EBEBEB"/>
<circle cx="231" cy="46" r="2" fill="#EBEBEB"/>
<circle cx="253" cy="46" r="2" fill="#EBEBEB"/>
<circle cx="275" cy="46" r="2" fill="#EBEBEB"/>
<circle cx="297" cy="46" r="2" fill="#EBEBEB"/>
<circle cx="319" cy="46" r="2" fill="#EBEBEB"/>
<circle cx="341" cy="46" r="2" fill="#EBEBEB"/>
<circle cx="363" cy="46" r="2" fill="#EBEBEB"/>
<circle cx="385" cy="46" r="2" fill="#EBEBEB"/>
<circle cx="11" cy="68" r="2" fill="#EBEBEB"/>
<circle cx="33" cy="68" r="2" fill="#EBEBEB"/>
<circle cx="55" cy="68" r="2" fill="#EBEBEB"/>
<circle cx="77" cy="68" r="2" fill="#EBEBEB"/>
<circle cx="99" cy="68" r="2" fill="#EBEBEB"/>
<circle cx="121" cy="68" r="2" fill="#EBEBEB"/>
<circle cx="143" cy="68" r="2" fill="#EBEBEB"/>
<circle cx="165" cy="68" r="2" fill="#EBEBEB"/>
<circle cx="187" cy="68" r="2" fill="#EBEBEB"/>
<circle cx="209" cy="68" r="2" fill="#EBEBEB"/>
<circle cx="231" cy="68" r="2" fill="#EBEBEB"/>
<circle cx="253" cy="68" r="2" fill="#EBEBEB"/>
<circle cx="275" cy="68" r="2" fill="#EBEBEB"/>
<circle cx="297" cy="68" r="2" fill="#EBEBEB"/>
<circle cx="319" cy="68" r="2" fill="#EBEBEB"/>
<circle cx="341" cy="68" r="2" fill="#EBEBEB"/>
<circle cx="363" cy="68" r="2" fill="#EBEBEB"/>
<circle cx="385" cy="68" r="2" fill="#EBEBEB"/>
<circle cx="11" cy="90" r="2" fill="#EBEBEB"/>
<circle cx="33" cy="90" r="2" fill="#EBEBEB"/>
<circle cx="55" cy="90" r="2" fill="#EBEBEB"/>
<circle cx="77" cy="90" r="2" fill="#EBEBEB"/>
<circle cx="99" cy="90" r="2" fill="#EBEBEB"/>
<circle cx="121" cy="90" r="2" fill="#EBEBEB"/>
<circle cx="143" cy="90" r="2" fill="#EBEBEB"/>
<circle cx="165" cy="90" r="2" fill="#EBEBEB"/>
<circle cx="187" cy="90" r="2" fill="#EBEBEB"/>
<circle cx="209" cy="90" r="2" fill="#EBEBEB"/>
<circle cx="231" cy="90" r="2" fill="#EBEBEB"/>
<circle cx="253" cy="90" r="2" fill="#EBEBEB"/>
<circle cx="275" cy="90" r="2" fill="#EBEBEB"/>
<circle cx="297" cy="90" r="2" fill="#EBEBEB"/>
<circle cx="319" cy="90" r="2" fill="#EBEBEB"/>
<circle cx="341" cy="90" r="2" fill="#EBEBEB"/>
<circle cx="363" cy="90" r="2" fill="#EBEBEB"/>
<circle cx="385" cy="90" r="2" fill="#EBEBEB"/>
<circle cx="11" cy="112" r="2" fill="#CDCDCD"/>
<circle cx="33" cy="112" r="2" fill="#EBEBEB"/>
<circle cx="55" cy="112" r="2" fill="#EBEBEB"/>
<circle cx="77" cy="112" r="2" fill="#EBEBEB"/>
<circle cx="99" cy="112" r="2" fill="#EBEBEB"/>
<circle cx="121" cy="112" r="2" fill="#CDCDCD"/>
<circle cx="143" cy="112" r="2" fill="#EBEBEB"/>
<circle cx="165" cy="112" r="2" fill="#EBEBEB"/>
<circle cx="187" cy="112" r="2" fill="#EBEBEB"/>
<circle cx="209" cy="112" r="2" fill="#EBEBEB"/>
<circle cx="231" cy="112" r="2" fill="#CDCDCD"/>
<circle cx="253" cy="112" r="2" fill="#EBEBEB"/>
<circle cx="275" cy="112" r="2" fill="#EBEBEB"/>
<circle cx="297" cy="112" r="2" fill="#EBEBEB"/>
<circle cx="319" cy="112" r="2" fill="#EBEBEB"/>
<circle cx="341" cy="112" r="2" fill="#CDCDCD"/>
<circle cx="363" cy="112" r="2" fill="#EBEBEB"/>
<circle cx="385" cy="112" r="2" fill="#EBEBEB"/>
<circle cx="11" cy="134" r="2" fill="#EBEBEB"/>
<circle cx="33" cy="134" r="2" fill="#EBEBEB"/>
<circle cx="55" cy="134" r="2" fill="#EBEBEB"/>
<circle cx="77" cy="134" r="2" fill="#EBEBEB"/>
<circle cx="99" cy="134" r="2" fill="#EBEBEB"/>
<circle cx="121" cy="134" r="2" fill="#EBEBEB"/>
<circle cx="143" cy="134" r="2" fill="#EBEBEB"/>
<circle cx="165" cy="134" r="2" fill="#EBEBEB"/>
<circle cx="187" cy="134" r="2" fill="#EBEBEB"/>
<circle cx="209" cy="134" r="2" fill="#EBEBEB"/>
<circle cx="231" cy="134" r="2" fill="#EBEBEB"/>
<circle cx="253" cy="134" r="2" fill="#EBEBEB"/>
<circle cx="275" cy="134" r="2" fill="#EBEBEB"/>
<circle cx="297" cy="134" r="2" fill="#EBEBEB"/>
<circle cx="319" cy="134" r="2" fill="#EBEBEB"/>
<circle cx="341" cy="134" r="2" fill="#EBEBEB"/>
<circle cx="363" cy="134" r="2" fill="#EBEBEB"/>
<circle cx="385" cy="134" r="2" fill="#EBEBEB"/>
<circle cx="11" cy="156" r="2" fill="#EBEBEB"/>
<circle cx="33" cy="156" r="2" fill="#EBEBEB"/>
<circle cx="55" cy="156" r="2" fill="#EBEBEB"/>
<circle cx="77" cy="156" r="2" fill="#EBEBEB"/>
<circle cx="99" cy="156" r="2" fill="#EBEBEB"/>
<circle cx="121" cy="156" r="2" fill="#EBEBEB"/>
<circle cx="143" cy="156" r="2" fill="#EBEBEB"/>
<circle cx="165" cy="156" r="2" fill="#EBEBEB"/>
<circle cx="187" cy="156" r="2" fill="#EBEBEB"/>
<circle cx="209" cy="156" r="2" fill="#EBEBEB"/>
<circle cx="231" cy="156" r="2" fill="#EBEBEB"/>
<circle cx="253" cy="156" r="2" fill="#EBEBEB"/>
<circle cx="275" cy="156" r="2" fill="#EBEBEB"/>
<circle cx="297" cy="156" r="2" fill="#EBEBEB"/>
<circle cx="319" cy="156" r="2" fill="#EBEBEB"/>
<circle cx="341" cy="156" r="2" fill="#EBEBEB"/>
<circle cx="363" cy="156" r="2" fill="#EBEBEB"/>
<circle cx="385" cy="156" r="2" fill="#EBEBEB"/>
<circle cx="11" cy="178" r="2" fill="#EBEBEB"/>
<circle cx="33" cy="178" r="2" fill="#EBEBEB"/>
<circle cx="55" cy="178" r="2" fill="#EBEBEB"/>
<circle cx="77" cy="178" r="2" fill="#EBEBEB"/>
<circle cx="99" cy="178" r="2" fill="#EBEBEB"/>
<circle cx="121" cy="178" r="2" fill="#EBEBEB"/>
<circle cx="143" cy="178" r="2" fill="#EBEBEB"/>
<circle cx="165" cy="178" r="2" fill="#EBEBEB"/>
<circle cx="187" cy="178" r="2" fill="#EBEBEB"/>
<circle cx="209" cy="178" r="2" fill="#EBEBEB"/>
<circle cx="231" cy="178" r="2" fill="#EBEBEB"/>
<circle cx="253" cy="178" r="2" fill="#EBEBEB"/>
<circle cx="275" cy="178" r="2" fill="#EBEBEB"/>
<circle cx="297" cy="178" r="2" fill="#EBEBEB"/>
<circle cx="319" cy="178" r="2" fill="#EBEBEB"/>
<circle cx="341" cy="178" r="2" fill="#EBEBEB"/>
<circle cx="363" cy="178" r="2" fill="#EBEBEB"/>
<circle cx="385" cy="178" r="2" fill="#EBEBEB"/>
<circle cx="11" cy="200" r="2" fill="#EBEBEB"/>
<circle cx="33" cy="200" r="2" fill="#EBEBEB"/>
<circle cx="55" cy="200" r="2" fill="#EBEBEB"/>
<circle cx="77" cy="200" r="2" fill="#EBEBEB"/>
<circle cx="99" cy="200" r="2" fill="#EBEBEB"/>
<circle cx="121" cy="200" r="2" fill="#EBEBEB"/>
<circle cx="143" cy="200" r="2" fill="#EBEBEB"/>
<circle cx="165" cy="200" r="2" fill="#EBEBEB"/>
<circle cx="187" cy="200" r="2" fill="#EBEBEB"/>
<circle cx="209" cy="200" r="2" fill="#EBEBEB"/>
<circle cx="231" cy="200" r="2" fill="#EBEBEB"/>
<circle cx="253" cy="200" r="2" fill="#EBEBEB"/>
<circle cx="275" cy="200" r="2" fill="#EBEBEB"/>
<circle cx="297" cy="200" r="2" fill="#EBEBEB"/>
<circle cx="319" cy="200" r="2" fill="#EBEBEB"/>
<circle cx="341" cy="200" r="2" fill="#EBEBEB"/>
<circle cx="363" cy="200" r="2" fill="#EBEBEB"/>
<circle cx="385" cy="200" r="2" fill="#EBEBEB"/>
<circle cx="11" cy="222" r="2" fill="#CDCDCD"/>
<circle cx="33" cy="222" r="2" fill="#EBEBEB"/>
<circle cx="55" cy="222" r="2" fill="#EBEBEB"/>
<circle cx="77" cy="222" r="2" fill="#EBEBEB"/>
<circle cx="99" cy="222" r="2" fill="#EBEBEB"/>
<circle cx="121" cy="222" r="2" fill="#CDCDCD"/>
<circle cx="143" cy="222" r="2" fill="#EBEBEB"/>
<circle cx="165" cy="222" r="2" fill="#EBEBEB"/>
<circle cx="187" cy="222" r="2" fill="#EBEBEB"/>
<circle cx="209" cy="222" r="2" fill="#EBEBEB"/>
<circle cx="231" cy="222" r="2" fill="#CDCDCD"/>
<circle cx="253" cy="222" r="2" fill="#EBEBEB"/>
<circle cx="275" cy="222" r="2" fill="#EBEBEB"/>
<circle cx="297" cy="222" r="2" fill="#EBEBEB"/>
<circle cx="319" cy="222" r="2" fill="#EBEBEB"/>
<circle cx="341" cy="222" r="2" fill="#CDCDCD"/>
<circle cx="363" cy="222" r="2" fill="#EBEBEB"/>
<circle cx="385" cy="222" r="2" fill="#EBEBEB"/>
<circle cx="11" cy="244" r="2" fill="#EBEBEB"/>
<circle cx="33" cy="244" r="2" fill="#EBEBEB"/>
<circle cx="55" cy="244" r="2" fill="#EBEBEB"/>
<circle cx="77" cy="244" r="2" fill="#EBEBEB"/>
<circle cx="99" cy="244" r="2" fill="#EBEBEB"/>
<circle cx="121" cy="244" r="2" fill="#EBEBEB"/>
<circle cx="143" cy="244" r="2" fill="#EBEBEB"/>
<circle cx="165" cy="244" r="2" fill="#EBEBEB"/>
<circle cx="187" cy="244" r="2" fill="#EBEBEB"/>
<circle cx="209" cy="244" r="2" fill="#EBEBEB"/>
<circle cx="231" cy="244" r="2" fill="#EBEBEB"/>
<circle cx="253" cy="244" r="2" fill="#EBEBEB"/>
<circle cx="275" cy="244" r="2" fill="#EBEBEB"/>
<circle cx="297" cy="244" r="2" fill="#EBEBEB"/>
<circle cx="319" cy="244" r="2" fill="#EBEBEB"/>
<circle cx="341" cy="244" r="2" fill="#EBEBEB"/>
<circle cx="363" cy="244" r="2" fill="#EBEBEB"/>
<circle cx="385" cy="244" r="2" fill="#EBEBEB"/>
<path d="M227.865 125.394C227.865 173.718 188.718 212.865 140.394 212.865C92.0691 212.865 52.9224 173.683 52.9224 125.394C52.9224 77.1046 92.0691 37.9226 140.394 37.9226C188.718 37.9226 227.865 77.0693 227.865 125.394Z" fill="url(#paint0_linear_66_1219)" stroke="url(#paint1_linear_66_1219)" stroke-width="0.5"/>
<path d="M181.21 101.924L178.98 95.0206C178.52 93.6046 177.422 92.5426 176.006 92.0824L169.068 89.9584C168.112 89.6752 168.112 88.33 169.068 88.0114L175.971 85.7812C177.387 85.321 178.449 84.2236 178.909 82.8076L181.033 75.8692C181.316 74.9134 182.662 74.9134 182.98 75.8692L185.21 82.7722C185.671 84.1882 186.768 85.2502 188.184 85.7104L195.122 87.8344C196.078 88.1176 196.078 89.4628 195.122 89.7814L188.219 92.0116C186.803 92.4718 185.741 93.5692 185.281 94.9852L183.157 101.924C182.874 102.879 181.529 102.879 181.21 101.924Z" fill="#FAFAFA"/>
<path d="M60.6377 124.013C62.7263 119.942 66.8327 116.862 71.1161 114.915C75.4349 113.004 80.2139 111.8 84.8867 111.411C94.3385 110.561 103.507 112.119 111.897 114.88C116.216 116.154 120.074 117.96 124.075 119.765C126.022 120.686 127.827 121.748 129.703 122.774L134.872 125.783C140.571 129.288 146.093 132.368 151.262 134.775C156.465 137.147 161.138 138.775 165.563 139.589C169.988 140.403 174.484 140.403 180.007 139.129C185.494 137.89 191.653 135.2 198.131 131.766C204.609 128.332 211.265 124.119 218.876 120.013C218.097 128.615 215.69 136.686 211.867 144.474C207.973 152.156 202.556 159.696 194.662 165.75C186.909 171.874 176.254 176.157 165.422 176.795C154.589 177.538 144.252 175.131 135.473 171.555C126.659 167.909 119.048 163.13 112.322 157.82C110.445 156.369 109.454 155.519 108.074 154.351L104.215 150.988C101.631 148.97 99.1175 146.528 96.5687 144.545C91.4711 140.262 86.4089 135.978 80.8511 132.297C78.0545 130.421 75.1871 128.651 71.8949 127.128C70.2665 126.385 68.5319 125.677 66.6911 125.146C64.8503 124.438 62.9033 124.084 60.6377 124.013Z" fill="#FF4F0A"/>
<path d="M60.6377 124.013C61.6997 115.163 65.8415 106.844 72.4613 99.7996C79.0457 92.7904 89.3117 87.4096 100.746 86.7016C106.374 86.3122 112.074 86.9494 117.348 88.4008C122.588 89.8522 127.473 91.9762 131.898 94.4542C134.093 95.6932 136.181 97.0738 138.234 98.4544L143.721 102.596L152.288 109.358C157.846 113.783 163.156 117.854 168.041 121.252C172.997 124.65 177.21 127.093 181.21 128.544C185.21 130.137 190.237 130.527 196.892 128.863C200.184 128.084 203.654 126.704 207.335 125.217C210.981 123.659 214.805 121.818 218.946 120.013C218.451 124.473 217.53 128.898 215.831 133.04C214.167 137.253 212.008 141.359 208.964 145.182C207.406 147.059 205.742 148.935 203.795 150.669C201.848 152.369 199.689 153.962 197.317 155.378C192.573 158.139 186.945 160.121 181.175 160.865C175.404 161.573 169.599 161.219 164.324 160.121C159.014 159.024 154.2 157.289 149.739 155.236C140.889 151.13 133.491 145.961 126.942 140.474C123.65 137.748 120.57 134.881 117.667 131.978L114.233 128.509C113.207 127.518 112.145 126.491 111.118 125.571C106.87 121.818 102.976 118.986 98.7281 117.216C94.4801 115.376 89.0285 114.597 82.3733 115.871C75.7181 117.075 68.4257 119.978 60.6377 124.013Z" fill="#FAFAFA"/>
<path d="M95.7191 169.644C95.7191 172.263 93.5951 174.387 90.9755 174.387C88.3559 174.387 86.2319 172.263 86.2319 169.644C86.2319 167.024 88.3559 164.9 90.9755 164.9C93.5951 164.9 95.7191 167.024 95.7191 169.644Z" fill="#FAFAFA"/>
<path d="M95.7191 169.644C95.7191 172.263 93.5951 174.387 90.9755 174.387C88.3559 174.387 86.2319 172.263 86.2319 169.644C86.2319 167.024 88.3559 164.9 90.9755 164.9C93.5951 164.9 95.7191 167.024 95.7191 169.644Z" fill="#FAFAFA"/>
<path d="M106 38L174 38" stroke="#0C8CE9" stroke-width="0.5" stroke-linecap="round" stroke-linejoin="round"/>
<path d="M143 38.9039V37.0961C143 36.4907 142.509 36 141.904 36H140.096C139.491 36 139 36.4907 139 37.0961V38.9039C139 39.5093 139.491 40 140.096 40H141.904C142.509 40 143 39.5093 143 38.9039Z" fill="white" stroke="#0C8CE9" stroke-width="0.5" stroke-miterlimit="10"/>
<path d="M106 39C106.552 39 107 38.5523 107 38C107 37.4477 106.552 37 106 37C105.448 37 105 37.4477 105 38C105 38.5523 105.448 39 106 39Z" fill="#0C8CE9"/>
<path d="M174 39C174.552 39 175 38.5523 175 38C175 37.4477 174.552 37 174 37C173.448 37 173 37.4477 173 38C173 38.5523 173.448 39 174 39Z" fill="#0C8CE9"/>
<path d="M228 158L228 90" stroke="#0C8CE9" stroke-width="0.5" stroke-linecap="round" stroke-linejoin="round"/>
<path d="M228.904 121L227.096 121C226.491 121 226 121.491 226 122.096L226 123.904C226 124.509 226.491 125 227.096 125L228.904 125C229.509 125 230 124.509 230 123.904L230 122.096C230 121.491 229.509 121 228.904 121Z" fill="white" stroke="#0C8CE9" stroke-width="0.5" stroke-miterlimit="10"/>
<path d="M229 158C229 157.448 228.552 157 228 157C227.448 157 227 157.448 227 158C227 158.552 227.448 159 228 159C228.552 159 229 158.552 229 158Z" fill="#0C8CE9"/>
<path d="M229 90C229 89.4477 228.552 89 228 89C227.448 89 227 89.4477 227 90C227 90.5523 227.448 91 228 91C228.552 91 229 90.5523 229 90Z" fill="#0C8CE9"/>
<rect x="49" y="32" width="186" height="186" stroke="#0C8CE9" stroke-width="0.5"/>
<rect x="47.25" y="30.25" width="3.5" height="3.5" fill="white" stroke="#0C8CE9" stroke-width="0.5"/>
<rect x="233.25" y="30.25" width="3.5" height="3.5" fill="white" stroke="#0C8CE9" stroke-width="0.5"/>
<rect x="47.25" y="216.25" width="3.5" height="3.5" fill="white" stroke="#0C8CE9" stroke-width="0.5"/>
<rect x="233.25" y="216.25" width="3.5" height="3.5" fill="white" stroke="#0C8CE9" stroke-width="0.5"/>
<rect x="126" y="221" width="27" height="8" rx="2" fill="#0C8CE9"/>
<path d="M129.55 227.05C129.328 227.05 129.127 227.007 128.95 226.922C128.774 226.835 128.633 226.717 128.527 226.567C128.422 226.416 128.366 226.245 128.359 226.052H128.891C128.904 226.208 128.974 226.337 129.099 226.437C129.225 226.538 129.375 226.588 129.55 226.588C129.69 226.588 129.813 226.556 129.921 226.492C130.03 226.427 130.115 226.338 130.177 226.224C130.24 226.11 130.271 225.981 130.271 225.835C130.271 225.687 130.239 225.555 130.175 225.439C130.111 225.323 130.023 225.232 129.911 225.166C129.799 225.1 129.671 225.066 129.527 225.065C129.417 225.065 129.306 225.084 129.195 225.121C129.084 225.159 128.994 225.209 128.925 225.271L128.423 225.196L128.627 223.364H130.626V223.834H129.083L128.968 224.852H128.989C129.06 224.783 129.154 224.725 129.271 224.679C129.39 224.633 129.516 224.61 129.651 224.61C129.873 224.61 130.07 224.663 130.243 224.768C130.417 224.873 130.553 225.017 130.653 225.2C130.753 225.381 130.803 225.589 130.802 225.825C130.803 226.06 130.75 226.27 130.642 226.455C130.536 226.64 130.388 226.785 130.198 226.892C130.01 226.997 129.794 227.05 129.55 227.05ZM132.716 227.06C132.436 227.059 132.196 226.985 131.997 226.838C131.798 226.692 131.646 226.478 131.541 226.197C131.436 225.917 131.383 225.579 131.383 225.184C131.383 224.789 131.436 224.453 131.541 224.173C131.647 223.894 131.8 223.681 131.999 223.534C132.199 223.387 132.438 223.314 132.716 223.314C132.995 223.314 133.233 223.388 133.432 223.536C133.631 223.683 133.783 223.896 133.888 224.175C133.995 224.453 134.048 224.789 134.048 225.184C134.048 225.58 133.995 225.919 133.89 226.199C133.785 226.479 133.633 226.692 133.434 226.84C133.235 226.987 132.996 227.06 132.716 227.06ZM132.716 226.586C132.963 226.586 133.155 226.466 133.293 226.226C133.433 225.986 133.503 225.638 133.503 225.184C133.503 224.882 133.471 224.627 133.407 224.418C133.344 224.209 133.254 224.05 133.135 223.942C133.018 223.834 132.879 223.779 132.716 223.779C132.471 223.779 132.279 223.9 132.139 224.141C132 224.383 131.929 224.73 131.928 225.184C131.928 225.487 131.959 225.743 132.022 225.952C132.086 226.161 132.177 226.319 132.294 226.426C132.411 226.533 132.552 226.586 132.716 226.586ZM135.944 227.06C135.663 227.059 135.424 226.985 135.225 226.838C135.026 226.692 134.874 226.478 134.768 226.197C134.663 225.917 134.61 225.579 134.61 225.184C134.61 224.789 134.663 224.453 134.768 224.173C134.875 223.894 135.028 223.681 135.227 223.534C135.427 223.387 135.666 223.314 135.944 223.314C136.222 223.314 136.461 223.388 136.659 223.536C136.858 223.683 137.01 223.896 137.116 224.175C137.222 224.453 137.276 224.789 137.276 225.184C137.276 225.58 137.223 225.919 137.118 226.199C137.012 226.479 136.86 226.692 136.661 226.84C136.462 226.987 136.223 227.06 135.944 227.06ZM135.944 226.586C136.19 226.586 136.382 226.466 136.521 226.226C136.661 225.986 136.73 225.638 136.73 225.184C136.73 224.882 136.699 224.627 136.635 224.418C136.572 224.209 136.481 224.05 136.363 223.942C136.246 223.834 136.106 223.779 135.944 223.779C135.699 223.779 135.507 223.9 135.367 224.141C135.227 224.383 135.157 224.73 135.156 225.184C135.156 225.487 135.187 225.743 135.25 225.952C135.314 226.161 135.404 226.319 135.521 226.426C135.638 226.533 135.779 226.586 135.944 226.586ZM140.073 226.396L138.032 224.354L138.367 224.019L140.409 226.061L140.073 226.396ZM138.367 226.396L138.032 226.061L140.073 224.019L140.409 224.354L138.367 226.396ZM142.436 227.05C142.213 227.05 142.013 227.007 141.836 226.922C141.659 226.835 141.518 226.717 141.413 226.567C141.308 226.416 141.252 226.245 141.244 226.052H141.777C141.79 226.208 141.859 226.337 141.985 226.437C142.11 226.538 142.261 226.588 142.436 226.588C142.575 226.588 142.699 226.556 142.807 226.492C142.916 226.427 143.001 226.338 143.063 226.224C143.125 226.11 143.157 225.981 143.157 225.835C143.157 225.687 143.125 225.555 143.061 225.439C142.997 225.323 142.909 225.232 142.796 225.166C142.685 225.1 142.557 225.066 142.413 225.065C142.303 225.065 142.192 225.084 142.081 225.121C141.969 225.159 141.879 225.209 141.811 225.271L141.308 225.196L141.513 223.364H143.512V223.834H141.969L141.853 224.852H141.875C141.946 224.783 142.04 224.725 142.157 224.679C142.275 224.633 142.402 224.61 142.537 224.61C142.758 224.61 142.955 224.663 143.128 224.768C143.302 224.873 143.439 225.017 143.538 225.2C143.639 225.381 143.689 225.589 143.688 225.825C143.689 226.06 143.636 226.27 143.528 226.455C143.421 226.64 143.273 226.785 143.084 226.892C142.896 226.997 142.68 227.05 142.436 227.05ZM145.602 227.06C145.322 227.059 145.082 226.985 144.883 226.838C144.684 226.692 144.532 226.478 144.427 226.197C144.321 225.917 144.269 225.579 144.269 225.184C144.269 224.789 144.321 224.453 144.427 224.173C144.533 223.894 144.686 223.681 144.885 223.534C145.085 223.387 145.324 223.314 145.602 223.314C145.88 223.314 146.119 223.388 146.318 223.536C146.517 223.683 146.669 223.896 146.774 224.175C146.881 224.453 146.934 224.789 146.934 225.184C146.934 225.58 146.881 225.919 146.776 226.199C146.67 226.479 146.518 226.692 146.319 226.84C146.121 226.987 145.881 227.06 145.602 227.06ZM145.602 226.586C145.848 226.586 146.041 226.466 146.179 226.226C146.319 225.986 146.389 225.638 146.389 225.184C146.389 224.882 146.357 224.627 146.293 224.418C146.23 224.209 146.14 224.05 146.021 223.942C145.904 223.834 145.764 223.779 145.602 223.779C145.357 223.779 145.165 223.9 145.025 224.141C144.885 224.383 144.815 224.73 144.814 225.184C144.814 225.487 144.845 225.743 144.908 225.952C144.972 226.161 145.062 226.319 145.18 226.426C145.297 226.533 145.438 226.586 145.602 226.586ZM148.83 227.06C148.549 227.059 148.309 226.985 148.111 226.838C147.912 226.692 147.76 226.478 147.654 226.197C147.549 225.917 147.496 225.579 147.496 225.184C147.496 224.789 147.549 224.453 147.654 224.173C147.761 223.894 147.913 223.681 148.112 223.534C148.312 223.387 148.551 223.314 148.83 223.314C149.108 223.314 149.346 223.388 149.545 223.536C149.744 223.683 149.896 223.896 150.002 224.175C150.108 224.453 150.161 224.789 150.161 225.184C150.161 225.58 150.109 225.919 150.003 226.199C149.898 226.479 149.746 226.692 149.547 226.84C149.348 226.987 149.109 227.06 148.83 227.06ZM148.83 226.586C149.076 226.586 149.268 226.466 149.407 226.226C149.546 225.986 149.616 225.638 149.616 225.184C149.616 224.882 149.584 224.627 149.52 224.418C149.458 224.209 149.367 224.05 149.249 223.942C149.131 223.834 148.992 223.779 148.83 223.779C148.585 223.779 148.392 223.9 148.253 224.141C148.113 224.383 148.042 224.73 148.041 225.184C148.041 225.487 148.073 225.743 148.135 225.952C148.199 226.161 148.29 226.319 148.407 226.426C148.524 226.533 148.665 226.586 148.83 226.586Z" fill="white"/>
<rect x="265.5" y="73.5" width="7" height="7" stroke="black" stroke-dasharray="2 2"/>
<path d="M282.841 76.7017L282.071 76.8381C282.039 76.7396 281.988 76.6458 281.918 76.5568C281.849 76.4678 281.757 76.3949 281.639 76.3381C281.522 76.2812 281.375 76.2528 281.199 76.2528C280.958 76.2528 280.758 76.3068 280.597 76.4148C280.436 76.5208 280.355 76.6581 280.355 76.8267C280.355 76.9725 280.409 77.09 280.517 77.179C280.625 77.268 280.799 77.3409 281.04 77.3977L281.733 77.5568C282.134 77.6496 282.434 77.7926 282.631 77.9858C282.828 78.179 282.926 78.4299 282.926 78.7386C282.926 79 282.85 79.233 282.699 79.4375C282.549 79.6402 282.34 79.7992 282.071 79.9148C281.804 80.0303 281.494 80.0881 281.142 80.0881C280.653 80.0881 280.255 79.9839 279.946 79.7756C279.637 79.5653 279.448 79.267 279.378 78.8807L280.199 78.7557C280.25 78.9697 280.355 79.1316 280.514 79.2415C280.673 79.3494 280.881 79.4034 281.136 79.4034C281.415 79.4034 281.637 79.3456 281.804 79.2301C281.971 79.1127 282.054 78.9697 282.054 78.8011C282.054 78.6648 282.003 78.5502 281.901 78.4574C281.8 78.3646 281.646 78.2945 281.438 78.2472L280.699 78.0852C280.292 77.9924 279.991 77.8447 279.795 77.642C279.602 77.4394 279.506 77.1828 279.506 76.8722C279.506 76.6146 279.578 76.3892 279.722 76.196C279.866 76.0028 280.064 75.8523 280.318 75.7443C280.572 75.6345 280.863 75.5795 281.19 75.5795C281.662 75.5795 282.033 75.6818 282.304 75.8864C282.575 76.089 282.754 76.3608 282.841 76.7017ZM285.897 75.6364V76.3182H283.513V75.6364H285.897ZM284.153 74.5909H285.002V78.7188C285.002 78.8835 285.027 79.0076 285.076 79.0909C285.125 79.1723 285.189 79.2282 285.266 79.2585C285.346 79.2869 285.432 79.3011 285.525 79.3011C285.593 79.3011 285.653 79.2964 285.704 79.2869C285.755 79.2775 285.795 79.2699 285.823 79.2642L285.977 79.9659C285.927 79.9848 285.857 80.0038 285.766 80.0227C285.675 80.0436 285.562 80.0549 285.425 80.0568C285.202 80.0606 284.994 80.0208 284.8 79.9375C284.607 79.8542 284.451 79.7254 284.332 79.5511C284.212 79.3769 284.153 79.1581 284.153 78.8949V74.5909ZM288.107 80.0966C287.83 80.0966 287.58 80.0455 287.357 79.9432C287.133 79.839 286.956 79.6884 286.825 79.4915C286.696 79.2945 286.632 79.053 286.632 78.767C286.632 78.5208 286.679 78.3182 286.774 78.1591C286.869 78 286.997 77.8741 287.158 77.7812C287.319 77.6884 287.499 77.6184 287.697 77.571C287.896 77.5237 288.099 77.4877 288.305 77.4631C288.567 77.4328 288.779 77.4081 288.942 77.3892C289.105 77.3684 289.223 77.3352 289.297 77.2898C289.371 77.2443 289.408 77.1705 289.408 77.0682V77.0483C289.408 76.8002 289.338 76.608 289.197 76.4716C289.059 76.3352 288.853 76.267 288.578 76.267C288.292 76.267 288.067 76.3305 287.902 76.4574C287.739 76.5824 287.626 76.7216 287.564 76.875L286.766 76.6932C286.86 76.428 286.999 76.214 287.18 76.0511C287.364 75.8864 287.575 75.767 287.814 75.6932C288.053 75.6174 288.304 75.5795 288.567 75.5795C288.741 75.5795 288.926 75.6004 289.121 75.642C289.318 75.6818 289.501 75.7557 289.672 75.8636C289.844 75.9716 289.985 76.1259 290.095 76.3267C290.205 76.5256 290.26 76.7841 290.26 77.1023V80H289.43V79.4034H289.396C289.341 79.5133 289.259 79.6212 289.149 79.7273C289.039 79.8333 288.898 79.9214 288.726 79.9915C288.554 80.0616 288.347 80.0966 288.107 80.0966ZM288.291 79.4148C288.526 79.4148 288.727 79.3684 288.893 79.2756C289.062 79.1828 289.19 79.0616 289.277 78.9119C289.366 78.7604 289.411 78.5985 289.411 78.4261V77.8636C289.38 77.8939 289.321 77.9223 289.234 77.9489C289.149 77.9735 289.052 77.9953 288.942 78.0142C288.832 78.0312 288.725 78.0473 288.621 78.0625C288.517 78.0758 288.429 78.0871 288.359 78.0966C288.195 78.1174 288.044 78.1525 287.908 78.2017C287.773 78.2509 287.665 78.322 287.584 78.4148C287.504 78.5057 287.464 78.6269 287.464 78.7784C287.464 78.9886 287.542 79.1477 287.697 79.2557C287.853 79.3617 288.051 79.4148 288.291 79.4148ZM291.391 80V75.6364H292.212V76.3295H292.258C292.337 76.0947 292.478 75.91 292.678 75.7756C292.881 75.6392 293.11 75.571 293.366 75.571C293.419 75.571 293.481 75.5729 293.553 75.5767C293.627 75.5805 293.685 75.5852 293.727 75.5909V76.4034C293.692 76.3939 293.632 76.3835 293.545 76.3722C293.458 76.3589 293.371 76.3523 293.283 76.3523C293.083 76.3523 292.904 76.3949 292.746 76.4801C292.591 76.5634 292.468 76.6799 292.377 76.8295C292.286 76.9773 292.241 77.1458 292.241 77.3352V80H291.391ZM295.243 78.5199L295.237 77.483H295.385L297.124 75.6364H298.141L296.158 77.7386H296.024L295.243 78.5199ZM294.462 80V74.1818H295.311V80H294.462ZM297.217 80L295.655 77.9261L296.24 77.3324L298.26 80H297.217ZM299.764 77.4091V80H298.915V75.6364H299.73V76.3466H299.784C299.884 76.1155 300.042 75.9299 300.256 75.7898C300.472 75.6496 300.743 75.5795 301.071 75.5795C301.368 75.5795 301.629 75.642 301.852 75.767C302.076 75.8902 302.249 76.0739 302.372 76.3182C302.495 76.5625 302.557 76.8646 302.557 77.2244V80H301.707V77.3267C301.707 77.0104 301.625 76.7633 301.46 76.5852C301.295 76.4053 301.069 76.3153 300.781 76.3153C300.584 76.3153 300.409 76.358 300.256 76.4432C300.104 76.5284 299.984 76.6534 299.895 76.8182C299.808 76.9811 299.764 77.178 299.764 77.4091ZM305.577 80.0881C305.147 80.0881 304.777 79.9962 304.466 79.8125C304.157 79.6269 303.919 79.3665 303.75 79.0312C303.583 78.6941 303.5 78.2992 303.5 77.8466C303.5 77.3996 303.583 77.0057 303.75 76.6648C303.919 76.3239 304.153 76.0578 304.455 75.8665C304.758 75.6752 305.112 75.5795 305.517 75.5795C305.763 75.5795 306.002 75.6203 306.233 75.7017C306.464 75.7831 306.671 75.911 306.855 76.0852C307.039 76.2595 307.184 76.4858 307.29 76.7642C307.396 77.0407 307.449 77.3769 307.449 77.7727V78.0739H303.98V77.4375H306.616C306.616 77.214 306.571 77.0161 306.48 76.8438C306.389 76.6695 306.261 76.5322 306.097 76.4318C305.934 76.3314 305.742 76.2812 305.523 76.2812C305.284 76.2812 305.076 76.34 304.898 76.4574C304.722 76.5729 304.585 76.7244 304.489 76.9119C304.394 77.0975 304.347 77.2992 304.347 77.517V78.0142C304.347 78.3059 304.398 78.554 304.5 78.7585C304.604 78.9631 304.749 79.1193 304.935 79.2273C305.12 79.3333 305.337 79.3864 305.585 79.3864C305.746 79.3864 305.893 79.3636 306.026 79.3182C306.158 79.2708 306.273 79.2008 306.369 79.108C306.466 79.0152 306.54 78.9006 306.591 78.7642L307.395 78.9091C307.33 79.1458 307.215 79.3532 307.048 79.5312C306.884 79.7074 306.676 79.8447 306.426 79.9432C306.178 80.0398 305.895 80.0881 305.577 80.0881ZM310.428 75.6364V76.3182H308.045V75.6364H310.428ZM308.684 74.5909H309.533V78.7188C309.533 78.8835 309.558 79.0076 309.607 79.0909C309.656 79.1723 309.72 79.2282 309.798 79.2585C309.877 79.2869 309.963 79.3011 310.056 79.3011C310.124 79.3011 310.184 79.2964 310.235 79.2869C310.286 79.2775 310.326 79.2699 310.354 79.2642L310.508 79.9659C310.459 79.9848 310.388 80.0038 310.298 80.0227C310.207 80.0436 310.093 80.0549 309.957 80.0568C309.733 80.0606 309.525 80.0208 309.332 79.9375C309.138 79.8542 308.982 79.7254 308.863 79.5511C308.744 79.3769 308.684 79.1581 308.684 78.8949V74.5909ZM313.79 77.1733V77.9091H311.211V77.1733H313.79ZM315.772 74.1818V80H314.923V74.1818H315.772ZM318.753 80.0881C318.344 80.0881 317.987 79.9943 317.682 79.8068C317.377 79.6193 317.14 79.357 316.972 79.0199C316.803 78.6828 316.719 78.2888 316.719 77.8381C316.719 77.3854 316.803 76.9896 316.972 76.6506C317.14 76.3116 317.377 76.0483 317.682 75.8608C317.987 75.6733 318.344 75.5795 318.753 75.5795C319.162 75.5795 319.519 75.6733 319.824 75.8608C320.129 76.0483 320.366 76.3116 320.534 76.6506C320.703 76.9896 320.787 77.3854 320.787 77.8381C320.787 78.2888 320.703 78.6828 320.534 79.0199C320.366 79.357 320.129 79.6193 319.824 79.8068C319.519 79.9943 319.162 80.0881 318.753 80.0881ZM318.756 79.375C319.021 79.375 319.241 79.3049 319.415 79.1648C319.589 79.0246 319.718 78.8381 319.801 78.6051C319.886 78.3722 319.929 78.1155 319.929 77.8352C319.929 77.5568 319.886 77.3011 319.801 77.0682C319.718 76.8333 319.589 76.6449 319.415 76.5028C319.241 76.3608 319.021 76.2898 318.756 76.2898C318.489 76.2898 318.267 76.3608 318.091 76.5028C317.917 76.6449 317.787 76.8333 317.702 77.0682C317.618 77.3011 317.577 77.5568 317.577 77.8352C317.577 78.1155 317.618 78.3722 317.702 78.6051C317.787 78.8381 317.917 79.0246 318.091 79.1648C318.267 79.3049 318.489 79.375 318.756 79.375ZM323.565 81.7273C323.218 81.7273 322.92 81.6818 322.67 81.5909C322.422 81.5 322.219 81.3797 322.062 81.2301C321.905 81.0805 321.787 80.9167 321.71 80.7386L322.44 80.4375C322.491 80.5208 322.559 80.6089 322.644 80.7017C322.731 80.7964 322.849 80.8769 322.996 80.9432C323.146 81.0095 323.338 81.0426 323.573 81.0426C323.895 81.0426 324.161 80.964 324.371 80.8068C324.582 80.6515 324.687 80.4034 324.687 80.0625V79.2045H324.633C324.582 79.2973 324.508 79.4006 324.411 79.5142C324.317 79.6278 324.186 79.7263 324.019 79.8097C323.853 79.893 323.636 79.9347 323.369 79.9347C323.024 79.9347 322.713 79.8542 322.437 79.6932C322.162 79.5303 321.944 79.2907 321.783 78.9744C321.624 78.6562 321.545 78.2652 321.545 77.8011C321.545 77.3371 321.623 76.9394 321.781 76.608C321.94 76.2765 322.157 76.0227 322.434 75.8466C322.71 75.6686 323.024 75.5795 323.374 75.5795C323.645 75.5795 323.864 75.625 324.031 75.7159C324.197 75.8049 324.327 75.9091 324.42 76.0284C324.514 76.1477 324.587 76.2528 324.638 76.3438H324.701V75.6364H325.533V80.0966C325.533 80.4716 325.446 80.7794 325.272 81.0199C325.098 81.2604 324.862 81.4384 324.565 81.554C324.269 81.6695 323.936 81.7273 323.565 81.7273ZM323.556 79.2301C323.8 79.2301 324.007 79.1733 324.175 79.0597C324.346 78.9441 324.475 78.7794 324.562 78.5653C324.651 78.3494 324.695 78.0909 324.695 77.7898C324.695 77.4962 324.652 77.2377 324.565 77.0142C324.478 76.7907 324.35 76.6165 324.181 76.4915C324.013 76.3646 323.804 76.3011 323.556 76.3011C323.3 76.3011 323.087 76.3674 322.917 76.5C322.746 76.6307 322.618 76.8087 322.531 77.0341C322.445 77.2595 322.403 77.5114 322.403 77.7898C322.403 78.0758 322.446 78.3267 322.533 78.5426C322.621 78.7585 322.749 78.9271 322.92 79.0483C323.092 79.1695 323.304 79.2301 323.556 79.2301ZM328.511 80.0881C328.102 80.0881 327.745 79.9943 327.44 79.8068C327.135 79.6193 326.898 79.357 326.729 79.0199C326.561 78.6828 326.477 78.2888 326.477 77.8381C326.477 77.3854 326.561 76.9896 326.729 76.6506C326.898 76.3116 327.135 76.0483 327.44 75.8608C327.745 75.6733 328.102 75.5795 328.511 75.5795C328.92 75.5795 329.277 75.6733 329.582 75.8608C329.887 76.0483 330.123 76.3116 330.292 76.6506C330.46 76.9896 330.545 77.3854 330.545 77.8381C330.545 78.2888 330.46 78.6828 330.292 79.0199C330.123 79.357 329.887 79.6193 329.582 79.8068C329.277 79.9943 328.92 80.0881 328.511 80.0881ZM328.513 79.375C328.779 79.375 328.998 79.3049 329.173 79.1648C329.347 79.0246 329.476 78.8381 329.559 78.6051C329.644 78.3722 329.687 78.1155 329.687 77.8352C329.687 77.5568 329.644 77.3011 329.559 77.0682C329.476 76.8333 329.347 76.6449 329.173 76.5028C328.998 76.3608 328.779 76.2898 328.513 76.2898C328.246 76.2898 328.025 76.3608 327.849 76.5028C327.674 76.6449 327.545 76.8333 327.46 77.0682C327.376 77.3011 327.335 77.5568 327.335 77.8352C327.335 78.1155 327.376 78.3722 327.46 78.6051C327.545 78.8381 327.674 79.0246 327.849 79.1648C328.025 79.3049 328.246 79.375 328.513 79.375Z" fill="black"/>
<circle cx="281" cy="93" r="4" stroke="black"/>
<path d="M294.841 92.7017L294.071 92.8381C294.039 92.7396 293.988 92.6458 293.918 92.5568C293.849 92.4678 293.757 92.3949 293.639 92.3381C293.522 92.2812 293.375 92.2528 293.199 92.2528C292.958 92.2528 292.758 92.3068 292.597 92.4148C292.436 92.5208 292.355 92.6581 292.355 92.8267C292.355 92.9725 292.409 93.09 292.517 93.179C292.625 93.268 292.799 93.3409 293.04 93.3977L293.733 93.5568C294.134 93.6496 294.434 93.7926 294.631 93.9858C294.828 94.179 294.926 94.4299 294.926 94.7386C294.926 95 294.85 95.233 294.699 95.4375C294.549 95.6402 294.34 95.7992 294.071 95.9148C293.804 96.0303 293.494 96.0881 293.142 96.0881C292.653 96.0881 292.255 95.9839 291.946 95.7756C291.637 95.5653 291.448 95.267 291.378 94.8807L292.199 94.7557C292.25 94.9697 292.355 95.1316 292.514 95.2415C292.673 95.3494 292.881 95.4034 293.136 95.4034C293.415 95.4034 293.637 95.3456 293.804 95.2301C293.971 95.1127 294.054 94.9697 294.054 94.8011C294.054 94.6648 294.003 94.5502 293.901 94.4574C293.8 94.3646 293.646 94.2945 293.438 94.2472L292.699 94.0852C292.292 93.9924 291.991 93.8447 291.795 93.642C291.602 93.4394 291.506 93.1828 291.506 92.8722C291.506 92.6146 291.578 92.3892 291.722 92.196C291.866 92.0028 292.064 91.8523 292.318 91.7443C292.572 91.6345 292.863 91.5795 293.19 91.5795C293.662 91.5795 294.033 91.6818 294.304 91.8864C294.575 92.089 294.754 92.3608 294.841 92.7017ZM297.897 91.6364V92.3182H295.513V91.6364H297.897ZM296.153 90.5909H297.002V94.7188C297.002 94.8835 297.027 95.0076 297.076 95.0909C297.125 95.1723 297.189 95.2282 297.266 95.2585C297.346 95.2869 297.432 95.3011 297.525 95.3011C297.593 95.3011 297.653 95.2964 297.704 95.2869C297.755 95.2775 297.795 95.2699 297.823 95.2642L297.977 95.9659C297.927 95.9848 297.857 96.0038 297.766 96.0227C297.675 96.0436 297.562 96.0549 297.425 96.0568C297.202 96.0606 296.994 96.0208 296.8 95.9375C296.607 95.8542 296.451 95.7254 296.332 95.5511C296.212 95.3769 296.153 95.1581 296.153 94.8949V90.5909ZM300.107 96.0966C299.83 96.0966 299.58 96.0455 299.357 95.9432C299.133 95.839 298.956 95.6884 298.825 95.4915C298.696 95.2945 298.632 95.053 298.632 94.767C298.632 94.5208 298.679 94.3182 298.774 94.1591C298.869 94 298.997 93.8741 299.158 93.7812C299.319 93.6884 299.499 93.6184 299.697 93.571C299.896 93.5237 300.099 93.4877 300.305 93.4631C300.567 93.4328 300.779 93.4081 300.942 93.3892C301.105 93.3684 301.223 93.3352 301.297 93.2898C301.371 93.2443 301.408 93.1705 301.408 93.0682V93.0483C301.408 92.8002 301.338 92.608 301.197 92.4716C301.059 92.3352 300.853 92.267 300.578 92.267C300.292 92.267 300.067 92.3305 299.902 92.4574C299.739 92.5824 299.626 92.7216 299.564 92.875L298.766 92.6932C298.86 92.428 298.999 92.214 299.18 92.0511C299.364 91.8864 299.575 91.767 299.814 91.6932C300.053 91.6174 300.304 91.5795 300.567 91.5795C300.741 91.5795 300.926 91.6004 301.121 91.642C301.318 91.6818 301.501 91.7557 301.672 91.8636C301.844 91.9716 301.985 92.1259 302.095 92.3267C302.205 92.5256 302.26 92.7841 302.26 93.1023V96H301.43V95.4034H301.396C301.341 95.5133 301.259 95.6212 301.149 95.7273C301.039 95.8333 300.898 95.9214 300.726 95.9915C300.554 96.0616 300.347 96.0966 300.107 96.0966ZM300.291 95.4148C300.526 95.4148 300.727 95.3684 300.893 95.2756C301.062 95.1828 301.19 95.0616 301.277 94.9119C301.366 94.7604 301.411 94.5985 301.411 94.4261V93.8636C301.38 93.8939 301.321 93.9223 301.234 93.9489C301.149 93.9735 301.052 93.9953 300.942 94.0142C300.832 94.0312 300.725 94.0473 300.621 94.0625C300.517 94.0758 300.429 94.0871 300.359 94.0966C300.195 94.1174 300.044 94.1525 299.908 94.2017C299.773 94.2509 299.665 94.322 299.584 94.4148C299.504 94.5057 299.464 94.6269 299.464 94.7784C299.464 94.9886 299.542 95.1477 299.697 95.2557C299.853 95.3617 300.051 95.4148 300.291 95.4148ZM303.391 96V91.6364H304.212V92.3295H304.258C304.337 92.0947 304.478 91.91 304.678 91.7756C304.881 91.6392 305.11 91.571 305.366 91.571C305.419 91.571 305.481 91.5729 305.553 91.5767C305.627 91.5805 305.685 91.5852 305.727 91.5909V92.4034C305.692 92.3939 305.632 92.3835 305.545 92.3722C305.458 92.3589 305.371 92.3523 305.283 92.3523C305.083 92.3523 304.904 92.3949 304.746 92.4801C304.591 92.5634 304.468 92.6799 304.377 92.8295C304.286 92.9773 304.241 93.1458 304.241 93.3352V96H303.391ZM308.775 93.1733V93.9091H306.195V93.1733H308.775ZM312.103 90.1818V96H311.222V91.0625H311.188L309.796 91.9716V91.1307L311.248 90.1818H312.103Z" fill="black"/>
<path d="M280.742 113.791L280.093 111.782C279.959 111.37 279.64 111.061 279.228 110.927L277.209 110.309C276.93 110.227 276.93 109.835 277.209 109.742L279.218 109.093C279.63 108.959 279.939 108.64 280.073 108.228L280.691 106.209C280.773 105.93 281.165 105.93 281.258 106.209L281.907 108.218C282.041 108.63 282.36 108.939 282.772 109.073L284.791 109.691C285.07 109.773 285.07 110.165 284.791 110.258L282.782 110.907C282.37 111.041 282.061 111.36 281.927 111.772L281.309 113.791C281.227 114.07 280.835 114.07 280.742 113.791Z" fill="#FAFAFA" stroke="black"/>
<path d="M294.841 108.702L294.071 108.838C294.039 108.74 293.988 108.646 293.918 108.557C293.849 108.468 293.757 108.395 293.639 108.338C293.522 108.281 293.375 108.253 293.199 108.253C292.958 108.253 292.758 108.307 292.597 108.415C292.436 108.521 292.355 108.658 292.355 108.827C292.355 108.973 292.409 109.09 292.517 109.179C292.625 109.268 292.799 109.341 293.04 109.398L293.733 109.557C294.134 109.65 294.434 109.793 294.631 109.986C294.828 110.179 294.926 110.43 294.926 110.739C294.926 111 294.85 111.233 294.699 111.438C294.549 111.64 294.34 111.799 294.071 111.915C293.804 112.03 293.494 112.088 293.142 112.088C292.653 112.088 292.255 111.984 291.946 111.776C291.637 111.565 291.448 111.267 291.378 110.881L292.199 110.756C292.25 110.97 292.355 111.132 292.514 111.241C292.673 111.349 292.881 111.403 293.136 111.403C293.415 111.403 293.637 111.346 293.804 111.23C293.971 111.113 294.054 110.97 294.054 110.801C294.054 110.665 294.003 110.55 293.901 110.457C293.8 110.365 293.646 110.295 293.438 110.247L292.699 110.085C292.292 109.992 291.991 109.845 291.795 109.642C291.602 109.439 291.506 109.183 291.506 108.872C291.506 108.615 291.578 108.389 291.722 108.196C291.866 108.003 292.064 107.852 292.318 107.744C292.572 107.634 292.863 107.58 293.19 107.58C293.662 107.58 294.033 107.682 294.304 107.886C294.575 108.089 294.754 108.361 294.841 108.702ZM297.897 107.636V108.318H295.513V107.636H297.897ZM296.153 106.591H297.002V110.719C297.002 110.884 297.027 111.008 297.076 111.091C297.125 111.172 297.189 111.228 297.266 111.259C297.346 111.287 297.432 111.301 297.525 111.301C297.593 111.301 297.653 111.296 297.704 111.287C297.755 111.277 297.795 111.27 297.823 111.264L297.977 111.966C297.927 111.985 297.857 112.004 297.766 112.023C297.675 112.044 297.562 112.055 297.425 112.057C297.202 112.061 296.994 112.021 296.8 111.938C296.607 111.854 296.451 111.725 296.332 111.551C296.212 111.377 296.153 111.158 296.153 110.895V106.591ZM300.107 112.097C299.83 112.097 299.58 112.045 299.357 111.943C299.133 111.839 298.956 111.688 298.825 111.491C298.696 111.295 298.632 111.053 298.632 110.767C298.632 110.521 298.679 110.318 298.774 110.159C298.869 110 298.997 109.874 299.158 109.781C299.319 109.688 299.499 109.618 299.697 109.571C299.896 109.524 300.099 109.488 300.305 109.463C300.567 109.433 300.779 109.408 300.942 109.389C301.105 109.368 301.223 109.335 301.297 109.29C301.371 109.244 301.408 109.17 301.408 109.068V109.048C301.408 108.8 301.338 108.608 301.197 108.472C301.059 108.335 300.853 108.267 300.578 108.267C300.292 108.267 300.067 108.33 299.902 108.457C299.739 108.582 299.626 108.722 299.564 108.875L298.766 108.693C298.86 108.428 298.999 108.214 299.18 108.051C299.364 107.886 299.575 107.767 299.814 107.693C300.053 107.617 300.304 107.58 300.567 107.58C300.741 107.58 300.926 107.6 301.121 107.642C301.318 107.682 301.501 107.756 301.672 107.864C301.844 107.972 301.985 108.126 302.095 108.327C302.205 108.526 302.26 108.784 302.26 109.102V112H301.43V111.403H301.396C301.341 111.513 301.259 111.621 301.149 111.727C301.039 111.833 300.898 111.921 300.726 111.991C300.554 112.062 300.347 112.097 300.107 112.097ZM300.291 111.415C300.526 111.415 300.727 111.368 300.893 111.276C301.062 111.183 301.19 111.062 301.277 110.912C301.366 110.76 301.411 110.598 301.411 110.426V109.864C301.38 109.894 301.321 109.922 301.234 109.949C301.149 109.973 301.052 109.995 300.942 110.014C300.832 110.031 300.725 110.047 300.621 110.062C300.517 110.076 300.429 110.087 300.359 110.097C300.195 110.117 300.044 110.152 299.908 110.202C299.773 110.251 299.665 110.322 299.584 110.415C299.504 110.506 299.464 110.627 299.464 110.778C299.464 110.989 299.542 111.148 299.697 111.256C299.853 111.362 300.051 111.415 300.291 111.415ZM303.391 112V107.636H304.212V108.33H304.258C304.337 108.095 304.478 107.91 304.678 107.776C304.881 107.639 305.11 107.571 305.366 107.571C305.419 107.571 305.481 107.573 305.553 107.577C305.627 107.58 305.685 107.585 305.727 107.591V108.403C305.692 108.394 305.632 108.384 305.545 108.372C305.458 108.359 305.371 108.352 305.283 108.352C305.083 108.352 304.904 108.395 304.746 108.48C304.591 108.563 304.468 108.68 304.377 108.83C304.286 108.977 304.241 109.146 304.241 109.335V112H303.391ZM308.775 109.173V109.909H306.195V109.173H308.775ZM309.661 112V111.364L311.63 109.324C311.84 109.102 312.013 108.908 312.15 108.741C312.288 108.573 312.391 108.413 312.46 108.261C312.528 108.11 312.562 107.949 312.562 107.778C312.562 107.585 312.516 107.419 312.425 107.278C312.335 107.136 312.21 107.027 312.053 106.952C311.896 106.874 311.719 106.835 311.522 106.835C311.314 106.835 311.132 106.878 310.977 106.963C310.821 107.048 310.702 107.169 310.619 107.324C310.535 107.479 310.494 107.661 310.494 107.869H309.656C309.656 107.515 309.737 107.205 309.9 106.94C310.063 106.675 310.286 106.47 310.57 106.324C310.854 106.176 311.177 106.102 311.539 106.102C311.905 106.102 312.227 106.175 312.505 106.321C312.785 106.465 313.004 106.662 313.161 106.912C313.318 107.16 313.397 107.44 313.397 107.753C313.397 107.969 313.356 108.18 313.275 108.386C313.195 108.593 313.056 108.823 312.857 109.077C312.658 109.329 312.382 109.634 312.028 109.994L310.871 111.205V111.247H313.491V112H309.661Z" fill="black"/>
<path d="M277 125.005C277.054 124.558 277.263 124.138 277.597 123.782C277.93 123.427 278.449 123.155 279.027 123.12C279.311 123.1 279.599 123.132 279.866 123.206C280.131 123.279 280.377 123.386 280.601 123.511C280.712 123.574 280.818 123.644 280.921 123.714L281.199 123.923L281.631 124.265C281.912 124.488 282.181 124.694 282.428 124.866C282.678 125.037 282.891 125.161 283.093 125.234C283.295 125.315 283.549 125.334 283.886 125.25C284.052 125.211 284.227 125.141 284.413 125.066C284.597 124.987 284.791 124.894 285 124.803C284.975 125.028 284.928 125.252 284.843 125.461C284.758 125.674 284.649 125.882 284.496 126.075C284.417 126.17 284.333 126.265 284.234 126.352C284.136 126.438 284.027 126.519 283.907 126.59C283.667 126.73 283.383 126.83 283.091 126.867C282.8 126.903 282.506 126.885 282.24 126.83C281.971 126.774 281.728 126.687 281.503 126.583C281.055 126.376 280.682 126.114 280.351 125.837C280.184 125.699 280.029 125.554 279.882 125.408L279.708 125.232C279.657 125.182 279.603 125.13 279.551 125.084C279.336 124.894 279.14 124.751 278.925 124.662C278.71 124.569 278.435 124.529 278.098 124.594C277.762 124.655 277.394 124.801 277 125.005Z" fill="#FAFAFA" stroke="black"/>
<path d="M292.42 122.182V128H291.571V122.182H292.42ZM295.401 128.088C294.992 128.088 294.635 127.994 294.33 127.807C294.025 127.619 293.789 127.357 293.62 127.02C293.451 126.683 293.367 126.289 293.367 125.838C293.367 125.385 293.451 124.99 293.62 124.651C293.789 124.312 294.025 124.048 294.33 123.861C294.635 123.673 294.992 123.58 295.401 123.58C295.81 123.58 296.167 123.673 296.472 123.861C296.777 124.048 297.014 124.312 297.183 124.651C297.351 124.99 297.435 125.385 297.435 125.838C297.435 126.289 297.351 126.683 297.183 127.02C297.014 127.357 296.777 127.619 296.472 127.807C296.167 127.994 295.81 128.088 295.401 128.088ZM295.404 127.375C295.669 127.375 295.889 127.305 296.063 127.165C296.237 127.025 296.366 126.838 296.45 126.605C296.535 126.372 296.577 126.116 296.577 125.835C296.577 125.557 296.535 125.301 296.45 125.068C296.366 124.833 296.237 124.645 296.063 124.503C295.889 124.361 295.669 124.29 295.404 124.29C295.137 124.29 294.915 124.361 294.739 124.503C294.565 124.645 294.435 124.833 294.35 125.068C294.267 125.301 294.225 125.557 294.225 125.835C294.225 126.116 294.267 126.372 294.35 126.605C294.435 126.838 294.565 127.025 294.739 127.165C294.915 127.305 295.137 127.375 295.404 127.375ZM300.213 129.727C299.866 129.727 299.568 129.682 299.318 129.591C299.07 129.5 298.867 129.38 298.71 129.23C298.553 129.08 298.436 128.917 298.358 128.739L299.088 128.438C299.139 128.521 299.207 128.609 299.293 128.702C299.38 128.796 299.497 128.877 299.645 128.943C299.795 129.009 299.987 129.043 300.222 129.043C300.544 129.043 300.81 128.964 301.02 128.807C301.23 128.652 301.335 128.403 301.335 128.062V127.205H301.281C301.23 127.297 301.156 127.401 301.06 127.514C300.965 127.628 300.834 127.726 300.668 127.81C300.501 127.893 300.284 127.935 300.017 127.935C299.672 127.935 299.362 127.854 299.085 127.693C298.811 127.53 298.593 127.291 298.432 126.974C298.273 126.656 298.193 126.265 298.193 125.801C298.193 125.337 298.272 124.939 298.429 124.608C298.588 124.277 298.806 124.023 299.082 123.847C299.359 123.669 299.672 123.58 300.023 123.58C300.294 123.58 300.512 123.625 300.679 123.716C300.846 123.805 300.975 123.909 301.068 124.028C301.163 124.148 301.236 124.253 301.287 124.344H301.349V123.636H302.182V128.097C302.182 128.472 302.095 128.779 301.92 129.02C301.746 129.26 301.51 129.438 301.213 129.554C300.918 129.67 300.584 129.727 300.213 129.727ZM300.205 127.23C300.449 127.23 300.655 127.173 300.824 127.06C300.994 126.944 301.123 126.779 301.21 126.565C301.299 126.349 301.344 126.091 301.344 125.79C301.344 125.496 301.3 125.238 301.213 125.014C301.126 124.791 300.998 124.616 300.83 124.491C300.661 124.365 300.453 124.301 300.205 124.301C299.949 124.301 299.736 124.367 299.565 124.5C299.395 124.631 299.266 124.809 299.179 125.034C299.094 125.259 299.051 125.511 299.051 125.79C299.051 126.076 299.095 126.327 299.182 126.543C299.269 126.759 299.398 126.927 299.568 127.048C299.741 127.17 299.953 127.23 300.205 127.23ZM305.159 128.088C304.75 128.088 304.393 127.994 304.088 127.807C303.783 127.619 303.546 127.357 303.378 127.02C303.209 126.683 303.125 126.289 303.125 125.838C303.125 125.385 303.209 124.99 303.378 124.651C303.546 124.312 303.783 124.048 304.088 123.861C304.393 123.673 304.75 123.58 305.159 123.58C305.568 123.58 305.925 123.673 306.23 123.861C306.535 124.048 306.772 124.312 306.94 124.651C307.109 124.99 307.193 125.385 307.193 125.838C307.193 126.289 307.109 126.683 306.94 127.02C306.772 127.357 306.535 127.619 306.23 127.807C305.925 127.994 305.568 128.088 305.159 128.088ZM305.162 127.375C305.427 127.375 305.647 127.305 305.821 127.165C305.995 127.025 306.124 126.838 306.207 126.605C306.293 126.372 306.335 126.116 306.335 125.835C306.335 125.557 306.293 125.301 306.207 125.068C306.124 124.833 305.995 124.645 305.821 124.503C305.647 124.361 305.427 124.29 305.162 124.29C304.895 124.29 304.673 124.361 304.497 124.503C304.323 124.645 304.193 124.833 304.108 125.068C304.025 125.301 303.983 125.557 303.983 125.835C303.983 126.116 304.025 126.372 304.108 126.605C304.193 126.838 304.323 127.025 304.497 127.165C304.673 127.305 304.895 127.375 305.162 127.375ZM310.712 125.173V125.909H308.133V125.173H310.712ZM313.114 128.097C312.838 128.097 312.588 128.045 312.364 127.943C312.141 127.839 311.964 127.688 311.833 127.491C311.704 127.295 311.64 127.053 311.64 126.767C311.64 126.521 311.687 126.318 311.782 126.159C311.877 126 312.004 125.874 312.165 125.781C312.326 125.688 312.506 125.618 312.705 125.571C312.904 125.524 313.107 125.488 313.313 125.463C313.575 125.433 313.787 125.408 313.95 125.389C314.112 125.368 314.231 125.335 314.305 125.29C314.379 125.244 314.415 125.17 314.415 125.068V125.048C314.415 124.8 314.345 124.608 314.205 124.472C314.067 124.335 313.861 124.267 313.586 124.267C313.3 124.267 313.075 124.33 312.91 124.457C312.747 124.582 312.634 124.722 312.572 124.875L311.773 124.693C311.868 124.428 312.006 124.214 312.188 124.051C312.372 123.886 312.583 123.767 312.822 123.693C313.06 123.617 313.311 123.58 313.575 123.58C313.749 123.58 313.933 123.6 314.129 123.642C314.326 123.682 314.509 123.756 314.68 123.864C314.852 123.972 314.993 124.126 315.103 124.327C315.213 124.526 315.268 124.784 315.268 125.102V128H314.438V127.403H314.404C314.349 127.513 314.267 127.621 314.157 127.727C314.047 127.833 313.906 127.921 313.734 127.991C313.561 128.062 313.355 128.097 313.114 128.097ZM313.299 127.415C313.534 127.415 313.735 127.368 313.901 127.276C314.07 127.183 314.198 127.062 314.285 126.912C314.374 126.76 314.418 126.598 314.418 126.426V125.864C314.388 125.894 314.329 125.922 314.242 125.949C314.157 125.973 314.059 125.995 313.95 126.014C313.84 126.031 313.733 126.047 313.629 126.062C313.524 126.076 313.437 126.087 313.367 126.097C313.202 126.117 313.052 126.152 312.915 126.202C312.781 126.251 312.673 126.322 312.592 126.415C312.512 126.506 312.472 126.627 312.472 126.778C312.472 126.989 312.55 127.148 312.705 127.256C312.861 127.362 313.058 127.415 313.299 127.415ZM318.237 128.088C317.815 128.088 317.451 127.992 317.146 127.801C316.843 127.608 316.61 127.342 316.447 127.003C316.285 126.664 316.203 126.276 316.203 125.838C316.203 125.395 316.286 125.004 316.453 124.665C316.62 124.324 316.855 124.058 317.158 123.866C317.461 123.675 317.818 123.58 318.229 123.58C318.56 123.58 318.856 123.641 319.115 123.764C319.375 123.885 319.584 124.056 319.743 124.276C319.904 124.495 320 124.752 320.03 125.045H319.203C319.158 124.841 319.054 124.665 318.891 124.517C318.73 124.369 318.514 124.295 318.243 124.295C318.006 124.295 317.799 124.358 317.621 124.483C317.445 124.606 317.307 124.782 317.209 125.011C317.11 125.239 317.061 125.508 317.061 125.818C317.061 126.136 317.109 126.411 317.206 126.642C317.303 126.873 317.439 127.052 317.615 127.179C317.793 127.306 318.002 127.369 318.243 127.369C318.404 127.369 318.55 127.34 318.68 127.281C318.813 127.221 318.924 127.134 319.013 127.023C319.104 126.911 319.167 126.777 319.203 126.619H320.03C320 126.902 319.908 127.153 319.754 127.375C319.601 127.597 319.395 127.771 319.138 127.898C318.882 128.025 318.582 128.088 318.237 128.088ZM322.776 128.088C322.354 128.088 321.99 127.992 321.685 127.801C321.382 127.608 321.149 127.342 320.987 127.003C320.824 126.664 320.742 126.276 320.742 125.838C320.742 125.395 320.826 125.004 320.992 124.665C321.159 124.324 321.394 124.058 321.697 123.866C322 123.675 322.357 123.58 322.768 123.58C323.099 123.58 323.395 123.641 323.654 123.764C323.914 123.885 324.123 124.056 324.282 124.276C324.443 124.495 324.539 124.752 324.569 125.045H323.742C323.697 124.841 323.593 124.665 323.43 124.517C323.269 124.369 323.053 124.295 322.782 124.295C322.545 124.295 322.338 124.358 322.16 124.483C321.984 124.606 321.846 124.782 321.748 125.011C321.649 125.239 321.6 125.508 321.6 125.818C321.6 126.136 321.648 126.411 321.745 126.642C321.842 126.873 321.978 127.052 322.154 127.179C322.332 127.306 322.541 127.369 322.782 127.369C322.943 127.369 323.089 127.34 323.219 127.281C323.352 127.221 323.463 127.134 323.552 127.023C323.643 126.911 323.706 126.777 323.742 126.619H324.569C324.539 126.902 324.447 127.153 324.293 127.375C324.14 127.597 323.934 127.771 323.677 127.898C323.421 128.025 323.121 128.088 322.776 128.088ZM327.358 128.088C326.928 128.088 326.558 127.996 326.247 127.812C325.938 127.627 325.7 127.366 325.531 127.031C325.365 126.694 325.281 126.299 325.281 125.847C325.281 125.4 325.365 125.006 325.531 124.665C325.7 124.324 325.935 124.058 326.236 123.866C326.539 123.675 326.893 123.58 327.298 123.58C327.545 123.58 327.783 123.62 328.014 123.702C328.245 123.783 328.453 123.911 328.636 124.085C328.82 124.259 328.965 124.486 329.071 124.764C329.177 125.041 329.23 125.377 329.23 125.773V126.074H325.761V125.438H328.398C328.398 125.214 328.352 125.016 328.261 124.844C328.17 124.67 328.043 124.532 327.878 124.432C327.715 124.331 327.524 124.281 327.304 124.281C327.065 124.281 326.857 124.34 326.679 124.457C326.503 124.573 326.366 124.724 326.27 124.912C326.175 125.098 326.128 125.299 326.128 125.517V126.014C326.128 126.306 326.179 126.554 326.281 126.759C326.385 126.963 326.53 127.119 326.716 127.227C326.902 127.333 327.118 127.386 327.366 127.386C327.527 127.386 327.674 127.364 327.807 127.318C327.939 127.271 328.054 127.201 328.151 127.108C328.247 127.015 328.321 126.901 328.372 126.764L329.176 126.909C329.112 127.146 328.996 127.353 328.83 127.531C328.665 127.707 328.457 127.845 328.207 127.943C327.959 128.04 327.676 128.088 327.358 128.088ZM331.022 125.409V128H330.173V123.636H330.988V124.347H331.042C331.142 124.116 331.299 123.93 331.513 123.79C331.729 123.65 332.001 123.58 332.329 123.58C332.626 123.58 332.887 123.642 333.11 123.767C333.334 123.89 333.507 124.074 333.63 124.318C333.753 124.562 333.815 124.865 333.815 125.224V128H332.965V125.327C332.965 125.01 332.883 124.763 332.718 124.585C332.553 124.405 332.327 124.315 332.039 124.315C331.842 124.315 331.667 124.358 331.513 124.443C331.362 124.528 331.242 124.653 331.153 124.818C331.066 124.981 331.022 125.178 331.022 125.409ZM336.991 123.636V124.318H334.607V123.636H336.991ZM335.246 122.591H336.096V126.719C336.096 126.884 336.121 127.008 336.17 127.091C336.219 127.172 336.282 127.228 336.36 127.259C336.44 127.287 336.526 127.301 336.619 127.301C336.687 127.301 336.746 127.296 336.798 127.287C336.849 127.277 336.888 127.27 336.917 127.264L337.07 127.966C337.021 127.985 336.951 128.004 336.86 128.023C336.769 128.044 336.656 128.055 336.519 128.057C336.296 128.061 336.087 128.021 335.894 127.938C335.701 127.854 335.545 127.725 335.425 127.551C335.306 127.377 335.246 127.158 335.246 126.895V122.591ZM340.353 125.173V125.909H337.773V125.173H340.353ZM343.681 122.182V128H342.8V123.062H342.766L341.374 123.972V123.131L342.826 122.182H343.681Z" fill="black"/>
<path d="M277 139.987C277.106 139.781 277.313 139.625 277.53 139.527C277.748 139.43 277.99 139.369 278.226 139.35C278.704 139.307 279.167 139.385 279.591 139.525C279.81 139.589 280.005 139.681 280.207 139.772C280.306 139.819 280.397 139.872 280.492 139.924L280.753 140.076C281.041 140.253 281.32 140.409 281.582 140.531C281.845 140.651 282.081 140.733 282.305 140.774C282.528 140.815 282.756 140.815 283.035 140.751C283.312 140.688 283.624 140.552 283.951 140.379C284.279 140.205 284.615 139.992 285 139.785C284.961 140.219 284.839 140.627 284.646 141.021C284.449 141.41 284.175 141.791 283.776 142.097C283.384 142.406 282.845 142.623 282.298 142.655C281.75 142.693 281.227 142.571 280.783 142.39C280.338 142.206 279.953 141.964 279.613 141.696C279.518 141.623 279.468 141.58 279.398 141.521L279.203 141.351C279.072 141.249 278.945 141.125 278.817 141.025C278.559 140.808 278.303 140.592 278.022 140.406C277.881 140.311 277.736 140.221 277.569 140.144C277.487 140.107 277.399 140.071 277.306 140.044C277.213 140.008 277.115 139.99 277 139.987Z" stroke="black"/>
<path d="M292.42 138.182V144H291.571V138.182H292.42ZM295.401 144.088C294.992 144.088 294.635 143.994 294.33 143.807C294.025 143.619 293.789 143.357 293.62 143.02C293.451 142.683 293.367 142.289 293.367 141.838C293.367 141.385 293.451 140.99 293.62 140.651C293.789 140.312 294.025 140.048 294.33 139.861C294.635 139.673 294.992 139.58 295.401 139.58C295.81 139.58 296.167 139.673 296.472 139.861C296.777 140.048 297.014 140.312 297.183 140.651C297.351 140.99 297.435 141.385 297.435 141.838C297.435 142.289 297.351 142.683 297.183 143.02C297.014 143.357 296.777 143.619 296.472 143.807C296.167 143.994 295.81 144.088 295.401 144.088ZM295.404 143.375C295.669 143.375 295.889 143.305 296.063 143.165C296.237 143.025 296.366 142.838 296.45 142.605C296.535 142.372 296.577 142.116 296.577 141.835C296.577 141.557 296.535 141.301 296.45 141.068C296.366 140.833 296.237 140.645 296.063 140.503C295.889 140.361 295.669 140.29 295.404 140.29C295.137 140.29 294.915 140.361 294.739 140.503C294.565 140.645 294.435 140.833 294.35 141.068C294.267 141.301 294.225 141.557 294.225 141.835C294.225 142.116 294.267 142.372 294.35 142.605C294.435 142.838 294.565 143.025 294.739 143.165C294.915 143.305 295.137 143.375 295.404 143.375ZM300.213 145.727C299.866 145.727 299.568 145.682 299.318 145.591C299.07 145.5 298.867 145.38 298.71 145.23C298.553 145.08 298.436 144.917 298.358 144.739L299.088 144.438C299.139 144.521 299.207 144.609 299.293 144.702C299.38 144.796 299.497 144.877 299.645 144.943C299.795 145.009 299.987 145.043 300.222 145.043C300.544 145.043 300.81 144.964 301.02 144.807C301.23 144.652 301.335 144.403 301.335 144.062V143.205H301.281C301.23 143.297 301.156 143.401 301.06 143.514C300.965 143.628 300.834 143.726 300.668 143.81C300.501 143.893 300.284 143.935 300.017 143.935C299.672 143.935 299.362 143.854 299.085 143.693C298.811 143.53 298.593 143.291 298.432 142.974C298.273 142.656 298.193 142.265 298.193 141.801C298.193 141.337 298.272 140.939 298.429 140.608C298.588 140.277 298.806 140.023 299.082 139.847C299.359 139.669 299.672 139.58 300.023 139.58C300.294 139.58 300.512 139.625 300.679 139.716C300.846 139.805 300.975 139.909 301.068 140.028C301.163 140.148 301.236 140.253 301.287 140.344H301.349V139.636H302.182V144.097C302.182 144.472 302.095 144.779 301.92 145.02C301.746 145.26 301.51 145.438 301.213 145.554C300.918 145.67 300.584 145.727 300.213 145.727ZM300.205 143.23C300.449 143.23 300.655 143.173 300.824 143.06C300.994 142.944 301.123 142.779 301.21 142.565C301.299 142.349 301.344 142.091 301.344 141.79C301.344 141.496 301.3 141.238 301.213 141.014C301.126 140.791 300.998 140.616 300.83 140.491C300.661 140.365 300.453 140.301 300.205 140.301C299.949 140.301 299.736 140.367 299.565 140.5C299.395 140.631 299.266 140.809 299.179 141.034C299.094 141.259 299.051 141.511 299.051 141.79C299.051 142.076 299.095 142.327 299.182 142.543C299.269 142.759 299.398 142.927 299.568 143.048C299.741 143.17 299.953 143.23 300.205 143.23ZM305.159 144.088C304.75 144.088 304.393 143.994 304.088 143.807C303.783 143.619 303.546 143.357 303.378 143.02C303.209 142.683 303.125 142.289 303.125 141.838C303.125 141.385 303.209 140.99 303.378 140.651C303.546 140.312 303.783 140.048 304.088 139.861C304.393 139.673 304.75 139.58 305.159 139.58C305.568 139.58 305.925 139.673 306.23 139.861C306.535 140.048 306.772 140.312 306.94 140.651C307.109 140.99 307.193 141.385 307.193 141.838C307.193 142.289 307.109 142.683 306.94 143.02C306.772 143.357 306.535 143.619 306.23 143.807C305.925 143.994 305.568 144.088 305.159 144.088ZM305.162 143.375C305.427 143.375 305.647 143.305 305.821 143.165C305.995 143.025 306.124 142.838 306.207 142.605C306.293 142.372 306.335 142.116 306.335 141.835C306.335 141.557 306.293 141.301 306.207 141.068C306.124 140.833 305.995 140.645 305.821 140.503C305.647 140.361 305.427 140.29 305.162 140.29C304.895 140.29 304.673 140.361 304.497 140.503C304.323 140.645 304.193 140.833 304.108 141.068C304.025 141.301 303.983 141.557 303.983 141.835C303.983 142.116 304.025 142.372 304.108 142.605C304.193 142.838 304.323 143.025 304.497 143.165C304.673 143.305 304.895 143.375 305.162 143.375ZM310.712 141.173V141.909H308.133V141.173H310.712ZM313.114 144.097C312.838 144.097 312.588 144.045 312.364 143.943C312.141 143.839 311.964 143.688 311.833 143.491C311.704 143.295 311.64 143.053 311.64 142.767C311.64 142.521 311.687 142.318 311.782 142.159C311.877 142 312.004 141.874 312.165 141.781C312.326 141.688 312.506 141.618 312.705 141.571C312.904 141.524 313.107 141.488 313.313 141.463C313.575 141.433 313.787 141.408 313.95 141.389C314.112 141.368 314.231 141.335 314.305 141.29C314.379 141.244 314.415 141.17 314.415 141.068V141.048C314.415 140.8 314.345 140.608 314.205 140.472C314.067 140.335 313.861 140.267 313.586 140.267C313.3 140.267 313.075 140.33 312.91 140.457C312.747 140.582 312.634 140.722 312.572 140.875L311.773 140.693C311.868 140.428 312.006 140.214 312.188 140.051C312.372 139.886 312.583 139.767 312.822 139.693C313.06 139.617 313.311 139.58 313.575 139.58C313.749 139.58 313.933 139.6 314.129 139.642C314.326 139.682 314.509 139.756 314.68 139.864C314.852 139.972 314.993 140.126 315.103 140.327C315.213 140.526 315.268 140.784 315.268 141.102V144H314.438V143.403H314.404C314.349 143.513 314.267 143.621 314.157 143.727C314.047 143.833 313.906 143.921 313.734 143.991C313.561 144.062 313.355 144.097 313.114 144.097ZM313.299 143.415C313.534 143.415 313.735 143.368 313.901 143.276C314.07 143.183 314.198 143.062 314.285 142.912C314.374 142.76 314.418 142.598 314.418 142.426V141.864C314.388 141.894 314.329 141.922 314.242 141.949C314.157 141.973 314.059 141.995 313.95 142.014C313.84 142.031 313.733 142.047 313.629 142.062C313.524 142.076 313.437 142.087 313.367 142.097C313.202 142.117 313.052 142.152 312.915 142.202C312.781 142.251 312.673 142.322 312.592 142.415C312.512 142.506 312.472 142.627 312.472 142.778C312.472 142.989 312.55 143.148 312.705 143.256C312.861 143.362 313.058 143.415 313.299 143.415ZM318.237 144.088C317.815 144.088 317.451 143.992 317.146 143.801C316.843 143.608 316.61 143.342 316.447 143.003C316.285 142.664 316.203 142.276 316.203 141.838C316.203 141.395 316.286 141.004 316.453 140.665C316.62 140.324 316.855 140.058 317.158 139.866C317.461 139.675 317.818 139.58 318.229 139.58C318.56 139.58 318.856 139.641 319.115 139.764C319.375 139.885 319.584 140.056 319.743 140.276C319.904 140.495 320 140.752 320.03 141.045H319.203C319.158 140.841 319.054 140.665 318.891 140.517C318.73 140.369 318.514 140.295 318.243 140.295C318.006 140.295 317.799 140.358 317.621 140.483C317.445 140.606 317.307 140.782 317.209 141.011C317.11 141.239 317.061 141.508 317.061 141.818C317.061 142.136 317.109 142.411 317.206 142.642C317.303 142.873 317.439 143.052 317.615 143.179C317.793 143.306 318.002 143.369 318.243 143.369C318.404 143.369 318.55 143.34 318.68 143.281C318.813 143.221 318.924 143.134 319.013 143.023C319.104 142.911 319.167 142.777 319.203 142.619H320.03C320 142.902 319.908 143.153 319.754 143.375C319.601 143.597 319.395 143.771 319.138 143.898C318.882 144.025 318.582 144.088 318.237 144.088ZM322.776 144.088C322.354 144.088 321.99 143.992 321.685 143.801C321.382 143.608 321.149 143.342 320.987 143.003C320.824 142.664 320.742 142.276 320.742 141.838C320.742 141.395 320.826 141.004 320.992 140.665C321.159 140.324 321.394 140.058 321.697 139.866C322 139.675 322.357 139.58 322.768 139.58C323.099 139.58 323.395 139.641 323.654 139.764C323.914 139.885 324.123 140.056 324.282 140.276C324.443 140.495 324.539 140.752 324.569 141.045H323.742C323.697 140.841 323.593 140.665 323.43 140.517C323.269 140.369 323.053 140.295 322.782 140.295C322.545 140.295 322.338 140.358 322.16 140.483C321.984 140.606 321.846 140.782 321.748 141.011C321.649 141.239 321.6 141.508 321.6 141.818C321.6 142.136 321.648 142.411 321.745 142.642C321.842 142.873 321.978 143.052 322.154 143.179C322.332 143.306 322.541 143.369 322.782 143.369C322.943 143.369 323.089 143.34 323.219 143.281C323.352 143.221 323.463 143.134 323.552 143.023C323.643 142.911 323.706 142.777 323.742 142.619H324.569C324.539 142.902 324.447 143.153 324.293 143.375C324.14 143.597 323.934 143.771 323.677 143.898C323.421 144.025 323.121 144.088 322.776 144.088ZM327.358 144.088C326.928 144.088 326.558 143.996 326.247 143.812C325.938 143.627 325.7 143.366 325.531 143.031C325.365 142.694 325.281 142.299 325.281 141.847C325.281 141.4 325.365 141.006 325.531 140.665C325.7 140.324 325.935 140.058 326.236 139.866C326.539 139.675 326.893 139.58 327.298 139.58C327.545 139.58 327.783 139.62 328.014 139.702C328.245 139.783 328.453 139.911 328.636 140.085C328.82 140.259 328.965 140.486 329.071 140.764C329.177 141.041 329.23 141.377 329.23 141.773V142.074H325.761V141.438H328.398C328.398 141.214 328.352 141.016 328.261 140.844C328.17 140.67 328.043 140.532 327.878 140.432C327.715 140.331 327.524 140.281 327.304 140.281C327.065 140.281 326.857 140.34 326.679 140.457C326.503 140.573 326.366 140.724 326.27 140.912C326.175 141.098 326.128 141.299 326.128 141.517V142.014C326.128 142.306 326.179 142.554 326.281 142.759C326.385 142.963 326.53 143.119 326.716 143.227C326.902 143.333 327.118 143.386 327.366 143.386C327.527 143.386 327.674 143.364 327.807 143.318C327.939 143.271 328.054 143.201 328.151 143.108C328.247 143.015 328.321 142.901 328.372 142.764L329.176 142.909C329.112 143.146 328.996 143.353 328.83 143.531C328.665 143.707 328.457 143.845 328.207 143.943C327.959 144.04 327.676 144.088 327.358 144.088ZM331.022 141.409V144H330.173V139.636H330.988V140.347H331.042C331.142 140.116 331.299 139.93 331.513 139.79C331.729 139.65 332.001 139.58 332.329 139.58C332.626 139.58 332.887 139.642 333.11 139.767C333.334 139.89 333.507 140.074 333.63 140.318C333.753 140.562 333.815 140.865 333.815 141.224V144H332.965V141.327C332.965 141.01 332.883 140.763 332.718 140.585C332.553 140.405 332.327 140.315 332.039 140.315C331.842 140.315 331.667 140.358 331.513 140.443C331.362 140.528 331.242 140.653 331.153 140.818C331.066 140.981 331.022 141.178 331.022 141.409ZM336.991 139.636V140.318H334.607V139.636H336.991ZM335.246 138.591H336.096V142.719C336.096 142.884 336.121 143.008 336.17 143.091C336.219 143.172 336.282 143.228 336.36 143.259C336.44 143.287 336.526 143.301 336.619 143.301C336.687 143.301 336.746 143.296 336.798 143.287C336.849 143.277 336.888 143.27 336.917 143.264L337.07 143.966C337.021 143.985 336.951 144.004 336.86 144.023C336.769 144.044 336.656 144.055 336.519 144.057C336.296 144.061 336.087 144.021 335.894 143.938C335.701 143.854 335.545 143.725 335.425 143.551C335.306 143.377 335.246 143.158 335.246 142.895V138.591ZM340.353 141.173V141.909H337.773V141.173H340.353ZM341.239 144V143.364L343.208 141.324C343.418 141.102 343.592 140.908 343.728 140.741C343.866 140.573 343.969 140.413 344.038 140.261C344.106 140.11 344.14 139.949 344.14 139.778C344.14 139.585 344.094 139.419 344.004 139.278C343.913 139.136 343.789 139.027 343.631 138.952C343.474 138.874 343.297 138.835 343.1 138.835C342.892 138.835 342.71 138.878 342.555 138.963C342.399 139.048 342.28 139.169 342.197 139.324C342.113 139.479 342.072 139.661 342.072 139.869H341.234C341.234 139.515 341.315 139.205 341.478 138.94C341.641 138.675 341.864 138.47 342.148 138.324C342.433 138.176 342.755 138.102 343.117 138.102C343.483 138.102 343.805 138.175 344.083 138.321C344.363 138.465 344.582 138.662 344.739 138.912C344.897 139.16 344.975 139.44 344.975 139.753C344.975 139.969 344.934 140.18 344.853 140.386C344.773 140.593 344.634 140.823 344.435 141.077C344.237 141.329 343.96 141.634 343.606 141.994L342.45 143.205V143.247H345.069V144H341.239Z" fill="black"/>
<circle cx="281" cy="157" r="4" stroke="black"/>
<path d="M291.639 160V154.182H292.489V156.344H292.54C292.589 156.253 292.66 156.148 292.753 156.028C292.846 155.909 292.974 155.805 293.139 155.716C293.304 155.625 293.522 155.58 293.793 155.58C294.145 155.58 294.459 155.669 294.736 155.847C295.012 156.025 295.229 156.281 295.386 156.616C295.545 156.952 295.625 157.355 295.625 157.827C295.625 158.298 295.546 158.703 295.389 159.04C295.232 159.375 295.016 159.634 294.741 159.815C294.467 159.995 294.153 160.085 293.801 160.085C293.536 160.085 293.319 160.041 293.151 159.952C292.984 159.863 292.853 159.759 292.759 159.639C292.664 159.52 292.591 159.414 292.54 159.321H292.469V160H291.639ZM292.472 157.818C292.472 158.125 292.516 158.394 292.605 158.625C292.694 158.856 292.823 159.037 292.991 159.168C293.16 159.296 293.366 159.361 293.611 159.361C293.865 159.361 294.077 159.294 294.247 159.159C294.418 159.023 294.546 158.838 294.634 158.605C294.723 158.372 294.767 158.11 294.767 157.818C294.767 157.53 294.723 157.272 294.636 157.043C294.551 156.813 294.422 156.633 294.25 156.5C294.08 156.367 293.866 156.301 293.611 156.301C293.365 156.301 293.156 156.365 292.986 156.491C292.817 156.618 292.689 156.795 292.602 157.023C292.515 157.25 292.472 157.515 292.472 157.818ZM297.849 160.097C297.572 160.097 297.322 160.045 297.099 159.943C296.875 159.839 296.698 159.688 296.567 159.491C296.439 159.295 296.374 159.053 296.374 158.767C296.374 158.521 296.422 158.318 296.516 158.159C296.611 158 296.739 157.874 296.9 157.781C297.061 157.688 297.241 157.618 297.44 157.571C297.638 157.524 297.841 157.488 298.048 157.463C298.309 157.433 298.521 157.408 298.684 157.389C298.847 157.368 298.965 157.335 299.039 157.29C299.113 157.244 299.15 157.17 299.15 157.068V157.048C299.15 156.8 299.08 156.608 298.94 156.472C298.801 156.335 298.595 156.267 298.32 156.267C298.034 156.267 297.809 156.33 297.644 156.457C297.481 156.582 297.369 156.722 297.306 156.875L296.508 156.693C296.603 156.428 296.741 156.214 296.923 156.051C297.106 155.886 297.317 155.767 297.556 155.693C297.795 155.617 298.046 155.58 298.309 155.58C298.483 155.58 298.668 155.6 298.863 155.642C299.06 155.682 299.244 155.756 299.414 155.864C299.586 155.972 299.728 156.126 299.837 156.327C299.947 156.526 300.002 156.784 300.002 157.102V160H299.173V159.403H299.138C299.084 159.513 299.001 159.621 298.891 159.727C298.781 159.833 298.64 159.921 298.468 159.991C298.296 160.062 298.089 160.097 297.849 160.097ZM298.033 159.415C298.268 159.415 298.469 159.368 298.636 159.276C298.804 159.183 298.932 159.062 299.019 158.912C299.108 158.76 299.153 158.598 299.153 158.426V157.864C299.122 157.894 299.064 157.922 298.977 157.949C298.891 157.973 298.794 157.995 298.684 158.014C298.574 158.031 298.467 158.047 298.363 158.062C298.259 158.076 298.172 158.087 298.102 158.097C297.937 158.117 297.786 158.152 297.65 158.202C297.515 158.251 297.407 158.322 297.326 158.415C297.246 158.506 297.207 158.627 297.207 158.778C297.207 158.989 297.284 159.148 297.44 159.256C297.595 159.362 297.793 159.415 298.033 159.415ZM304.403 156.702L303.634 156.838C303.601 156.74 303.55 156.646 303.48 156.557C303.412 156.468 303.319 156.395 303.202 156.338C303.084 156.281 302.938 156.253 302.761 156.253C302.521 156.253 302.32 156.307 302.159 156.415C301.998 156.521 301.918 156.658 301.918 156.827C301.918 156.973 301.972 157.09 302.08 157.179C302.188 157.268 302.362 157.341 302.602 157.398L303.295 157.557C303.697 157.65 303.996 157.793 304.193 157.986C304.39 158.179 304.489 158.43 304.489 158.739C304.489 159 304.413 159.233 304.261 159.438C304.112 159.64 303.902 159.799 303.634 159.915C303.366 160.03 303.057 160.088 302.705 160.088C302.216 160.088 301.817 159.984 301.509 159.776C301.2 159.565 301.01 159.267 300.94 158.881L301.761 158.756C301.813 158.97 301.918 159.132 302.077 159.241C302.236 159.349 302.443 159.403 302.699 159.403C302.977 159.403 303.2 159.346 303.366 159.23C303.533 159.113 303.616 158.97 303.616 158.801C303.616 158.665 303.565 158.55 303.463 158.457C303.363 158.365 303.208 158.295 303 158.247L302.261 158.085C301.854 157.992 301.553 157.845 301.358 157.642C301.165 157.439 301.068 157.183 301.068 156.872C301.068 156.615 301.14 156.389 301.284 156.196C301.428 156.003 301.627 155.852 301.881 155.744C302.134 155.634 302.425 155.58 302.753 155.58C303.224 155.58 303.596 155.682 303.866 155.886C304.137 156.089 304.316 156.361 304.403 156.702ZM307.303 160.088C306.873 160.088 306.503 159.996 306.192 159.812C305.884 159.627 305.645 159.366 305.477 159.031C305.31 158.694 305.227 158.299 305.227 157.847C305.227 157.4 305.31 157.006 305.477 156.665C305.645 156.324 305.88 156.058 306.181 155.866C306.484 155.675 306.838 155.58 307.244 155.58C307.49 155.58 307.728 155.62 307.96 155.702C308.191 155.783 308.398 155.911 308.582 156.085C308.765 156.259 308.91 156.486 309.016 156.764C309.122 157.041 309.175 157.377 309.175 157.773V158.074H305.707V157.438H308.343C308.343 157.214 308.298 157.016 308.207 156.844C308.116 156.67 307.988 156.532 307.823 156.432C307.66 156.331 307.469 156.281 307.249 156.281C307.011 156.281 306.802 156.34 306.624 156.457C306.448 156.573 306.312 156.724 306.215 156.912C306.121 157.098 306.073 157.299 306.073 157.517V158.014C306.073 158.306 306.124 158.554 306.227 158.759C306.331 158.963 306.476 159.119 306.661 159.227C306.847 159.333 307.064 159.386 307.312 159.386C307.473 159.386 307.62 159.364 307.752 159.318C307.885 159.271 307.999 159.201 308.096 159.108C308.192 159.015 308.266 158.901 308.317 158.764L309.121 158.909C309.057 159.146 308.942 159.353 308.775 159.531C308.61 159.707 308.403 159.845 308.153 159.943C307.905 160.04 307.621 160.088 307.303 160.088Z" fill="black"/>
<defs>
<linearGradient id="paint0_linear_66_1219" x1="105.5" y1="85.5" x2="268" y2="225" gradientUnits="userSpaceOnUse">
<stop stop-color="#29296E"/>
<stop offset="1" stop-color="#29296E" stop-opacity="0"/>
</linearGradient>
<linearGradient id="paint1_linear_66_1219" x1="200.5" y1="182" x2="105.5" y2="95.5" gradientUnits="userSpaceOnUse">
<stop stop-color="#0C8CE9"/>
<stop offset="1" stop-color="#0C8CE9" stop-opacity="0"/>
</linearGradient>
</defs>
</svg>
