<svg width="393" height="228" viewBox="0 0 393 228" fill="none" xmlns="http://www.w3.org/2000/svg">
<g clip-path="url(#clip0_58_951)">
<rect x="260.5" y="0.5" width="81" height="81" rx="7.5" stroke="#D9D9D9"/>
<rect x="272.5" y="184.5" width="81" height="81" rx="7.5" stroke="#D9D9D9"/>
<rect x="214.5" y="92.5" width="81" height="81" rx="7.5" stroke="#D9D9D9"/>
<rect x="168.5" y="0.5" width="81" height="81" rx="7.5" stroke="#D9D9D9"/>
<rect x="180.5" y="184.5" width="81" height="81" rx="7.5" stroke="#D9D9D9"/>
<rect x="122.5" y="92.5" width="81" height="81" rx="7.5" stroke="#D9D9D9"/>
<rect x="76.5" y="0.5" width="81" height="81" rx="7.5" stroke="#D9D9D9"/>
<rect x="88.5" y="184.5" width="81" height="81" rx="7.5" stroke="#D9D9D9"/>
<rect x="30.5" y="92.5" width="81" height="81" rx="7.5" stroke="#D9D9D9"/>
<rect x="352.5" y="0.5" width="81" height="81" rx="7.5" stroke="#D9D9D9"/>
<rect x="364.5" y="184.5" width="81" height="81" rx="7.5" stroke="#D9D9D9"/>
<rect x="306.5" y="92.5" width="81" height="81" rx="7.5" stroke="#D9D9D9"/>
<path d="M301 72.8592C299.439 72.8592 297.89 72.4496 296.533 71.6688L276.731 60.2256C273.967 58.6256 272.264 55.6816 272.264 52.4816V29.6336C272.264 26.4464 273.967 23.4896 276.731 21.8896L296.533 10.4592C299.298 8.872 302.703 8.872 305.467 10.4592L325.269 21.8896C328.034 23.4896 329.736 26.4336 329.736 29.6336V52.4944C329.736 55.6816 328.034 58.6384 325.269 60.2384L305.467 71.6688C304.111 72.4496 302.562 72.8592 301 72.8592ZM301 12.3664C299.976 12.3664 298.965 12.6352 298.082 13.1344L278.28 24.5776C276.475 25.6272 275.362 27.5472 275.362 29.6336V52.4944C275.375 54.568 276.475 56.488 278.28 57.5248L298.082 68.968C299.887 70.0048 302.101 70.0048 303.906 68.968L323.707 57.5376C325.499 56.5008 326.613 54.5808 326.626 52.5072V29.6336C326.626 27.5472 325.512 25.6272 323.707 24.5776L303.919 13.1472C303.023 12.6352 302.024 12.3664 301 12.3664ZM301 62.4784C300.155 62.4784 299.323 62.2608 298.594 61.8256L284.207 53.544C282.722 52.6736 281.813 51.0864 281.813 49.3712V32.7568C281.813 31.0416 282.722 29.4544 284.207 28.584L298.594 20.2896C300.091 19.432 301.922 19.432 303.419 20.2896L317.794 28.584C319.279 29.4416 320.2 31.0416 320.2 32.7568V49.3584C320.2 51.0736 319.279 52.6736 317.794 53.5312L303.407 61.8256C302.677 62.2608 301.845 62.4784 301 62.4784ZM301 21.9664C300.565 21.9664 300.13 22.0816 299.759 22.2992L285.371 30.6064C284.603 31.0544 284.143 31.8864 284.143 32.7696V49.3712C284.143 50.2672 284.616 51.0864 285.397 51.5344L299.771 59.8288C300.539 60.2768 301.499 60.2768 302.267 59.8288L316.655 51.5344C317.423 51.0864 317.896 50.2672 317.896 49.3712V32.7568C317.896 31.8608 317.423 31.0416 316.642 30.5936L302.242 22.2992C301.871 22.0816 301.435 21.9664 301 21.9664ZM301 51.9568C300.565 51.9568 300.143 51.8416 299.771 51.624L292.475 47.4128C291.707 46.9648 291.247 46.1456 291.247 45.2624V36.84C291.247 35.9568 291.72 35.1376 292.475 34.7024L299.771 30.4912C300.539 30.056 301.474 30.056 302.242 30.4912L309.538 34.7024C310.306 35.1376 310.767 35.9568 310.767 36.84V45.2624C310.767 46.1456 310.293 46.9648 309.538 47.4L302.242 51.6112C301.858 51.8416 301.435 51.9568 301 51.9568ZM301 31.72C300.834 31.72 300.68 31.7584 300.539 31.8352L293.243 36.0592C292.962 36.2256 292.795 36.5072 292.783 36.8272V45.2752C292.783 45.608 292.962 45.9024 293.243 46.0688L300.539 50.3056C300.821 50.472 301.179 50.472 301.461 50.3056L308.757 46.0944C309.051 45.928 309.218 45.608 309.218 45.2752V36.8528C309.205 36.5328 309.039 36.2384 308.757 36.0848L301.461 31.848C301.32 31.7584 301.167 31.72 301 31.72Z" fill="#D9D9D9"/>
<path fill-rule="evenodd" clip-rule="evenodd" d="M223.451 44.7632C223.502 44.5584 223.554 44.3408 223.605 44.1104C224.539 39.7584 227.419 38.7728 229.109 38.7728C229.122 38.76 229.147 38.76 229.16 38.7472C230.837 38.7344 231.682 39.4 232.002 39.72C232.424 40.1424 233.474 41.4224 232.206 43.4576C234.843 43.0096 238.978 40.4624 239.272 33.9472C239.528 28.5712 235.778 25 231.554 22.5424V22.568L231.541 22.5552L230.491 22.0304C230.491 22.0304 230.696 20.7504 230.491 19.8928C217.883 11.9568 204.853 11.1888 199.938 11.7904L203.15 15.016C189.147 16.0016 177.96 27.3552 177.96 41.3072C177.96 57.5632 192.398 70.9904 210.203 70.9904C223.515 70.9904 234.574 63.2592 240.36 52.8912C232.654 54.6448 223.566 51.5088 223.451 44.7632ZM228.456 22.0432C228.354 21.992 226.792 21.5056 225.205 21.288C224.386 22.1456 223.618 22.5552 223.4 22.6704C218.613 21.6464 216.872 19.1632 216.872 19.1632C221.39 19.1376 225.461 20.2256 228.456 22.0432Z" fill="#D9D9D9"/>
<path d="M109.64 12.0207C114.414 10.8815 119.445 10.9071 124.219 11.9823C124.245 12.0207 124.309 12.1103 124.334 12.1487C125.474 13.6975 126.574 15.272 127.547 16.9232C128.418 18.3568 129.186 19.8543 129.928 21.3775C131.899 21.2623 133.87 21.1727 135.842 21.2879C137.352 21.3263 138.85 21.5056 140.36 21.6464L140.539 21.6591C142.382 23.7072 143.957 25.9856 145.211 28.4304C144.686 30.0176 144.11 31.5791 143.445 33.1151C142.344 30.1839 140.757 27.4575 138.798 25.0127C136.328 24.7311 133.845 24.7055 131.374 24.8079C132.488 27.7648 133.333 30.824 133.909 33.9344C134.203 35.7264 134.446 37.5312 134.562 39.3616C134.344 40.2832 135.304 40.68 135.573 41.448C136.238 42.8432 135.803 44.6096 134.626 45.5952C134.613 45.7744 134.587 46.1456 134.562 46.3248C134.51 47.1184 134.446 47.912 134.344 48.7056C134.229 49.7936 134.05 50.8688 133.883 51.944C133.307 55.1056 132.437 58.1904 131.298 61.1984C133.73 61.3136 136.162 61.2496 138.581 61.032C140.731 58.4464 142.459 55.4896 143.573 52.3024C144.162 50.6896 144.546 49.0256 144.853 47.336C145.685 48.9232 146.478 50.536 147.182 52.1744L147.259 52.3536C145.8 56.9232 143.355 61.224 140.002 64.6544C136.622 64.68 133.243 64.8848 129.864 64.5904C129.058 66.1008 128.29 67.6496 127.394 69.1088C125.832 69.7104 124.219 70.1968 122.581 70.5424L122.21 70.6192C123.669 68.5712 124.987 66.4208 126.139 64.168C123.054 63.6816 120.021 62.9392 117.077 61.9024C115.387 61.3008 113.71 60.6224 112.098 59.8544C111.752 59.688 111.419 59.5344 111.074 59.368C110.101 59.8032 108.936 59.8416 107.976 59.3296C106.901 58.792 106.171 57.6912 106.082 56.5008C105.954 56.4112 105.698 56.2192 105.57 56.1168C103.982 55.0928 102.498 53.9152 101.038 52.712C98.6448 50.6512 96.4176 48.3856 94.4208 45.9408C92.9744 48.1296 91.7328 50.4464 90.632 52.8272C91.7456 55.912 93.4992 58.728 95.5984 61.2368C98.1968 61.4544 100.808 61.5184 103.419 61.3392C103.445 61.3904 103.483 61.5056 103.509 61.5568C103.944 62.632 104.405 63.6944 104.904 64.744C103.15 64.872 101.41 64.9872 99.656 64.9488C97.864 64.9232 96.0848 64.7952 94.2928 64.6288C94.1904 64.616 93.9856 64.5904 93.896 64.5776C89.7872 60.1744 86.9328 54.6064 85.8576 48.6672C85.0768 44.4688 85.1408 40.1168 86.0752 35.944C87.2144 30.7727 89.7104 25.9087 93.2048 21.9407C97.4544 17.0383 103.291 13.5055 109.64 12.0207ZM112.456 15.0287C110.728 15.3231 109 15.7327 107.362 16.3599C104.418 17.4095 101.678 19.0095 99.2208 20.9424C97.8384 22.1072 96.5072 23.3487 95.368 24.7567C93.3072 27.2143 91.6304 30.0176 90.5552 33.0384C91.6304 35.4576 92.9104 37.8 94.3696 40.0144C96.328 37.608 98.5296 35.3935 100.846 33.3455C102.318 32.1935 103.752 30.9648 105.352 29.992V29.9535C105.595 29.7871 105.838 29.6208 106.082 29.4544C106.082 28.7376 106.261 28.008 106.683 27.4064C107.669 25.8448 109.934 25.3711 111.47 26.3951C111.726 26.2799 111.995 26.152 112.251 26.0368C113.838 25.256 115.502 24.6543 117.154 24.0015C120.11 23.0287 123.157 22.2735 126.229 21.7615C125.051 19.4575 123.72 17.2303 122.197 15.1439C118.997 14.5551 115.682 14.5295 112.456 15.0287ZM122.555 26.0879C120.802 26.5103 119.074 27.0479 117.384 27.6751L117.448 27.7008C115.95 28.1104 114.542 28.8656 113.109 29.48C112.994 30.4656 112.584 31.4384 111.778 32.0528C110.728 32.936 109.154 33.064 107.95 32.4368C106.517 33.3968 105.083 34.3952 103.79 35.5344C102.293 36.712 100.923 38.0304 99.6048 39.4C98.504 40.5392 97.4928 41.7424 96.52 42.984C97.5952 44.3408 98.7088 45.6592 99.9376 46.888L99.9248 46.9136C101.23 48.2064 102.562 49.4864 104.008 50.6256C105.16 51.5856 106.376 52.456 107.605 53.3008C108.693 52.584 110.178 52.5328 111.304 53.1984C112.443 53.8384 113.096 55.1568 113.058 56.4496C114.453 57.1152 115.861 57.7424 117.32 58.2672C119.035 58.92 120.789 59.4576 122.568 59.8928C124.245 60.3024 125.947 60.6096 127.65 60.8528C128.315 59.2016 128.917 57.5248 129.39 55.8096L129.416 55.7968C129.89 54.0048 130.312 52.1872 130.606 50.344C130.837 48.9488 130.978 47.5408 131.093 46.12C130.184 45.7232 129.429 44.968 129.109 44.0336C128.456 42.3312 129.403 40.296 131.08 39.6304C130.965 38.1968 130.824 36.7632 130.581 35.3424C130.312 33.4992 129.877 31.6944 129.39 29.9024C128.917 28.2768 128.366 26.6768 127.739 25.1024C125.998 25.3584 124.27 25.6527 122.555 26.0879ZM89.1728 38.1328C88.6608 41.3328 88.648 44.6224 89.1856 47.8224C90.0816 46.1584 91.1056 44.5584 92.1552 42.984C91.1056 41.4096 90.1072 39.7968 89.1728 38.1328Z" fill="#D9D9D9"/>
<path d="M403.398 14.5651C401.588 15.6164 399.966 16.5593 398.323 17.5143C397.67 17.1458 396.975 16.8732 396.426 16.4218C394.29 14.6639 392.35 14.916 390.061 16.3846C386.117 18.9149 381.958 21.1105 377.911 23.4837C377.405 23.7809 377.03 24.3033 376.594 24.7215C377.064 25.1626 377.47 25.7122 378.012 26.0281C384.711 29.9312 391.429 33.8003 398.259 37.745C398.476 46.2448 398.05 54.803 398.547 63.7662C402.644 61.4064 406.181 59.3657 409.722 57.3313C411.091 56.5444 412.451 55.738 413.847 55.0013C415.364 54.2008 416.147 53.0681 415.965 51.2835C415.857 50.2239 415.945 49.1444 415.945 47.9548C417.484 47.0554 419.05 46.1403 420.799 45.1184C420.799 48.6335 420.985 51.9614 420.69 55.2461C420.596 56.282 419.402 57.5212 418.389 58.1238C410.871 62.5944 403.277 66.9375 395.687 71.2867C395.052 71.651 394.273 71.7661 393.351 72.0651C393.351 61.478 393.351 51.1404 393.351 40.8016C384.269 35.5608 375.299 30.3847 365.828 24.9192C367.791 23.6508 369.452 22.4816 371.201 21.4636C377.618 17.7287 384.071 14.0545 390.497 10.3341C392.367 9.25126 394.167 9.22387 396.04 10.3393C398.417 11.7553 400.837 13.0991 403.398 14.5651ZM365.505 52.8801C365.481 55.5814 366.558 57.3747 368.905 58.6814C373.856 61.4392 378.731 64.3349 383.642 67.1672C385.945 68.4956 388.257 69.8079 390.712 71.212C390.712 69.1234 390.712 67.2927 390.712 65.4348C390.445 65.2587 390.206 65.0832 389.951 64.9354C384.046 61.5107 378.107 58.1425 372.27 54.6041C371.475 54.122 370.761 52.7997 370.745 51.8532C370.618 44.7458 370.676 37.635 370.676 30.5188C369.004 29.5729 367.388 28.659 365.531 27.6083C365.531 36.2581 365.577 44.5697 365.505 52.8801ZM420.771 26.8469C420.721 25.6948 419.738 24.1785 418.734 23.5426C414.522 20.8762 410.139 18.4806 405.802 15.9761C404.165 16.9446 402.567 17.8905 400.783 18.946C404.951 21.3438 408.876 23.6579 412.858 25.8699C415.099 27.1146 415.972 28.9811 415.954 31.4476C415.922 35.9213 415.945 40.3955 415.945 45.1035C417.7 44.0875 419.239 43.1969 420.865 42.2553C420.866 37.0402 420.99 31.9362 420.771 26.8469Z" fill="#D9D9D9"/>
<path d="M347.032 140.405C345.252 142.14 343.533 143.811 341.82 145.488C337.526 149.695 332.432 151.182 326.653 149.534C321.126 147.959 317.626 144.171 316.158 138.635C313.724 129.451 320.371 120.477 330.079 119.727C330.567 119.69 331.056 119.672 331.548 119.645C331.809 118.063 331.934 116.483 332.342 114.98C333.975 108.957 337.883 105.129 343.985 103.911C350.531 102.604 355.763 104.986 359.621 110.378C360.91 112.179 360.885 113.999 359.73 115.363C358.567 116.738 356.683 117.225 355.172 116.332C354.412 115.883 353.807 115.113 353.245 114.399C351.425 112.088 349.089 110.778 346.149 111.153C343.049 111.549 340.784 113.296 339.785 116.327C338.841 119.19 339.417 121.805 341.499 124.054C342.632 125.278 343.008 126.725 342.382 128.294C341.806 129.739 340.596 130.75 339.109 130.563C337.863 130.406 336.584 129.676 335.537 128.904C331.175 125.687 325.003 127.666 323.534 132.836C322.568 136.236 323.976 139.707 327.071 141.551C330.007 143.301 333.677 142.853 336.241 140.341C339.011 137.626 341.722 134.851 344.459 132.101C347.119 129.428 349.759 126.735 352.441 124.085C356.932 119.647 363.723 118.468 369.393 121.104C375.085 123.751 378.79 129.74 378.225 135.908C377.629 142.412 374.232 147.121 368.044 149.293C362.127 151.369 356.751 149.953 352.222 145.57C350.465 143.869 348.753 142.12 347.032 140.405ZM352.377 135.006C354.352 136.962 356.241 139.102 358.425 140.881C359.532 141.783 361.136 142.371 362.574 142.513C366.137 142.865 369.301 140.581 370.354 137.272C371.336 134.183 370.099 130.512 367.471 128.713C364.521 126.695 360.803 126.794 358.104 129.202C356.116 130.976 354.346 132.993 352.377 135.006ZM356.34 159.24C358.138 157.788 358.489 155.556 357.24 153.878C355.922 152.106 353.67 151.836 351.743 153.219C348.402 155.616 345.475 155.626 342.109 153.252C340.14 151.863 337.868 152.106 336.596 153.841C335.312 155.592 335.697 157.831 337.562 159.316C340.264 161.466 343.392 162.423 346.854 162.596C350.329 162.454 353.563 161.48 356.34 159.24ZM346.701 122.583C348.881 122.659 350.671 121.016 350.699 118.914C350.725 116.907 349.023 115.121 347.008 115.041C344.946 114.959 343.256 116.57 343.183 118.686C343.11 120.826 344.632 122.511 346.701 122.583Z" fill="#D9D9D9"/>
<path d="M320.32 204.326C320.32 206.94 320.32 209.351 320.32 211.984C324.857 211.984 329.3 211.984 333.743 211.984C334.412 211.984 335.083 211.964 335.751 211.988C337.892 212.067 339.388 213.359 339.384 215.103C339.38 216.847 337.86 218.189 335.747 218.204C331.358 218.234 326.967 218.213 322.577 218.213C321.855 218.213 321.132 218.213 320.201 218.213C320.201 222.953 320.207 227.472 320.199 231.99C320.193 235.071 319.145 236.159 316.101 236.177C312.084 236.2 308.065 236.21 304.048 236.168C301.758 236.144 300.326 234.969 300.287 233.231C300.247 231.426 301.762 230.216 304.16 230.198C307.193 230.175 310.227 230.192 313.504 230.192C313.504 229.199 313.504 228.405 313.504 227.61C313.504 219.351 313.502 211.092 313.505 202.833C313.507 199.156 314.562 198.123 318.303 198.122C326.562 198.12 334.821 198.118 343.08 198.123C345.831 198.125 347.083 199.079 347.104 201.154C347.125 203.219 345.808 204.31 343.148 204.318C336.377 204.339 329.606 204.325 322.835 204.325C322.033 204.326 321.232 204.326 320.32 204.326ZM303.714 246.35C301.662 246.383 300.313 247.602 300.286 249.359C300.259 251.146 301.534 252.446 303.635 252.479C308.094 252.548 312.555 252.552 317.013 252.473C318.872 252.44 320.09 251.412 320.183 249.45C320.267 247.669 318.887 246.393 316.869 246.352C314.715 246.308 312.559 246.342 310.403 246.342C308.173 246.342 305.943 246.314 303.714 246.35ZM301.445 218.204C303.34 218.174 304.544 217.277 304.679 215.291C304.804 213.459 303.578 212.076 301.521 212.034C297.066 211.943 292.607 211.951 288.152 212.026C286.106 212.061 284.881 213.392 284.914 215.211C284.947 217.026 286.198 218.167 288.299 218.204C290.452 218.242 292.607 218.213 294.761 218.212C296.989 218.212 299.218 218.239 301.445 218.204Z" fill="#D9D9D9"/>
<path d="M267.935 151.114C268.396 147.977 268.675 144.925 269.339 141.958C269.822 139.8 270.602 137.642 271.643 135.694C272.543 134.01 274.4 133.197 276.256 132.866C278.65 132.44 281.058 132.65 283.228 133.848C285.375 135.034 285.737 137.272 286.012 139.409C286.626 144.179 284.245 147.678 280.984 150.781C278.617 153.033 275.901 154.592 272.732 155.445C271.875 155.675 271.116 156.158 270.435 157.002C266.537 161.833 261.309 164.128 255.165 164.391C245.401 164.809 237.659 160.64 231.463 153.46C227.461 148.823 225.205 143.352 224.367 137.174C223.288 129.224 225.084 122.024 229.469 115.541C234.19 108.561 240.696 103.891 249.151 102.355C251.565 101.917 254.045 101.377 256.46 101.51C263.196 101.878 269.482 103.737 274.838 108.111C277.693 110.443 280.596 112.718 282.098 116.235C284.486 121.828 281.623 127.941 274.69 128.415C271.511 128.632 268.973 127.398 267.212 124.744C265.082 121.534 261.889 120.022 258.34 119.129C253.421 117.891 249.023 119.475 245.611 122.784C241.473 126.796 240.17 131.881 241.98 137.62C243.955 143.878 248.534 147.3 254.319 149.59C258.605 151.288 263.028 151.525 267.935 151.114ZM262.211 157.354C262.192 157.183 262.174 157.012 262.155 156.841C253.876 155.784 246.294 153.337 240.753 146.541C237.449 142.49 235.819 137.779 235.874 132.714C235.914 128.961 237.036 125.227 239.359 122.084C244.06 115.723 250.209 112.605 258.267 113.637C262.939 114.236 266.805 116.262 270.006 119.648C270.57 120.245 271.041 120.93 271.574 121.558C272.868 123.084 274.988 123.42 276.365 122.332C277.708 121.269 277.845 119.432 276.751 117.716C274.963 114.913 272.429 112.848 269.768 111C266.07 108.432 261.808 107.123 257.355 106.923C248.758 106.535 241.477 109.465 235.791 116.108C230.521 122.267 228.576 129.267 229.822 137.289C230.864 144 234.018 149.359 239.23 153.638C244.558 158.013 250.658 159.641 257.409 158.85C259.045 158.658 260.612 157.868 262.211 157.354ZM274.058 149.176C277.301 147.467 279.49 145.056 280.804 141.871C281.437 140.336 280.715 138.464 279.472 138.113C277.202 137.471 275.486 138.629 275.172 140.994C274.823 143.621 274.458 146.246 274.058 149.176Z" fill="#D9D9D9"/>
<path d="M193.953 225.424C196.911 224.056 199.736 222.748 202.699 221.377C206.762 230.903 212.72 238.589 221 244.698C229.178 238.706 235.178 231.019 239.289 221.398C242.2 222.726 245.027 224.016 247.806 225.284C245.852 234.546 232.493 249.871 220.948 256.168C208.715 248.961 199.737 238.812 193.953 225.424ZM251.342 215.067C251.759 213.037 252.095 210.991 252.454 209.009C233.926 197.756 207.885 197.845 189.484 209.053C190.136 212.208 190.803 215.438 191.488 218.755C211.191 207.329 230.664 207.301 250.393 218.684C250.722 217.45 251.095 216.271 251.342 215.067Z" fill="#D9D9D9"/>
<path d="M66.7377 133.474V108.821C66.7377 106.658 68.4913 104.904 70.6545 104.904C72.8177 104.904 74.5713 106.658 74.5713 108.821V120.251C75.8641 119.317 77.0417 118.216 78.0785 117V108.821C78.0785 104.725 74.7505 101.397 70.6545 101.397C66.5585 101.397 63.2305 104.725 63.2305 108.821V127.163C63.2305 129.826 64.6257 132.168 66.7377 133.474Z" fill="#D9D9D9"/>
<path d="M68.1455 129.762L89.4959 117.435C91.3647 116.347 93.7711 117 94.8463 118.869C95.9215 120.738 95.2815 123.144 93.4127 124.219L83.5183 129.928C84.9775 130.581 86.5135 131.054 88.0879 131.336L95.1663 127.253C98.7247 125.205 99.9279 120.661 97.8799 117.115C95.8319 113.557 91.2879 112.354 87.7423 114.402L71.8575 123.579C69.5535 124.91 68.2223 127.291 68.1455 129.762Z" fill="#D9D9D9"/>
<path d="M95.1664 138.427L79.2816 129.25C76.9776 127.918 74.2512 127.97 72.0752 129.134L93.4256 141.461C95.2944 142.549 95.9472 144.942 94.8592 146.811C93.7712 148.68 91.3776 149.333 89.5088 148.245L79.6144 142.536C79.7808 144.123 80.1392 145.698 80.6768 147.195L87.7552 151.278C91.3136 153.326 95.8448 152.11 97.8928 148.565C99.928 145.019 98.7248 140.475 95.1664 138.427Z" fill="#D9D9D9"/>
<path d="M74.5713 132.206V156.859C74.5713 159.022 72.8177 160.776 70.6545 160.776C68.4913 160.776 66.7377 159.022 66.7377 156.859V145.429C65.4449 146.363 64.2673 147.464 63.2305 148.68V156.846C63.2305 160.942 66.5585 164.27 70.6545 164.27C74.7505 164.27 78.0785 160.942 78.0785 156.846V138.517C78.0785 135.854 76.6833 133.525 74.5713 132.206Z" fill="#D9D9D9"/>
<path d="M73.1631 135.931L51.8127 148.258C49.9439 149.346 47.5375 148.693 46.4623 146.824C45.3743 144.955 46.0271 142.549 47.8959 141.474L57.7903 135.765C56.3311 135.112 54.7951 134.638 53.2207 134.357L46.1423 138.44C42.5839 140.488 41.3807 145.032 43.4287 148.578C45.4767 152.136 50.0207 153.339 53.5663 151.291L69.4511 142.114C71.7551 140.782 73.0863 138.402 73.1631 135.931Z" fill="#D9D9D9"/>
<path d="M46.1426 127.266L62.0402 136.443C64.3442 137.774 67.0706 137.723 69.2466 136.558L47.8962 124.232C46.0274 123.144 45.3746 120.75 46.4626 118.882C47.5506 117.013 49.9442 116.36 51.813 117.448L61.7074 123.157C61.541 121.57 61.1826 119.995 60.645 118.498L53.5666 114.414C50.0082 112.366 45.477 113.582 43.429 117.128C41.3682 120.674 42.5842 125.205 46.1426 127.266Z" fill="#D9D9D9"/>
<path d="M161.314 122.217C161.315 120.794 161.373 119.369 161.298 117.95C161.227 116.6 161.699 116.133 162.91 115.593C166.364 114.052 170.033 113.599 173.761 114.071C175.316 114.267 176.855 114.809 178.33 115.378C183.029 117.189 186.477 120.405 188.801 124.877C190.678 128.489 191.384 132.344 190.911 136.323C190.286 141.588 188.028 146.089 183.973 149.642C181.491 151.816 178.743 153.588 175.879 155.166C174.014 156.193 171.974 156.899 170.033 157.793C167.356 159.024 165.085 160.748 163.545 163.323C163.232 163.847 162.801 164.27 162.158 164.229C161.428 164.183 160.691 163.981 160.444 163.177C160.011 161.764 159.626 160.335 159.26 158.903C158.784 157.038 158.731 155.144 159.005 153.245C159.441 150.228 160.505 147.47 162.183 144.898C163.651 142.646 165.407 140.669 167.363 138.872C168.903 137.457 170.61 136.251 172.417 135.152C174.345 133.981 176.347 133.02 178.428 132.207C179.647 131.73 180.917 131.379 182.176 131.011C182.762 130.84 183.052 130.473 183.094 129.903C183.154 129.075 182.597 128.643 181.61 128.861C180.024 129.211 178.447 129.608 176.885 130.05C173.76 130.934 170.799 132.258 167.907 133.704C166.126 134.594 164.423 135.681 162.803 136.845C160.542 138.47 158.277 140.123 156.223 141.994C153.643 144.344 151.354 146.997 149.335 149.86C148.856 150.54 148.268 150.91 147.435 150.795C146.482 150.663 145.719 150.205 145.953 149.107C146.224 147.833 146.567 146.559 147.032 145.343C148.217 142.245 149.757 139.317 151.498 136.495C151.643 136.26 151.751 136.003 151.872 135.754C152.228 135.024 151.956 134.389 151.517 133.82C151.147 133.34 150.139 133.13 149.508 133.394C148.426 133.846 147.333 134.286 146.294 134.825C144.481 135.765 142.694 136.755 140.92 137.766C140.003 138.29 139.142 138.911 138.249 139.477C137.406 140.01 136.461 139.986 135.968 139.434C135.133 138.5 135.031 137.794 135.859 136.88C138.012 134.501 140.219 132.17 142.437 129.851C143.199 129.055 144.071 128.366 144.869 127.603C145.393 127.102 145.926 126.919 146.647 127.199C148.633 127.97 150.64 128.687 152.633 129.442C153.501 129.77 154.343 130.169 155.216 130.484C156.746 131.036 158.282 131.112 159.643 130.085C160.703 129.285 161.317 128.179 161.315 126.798C161.312 125.271 161.314 123.744 161.314 122.217ZM162.158 160.894C163.577 159.691 164.864 158.429 166.321 157.412C167.761 156.407 169.373 155.649 170.975 154.745C169.789 154.292 168.644 153.934 167.571 153.425C165.871 152.618 164.453 151.426 163.268 149.956C163.072 149.713 162.796 149.534 162.538 149.308C160.887 152.1 160.724 158.966 162.158 160.894ZM159.107 120.998C159.107 122.594 159.117 124.19 159.1 125.786C159.096 126.195 159.048 126.615 158.948 127.011C158.49 128.823 157.658 128.926 156.058 128.385C153.26 127.44 150.503 126.358 147.772 125.228C145.705 124.373 143.618 123.533 141.764 122.23C139.345 120.53 137.45 118.329 135.688 115.991C134.854 114.884 135.004 113.38 136.841 112.964C139.071 112.46 141.233 112.504 143.381 113.284C143.672 113.39 144.004 113.422 144.259 113.582C145.272 114.217 146.125 113.869 147.05 113.316C148.855 112.235 149.682 110.673 149.605 108.61C149.514 106.187 150.466 104.172 152.014 102.4C152.8 101.5 153.917 101.569 154.593 102.556C157.033 106.119 158.644 110.016 158.943 114.35C159.096 116.556 158.97 118.781 158.97 120.997C159.016 120.997 159.061 120.997 159.107 120.998ZM137.995 115.448C138.974 116.488 139.913 117.53 140.905 118.519C141.242 118.855 141.723 118.94 142.092 118.49C142.507 117.983 142.935 117.478 143.276 116.922C143.743 116.158 143.519 115.607 142.661 115.376C141.933 115.181 141.185 114.981 140.438 114.948C139.657 114.913 138.776 114.598 137.995 115.448ZM151.858 110.334C152.92 110.139 153.794 109.987 154.664 109.818C155.451 109.665 155.625 109.341 155.314 108.581C155.12 108.103 154.896 107.636 154.657 107.179C154.258 106.415 153.836 105.661 153.424 104.903C153.312 104.914 153.2 104.925 153.088 104.937C151.97 106.465 151.828 108.245 151.858 110.334Z" fill="#D9D9D9"/>
<path d="M128.855 193.896C128.913 194.357 128.991 194.817 129.025 195.28C129.285 198.879 129.541 202.479 129.788 206.079C129.871 207.278 129.934 208.479 129.99 209.68C130.194 214.078 130.339 218.48 130.601 222.875C131.006 229.652 131.022 236.435 130.939 243.217C130.901 246.313 130.599 249.407 130.405 252.501C130.36 253.223 130.311 253.949 130.187 254.66C130.073 255.313 129.459 255.812 128.882 255.836C128.35 255.858 127.714 255.432 127.547 254.818C127.368 254.158 127.259 253.472 127.188 252.79C127.082 251.785 127.003 250.775 126.972 249.765C126.831 245.206 126.649 240.647 126.605 236.087C126.571 232.507 126.672 228.924 126.796 225.346C126.937 221.262 127.153 217.18 127.367 213.098C127.533 209.934 127.718 206.771 127.947 203.611C128.182 200.375 128.479 197.142 128.749 193.908C128.785 193.904 128.82 193.9 128.855 193.896ZM126.789 197.766C126.681 197.989 126.546 198.204 126.47 198.438C125.553 201.26 124.546 204.059 123.759 206.917C122.667 210.881 121.866 214.915 121.416 219.01C121.039 222.434 120.497 225.852 120.355 229.287C120.202 233.016 120.325 236.766 120.523 240.496C120.658 243.038 121.005 245.585 121.489 248.085C121.845 249.918 122.547 251.688 123.166 253.461C123.293 253.823 123.686 254.219 124.046 254.346C124.888 254.643 125.653 254.054 125.615 253.122C125.56 251.802 125.343 250.489 125.263 249.169C125.053 245.723 124.748 242.277 124.721 238.828C124.669 232.33 124.676 225.827 124.874 219.333C124.996 215.319 125.492 211.315 125.865 207.311C126.058 205.231 126.35 203.16 126.593 201.085C126.721 199.987 126.837 198.888 126.959 197.789C126.902 197.781 126.846 197.774 126.789 197.766ZM130.655 197.735C130.9 200.154 131.138 202.575 131.392 204.993C131.749 208.395 132.171 211.791 132.467 215.198C132.7 217.881 132.894 220.577 132.911 223.268C132.952 229.578 132.971 235.89 132.813 242.196C132.723 245.763 132.265 249.32 131.974 252.881C131.899 253.789 132.764 254.643 133.581 254.343C133.986 254.194 134.412 253.718 134.552 253.298C135.186 251.395 135.813 249.48 136.264 247.528C136.653 245.846 136.856 244.115 137.04 242.395C137.208 240.824 137.312 239.238 137.317 237.659C137.326 234.266 137.404 230.863 137.171 227.484C136.925 223.923 136.414 220.376 135.904 216.839C135.154 211.634 133.962 206.523 132.284 201.535C131.846 200.233 131.309 198.965 130.818 197.681C130.764 197.699 130.71 197.717 130.655 197.735ZM122.068 205.884C121.87 206.199 121.66 206.506 121.475 206.828C119.881 209.605 118.714 212.564 117.671 215.583C115.842 220.881 114.794 226.325 114.812 231.927C114.822 235.019 115.114 238.113 115.348 241.201C115.554 243.938 116.064 246.629 117.082 249.188C117.448 250.11 118.009 250.962 118.544 251.807C118.783 252.185 119.19 252.419 119.693 252.208C120.205 251.994 120.52 251.641 120.49 251.057C120.477 250.807 120.467 250.55 120.406 250.31C119.264 245.812 118.472 241.257 118.383 236.609C118.325 233.57 118.275 230.52 118.467 227.49C118.659 224.471 119.068 221.456 119.549 218.466C120.03 215.473 120.698 212.51 121.323 209.542C121.576 208.343 121.934 207.166 122.244 205.979C122.185 205.948 122.127 205.916 122.068 205.884ZM138.079 218.292C138.637 221.496 139.094 224.742 139.245 227.985C139.419 231.712 139.278 235.459 139.141 239.192C139.024 242.38 138.46 245.519 137.679 248.615C137.502 249.316 137.338 250.022 137.224 250.735C137.12 251.382 137.303 251.937 137.982 252.196C138.642 252.447 139.031 251.994 139.283 251.543C139.861 250.503 140.481 249.457 140.851 248.337C141.955 244.995 142.376 241.521 142.607 238.021C142.887 233.776 142.943 229.527 142.339 225.312C141.432 218.975 139.446 212.967 136.476 207.291C136.203 206.77 135.864 206.283 135.509 205.704C136.399 210.007 137.355 214.129 138.079 218.292ZM142.85 219.809C144.081 223.719 144.744 227.727 144.882 231.819C145 235.31 144.846 238.785 144.147 242.221C143.775 244.047 143.428 245.879 143.103 247.714C143.046 248.037 143.157 248.389 143.19 248.728C143.276 248.749 143.362 248.771 143.448 248.792C143.705 248.586 143.992 248.409 144.215 248.171C145.92 246.344 146.936 244.157 147.52 241.752C148.418 238.054 148.279 234.321 147.662 230.622C146.865 225.85 144.818 221.545 142.189 217.466C142.408 218.247 142.606 219.035 142.85 219.809ZM114.747 247.987C114.638 247.244 114.431 246.517 114.287 245.779C113.812 243.344 113.159 240.924 112.932 238.466C112.692 235.864 112.791 233.221 112.869 230.6C112.975 227.022 113.698 223.534 114.69 220.101C114.961 219.164 115.254 218.233 115.537 217.299C115.469 217.272 115.402 217.245 115.335 217.218C114.433 218.981 113.521 220.738 112.632 222.507C110.866 226.017 109.871 229.745 109.66 233.661C109.528 236.123 109.567 238.6 110.06 241.028C110.517 243.286 111.224 245.474 112.657 247.333C113.123 247.938 113.526 248.661 114.55 248.928C114.631 248.569 114.788 248.263 114.747 247.987Z" fill="#D9D9D9"/>
<path d="M395.635 250.471C395.769 246.796 397.544 244.145 400.836 242.594C402.59 241.768 404.48 241.232 406.298 240.537C407.71 239.997 409.099 239.399 410.509 238.855C412.094 238.243 413.696 237.675 415.282 237.064C416.336 236.658 417.373 236.209 418.418 235.778C418.906 235.576 419.383 235.339 419.882 235.169C421.453 234.635 422.251 233.453 422.446 231.903C422.635 230.395 422.163 229.084 420.876 228.124C419.265 226.921 417.625 227.134 415.924 227.884C414.159 228.661 412.374 229.393 410.599 230.149C408.626 230.988 406.657 231.837 404.683 232.672C402.417 233.632 400.149 234.585 397.878 235.535C396.481 236.119 395.068 236.668 393.681 237.274C391.812 238.089 389.94 237.999 388.068 237.348C385.568 236.479 383.803 234.781 382.824 232.344C382.241 230.889 381.998 229.361 382.317 227.757C382.656 226.052 383.322 224.55 384.49 223.256C385.747 221.861 387.376 221.124 389.097 220.522C390.925 219.882 392.775 219.292 394.561 218.55C395.793 218.038 396.399 216.924 396.64 215.632C396.782 214.867 396.716 214.122 396.467 213.371C395.821 211.424 395.829 209.422 396.536 207.532C397.439 205.122 399.169 203.393 401.592 202.437C404.256 201.386 406.934 200.371 409.605 199.336C411.444 198.623 413.263 197.855 415.121 197.197C419.61 195.606 424.363 197.688 426.154 202.01C428.047 206.579 425.819 211.73 421.161 213.49C419.847 213.987 418.555 214.549 417.223 214.991C415.795 215.464 414.475 217.737 415.096 219.625C415.772 221.684 417.088 222.568 419.326 222.799C421.603 223.033 423.449 224.024 424.928 225.724C426.569 227.61 427.2 229.813 426.956 232.302C426.631 235.609 424.82 237.872 421.947 239.282C420.262 240.108 418.434 240.641 416.684 241.339C415.751 241.712 414.806 242.087 413.941 242.589C413.021 243.123 412.412 244.022 412.307 245.066C412.216 245.969 412.31 246.93 412.528 247.814C412.891 249.284 413.106 250.673 412.773 252.23C412.115 255.299 410.275 257.278 407.577 258.579C406.571 259.064 405.426 259.175 404.316 259.172C403.208 259.169 402.063 259.075 401.05 258.624C399.875 258.101 398.781 257.401 397.907 256.405C396.417 254.707 395.61 252.762 395.635 250.471ZM410.757 217.314C409.625 217.724 408.695 218.051 407.771 218.397C404.492 219.624 401.217 220.863 397.936 222.086C396.775 222.519 395.597 222.904 394.437 223.339C392.888 223.92 391.363 224.567 389.803 225.117C388.114 225.714 386.68 227.117 386.779 229.36C386.863 231.29 388.571 233.218 390.689 233.267C391.979 233.296 393.008 232.696 394.121 232.297C395.581 231.773 396.996 231.121 398.433 230.529C399.865 229.939 401.297 229.345 402.735 228.767C404.823 227.929 406.922 227.117 409.005 226.268C410.337 225.725 411.65 225.134 413.033 224.538C411.33 222.453 410.467 220.146 410.757 217.314ZM422.315 205.336C422.257 204.993 422.23 204.64 422.135 204.308C421.409 201.776 418.884 200.586 416.436 201.577C414.43 202.388 412.405 203.153 410.389 203.942C407.899 204.916 405.411 205.897 402.919 206.869C401.179 207.547 400.476 209.417 400.525 210.7C400.634 213.537 403.478 215.41 406.153 214.401C410.566 212.737 414.959 211.023 419.358 209.323C421.174 208.622 422.199 207.333 422.315 205.336ZM408.407 250.6C408.393 247.896 406.439 246.347 404.312 246.408C401.927 246.477 400.216 247.72 400.166 250.866C400.132 252.968 402.124 254.731 404.306 254.771C406.277 254.807 408.49 253.088 408.407 250.6Z" fill="#D9D9D9"/>
</g>
<defs>
<clipPath id="clip0_58_951">
<rect width="393" height="228" fill="white"/>
</clipPath>
</defs>
</svg>
