<svg width="193" height="19" viewBox="0 0 193 19" fill="none" xmlns="http://www.w3.org/2000/svg">
<path d="M39.3057 16.8459C40.4826 16.8459 41.1624 16.1458 41.1624 14.908V11.1643H45.4641C46.428 11.1643 47.0164 10.6367 47.0164 9.74389C47.0164 8.84092 46.4077 8.31334 45.4641 8.31334H41.1624V4.98556H45.941C46.9251 4.98556 47.5947 4.43769 47.5947 3.484C47.5947 2.5303 46.9454 1.98244 45.941 1.98244H39.3057C38.1288 1.98244 37.4389 2.69263 37.4389 3.93041V14.908C37.4389 16.1458 38.1288 16.8459 39.3057 16.8459Z" fill="#111827"></path>
<path d="M50.608 16.856C51.7037 16.856 52.4038 16.2067 52.4038 14.9892V10.6773C52.4038 9.41922 52.7589 8.87136 53.9967 8.84092C54.6663 8.81048 55.1736 8.6583 55.5084 8.35393C55.8432 8.0597 56.0157 7.63358 56.0157 7.06543C56.0157 6.4161 55.833 5.95955 55.4779 5.69576C55.2446 5.50299 54.9199 5.41168 54.5141 5.41168C53.4082 5.41168 52.5966 6.20304 52.3226 7.69446H52.2516V7.14659C52.2516 5.97984 51.5617 5.34066 50.5573 5.34066C49.5123 5.34066 48.8021 5.97984 48.8021 7.13645V14.9892C48.8021 16.2067 49.5021 16.856 50.608 16.856Z" fill="#111827"></path>
<path d="M62.0118 16.8865C65.4917 16.8865 67.6629 14.7863 67.6629 11.0933C67.6629 7.47125 65.4613 5.31022 62.0118 5.31022C58.5825 5.31022 56.3606 7.4814 56.3606 11.0933C56.3606 14.7761 58.5318 16.8865 62.0118 16.8865ZM62.0118 14.2486C60.774 14.2486 60.0131 13.1224 60.0131 11.1034C60.0131 9.11485 60.7943 7.9481 62.0118 7.9481C63.2394 7.9481 64.0206 9.11485 64.0206 11.1034C64.0206 13.1224 63.2394 14.2486 62.0118 14.2486Z" fill="#111827"></path>
<path d="M70.8588 16.856C71.9038 16.856 72.6546 16.2473 72.6546 14.9892V10.3729C72.6546 9.15544 73.3648 8.29305 74.5112 8.29305C75.6881 8.29305 76.2867 9.04383 76.2867 10.3019V14.9892C76.2867 16.2473 77.0274 16.856 78.0825 16.856C79.1377 16.856 79.8783 16.2473 79.8783 14.9892V9.53083C79.8783 6.90309 78.5086 5.36095 76.0432 5.36095C74.3489 5.36095 73.2735 6.11173 72.6952 7.57271H72.6241V7.15674C72.6241 6.01027 71.9038 5.34066 70.7979 5.34066C69.692 5.34066 69.0529 6.01027 69.0529 7.14659V14.9892C69.0529 16.2473 69.8036 16.856 70.8588 16.856Z" fill="#111827"></path>
<path d="M82.4756 13.6601C82.4756 15.7096 83.5612 16.7647 85.6918 16.7647H85.7831C87.1731 16.7647 88.3094 16.2371 88.3094 15.1921C88.3094 14.3602 87.8427 14.0051 87.0412 13.9138L86.818 13.8833C86.3107 13.8326 86.0773 13.5587 86.0773 12.8688V8.23218H86.9498C87.7514 8.23218 88.2789 7.7046 88.2789 6.90309C88.2789 6.10158 87.7514 5.57401 86.9498 5.57401H86.0773V4.69133C86.0773 3.52458 85.4178 2.82453 84.2815 2.82453C83.1351 2.82453 82.4756 3.52458 82.4756 4.69133V5.57401H82.0799C81.2784 5.57401 80.7508 6.09144 80.7508 6.90309C80.7508 7.7046 81.2784 8.23218 82.0799 8.23218H82.4756V13.6601Z" fill="#111827"></path>
<path d="M94.7722 16.8865C96.9738 16.8865 98.7594 16.1052 99.4899 14.8066C99.6522 14.5428 99.7334 14.2689 99.7334 13.9949C99.7334 13.2036 99.1145 12.7369 98.384 12.7369C97.9376 12.7369 97.6434 12.8586 97.268 13.2137C96.4665 14.0254 95.7867 14.3399 94.8026 14.3399C93.504 14.3399 92.6213 13.4268 92.6213 12.0875V11.8846H98.6275C99.5609 11.8846 100.078 11.3773 100.078 10.4642C100.078 7.4814 97.9173 5.31022 94.6301 5.31022C91.2618 5.31022 89.1312 7.57271 89.1312 11.1541C89.1312 14.7457 91.2313 16.8865 94.7722 16.8865ZM92.672 9.8352C92.7633 8.67859 93.5851 7.86693 94.7011 7.86693C95.8273 7.86693 96.6288 8.63801 96.6897 9.8352H92.672Z" fill="#111827"></path>
<path d="M103.284 16.856C104.329 16.856 105.08 16.2473 105.08 14.9892V10.3729C105.08 9.15544 105.79 8.29305 106.937 8.29305C108.114 8.29305 108.712 9.04383 108.712 10.3019V14.9892C108.712 16.2473 109.453 16.856 110.508 16.856C111.563 16.856 112.304 16.2473 112.304 14.9892V9.53083C112.304 6.90309 110.934 5.36095 108.469 5.36095C106.775 5.36095 105.699 6.11173 105.121 7.57271H105.05V7.15674C105.05 6.01027 104.329 5.34066 103.224 5.34066C102.118 5.34066 101.478 6.01027 101.478 7.14659V14.9892C101.478 16.2473 102.229 16.856 103.284 16.856Z" fill="#111827"></path>
<path d="M118.067 16.785C119.741 16.785 120.989 15.8922 121.415 14.695H121.486V15.0095C121.486 16.2574 122.237 16.856 123.282 16.856C124.337 16.856 125.077 16.2574 125.077 15.0095V3.61589C125.077 2.35783 124.337 1.74908 123.282 1.74908C122.226 1.74908 121.486 2.35783 121.486 3.61589V7.52198H121.415C120.928 6.28421 119.71 5.41168 118.107 5.41168C115.348 5.41168 113.663 7.54227 113.663 11.073C113.663 14.6443 115.317 16.785 118.067 16.785ZM119.416 13.9746C118.117 13.9746 117.346 12.8891 117.346 11.1034C117.346 9.32791 118.128 8.22203 119.416 8.22203C120.705 8.22203 121.496 9.32791 121.496 11.1034C121.496 12.8992 120.715 13.9746 119.416 13.9746Z" fill="#111827"></path>
<path d="M132.991 16.8459C134.168 16.8459 134.848 16.1458 134.848 14.908V12.331H137.242C140.499 12.331 142.741 10.2918 142.741 7.16688C142.741 4.02172 140.61 1.98244 137.465 1.98244H132.991C131.814 1.98244 131.124 2.69263 131.124 3.93041V14.908C131.124 16.1458 131.814 16.8459 132.991 16.8459ZM134.848 9.53083V4.83337H136.481C138.044 4.83337 138.977 5.65517 138.977 7.17703C138.977 8.70903 138.044 9.53083 136.461 9.53083H134.848Z" fill="#3730A3"></path>
<path d="M146.018 16.856C147.063 16.856 147.814 16.2473 147.814 14.9892V3.61589C147.814 2.35783 147.063 1.74908 146.018 1.74908C144.963 1.74908 144.212 2.35783 144.212 3.61589V14.9892C144.212 16.2473 144.963 16.856 146.018 16.856Z" fill="#3730A3"></path>
<path d="M152.907 16.785C154.236 16.785 155.585 16.1661 156.184 15.0501H156.255V15.3037C156.356 16.3589 157.036 16.856 157.99 16.856C159.015 16.856 159.755 16.2777 159.755 15.0501V9.04383C159.755 6.82193 157.797 5.31022 154.845 5.31022C152.308 5.31022 150.462 6.14217 149.995 7.51184C149.914 7.72489 149.884 7.90752 149.884 8.16116C149.884 8.93223 150.492 9.46995 151.355 9.46995C151.903 9.46995 152.359 9.26704 152.775 8.85107C153.465 8.10029 153.891 7.87708 154.662 7.87708C155.606 7.87708 156.235 8.36407 156.235 9.24675V9.87578L153.648 10.028C150.786 10.2004 149.194 11.3571 149.194 13.4268C149.194 15.4255 150.847 16.785 152.907 16.785ZM154.185 14.3094C153.323 14.3094 152.745 13.8833 152.745 13.1833C152.745 12.534 153.282 12.0977 154.226 12.0267L156.235 11.8948V12.6557C156.235 13.6398 155.281 14.3094 154.185 14.3094Z" fill="#3730A3"></path>
<path d="M163.286 16.856C164.331 16.856 165.082 16.2473 165.082 14.9892V10.3729C165.082 9.15544 165.792 8.29305 166.938 8.29305C168.115 8.29305 168.714 9.04383 168.714 10.3019V14.9892C168.714 16.2473 169.455 16.856 170.51 16.856C171.565 16.856 172.305 16.2473 172.305 14.9892V9.53083C172.305 6.90309 170.936 5.36095 168.47 5.36095C166.776 5.36095 165.701 6.11173 165.122 7.57271H165.051V7.15674C165.051 6.01027 164.331 5.34066 163.225 5.34066C162.119 5.34066 161.48 6.01027 161.48 7.14659V14.9892C161.48 16.2473 162.231 16.856 163.286 16.856Z" fill="#3730A3"></path>
<path d="M179.306 16.8865C181.508 16.8865 183.293 16.1052 184.024 14.8066C184.186 14.5428 184.267 14.2689 184.267 13.9949C184.267 13.2036 183.648 12.7369 182.918 12.7369C182.471 12.7369 182.177 12.8586 181.802 13.2137C181 14.0254 180.321 14.3399 179.336 14.3399C178.038 14.3399 177.155 13.4268 177.155 12.0875V11.8846H183.161C184.095 11.8846 184.612 11.3773 184.612 10.4642C184.612 7.4814 182.451 5.31022 179.164 5.31022C175.796 5.31022 173.665 7.57271 173.665 11.1541C173.665 14.7457 175.765 16.8865 179.306 16.8865ZM177.206 9.8352C177.297 8.67859 178.119 7.86693 179.235 7.86693C180.361 7.86693 181.163 8.63801 181.224 9.8352H177.206Z" fill="#3730A3"></path>
<path d="M186.915 13.6601C186.915 15.7096 188.001 16.7647 190.131 16.7647H190.223C191.613 16.7647 192.749 16.2371 192.749 15.1921C192.749 14.3602 192.282 14.0051 191.481 13.9138L191.258 13.8833C190.75 13.8326 190.517 13.5587 190.517 12.8688V8.23218H191.39C192.191 8.23218 192.719 7.7046 192.719 6.90309C192.719 6.10158 192.191 5.57401 191.39 5.57401H190.517V4.69133C190.517 3.52458 189.858 2.82453 188.721 2.82453C187.575 2.82453 186.915 3.52458 186.915 4.69133V5.57401H186.52C185.718 5.57401 185.191 6.09144 185.191 6.90309C185.191 7.7046 185.718 8.23218 186.52 8.23218H186.915V13.6601Z" fill="#3730A3"></path>
<path fill-rule="evenodd" clip-rule="evenodd" d="M32.1506 3.04405C32.5564 3.1991 33.1871 3.55271 33.4064 4.31695C33.612 5.03347 33.3262 5.64653 33.0847 6.00731C32.8338 6.38202 32.4877 6.70764 32.1533 6.97742C31.4748 7.52493 30.5733 8.05593 29.7252 8.50546C28.8629 8.96245 27.9937 9.36748 27.3447 9.65661C27.0189 9.80172 26.7459 9.91887 26.5533 10.0001C26.457 10.0408 26.3807 10.0725 26.3278 10.0943L26.2665 10.1195L26.2498 10.1263L26.2436 10.1288C26.2435 10.1289 26.2428 10.1291 25.7558 8.92524L26.2436 10.1288L26.2286 10.1349L26.2142 10.1403C20.1281 12.4364 16.4376 13.4891 9.61787 15.0777L9.60878 15.0798L9.59966 15.0818L9.32326 13.8129C9.59966 15.0818 9.59985 15.0817 9.59966 15.0818L9.59248 15.0833L9.57553 15.087L9.51351 15.1001C9.46008 15.1113 9.38294 15.1273 9.28535 15.147C9.09029 15.1863 8.81285 15.2403 8.47917 15.3003C7.81462 15.4196 6.9143 15.5647 5.99175 15.6622C5.08623 15.7578 4.08704 15.8158 3.25245 15.7327C2.8412 15.6917 2.38214 15.609 1.97187 15.4256C1.56368 15.2433 1.02031 14.8725 0.819047 14.171C0.609557 13.4409 0.914306 12.8189 1.15426 12.4651C1.40876 12.0899 1.75957 11.7586 2.10162 11.4805C2.79603 10.9158 3.72021 10.3591 4.59405 9.88323C5.48138 9.40003 6.37598 8.96858 7.04434 8.65959C7.37968 8.50455 7.66071 8.37912 7.8588 8.29208C7.9579 8.24853 8.03638 8.21453 8.09069 8.19116L8.15361 8.1642L8.17066 8.15694L8.17688 8.15431C8.17705 8.15423 8.17767 8.15397 8.68303 9.35026L8.17688 8.15431L8.24776 8.12436L23.7268 3.62876L23.768 3.61966L24.0485 4.88763C23.768 3.61966 23.7678 3.6197 23.768 3.61966L23.7755 3.61799L23.794 3.61394L23.8626 3.59912C23.922 3.5864 24.0079 3.56819 24.1167 3.54571C24.3343 3.50075 24.644 3.43855 25.0166 3.36878C25.7592 3.22972 26.7625 3.05841 27.7871 2.93432C28.7959 2.81215 29.8915 2.72717 30.7937 2.78475C31.2367 2.81304 31.7218 2.88019 32.1506 3.04405ZM24.3681 6.14714L9.12098 10.5754L9.11741 10.5769C9.06875 10.5978 8.99635 10.6292 8.90371 10.6699C8.71833 10.7514 8.4525 10.87 8.13427 11.0171C7.4955 11.3124 6.65614 11.7177 5.8362 12.1642C5.21266 12.5038 4.63223 12.8501 4.16752 13.1754C4.62674 13.1739 5.15846 13.1384 5.71896 13.0792C6.55704 12.9907 7.39067 12.8569 8.01992 12.7439C8.33314 12.6876 8.59256 12.6371 8.77263 12.6008C8.86261 12.5827 8.93261 12.5682 8.97942 12.5583L9.03179 12.5472L9.03896 12.5457C15.7624 10.9794 19.3385 9.95771 25.2818 7.71608L25.2843 7.71504L25.337 7.6934C25.384 7.67402 25.454 7.64494 25.5435 7.60714C25.7228 7.53151 25.9799 7.42121 26.2878 7.28408C26.9058 7.00874 27.7172 6.63015 28.5089 6.21056C29.0417 5.92814 29.5396 5.64069 29.9551 5.36591C29.4066 5.37769 28.7674 5.43187 28.0994 5.51277C27.15 5.62775 26.206 5.78849 25.4947 5.9217C25.1403 5.98806 24.8465 6.04706 24.6423 6.08927C24.5402 6.11036 24.4606 6.12723 24.4072 6.13868L24.3681 6.14714Z" fill="#3730A3"></path>
<ellipse cx="17.006" cy="9.35026" rx="9.39003" ry="9.35026" fill="#818CF8"></ellipse>
<path fill-rule="evenodd" clip-rule="evenodd" d="M26.2431 10.129C26.2429 10.1291 26.2427 10.1291 25.7557 8.92524L26.2431 10.129L26.2312 10.1338L26.2196 10.1382C20.3126 12.3972 16.6147 13.4515 9.61717 15.0778L9.60839 15.0799L9.59958 15.0818L9.32318 13.8129C9.59958 15.0818 9.59977 15.0817 9.59958 15.0818L9.5924 15.0833L9.57545 15.087L9.51343 15.1001C9.46 15.1113 9.38286 15.1273 9.28527 15.147C9.09021 15.1863 8.81277 15.2403 8.47909 15.3003C7.81454 15.4196 6.91422 15.5647 5.99167 15.6622C5.08616 15.7578 4.08696 15.8158 3.25237 15.7327C2.84112 15.6917 2.38206 15.609 1.97179 15.4256C1.5636 15.2433 1.02023 14.8725 0.81897 14.171L3.31553 13.4547C3.22936 13.1544 3.02524 13.0515 3.02525 13.0515C3.02525 13.0515 3.02719 13.0524 3.03135 13.0543C3.07624 13.0744 3.22074 13.1194 3.50973 13.1482C4.07565 13.2045 4.86376 13.1696 5.71888 13.0792C6.55696 12.9907 7.39059 12.8569 8.01984 12.7439C8.33305 12.6876 8.59247 12.6371 8.77255 12.6008C8.86253 12.5827 8.93253 12.5682 8.97934 12.5583L9.03171 12.5472L9.0392 12.5456C15.9447 10.9405 19.5223 9.91815 25.2791 7.71715L25.2843 7.71505L25.337 7.6934C25.3839 7.67402 25.4539 7.64494 25.5435 7.60715C25.7227 7.53151 25.9798 7.42121 26.2877 7.28408C26.9057 7.00875 27.7171 6.63016 28.5088 6.21057C29.3146 5.78351 30.0403 5.34495 30.5222 4.95611C30.7681 4.75771 30.8854 4.62345 30.9263 4.56236C30.9292 4.55812 30.9313 4.55476 30.9329 4.55226C30.9153 4.58551 30.8332 4.76644 30.9097 5.03329L33.4063 4.31696C33.6119 5.03348 33.3261 5.64653 33.0846 6.00731C32.8337 6.38202 32.4876 6.70764 32.1532 6.97742C31.4747 7.52493 30.5732 8.05593 29.7251 8.50546C28.8628 8.96246 27.9936 9.36748 27.3446 9.65661C27.0188 9.80172 26.7458 9.91887 26.5532 10.0001C26.4569 10.0408 26.3806 10.0725 26.3277 10.0943L26.2664 10.1195L26.2497 10.1263L26.2431 10.129Z" fill="#3730A3"></path>
</svg>