<svg width="25" height="26" viewBox="0 0 25 26" fill="none" xmlns="http://www.w3.org/2000/svg">
<path d="M12.9966 0C6.26783 0 0.996582 3.075 0.996582 7V19C0.996582 22.925 6.26783 26 12.9966 26C19.7253 26 24.9966 22.925 24.9966 19V7C24.9966 3.075 19.7253 0 12.9966 0ZM22.9966 13C22.9966 14.2025 22.0116 15.4287 20.2953 16.365C18.3628 17.4187 15.7703 18 12.9966 18C10.2228 18 7.63033 17.4187 5.69783 16.365C3.98158 15.4287 2.99658 14.2025 2.99658 13V10.92C5.12908 12.795 8.77533 14 12.9966 14C17.2178 14 20.8641 12.79 22.9966 10.92V13ZM5.69783 3.635C7.63033 2.58125 10.2228 2 12.9966 2C15.7703 2 18.3628 2.58125 20.2953 3.635C22.0116 4.57125 22.9966 5.7975 22.9966 7C22.9966 8.2025 22.0116 9.42875 20.2953 10.365C18.3628 11.4187 15.7703 12 12.9966 12C10.2228 12 7.63033 11.4187 5.69783 10.365C3.98158 9.42875 2.99658 8.2025 2.99658 7C2.99658 5.7975 3.98158 4.57125 5.69783 3.635ZM20.2953 22.365C18.3628 23.4187 15.7703 24 12.9966 24C10.2228 24 7.63033 23.4187 5.69783 22.365C3.98158 21.4287 2.99658 20.2025 2.99658 19V16.92C5.12908 18.795 8.77533 20 12.9966 20C17.2178 20 20.8641 18.79 22.9966 16.92V19C22.9966 20.2025 22.0116 21.4287 20.2953 22.365Z" fill="#8B8B8B"/>
</svg>
