<svg width="33" height="33" viewBox="0 0 33 33" fill="none" xmlns="http://www.w3.org/2000/svg">
<g clip-path="url(#clip0_106_1760)">
<path d="M26.9025 9.87245C27.2082 8.88645 27.3062 7.84781 27.1905 6.82202C27.0747 5.79623 26.7477 4.80556 26.23 3.91245C26.1422 3.7604 26.016 3.63414 25.8639 3.54637C25.7118 3.4586 25.5393 3.41241 25.3638 3.41245C24.199 3.41002 23.0498 3.68003 22.008 4.20093C20.9662 4.72183 20.0607 5.47918 19.3638 6.41245H16.3638C15.6669 5.47918 14.7613 4.72183 13.7195 4.20093C12.6777 3.68003 11.5285 3.41002 10.3638 3.41245C10.1882 3.41241 10.0157 3.4586 9.86364 3.54637C9.71158 3.63414 9.58531 3.7604 9.49752 3.91245C8.97983 4.80556 8.6528 5.79623 8.53706 6.82202C8.42131 7.84781 8.51936 8.88645 8.82502 9.87245C8.20718 10.9508 7.87622 12.1697 7.86377 13.4125V14.4125C7.86587 16.1045 8.48011 17.7386 9.59305 19.013C10.706 20.2875 12.2425 21.1162 13.9188 21.3462C13.2345 22.2218 12.8631 23.3012 12.8638 24.4125V25.4125H9.86377C9.06812 25.4125 8.30506 25.0964 7.74245 24.5338C7.17984 23.9712 6.86377 23.2081 6.86377 22.4125C6.86377 21.7558 6.73444 21.1057 6.48317 20.499C6.23189 19.8924 5.8636 19.3412 5.3993 18.8769C4.93501 18.4126 4.38381 18.0443 3.77719 17.7931C3.17056 17.5418 2.52038 17.4125 1.86377 17.4125C1.59855 17.4125 1.3442 17.5178 1.15666 17.7053C0.969126 17.8929 0.86377 18.1472 0.86377 18.4125C0.86377 18.6777 0.969126 18.932 1.15666 19.1196C1.3442 19.3071 1.59855 19.4125 1.86377 19.4125C2.65942 19.4125 3.42248 19.7285 3.98509 20.2911C4.5477 20.8537 4.86377 21.6168 4.86377 22.4125C4.86377 23.7385 5.39055 25.0103 6.32824 25.948C7.26592 26.8857 8.53769 27.4125 9.86377 27.4125H12.8638V29.4125C12.8638 29.6777 12.9691 29.932 13.1567 30.1196C13.3442 30.3071 13.5986 30.4125 13.8638 30.4125C14.129 30.4125 14.3833 30.3071 14.5709 30.1196C14.7584 29.932 14.8638 29.6777 14.8638 29.4125V24.4125C14.8638 23.6168 15.1798 22.8537 15.7424 22.2911C16.3051 21.7285 17.0681 21.4125 17.8638 21.4125C18.6594 21.4125 19.4225 21.7285 19.9851 22.2911C20.5477 22.8537 20.8638 23.6168 20.8638 24.4125V29.4125C20.8638 29.6777 20.9691 29.932 21.1567 30.1196C21.3442 30.3071 21.5986 30.4125 21.8638 30.4125C22.129 30.4125 22.3833 30.3071 22.5709 30.1196C22.7584 29.932 22.8638 29.6777 22.8638 29.4125V24.4125C22.8644 23.3012 22.493 22.2218 21.8088 21.3462C23.4851 21.1162 25.0216 20.2875 26.1345 19.013C27.2474 17.7386 27.8617 16.1045 27.8638 14.4125V13.4125C27.8513 12.1697 27.5204 10.9508 26.9025 9.87245ZM25.8638 14.4125C25.8638 15.7385 25.337 17.0103 24.3993 17.948C23.4616 18.8857 22.1899 19.4125 20.8638 19.4125H14.8638C13.5377 19.4125 12.2659 18.8857 11.3282 17.948C10.3906 17.0103 9.86377 15.7385 9.86377 14.4125V13.4125C9.87603 12.4125 10.1754 11.4371 10.7263 10.6025C10.829 10.4671 10.8955 10.3078 10.9195 10.1396C10.9436 9.97145 10.9244 9.79991 10.8638 9.6412C10.6033 8.96945 10.4779 8.2529 10.4949 7.53261C10.5118 6.81233 10.6707 6.10247 10.9625 5.4437C11.7809 5.53174 12.569 5.80285 13.2684 6.23692C13.9677 6.67099 14.5604 7.25689 15.0025 7.9512C15.0926 8.09208 15.2166 8.20812 15.3631 8.2887C15.5096 8.36928 15.674 8.41183 15.8413 8.41245H19.885C20.0529 8.41246 20.218 8.37021 20.3653 8.2896C20.5125 8.20899 20.6371 8.09262 20.7275 7.9512C21.1696 7.25683 21.7622 6.67088 22.4616 6.2368C23.161 5.80272 23.9491 5.53166 24.7675 5.4437C25.0589 6.10263 25.2174 6.81258 25.2339 7.53286C25.2504 8.25315 25.1246 8.96961 24.8638 9.6412C24.8033 9.7984 24.7831 9.9682 24.8049 10.1352C24.8268 10.3022 24.89 10.4611 24.9888 10.5975C25.5451 11.4321 25.8489 12.4095 25.8638 13.4125V14.4125Z" fill="#0d6efd"/>
</g>
<defs>
<clipPath id="clip0_106_1760">
<rect width="32" height="32" fill="white" transform="translate(0.86377 0.412453)"/>
</clipPath>
</defs>
</svg>
