<svg xmlns="http://www.w3.org/2000/svg" width="49.395" height="74.093" viewBox="0 0 49.395 74.093"><path d="M12.349,224.7A12.353,12.353,0,0,0,24.7,212.349V200H12.349a12.349,12.349,0,1,0,0,24.7Z" transform="translate(0 -150.605)" fill="#0acf83"/><path d="M0,112.349A12.353,12.353,0,0,1,12.349,100H24.7v24.7H12.349A12.353,12.353,0,0,1,0,112.349Z" transform="translate(0 -75.302)" fill="#a259ff"/><path d="M0,12.349A12.353,12.353,0,0,1,12.349,0H24.7V24.7H12.349A12.353,12.353,0,0,1,0,12.349Z" fill="#f24e1e"/><path d="M100,0h12.349a12.349,12.349,0,1,1,0,24.7H100Z" transform="translate(-75.302)" fill="#ff7262"/><path d="M124.7,112.349A12.349,12.349,0,1,1,112.349,100,12.353,12.353,0,0,1,124.7,112.349Z" transform="translate(-75.302 -75.302)" fill="#1abcfe"/></svg>