<svg width="31" height="22" viewBox="0 0 31 22" fill="none" xmlns="http://www.w3.org/2000/svg">
<path d="M27.6338 13.0537C26.8913 10.1658 25.1074 7.65442 22.6251 6.0024H30.0001C30.2653 6.0024 30.5196 5.89705 30.7072 5.70951C30.8947 5.52197 31.0001 5.26762 31.0001 5.0024C31.0001 4.73719 30.8947 4.48283 30.7072 4.2953C30.5196 4.10776 30.2653 4.0024 30.0001 4.0024H19.8751C19.6548 3.14199 19.1544 2.37937 18.4528 1.83476C17.7511 1.29016 16.8882 0.99456 16.0001 0.99456C15.1119 0.99456 14.249 1.29016 13.5474 1.83476C12.8458 2.37937 12.3454 3.14199 12.1251 4.0024H2.00006C1.73485 4.0024 1.48049 4.10776 1.29296 4.2953C1.10542 4.48283 1.00006 4.73719 1.00006 5.0024C1.00006 5.26762 1.10542 5.52197 1.29296 5.70951C1.48049 5.89705 1.73485 6.0024 2.00006 6.0024H9.37506C6.89276 7.65442 5.10883 10.1658 4.36631 13.0537C3.40615 13.2069 2.53467 13.7045 1.91481 14.4536C1.29496 15.2028 0.96918 16.152 0.998389 17.1238C1.0276 18.0957 1.4098 19.0237 2.07352 19.7342C2.73724 20.4447 3.63704 20.8892 4.60467 20.9844C5.5723 21.0797 6.5415 20.8193 7.33104 20.2518C8.12058 19.6844 8.67641 18.8488 8.89458 17.9012C9.11276 16.9537 8.97834 15.9592 8.51648 15.1036C8.05461 14.248 7.29691 13.5899 6.38506 13.2524C6.81441 11.7721 7.57769 10.41 8.61616 9.27094C9.65462 8.13192 10.9406 7.24635 12.3751 6.6824C12.696 7.37444 13.2082 7.96028 13.8511 8.37082C14.494 8.78136 15.241 8.9995 16.0038 8.9995C16.7667 8.9995 17.5136 8.78136 18.1565 8.37082C18.7995 7.96028 19.3116 7.37444 19.6326 6.6824C21.0656 7.2473 22.3501 8.13328 23.3872 9.27225C24.4244 10.4112 25.1865 11.7728 25.6151 13.2524C24.7028 13.5888 23.9443 14.2459 23.4813 15.1009C23.0184 15.956 22.8827 16.9504 23.0997 17.8981C23.3167 18.8459 23.8715 19.6822 24.6604 20.2507C25.4492 20.8191 26.4181 21.0807 27.3859 20.9867C28.3536 20.8926 29.254 20.4492 29.9186 19.7395C30.5832 19.0298 30.9665 18.1023 30.9969 17.1304C31.0273 16.1586 30.7026 15.209 30.0837 14.4591C29.4647 13.7092 28.5938 13.2105 27.6338 13.0562V13.0537ZM7.00006 17.0024C7.00006 17.398 6.88277 17.7846 6.663 18.1135C6.44324 18.4424 6.13088 18.6988 5.76543 18.8502C5.39998 19.0015 4.99784 19.0411 4.60988 18.964C4.22192 18.8868 3.86555 18.6963 3.58585 18.4166C3.30614 18.1369 3.11566 17.7805 3.03849 17.3926C2.96132 17.0046 3.00093 16.6025 3.1523 16.237C3.30368 15.8716 3.56002 15.5592 3.88892 15.3395C4.21782 15.1197 4.6045 15.0024 5.00006 15.0024C5.5305 15.0024 6.0392 15.2131 6.41428 15.5882C6.78935 15.9633 7.00006 16.472 7.00006 17.0024ZM16.0001 7.0024C15.6045 7.0024 15.2178 6.88511 14.8889 6.66534C14.56 6.44558 14.3037 6.13322 14.1523 5.76777C14.0009 5.40232 13.9613 5.00019 14.0385 4.61222C14.1157 4.22426 14.3061 3.8679 14.5859 3.58819C14.8656 3.30849 15.2219 3.118 15.6099 3.04083C15.9978 2.96366 16.4 3.00327 16.7654 3.15464C17.1309 3.30602 17.4432 3.56237 17.663 3.89126C17.8828 4.22016 18.0001 4.60684 18.0001 5.0024C18.0001 5.53284 17.7893 6.04154 17.4143 6.41662C17.0392 6.79169 16.5305 7.0024 16.0001 7.0024ZM27.0001 19.0024C26.6045 19.0024 26.2178 18.8851 25.8889 18.6653C25.56 18.4456 25.3037 18.1332 25.1523 17.7678C25.0009 17.4023 24.9613 17.0002 25.0385 16.6122C25.1157 16.2243 25.3061 15.8679 25.5858 15.5882C25.8656 15.3085 26.2219 15.118 26.6099 15.0408C26.9978 14.9637 27.4 15.0033 27.7654 15.1546C28.1309 15.306 28.4432 15.5624 28.663 15.8913C28.8828 16.2202 29.0001 16.6068 29.0001 17.0024C29.0001 17.5328 28.7893 18.0415 28.4143 18.4166C28.0392 18.7917 27.5305 19.0024 27.0001 19.0024Z" fill="#8B8B8B"/>
</svg>
