<svg xmlns="http://www.w3.org/2000/svg" width="322.055" height="165.217" viewBox="0 0 322.055 165.217"><g transform="translate(-426.959 -203)"><path d="M460.012,324.8l44.721-25.124a3.968,3.968,0,0,0,1.516-5.4l-31.471-56.017a3.967,3.967,0,0,0-5.4-1.516l-35.27,19.815-5.147,21.072,25.651,45.657A3.967,3.967,0,0,0,460.012,324.8Z" fill="#fff" stroke="#c0d2dc" stroke-linecap="round" stroke-linejoin="round" stroke-width="4"/><path d="M436.173,256.451l7.706,13.717-13.717,7.706" fill="#e6effb" stroke="#c0d2dc" stroke-linecap="round" stroke-linejoin="round" stroke-width="4"/><text transform="matrix(0.863, -0.506, 0.506, 0.863, 451.007, 301.592)" fill="#e6effb" font-size="31.69" font-family="Arial-BoldMT, Arial" font-weight="700"><tspan x="0" y="0">A</tspan></text><text transform="matrix(0.863, -0.506, 0.506, 0.863, 468.425, 291.758)" fill="#e6effb" font-size="25.519" font-family="Arial-BoldMT, Arial" font-weight="700"><tspan x="0" y="0">a</tspan></text><path d="M481.587,299.323l49.828,12.183a3.967,3.967,0,0,0,4.8-2.912l15.261-62.413a3.968,3.968,0,0,0-2.912-4.8l-39.3-9.609-18.148,11.881-12.439,50.87A3.969,3.969,0,0,0,481.587,299.323Z" fill="#fff" stroke="#f99d8c" stroke-linecap="round" stroke-linejoin="round" stroke-width="4"/><path d="M510.84,233.114,507.1,248.4l-15.283-3.737" fill="#feddd6" stroke="#f99d8c" stroke-linecap="round" stroke-linejoin="round" stroke-width="4"/><path d="M526.817,278.333a12.294,12.294,0,1,0-23.822-6.089" fill="#fff" stroke="#feddd6" stroke-linecap="round" stroke-linejoin="round" stroke-width="2"/><path d="M532.165,266.433l-13.535-3.459-13.536-3.459,13.536,3.459Z" fill="#fff" stroke="#feddd6" stroke-linecap="round" stroke-linejoin="round" stroke-width="2"/><rect width="6.147" height="6.147" transform="translate(516.073 259.437) rotate(14.337)" stroke-width="2" stroke="#feddd6" stroke-linecap="round" stroke-linejoin="round" fill="#fff"/><rect width="5.029" height="5.029" rx="2.515" transform="translate(533.26 264.406) rotate(14.337)" stroke-width="2" stroke="#feddd6" stroke-linecap="round" stroke-linejoin="round" fill="#fff"/><rect width="6.147" height="6.147" transform="translate(524.802 274.934) rotate(14.337)" stroke-width="2" stroke="#feddd6" stroke-linecap="round" stroke-linejoin="round" fill="#fff"/><rect width="6.147" height="6.147" transform="translate(500.979 268.845) rotate(14.337)" stroke-width="2" stroke="#feddd6" stroke-linecap="round" stroke-linejoin="round" fill="#fff"/><rect width="5.029" height="5.029" rx="2.515" transform="matrix(0.969, 0.248, -0.248, 0.969, 500.234, 255.965)" stroke-width="2" stroke="#feddd6" stroke-linecap="round" stroke-linejoin="round" fill="#fff"/><path d="M467.638,337.506l55.011-6.77a4.288,4.288,0,0,0,3.732-4.779l-8.48-68.906a4.288,4.288,0,0,0-4.779-3.731l-43.386,5.339-13.788,18.954,6.912,56.162A4.286,4.286,0,0,0,467.638,337.506Z" fill="#fff" stroke="#96d7ff" stroke-miterlimit="10" stroke-width="4"/><path d="M471.844,259.408l2.076,16.873-16.873,2.076" fill="#dbf1fe" stroke="#96d7ff" stroke-miterlimit="10" stroke-width="4"/><text transform="translate(473.908 311.509) rotate(-7.016)" fill="#96d7ff" font-size="20.606" font-family="Rodchenko-Bold, Rodchenko Bold" font-weight="700"><tspan x="0" y="0">CSS</tspan></text><path d="M740.119,266.28v-7.515a4.04,4.04,0,0,0-4.039-4.039H685.392a4.038,4.038,0,0,1-3.261-1.656l-3.852-5.271a4.041,4.041,0,0,0-3.261-1.655H654.039A4.038,4.038,0,0,0,650,250.182v74.779A4.039,4.039,0,0,0,654.039,329h78.14a4.038,4.038,0,0,0,3.962-3.255l10.781-54.477a4.039,4.039,0,0,0-3.962-4.823H664.082a4.038,4.038,0,0,0-3.97,3.3L650,318.134" fill="#dbf1fe" stroke="#96d7ff" stroke-miterlimit="10" stroke-width="4"/><path d="M625.4,209.76l4.086-5.448a2.442,2.442,0,0,1,4.3.786l5.965,20.608a3.668,3.668,0,0,1-3.252,4.678l-21.739,1.61a2.442,2.442,0,0,1-2.134-3.9l3.8-5.067a36.665,36.665,0,0,0-24.192-6.634,36.216,36.216,0,0,0-22.24,10.536s-4.1,2.926-6.243.78a5.074,5.074,0,0,1-.391-6.633c1.171-1.171,12.087-14.885,29.655-17.559C610.962,200.786,625.4,209.76,625.4,209.76Z" fill="#c0d2dc"/><text transform="translate(659.341 350.502)" fill="#6c7488" font-size="14.179" font-family="Helvetica"><tspan x="0" y="0">My Project</tspan></text><path d="M490.254,347.722l-5.767-23.892a5.531,5.531,0,0,1,4.078-6.674h0a5.529,5.529,0,0,1,6.673,4.078l2.163,8.96,4.605-1.112a11.853,11.853,0,0,1,14.3,8.74l4.712,19.524a4.315,4.315,0,0,1-3.182,5.208l-14.187,3.425a7.751,7.751,0,0,1-5.86-.921l-17.466-10.673a5.43,5.43,0,0,1-1.8-7.466h0a5.43,5.43,0,0,1,7.466-1.8Z" fill="#fff" stroke="#6c7488" stroke-linecap="round" stroke-linejoin="round" stroke-width="4"/></g></svg>