<?xml version="1.0" encoding="utf-8"?>
<!-- Generator: Adobe Illustrator 25.1.0, SVG Export Plug-In . SVG Version: 6.00 Build 0)  -->
<svg version="1.1" id="Layer_1" xmlns="http://www.w3.org/2000/svg" xmlns:xlink="http://www.w3.org/1999/xlink" x="0px" y="0px"
	 viewBox="0 0 322.1 165.2" style="enable-background:new 0 0 322.1 165.2;" xml:space="preserve">
<style type="text/css">
	.st0{fill:#FFFFFF;stroke:#C0D2DC;stroke-width:4;stroke-linecap:round;stroke-linejoin:round;}
	.st1{fill:#E6EFFB;stroke:#C0D2DC;stroke-width:4;stroke-linecap:round;stroke-linejoin:round;}
	.st2{enable-background:new    ;}
	.st3{fill:#E6EFFB;}
	.st4{font-family:'Arial-BoldMT';}
	.st5{font-size:25.5293px;}
	.st6{fill:#FFFFFF;stroke:#F99D8C;stroke-width:4;stroke-linecap:round;stroke-linejoin:round;}
	.st7{fill:#FEDDD6;stroke:#F99D8C;stroke-width:4;stroke-linecap:round;stroke-linejoin:round;}
	.st8{fill:#FFFFFF;stroke:#FEDDD6;stroke-width:2;stroke-linecap:round;stroke-linejoin:round;}
	.st9{fill:#FFFFFF;stroke:#FEDDD6;stroke-width:2.0005;stroke-linecap:round;stroke-linejoin:round;stroke-miterlimit:4.0009;}
	.st10{fill:#FFFFFF;stroke:#96D7FF;stroke-width:4;stroke-miterlimit:10;}
	.st11{fill:#DBF1FE;stroke:#96D7FF;stroke-width:4;stroke-miterlimit:10;}
	.st12{fill:#96D7FF;}
	.st13{fill:#C0D2DC;}
	.st14{fill:#6C7488;}
	.st15{fill:#FFFFFF;stroke:#6C7488;stroke-width:4;stroke-linecap:round;stroke-linejoin:round;}
</style>
<g transform="translate(-426.959 -203)">
	<path class="st0" d="M460,324.8l44.7-25.1c1.9-1.1,2.6-3.5,1.5-5.4l-31.5-56c-1.1-1.9-3.5-2.6-5.4-1.5l-35.3,19.8l-5.1,21.1
		l25.7,45.7C455.7,325.2,458.1,325.9,460,324.8z"/>
	<path class="st1" d="M436.2,256.5l7.7,13.7l-13.7,7.7"/>
	<g class="st2">
		<path class="st3" d="M470.6,290.1l-4.3,2.5l-4.3-3.4l-7.8,4.6l1,5.4l-4.2,2.5l-3.9-24l4.2-2.5L470.6,290.1z M458.8,286.6l-7-5.7
			l1.6,8.8L458.8,286.6z"/>
	</g>
	<text transform="matrix(0.8627 -0.5058 0.5058 0.8627 468.424 291.7578)" class="st3 st4 st5">a</text>
	<path class="st6" d="M481.6,299.3l49.8,12.2c2.1,0.5,4.3-0.8,4.8-2.9c0,0,0,0,0,0l15.3-62.4c0.5-2.1-0.8-4.3-2.9-4.8c0,0,0,0,0,0
		l-39.3-9.6l-18.1,11.9l-12.4,50.9C478.2,296.7,479.5,298.8,481.6,299.3C481.6,299.3,481.6,299.3,481.6,299.3z"/>
	<path class="st7" d="M510.8,233.1l-3.7,15.3l-15.3-3.7"/>
	<path class="st8" d="M526.8,278.3c1.7-6.6-2.2-13.3-8.8-15c-6.6-1.7-13.3,2.2-15,8.8c0,0,0,0.1,0,0.1"/>
	<path class="st8" d="M532.2,266.4l-13.5-3.5l-13.5-3.5l13.5,3.5L532.2,266.4z"/>
	
		<rect x="515.2" y="260.1" transform="matrix(0.2476 -0.9689 0.9689 0.2476 134.9688 700.1551)" class="st8" width="6.1" height="6.1"/>
	<path class="st8" d="M535.7,265L535.7,265c1.3,0.3,2.2,1.7,1.8,3.1l0,0c-0.3,1.3-1.7,2.2-3.1,1.8l0,0c-1.3-0.3-2.2-1.7-1.8-3.1l0,0
		C533,265.5,534.4,264.7,535.7,265z"/>
	
		<rect x="523.9" y="275.6" transform="matrix(0.2476 -0.9689 0.9689 0.2476 126.522 720.2718)" class="st8" width="6.1" height="6.1"/>
	
		<rect x="500.1" y="269.5" transform="matrix(0.2476 -0.9689 0.9689 0.2476 114.4975 692.6096)" class="st8" width="6.1" height="6.1"/>
	<path class="st9" d="M502.7,256.6L502.7,256.6c1.3,0.3,2.2,1.7,1.8,3.1l0,0c-0.3,1.3-1.7,2.2-3.1,1.8l0,0c-1.3-0.3-2.2-1.7-1.8-3.1
		l0,0C500,257.1,501.3,256.2,502.7,256.6z"/>
	<path class="st10" d="M467.6,337.5l55-6.8c2.4-0.3,4-2.4,3.7-4.8l-8.5-68.9c-0.3-2.3-2.4-4-4.8-3.7l-43.4,5.3l-13.8,19l6.9,56.2
		C463.1,336.1,465.3,337.8,467.6,337.5C467.6,337.5,467.6,337.5,467.6,337.5z"/>
	<path class="st11" d="M471.8,259.4l2.1,16.9l-16.9,2.1"/>
	<g class="st2">
		<path class="st12" d="M483.2,295.8l0.5,4.5l-3.1,0.4l-0.2-1.4l-3.5,0.4l1,8.2l3.5-0.4l-0.2-1.4l3.1-0.4l0.5,4.5l-9.6,1.2
			l-1.8-14.3L483.2,295.8z"/>
		<path class="st12" d="M494.9,294.4l0.4,3.1l-6.1,0.8l0.3,2.5l6.1-0.8l1.1,8.8l-9.2,1.1l-0.4-3.1l6.1-0.8l-0.3-2.6l-6.1,0.8
			l-1.1-8.6L494.9,294.4z"/>
		<path class="st12" d="M506.8,292.9l0.4,3.1l-6.1,0.8l0.3,2.5l6.1-0.8l1.1,8.8l-9.2,1.1l-0.4-3.1l6.1-0.8l-0.3-2.6l-6.1,0.8
			l-1.1-8.6L506.8,292.9z"/>
	</g>
	<path class="st11" d="M740.1,266.3v-7.5c0-2.2-1.8-4-4-4h-50.7c-1.3,0-2.5-0.6-3.3-1.7l-3.9-5.3c-0.8-1-2-1.7-3.3-1.7h-21
		c-2.2,0-4,1.8-4,4c0,0,0,0,0,0V325c0,2.2,1.8,4,4,4l0,0h78.1c1.9,0,3.6-1.4,4-3.3l10.8-54.5c0.4-2.2-1-4.3-3.2-4.7
		c-0.3-0.1-0.5-0.1-0.8-0.1h-78.9c-1.9,0-3.6,1.4-4,3.3L650,318.1"/>
	<path class="st13" d="M625.4,209.8l4.1-5.4c0.8-1.1,2.3-1.3,3.4-0.5c0.4,0.3,0.7,0.8,0.9,1.3l6,20.6c0.6,1.9-0.6,4-2.5,4.5
		c-0.2,0.1-0.5,0.1-0.7,0.1l-21.7,1.6c-1.3,0.1-2.5-0.9-2.6-2.3c0-0.6,0.1-1.2,0.5-1.6l3.8-5.1c-7-5-15.6-7.3-24.2-6.6
		c-8.4,0.8-16.3,4.5-22.2,10.5c0,0-4.1,2.9-6.2,0.8c-1.8-1.8-1.9-4.6-0.4-6.6c1.2-1.2,12.1-14.9,29.7-17.6
		C611,200.8,625.4,209.8,625.4,209.8z"/>
	<g class="st2">
		<path class="st14" d="M660.4,340.3h2l2.9,8.6l2.9-8.6h2v10.2h-1.3v-6c0-0.2,0-0.6,0-1c0-0.5,0-1,0-1.5l-2.9,8.6h-1.4l-2.9-8.6v0.3
			c0,0.2,0,0.6,0,1.1c0,0.5,0,0.9,0,1.1v6h-1.3V340.3z"/>
		<path class="st14" d="M676.7,343.1h1.4c-0.2,0.5-0.6,1.6-1.2,3.3c-0.5,1.3-0.8,2.3-1.1,3.1c-0.7,1.9-1.2,3-1.5,3.5
			s-0.8,0.6-1.5,0.6c-0.2,0-0.3,0-0.4,0s-0.2,0-0.3-0.1v-1.1c0.2,0.1,0.4,0.1,0.5,0.1s0.2,0,0.3,0c0.2,0,0.4,0,0.5-0.1
			s0.2-0.2,0.3-0.3c0,0,0.1-0.2,0.2-0.6c0.1-0.3,0.2-0.6,0.3-0.8l-2.7-7.6h1.4l2,6L676.7,343.1z"/>
		<path class="st14" d="M683.4,340.3h4.6c0.9,0,1.6,0.3,2.2,0.8c0.6,0.5,0.8,1.2,0.8,2.1c0,0.8-0.2,1.5-0.7,2.1
			c-0.5,0.6-1.2,0.9-2.3,0.9h-3.2v4.3h-1.4V340.3z M688.7,341.7c-0.3-0.1-0.7-0.2-1.2-0.2h-2.7v3.5h2.7c0.6,0,1.1-0.1,1.5-0.4
			c0.4-0.3,0.6-0.7,0.6-1.4C689.6,342.5,689.3,342,688.7,341.7z"/>
		<path class="st14" d="M692.6,343.1h1.2v1.3c0.1-0.2,0.3-0.6,0.7-0.9c0.4-0.4,0.8-0.5,1.3-0.5c0,0,0.1,0,0.1,0s0.2,0,0.3,0v1.3
			c-0.1,0-0.1,0-0.2,0c-0.1,0-0.1,0-0.2,0c-0.6,0-1.1,0.2-1.4,0.6c-0.3,0.4-0.5,0.9-0.5,1.4v4.3h-1.2V343.1z"/>
		<path class="st14" d="M702.6,343.8c0.7,0.6,1,1.6,1,2.8c0,1.2-0.3,2.2-0.9,3c-0.6,0.8-1.5,1.2-2.7,1.2c-1,0-1.8-0.3-2.4-1
			c-0.6-0.7-0.9-1.6-0.9-2.8c0-1.2,0.3-2.2,0.9-3c0.6-0.7,1.5-1.1,2.5-1.1C701.2,342.9,702,343.2,702.6,343.8z M701.9,348.8
			c0.3-0.6,0.5-1.3,0.5-2.1c0-0.7-0.1-1.3-0.3-1.7c-0.3-0.7-0.9-1-1.8-1c-0.8,0-1.3,0.3-1.6,0.9c-0.3,0.6-0.5,1.3-0.5,2.1
			c0,0.8,0.2,1.4,0.5,2c0.3,0.5,0.9,0.8,1.6,0.8C701,349.7,701.6,349.4,701.9,348.8z"/>
		<path class="st14" d="M704,352.4c0.6,0,0.9-0.1,1-0.1c0.1-0.1,0.2-0.3,0.2-0.8v-8.3h1.2v8.5c0,0.5-0.1,0.9-0.3,1.2
			c-0.3,0.5-0.8,0.7-1.7,0.7c-0.1,0-0.1,0-0.2,0c-0.1,0-0.2,0-0.3,0V352.4z M706.4,341.8h-1.2v-1.4h1.2V341.8z"/>
		<path class="st14" d="M712.9,343.3c0.5,0.2,0.9,0.6,1.1,1c0.2,0.4,0.4,0.8,0.5,1.3c0.1,0.3,0.1,0.9,0.1,1.6h-5.4
			c0,0.8,0.2,1.4,0.5,1.8c0.3,0.5,0.8,0.7,1.5,0.7c0.6,0,1.2-0.2,1.5-0.6c0.2-0.2,0.4-0.5,0.5-0.9h1.2c0,0.3-0.1,0.6-0.3,0.9
			c-0.2,0.3-0.4,0.6-0.6,0.8c-0.4,0.4-0.8,0.6-1.4,0.7c-0.3,0.1-0.6,0.1-1,0.1c-0.9,0-1.7-0.3-2.3-1s-1-1.6-1-2.8
			c0-1.2,0.3-2.2,1-2.9c0.6-0.7,1.5-1.1,2.5-1.1C711.9,342.9,712.4,343,712.9,343.3z M713.3,346.2c-0.1-0.5-0.2-1-0.4-1.3
			c-0.3-0.6-0.9-0.9-1.7-0.9c-0.6,0-1,0.2-1.4,0.6s-0.6,0.9-0.6,1.6H713.3z"/>
		<path class="st14" d="M721.1,343.5c0.5,0.4,0.8,1.1,0.9,2.1h-1.2c-0.1-0.5-0.2-0.8-0.5-1.1c-0.3-0.3-0.7-0.5-1.3-0.5
			c-0.8,0-1.4,0.4-1.7,1.2c-0.2,0.5-0.3,1.1-0.3,1.9c0,0.7,0.2,1.4,0.5,1.9c0.3,0.5,0.8,0.8,1.5,0.8c0.5,0,0.9-0.2,1.2-0.5
			c0.3-0.3,0.5-0.7,0.6-1.3h1.2c-0.1,1-0.5,1.7-1,2.2c-0.6,0.5-1.3,0.7-2.1,0.7c-1,0-1.7-0.4-2.3-1.1c-0.6-0.7-0.9-1.6-0.9-2.7
			c0-1.3,0.3-2.3,0.9-3c0.6-0.7,1.4-1.1,2.4-1.1C719.9,342.9,720.6,343.1,721.1,343.5z"/>
		<path class="st14" d="M723.5,341h1.3v2.1h1.2v1h-1.2v4.8c0,0.3,0.1,0.4,0.3,0.5c0.1,0.1,0.3,0.1,0.5,0.1c0.1,0,0.1,0,0.2,0
			s0.1,0,0.2,0v1c-0.1,0-0.3,0.1-0.4,0.1c-0.2,0-0.3,0-0.5,0c-0.6,0-1-0.1-1.2-0.4c-0.2-0.3-0.3-0.7-0.3-1.2v-4.9h-1v-1h1V341z"/>
	</g>
	<path class="st15" d="M490.3,347.7l-5.8-23.9c-0.7-3,1.1-6,4.1-6.7l0,0c3-0.7,6,1.1,6.7,4.1c0,0,0,0,0,0l2.2,9l4.6-1.1
		c6.4-1.5,12.8,2.4,14.3,8.7l4.7,19.5c0.6,2.3-0.9,4.6-3.2,5.2c0,0,0,0,0,0l-14.2,3.4c-2,0.5-4.1,0.2-5.9-0.9l-17.5-10.7
		c-2.6-1.6-3.4-4.9-1.8-7.5c0,0,0,0,0,0l0,0c1.6-2.6,4.9-3.4,7.5-1.8c0,0,0,0,0,0L490.3,347.7z"/>
</g>
</svg>
