<svg xmlns="http://www.w3.org/2000/svg" xmlns:xlink="http://www.w3.org/1999/xlink" width="71.453" height="69.667" viewBox="0 0 71.453 69.667"><defs><radialGradient id="a" cx="0.329" cy="0.224" r="0.781" gradientTransform="translate(-0.01 0.01) scale(0.973 0.968)" gradientUnits="objectBoundingBox"><stop offset="0" stop-color="#34364e" stop-opacity="0.98"/><stop offset="1" stop-color="#0c0824"/></radialGradient></defs><g transform="translate(0 -130.746)"><path d="M24.8,155.549H90.3v63.712H24.8Z" transform="translate(-21.826 -21.826)" fill="url(#a)"/><path d="M2.977,133.723h65.5v63.712H2.977ZM0,200.413H71.453V130.746H0Zm48.171-41.086c-2.352,0-3.156,1.191-3.156,2.173,0,1.072.536,1.816,3.692,3.454,4.674,2.263,6.133,4.436,6.133,7.622,0,4.763-3.632,7.324-8.545,7.324a12.953,12.953,0,0,1-6.1-1.28c-.208-.089-.238-.238-.238-.476v-4.377c0-.3.149-.387.357-.238a11.051,11.051,0,0,0,5.984,1.757c2.352,0,3.335-.982,3.335-2.322,0-1.072-.685-2.024-3.692-3.573-4.228-2.024-5.984-4.079-5.984-7.5,0-3.841,3.007-7.026,8.217-7.026a13.69,13.69,0,0,1,5.329.834.659.659,0,0,1,.3.6v4.079c0,.238-.149.387-.447.3a10.057,10.057,0,0,0-5.18-1.34Zm-25.6,3.543c.685.06,1.221.06,2.412.06,3.483,0,6.758-1.221,6.758-5.954,0-3.781-2.352-5.687-6.312-5.687-1.191,0-2.322.06-2.858.089Zm-5.3-15.809c0-.208.417-.357.655-.357,1.906-.089,4.734-.149,7.681-.149,8.247,0,11.462,4.525,11.462,10.3,0,7.562-5.478,10.807-12.206,10.807-1.131,0-1.518-.06-2.322-.06v11.433c0,.238-.089.357-.357.357H17.625c-.238,0-.357-.089-.357-.357V147.061Z" fill="#31c5f0"/></g></svg>