<svg width="648" height="80" viewBox="0 0 648 80" fill="none" xmlns="http://www.w3.org/2000/svg">
<g clip-path="url(#clip0_82_1536)">
<path d="M54.304 79.6801C76.2187 79.6801 93.984 61.9147 93.984 40.0001C93.984 18.0854 76.2187 0.320068 54.304 0.320068C32.3894 0.320068 14.624 18.0854 14.624 40.0001C14.624 61.9147 32.3894 79.6801 54.304 79.6801Z" fill="url(#paint0_linear_82_1536)"/>
<path d="M71.6642 55.8079L58.2402 23.3759C57.4882 21.6959 56.3522 20.8799 54.8802 20.8799H53.6962C52.2082 20.8799 51.0882 21.6959 50.3362 23.3759L44.4962 37.5039H40.0802C38.7682 37.5199 37.6802 38.5759 37.6802 39.9039V39.9359C37.6962 41.2479 38.7682 42.3359 40.0802 42.3359H42.4482L36.8802 55.8079C36.7842 56.1119 36.7202 56.4159 36.7202 56.7359C36.7202 57.4879 36.9602 58.0799 37.3762 58.5439C37.7922 59.0079 38.4002 59.2319 39.1522 59.2319C39.6482 59.2159 40.1282 59.0719 40.5282 58.7679C40.9602 58.4639 41.2482 58.0479 41.4882 57.5519L47.6322 42.3359H51.8882C53.2002 42.3199 54.2882 41.2639 54.2882 39.9359V39.8719C54.2722 38.5599 53.2002 37.4719 51.8882 37.4719H49.6162L54.3042 25.8079L67.0722 57.5519C67.3122 58.0479 67.6002 58.4799 68.0322 58.7679C68.4322 59.0719 68.9282 59.2159 69.4082 59.2319C70.1602 59.2319 70.7522 59.0079 71.1842 58.5439C71.6162 58.0799 71.8402 57.4879 71.8402 56.7359C71.8402 56.4159 71.7922 56.0959 71.6642 55.8079Z" fill="white"/>
</g>
<path d="M156.585 55.6674C154.371 55.957 151.445 53.7984 151.512 50.7146C151.576 47.7661 153.562 45.6476 156.749 45.6191C159.306 45.5962 161.654 48.0484 161.609 50.5632C161.555 53.5396 159.461 55.6671 156.585 55.6674ZM179.638 40.2104C179.616 37.2781 177.74 35.2314 174.702 35.108C172.061 35.0007 169.923 36.9791 169.62 39.5551C169.265 42.5757 171.475 45.1005 174.457 45.1986C177.221 45.3258 179.66 43.0671 179.638 40.2104ZM156.535 24.694C154.396 24.6957 151.505 26.4455 151.474 29.7167C151.448 32.364 153.477 34.7583 156.582 34.7946C159.378 34.8274 161.51 32.616 161.511 29.7204C161.724 27.0829 159.148 24.6919 156.535 24.694ZM150.575 45.3058C153.417 45.2207 155.481 43.2416 155.573 40.2418C155.656 37.5384 153.282 35.1847 150.567 35.1602C147.801 35.1351 145.553 37.385 145.553 40.1796C145.343 43.0192 147.842 45.3876 150.575 45.3058ZM163.528 29.7415C163.646 32.6578 165.395 34.6079 168.425 34.7488C171.567 34.8951 173.542 32.2088 173.599 29.7813C173.657 27.3168 171.392 24.5122 168.522 24.7327C166.035 24.4535 163.415 26.9384 163.528 29.7415ZM168.591 45.6268C165.555 45.698 163.643 47.6295 163.574 50.6324C163.506 53.6186 166.067 55.7005 168.682 55.7029C171.263 55.7053 173.863 53.1842 173.541 50.7279C173.85 48.216 171.684 45.5543 168.591 45.6268ZM144.778 26.9442C143.144 26.8949 141.896 28.0666 141.857 29.6869C141.812 31.5469 142.919 32.8 144.636 32.8333C146.272 32.8652 147.488 31.686 147.526 30.0312C147.566 28.3058 146.398 26.993 144.778 26.9442ZM177.47 29.8708C177.487 31.4384 178.758 32.6703 180.381 32.6917C182.028 32.7135 183.387 31.4034 183.36 29.8178C183.333 28.1823 182.041 26.9367 180.378 26.9424C178.761 26.9482 177.452 28.2661 177.47 29.8708ZM159.597 19.6128C159.499 21.1111 160.975 22.426 162.519 22.4074C164.101 22.3885 165.444 21.0876 165.436 19.5829C165.427 17.8676 164.238 16.6356 162.581 16.6229C160.53 16.6509 159.709 17.9084 159.597 19.6128ZM180.546 47.5668C178.973 47.5336 177.55 48.8637 177.473 50.4399C177.399 51.9444 178.8 53.3783 180.408 53.4452C181.926 53.5082 183.335 52.1068 183.361 50.5076C183.386 48.998 182.046 47.5983 180.546 47.5668ZM144.785 53.482C146.279 53.464 147.823 52.06 147.69 50.6362C147.535 48.9744 146.8 47.7792 144.766 47.7253C143.096 47.681 141.874 48.853 141.87 50.4628C141.866 52.2984 143.028 53.5029 144.785 53.482ZM165.32 60.8703C165.323 59.2372 164.005 57.9508 162.365 57.9855C160.766 58.0194 159.519 59.2692 159.517 60.8384C159.514 62.5852 160.684 63.7815 162.39 63.7778C164.033 63.7743 165.317 62.5 165.32 60.8703ZM189.386 37.6447C188.089 37.6164 186.857 38.7541 186.807 40.028C186.754 41.3452 187.939 42.6304 189.286 42.6439C190.401 42.6549 191.78 41.8306 191.74 40.209C191.778 38.8514 190.697 37.6733 189.386 37.6447ZM146.757 17.2583C146.813 18.5698 147.912 19.5511 149.258 19.4916C150.642 19.4304 151.617 18.3271 151.553 16.896C151.491 15.5119 150.351 14.378 149.071 14.4276C147.629 14.4832 146.688 15.6343 146.757 17.2583ZM135.829 37.7471C134.557 37.7394 133.301 38.9604 133.283 40.2212C133.266 41.5223 134.454 42.7269 135.758 42.7301C137.13 42.7333 138.187 41.7269 138.194 40.4104C138.202 38.8317 137.247 37.7557 135.829 37.7471ZM146.78 63.364C146.773 64.8204 147.838 65.9624 149.218 65.9786C150.583 65.9946 151.678 64.8543 151.69 63.4061C151.7 62.0895 150.658 61.0575 149.307 61.0453C147.835 61.0324 146.787 61.9938 146.78 63.364ZM175.984 60.9764C174.601 61.0021 173.513 62.1146 173.542 63.4722C173.569 64.7592 174.769 65.9704 176.021 65.9748C177.229 65.9789 178.452 64.6887 178.451 63.4132C178.45 62.048 177.339 60.9511 175.984 60.9764ZM175.842 19.348C177.216 19.3741 178.355 18.3314 178.416 16.9914C178.473 15.7452 177.25 14.4546 175.983 14.4218C174.571 14.3853 173.567 15.377 173.54 16.8365C173.511 18.3488 174.402 19.3208 175.842 19.348ZM162.504 9.19092C163.618 9.19044 164.463 8.31204 164.457 7.16036C164.45 5.92948 163.703 5.11572 162.56 5.09252C161.376 5.06852 160.521 5.94004 160.529 7.1634C160.536 8.30116 161.403 9.1914 162.504 9.19092ZM133.983 58.8439C135.035 58.914 136.144 57.8639 136.148 56.794C136.152 55.8069 135.142 54.753 134.133 54.6916C133.197 54.6346 132.072 55.7208 132.053 56.7005C132.031 57.7602 132.945 58.7746 133.983 58.8439ZM162.402 71.1879C161.397 71.1951 160.402 72.2085 160.385 73.2431C160.368 74.2868 161.327 75.2898 162.36 75.3071C163.454 75.3253 164.467 74.3088 164.454 73.2058C164.443 72.2064 163.4 71.1807 162.402 71.1879ZM193.173 23.56C193.136 22.5746 192.074 21.5634 191.067 21.5541C190.104 21.5453 189.003 22.6532 189.014 23.6189C189.026 24.61 190.113 25.7309 191.042 25.71C192.064 25.6866 193.21 24.5303 193.173 23.56ZM193.182 56.5807C193.159 55.4941 192.27 54.6768 191.12 54.6856C190.03 54.6941 189.085 55.6336 189.124 56.67C189.166 57.7677 190.048 58.618 191.14 58.6141C192.392 58.6098 193.207 57.7983 193.182 56.5807ZM132.042 23.7567C132.021 24.9397 132.814 25.7229 134.024 25.7144C135.207 25.7063 136.001 24.8941 135.972 23.722C135.942 22.5351 135.172 21.7824 133.991 21.7866C132.831 21.7906 132.062 22.5674 132.042 23.7567ZM179.092 8.66196C179.074 9.67588 179.784 10.1532 180.61 10.2013C181.473 10.2516 182.125 9.75844 182.165 8.75444C182.203 7.79604 181.595 7.08532 180.698 7.05796C179.857 7.0322 179.108 7.76324 179.092 8.66196ZM124.691 40.2552C124.662 40.9935 125.585 41.9976 126.323 41.894C127.18 41.7736 127.809 41.27 127.866 40.3284C127.918 39.4567 127.153 38.733 126.254 38.7301C125.456 38.7276 124.724 39.4418 124.691 40.2552ZM179.211 71.7055C179.191 72.4676 180.038 73.2904 180.855 73.3028C181.525 73.3128 182.414 72.3868 182.369 71.6687C182.311 70.7232 181.751 70.2416 181.038 70.1576C179.865 70.1383 179.236 70.7421 179.211 71.7055ZM144.435 7.097C143.617 6.93748 142.859 7.78404 142.843 8.70676C142.828 9.63284 143.298 10.1514 144.195 10.2381C145.169 10.3322 145.851 9.7002 145.883 8.5482C145.955 7.71364 145.274 7.26084 144.435 7.097ZM200.417 40.1344C200.356 39.229 199.842 38.617 198.916 38.4956C198.067 38.3842 197.387 39.1565 197.341 40.122C197.291 41.1967 198.006 41.4794 198.711 41.6682C199.659 41.6866 200.471 40.948 200.417 40.1344ZM144.614 70.165C143.881 70.0885 142.828 70.9517 142.878 71.7013C142.937 72.5978 143.478 73.2392 144.389 73.3176C145.306 73.3964 145.891 72.8858 146.02 72.1687C146.126 71.0629 145.478 70.2552 144.614 70.165Z" fill="#1F6FCD"/>
<path d="M260.984 26.9583C263.664 26.9583 265.837 24.8071 265.837 22.1536C265.837 19.5 263.664 17.3489 260.984 17.3489C258.304 17.3489 256.131 19.5 256.131 22.1536C256.131 24.8071 258.304 26.9583 260.984 26.9583Z" fill="#B2A3F6"/>
<path d="M274.848 21.4688C277.529 21.4688 279.702 19.3176 279.702 16.6641C279.702 14.0105 277.529 11.8594 274.848 11.8594C272.168 11.8594 269.995 14.0105 269.995 16.6641C269.995 19.3176 272.168 21.4688 274.848 21.4688Z" fill="#B2A3F6"/>
<path d="M280.397 54.4114C283.078 54.4114 285.25 52.2603 285.25 49.6067C285.25 46.9531 283.078 44.802 280.397 44.802C277.717 44.802 275.544 46.9531 275.544 49.6067C275.544 52.2603 277.717 54.4114 280.397 54.4114Z" fill="#B2A3F6"/>
<path d="M233.947 47.5467C235.477 47.5467 236.718 46.3178 236.718 44.8019C236.718 43.286 235.477 42.0571 233.947 42.0571C232.416 42.0571 231.175 43.286 231.175 44.8019C231.175 46.3178 232.416 47.5467 233.947 47.5467Z" fill="#B2A3F6"/>
<path d="M241.572 65.396C242.721 65.396 243.653 64.4737 243.653 63.3361C243.653 62.1984 242.721 61.2761 241.572 61.2761C240.422 61.2761 239.49 62.1984 239.49 63.3361C239.49 64.4737 240.422 65.396 241.572 65.396Z" fill="#B2A3F6"/>
<path d="M263.756 79.1199C264.906 79.1199 265.838 78.1976 265.838 77.0599C265.838 75.9223 264.906 75 263.756 75C262.607 75 261.675 75.9223 261.675 77.0599C261.675 78.1976 262.607 79.1199 263.756 79.1199Z" fill="#B2A3F6"/>
<path d="M299.81 66.7656C300.96 66.7656 301.892 65.8434 301.892 64.7057C301.892 63.568 300.96 62.6458 299.81 62.6458C298.66 62.6458 297.729 63.568 297.729 64.7057C297.729 65.8434 298.66 66.7656 299.81 66.7656Z" fill="#B2A3F6"/>
<path d="M277.625 62.6511C278.775 62.6511 279.707 61.7289 279.707 60.5912C279.707 59.4535 278.775 58.5312 277.625 58.5312C276.476 58.5312 275.544 59.4535 275.544 60.5912C275.544 61.7289 276.476 62.6511 277.625 62.6511Z" fill="#B2A3F6"/>
<path d="M290.104 53.0417C291.254 53.0417 292.185 52.1195 292.185 50.9818C292.185 49.8441 291.254 48.9219 290.104 48.9219C288.954 48.9219 288.022 49.8441 288.022 50.9818C288.022 52.1195 288.954 53.0417 290.104 53.0417Z" fill="#B2A3F6"/>
<path d="M275.544 79.1199C277.075 79.1199 278.316 77.891 278.316 76.3751C278.316 74.8592 277.075 73.6304 275.544 73.6304C274.013 73.6304 272.772 74.8592 272.772 76.3751C272.772 77.891 274.013 79.1199 275.544 79.1199Z" fill="#B2A3F6"/>
<path d="M288.023 44.802C289.554 44.802 290.794 43.5732 290.794 42.0573C290.794 40.5414 289.554 39.3125 288.023 39.3125C286.492 39.3125 285.251 40.5414 285.251 42.0573C285.251 43.5732 286.492 44.802 288.023 44.802Z" fill="#B2A3F6"/>
<path d="M292.186 72.2552C293.717 72.2552 294.958 71.0263 294.958 69.5104C294.958 67.9945 293.717 66.7656 292.186 66.7656C290.655 66.7656 289.414 67.9945 289.414 69.5104C289.414 71.0263 290.655 72.2552 292.186 72.2552Z" fill="#B2A3F6"/>
<path d="M237.409 58.5314C239.324 58.5314 240.876 56.9959 240.876 55.1018C240.876 53.2076 239.324 51.6721 237.409 51.6721C235.494 51.6721 233.941 53.2076 233.941 55.1018C233.941 56.9959 235.494 58.5314 237.409 58.5314Z" fill="#B2A3F6"/>
<path d="M270.691 72.2552C273.372 72.2552 275.544 70.104 275.544 67.4505C275.544 64.7969 273.372 62.6458 270.691 62.6458C268.011 62.6458 265.838 64.7969 265.838 67.4505C265.838 70.104 268.011 72.2552 270.691 72.2552Z" fill="#B2A3F6"/>
<path d="M244.343 48.9219C247.024 48.9219 249.197 46.7708 249.197 44.1172C249.197 41.4636 247.024 39.3125 244.343 39.3125C241.663 39.3125 239.49 41.4636 239.49 44.1172C239.49 46.7708 241.663 48.9219 244.343 48.9219Z" fill="#B2A3F6"/>
<path d="M270.691 59.901C272.606 59.901 274.158 58.3655 274.158 56.4714C274.158 54.5772 272.606 53.0417 270.691 53.0417C268.776 53.0417 267.224 54.5772 267.224 56.4714C267.224 58.3655 268.776 59.901 270.691 59.901Z" fill="#B2A3F6"/>
<path d="M254.049 29.7085C255.199 29.7085 256.131 28.7862 256.131 27.6486C256.131 26.5109 255.199 25.5886 254.049 25.5886C252.9 25.5886 251.968 26.5109 251.968 27.6486C251.968 28.7862 252.9 29.7085 254.049 29.7085Z" fill="#B2A3F6"/>
<path d="M267.224 37.9429C269.52 37.9429 271.382 36.0983 271.382 33.823C271.382 31.5477 269.52 29.7031 267.224 29.7031C264.928 29.7031 263.066 31.5477 263.066 33.823C263.066 36.0983 264.928 37.9429 267.224 37.9429Z" fill="#B2A3F6"/>
<path d="M276.93 42.0572C278.461 42.0572 279.702 40.8283 279.702 39.3124C279.702 37.7965 278.461 36.5676 276.93 36.5676C275.399 36.5676 274.158 37.7965 274.158 39.3124C274.158 40.8283 275.399 42.0572 276.93 42.0572Z" fill="#B2A3F6"/>
<path d="M281.784 7.74487C282.933 7.74487 283.865 6.82261 283.865 5.68494C283.865 4.54726 282.933 3.625 281.784 3.625C280.634 3.625 279.702 4.54726 279.702 5.68494C279.702 6.82261 280.634 7.74487 281.784 7.74487Z" fill="#B2A3F6"/>
<path d="M272.077 7.73939C273.992 7.73939 275.544 6.20389 275.544 4.30976C275.544 2.41563 273.992 0.880127 272.077 0.880127C270.162 0.880127 268.609 2.41563 268.609 4.30976C268.609 6.20389 270.162 7.73939 272.077 7.73939Z" fill="#B2A3F6"/>
<path d="M274.158 29.7029C275.689 29.7029 276.93 28.474 276.93 26.9581C276.93 25.4423 275.689 24.2134 274.158 24.2134C272.628 24.2134 271.387 25.4423 271.387 26.9581C271.387 28.474 272.628 29.7029 274.158 29.7029Z" fill="#B2A3F6"/>
<path d="M247.811 59.9062C250.107 59.9062 251.969 58.0617 251.969 55.7864C251.969 53.511 250.107 51.6665 247.811 51.6665C245.515 51.6665 243.653 53.511 243.653 55.7864C243.653 58.0617 245.515 59.9062 247.811 59.9062Z" fill="#B2A3F6"/>
<path d="M288.023 64.0208C290.319 64.0208 292.18 62.1762 292.18 59.9009C292.18 57.6255 290.319 55.781 288.023 55.781C285.727 55.781 283.865 57.6255 283.865 59.9009C283.865 62.1762 285.727 64.0208 288.023 64.0208Z" fill="#B2A3F6"/>
<path d="M282.479 73.6304C284.775 73.6304 286.636 71.7858 286.636 69.5105C286.636 67.2352 284.775 65.3906 282.479 65.3906C280.183 65.3906 278.321 67.2352 278.321 69.5105C278.321 71.7858 280.183 73.6304 282.479 73.6304Z" fill="#B2A3F6"/>
<path d="M249.892 73.6302C252.573 73.6302 254.746 71.479 254.746 68.8255C254.746 66.1719 252.573 64.0208 249.892 64.0208C247.212 64.0208 245.039 66.1719 245.039 68.8255C245.039 71.479 247.212 73.6302 249.892 73.6302Z" fill="#B2A3F6"/>
<path d="M235.332 37.9429C237.629 37.9429 239.49 36.0983 239.49 33.823C239.49 31.5477 237.629 29.7031 235.332 29.7031C233.036 29.7031 231.175 31.5477 231.175 33.823C231.175 36.0983 233.036 37.9429 235.332 37.9429Z" fill="#B2A3F6"/>
<path d="M256.132 44.8021C259.196 44.8021 261.681 42.3444 261.681 39.3126C261.681 36.2808 259.196 33.823 256.132 33.823C253.067 33.823 250.583 36.2808 250.583 39.3126C250.583 42.3444 253.067 44.8021 256.132 44.8021Z" fill="#FC4C04"/>
<path d="M285.251 36.5678C288.316 36.5678 290.8 34.11 290.8 31.0782C290.8 28.0464 288.316 25.5886 285.251 25.5886C282.186 25.5886 279.702 28.0464 279.702 31.0782C279.702 34.11 282.186 36.5678 285.251 36.5678Z" fill="#FC4C04"/>
<path d="M300.501 59.9065C302.798 59.9065 304.659 58.062 304.659 55.7866C304.659 53.5113 302.798 51.6667 300.501 51.6667C298.205 51.6667 296.344 53.5113 296.344 55.7866C296.344 58.062 298.205 59.9065 300.501 59.9065Z" fill="#FC4C04"/>
<path d="M304.664 43.4324C306.961 43.4324 308.822 41.5878 308.822 39.3125C308.822 37.0372 306.961 35.1926 304.664 35.1926C302.368 35.1926 300.507 37.0372 300.507 39.3125C300.507 41.5878 302.368 43.4324 304.664 43.4324Z" fill="#FC4C04"/>
<path d="M288.718 24.2135C290.633 24.2135 292.186 22.678 292.186 20.7839C292.186 18.8897 290.633 17.3542 288.718 17.3542C286.803 17.3542 285.251 18.8897 285.251 20.7839C285.251 22.678 286.803 24.2135 288.718 24.2135Z" fill="#FC4C04"/>
<path d="M289.408 13.2344C290.939 13.2344 292.18 12.0055 292.18 10.4896C292.18 8.97375 290.939 7.74487 289.408 7.74487C287.878 7.74487 286.637 8.97375 286.637 10.4896C286.637 12.0055 287.878 13.2344 289.408 13.2344Z" fill="#FC4C04"/>
<path d="M295.648 15.9792C296.797 15.9792 297.729 15.057 297.729 13.9193C297.729 12.7816 296.797 11.8594 295.648 11.8594C294.498 11.8594 293.566 12.7816 293.566 13.9193C293.566 15.057 294.498 15.9792 295.648 15.9792Z" fill="#FC4C04"/>
<path d="M306.746 32.4531C307.895 32.4531 308.827 31.5309 308.827 30.3932C308.827 29.2555 307.895 28.3333 306.746 28.3333C305.596 28.3333 304.664 29.2555 304.664 30.3932C304.664 31.5309 305.596 32.4531 306.746 32.4531Z" fill="#FC4C04"/>
<path d="M247.116 14.6094C248.265 14.6094 249.197 13.6871 249.197 12.5494C249.197 11.4118 248.265 10.4895 247.116 10.4895C245.966 10.4895 245.034 11.4118 245.034 12.5494C245.034 13.6871 245.966 14.6094 247.116 14.6094Z" fill="#FC4C04"/>
<path d="M244.343 32.4531C245.493 32.4531 246.425 31.5309 246.425 30.3932C246.425 29.2555 245.493 28.3333 244.343 28.3333C243.194 28.3333 242.262 29.2555 242.262 30.3932C242.262 31.5309 243.194 32.4531 244.343 32.4531Z" fill="#FC4C04"/>
<path d="M249.893 35.198C251.043 35.198 251.975 34.2757 251.975 33.1381C251.975 32.0004 251.043 31.0781 249.893 31.0781C248.743 31.0781 247.812 32.0004 247.812 33.1381C247.812 34.2757 248.743 35.198 249.893 35.198Z" fill="#FC4C04"/>
<path d="M256.822 9.1145C257.971 9.1145 258.903 8.19224 258.903 7.05457C258.903 5.9169 257.971 4.99463 256.822 4.99463C255.672 4.99463 254.74 5.9169 254.74 7.05457C254.74 8.19224 255.672 9.1145 256.822 9.1145Z" fill="#FC4C04"/>
<path d="M306.746 50.2969C307.895 50.2969 308.827 49.3746 308.827 48.2369C308.827 47.0993 307.895 46.177 306.746 46.177C305.596 46.177 304.664 47.0993 304.664 48.2369C304.664 49.3746 305.596 50.2969 306.746 50.2969Z" fill="#FC4C04"/>
<path d="M299.811 28.3333C302.492 28.3333 304.665 26.1821 304.665 23.5286C304.665 20.875 302.492 18.7239 299.811 18.7239C297.131 18.7239 294.958 20.875 294.958 23.5286C294.958 26.1821 297.131 28.3333 299.811 28.3333Z" fill="#FC4C04"/>
<path d="M295.648 39.3124C297.563 39.3124 299.115 37.7769 299.115 35.8828C299.115 33.9886 297.563 32.4531 295.648 32.4531C293.733 32.4531 292.181 33.9886 292.181 35.8828C292.181 37.7769 293.733 39.3124 295.648 39.3124Z" fill="#FC4C04"/>
<path d="M248.506 24.2135C250.421 24.2135 251.974 22.678 251.974 20.7839C251.974 18.8897 250.421 17.3542 248.506 17.3542C246.591 17.3542 245.039 18.8897 245.039 20.7839C245.039 22.678 246.591 24.2135 248.506 24.2135Z" fill="#FC4C04"/>
<path d="M263.756 14.6041C265.671 14.6041 267.224 13.0686 267.224 11.1745C267.224 9.28037 265.671 7.74487 263.756 7.74487C261.841 7.74487 260.289 9.28037 260.289 11.1745C260.289 13.0686 261.841 14.6041 263.756 14.6041Z" fill="#FC4C04"/>
<path d="M254.745 15.979C256.276 15.979 257.517 14.7502 257.517 13.2343C257.517 11.7184 256.276 10.4895 254.745 10.4895C253.215 10.4895 251.974 11.7184 251.974 13.2343C251.974 14.7502 253.215 15.979 254.745 15.979Z" fill="#FC4C04"/>
<path d="M239.49 26.9583C241.021 26.9583 242.262 25.7294 242.262 24.2135C242.262 22.6976 241.021 21.4688 239.49 21.4688C237.96 21.4688 236.719 22.6976 236.719 24.2135C236.719 25.7294 237.96 26.9583 239.49 26.9583Z" fill="#FC4C04"/>
<path d="M297.73 48.9219C299.261 48.9219 300.501 47.693 300.501 46.1771C300.501 44.6612 299.261 43.4324 297.73 43.4324C296.199 43.4324 294.958 44.6612 294.958 46.1771C294.958 47.693 296.199 48.9219 297.73 48.9219Z" fill="#FC4C04"/>
<path d="M267.92 50.2969C270.6 50.2969 272.773 48.1458 272.773 45.4922C272.773 42.8386 270.6 40.6875 267.92 40.6875C265.239 40.6875 263.066 42.8386 263.066 45.4922C263.066 48.1458 265.239 50.2969 267.92 50.2969Z" fill="#FC4C04"/>
<path d="M258.904 53.0418C260.434 53.0418 261.675 51.8129 261.675 50.297C261.675 48.7811 260.434 47.5522 258.904 47.5522C257.373 47.5522 256.132 48.7811 256.132 50.297C256.132 51.8129 257.373 53.0418 258.904 53.0418Z" fill="#FC4C04"/>
<path d="M260.289 64.0208C262.586 64.0208 264.447 62.1762 264.447 59.9009C264.447 57.6255 262.586 55.781 260.289 55.781C257.993 55.781 256.132 57.6255 256.132 59.9009C256.132 62.1762 257.993 64.0208 260.289 64.0208Z" fill="#FC4C04"/>
<path d="M260.289 72.2552C261.82 72.2552 263.061 71.0263 263.061 69.5104C263.061 67.9945 261.82 66.7656 260.289 66.7656C258.759 66.7656 257.518 67.9945 257.518 69.5104C257.518 71.0263 258.759 72.2552 260.289 72.2552Z" fill="#FC4C04"/>
<g clip-path="url(#clip1_82_1536)">
<path d="M377.696 79.6801C399.531 79.6801 417.232 61.9147 417.232 40.0001C417.232 18.0854 399.531 0.320068 377.696 0.320068C355.861 0.320068 338.16 18.0854 338.16 40.0001C338.16 61.9147 355.861 79.6801 377.696 79.6801Z" fill="url(#paint1_linear_82_1536)" fill-opacity="0.05"/>
<path d="M408.592 37.3759C408.864 31.6639 404.88 27.8719 400.4 25.2639L397.488 42.4799C399.504 42.3679 400.496 43.1359 400.864 43.5039C401.312 43.9519 402.432 45.3119 401.088 47.4719C403.888 46.9919 408.272 44.2879 408.592 37.3759Z" fill="url(#paint2_linear_82_1536)"/>
<path fill-rule="evenodd" clip-rule="evenodd" d="M370.304 17.3439L366.816 13.8399C372.048 13.1999 385.872 14.0159 399.264 22.4479C399.488 23.3599 399.264 24.7199 399.264 24.7199L400.384 25.2799C401.36 26.6719 403.008 30.6399 401.84 35.3599C400.672 40.0799 398.656 42.0799 397.792 42.4959C396 42.4959 392.944 43.5359 391.952 48.1599C390.96 52.7839 389.072 53.7759 388.24 53.7119L368.48 53.9359L355.456 46.2399L353.584 30.2399L357.296 25.2639L363.92 19.8239L368.64 17.9039L370.304 17.3439ZM393.648 23.9359C392.784 24.8479 391.968 25.2799 391.728 25.4079C386.64 24.3199 384.8 21.6799 384.8 21.6799C389.6 21.6479 393.936 22.7999 397.104 24.7359C397.104 24.7199 395.392 24.1759 393.648 23.9359Z" fill="url(#paint3_linear_82_1536)"/>
<path fill-rule="evenodd" clip-rule="evenodd" d="M391.808 48.144C388.32 49.856 384.192 50.848 379.744 50.848C367.28 50.848 357.184 42.992 357.184 33.296C357.184 26.144 362.704 19.984 370.608 17.248C355.568 18.112 343.488 30.24 343.488 45.184C343.488 62.448 358.816 76.704 377.728 76.704C391.856 76.704 403.6 68.496 409.744 57.488C401.296 59.408 391.28 55.792 391.808 48.144Z" fill="url(#paint4_linear_82_1536)"/>
</g>
<g clip-path="url(#clip2_82_1536)">
<path d="M485.696 80C507.788 80 525.696 62.0914 525.696 40C525.696 17.9086 507.788 0 485.696 0C463.605 0 445.696 17.9086 445.696 40C445.696 62.0914 463.605 80 485.696 80Z" fill="#E84142"/>
<path d="M499.809 41.04C501.201 38.64 503.425 38.64 504.817 41.04L513.441 56.192C514.833 58.592 513.697 60.544 510.929 60.544H493.537C490.801 60.544 489.665 58.592 491.025 56.192L499.809 41.04ZM483.121 11.872C484.513 9.47202 486.705 9.47202 488.097 11.872L490.017 15.344L494.545 23.312C495.649 25.584 495.649 28.256 494.545 30.528L479.329 56.896C477.937 59.04 475.649 60.4 473.089 60.544H460.465C457.697 60.544 456.561 58.624 457.953 56.192L483.121 11.872Z" fill="white"/>
</g>
<g clip-path="url(#clip3_82_1536)">
<path d="M593.696 0C615.789 0 633.696 17.9071 633.696 40C633.696 62.0929 615.789 80 593.696 80C571.603 80 553.696 62.0929 553.696 40C553.696 17.9071 571.603 0 593.696 0Z" fill="#F0B90B"/>
<path d="M575.68 39.9999L575.709 50.5769L584.696 55.8653V62.0576L570.449 53.7019V36.907L575.68 39.9999ZM575.68 29.423V35.5865L570.446 32.4903V26.3269L575.68 23.2307L580.94 26.3269L575.68 29.423ZM588.449 26.3269L593.683 23.2307L598.943 26.3269L593.683 29.423L588.449 26.3269Z" fill="white"/>
<path d="M579.462 48.3846V42.1923L584.696 45.2884V51.4519L579.462 48.3846ZM588.449 58.0833L593.683 61.1794L598.943 58.0833V64.2467L593.683 67.3429L588.449 64.2467V58.0833ZM606.449 26.3269L611.683 23.2307L616.943 26.3269V32.4903L611.683 35.5865V29.423L606.449 26.3269ZM611.683 50.5769L611.712 39.9999L616.946 36.9038V53.6987L602.699 62.0544V55.8621L611.683 50.5769Z" fill="white"/>
<path d="M607.93 48.3847L602.696 51.452V45.2885L607.93 42.1924V48.3847Z" fill="white"/>
<path d="M607.93 31.6153L607.959 37.8076L598.946 43.0961V53.6987L593.712 56.766L588.478 53.6987V43.0961L579.465 37.8076V31.6153L584.722 28.5192L593.68 33.8333L602.693 28.5192L607.952 31.6153H607.93ZM579.462 21.0416L593.683 12.657L607.93 21.0416L602.696 24.1378L593.683 18.8236L584.696 24.1378L579.462 21.0416Z" fill="white"/>
</g>
<defs>
<linearGradient id="paint0_linear_82_1536" x1="83.8923" y1="15.1078" x2="24.8465" y2="64.7873" gradientUnits="userSpaceOnUse">
<stop stop-color="#B6509E"/>
<stop offset="1" stop-color="#2EBAC6"/>
</linearGradient>
<linearGradient id="paint1_linear_82_1536" x1="377.696" y1="28.0891" x2="377.696" y2="80.7232" gradientUnits="userSpaceOnUse">
<stop stop-color="#01E8F8"/>
<stop offset="1" stop-color="#01E8F8" stop-opacity="0"/>
</linearGradient>
<linearGradient id="paint2_linear_82_1536" x1="402.437" y1="31.5897" x2="403.948" y2="51.0292" gradientUnits="userSpaceOnUse">
<stop stop-color="#01E8F7"/>
<stop offset="1" stop-color="#00C2FF"/>
</linearGradient>
<linearGradient id="paint3_linear_82_1536" x1="367.698" y1="19.0096" x2="388.17" y2="51.3874" gradientUnits="userSpaceOnUse">
<stop stop-color="#01E8F7"/>
<stop offset="1" stop-color="#00B3EC"/>
</linearGradient>
<linearGradient id="paint4_linear_82_1536" x1="376.002" y1="34.104" x2="377.834" y2="86.4466" gradientUnits="userSpaceOnUse">
<stop stop-color="#01E8F7"/>
<stop offset="1" stop-color="#00C2FF"/>
</linearGradient>
<clipPath id="clip0_82_1536">
<rect width="80" height="80" fill="white" transform="translate(14.3042)"/>
</clipPath>
<clipPath id="clip1_82_1536">
<rect width="80" height="80" fill="white" transform="translate(337.696)"/>
</clipPath>
<clipPath id="clip2_82_1536">
<rect width="80" height="80" fill="white" transform="translate(445.696)"/>
</clipPath>
<clipPath id="clip3_82_1536">
<rect width="80" height="80" fill="white" transform="translate(553.696)"/>
</clipPath>
</defs>
</svg>
