<svg width="756" height="80" viewBox="0 0 756 80" fill="none" xmlns="http://www.w3.org/2000/svg">
<path d="M64.9762 15.6001H59.4082V24.0001H64.9762V15.6001Z" fill="#1682FE"/>
<path d="M48.9601 0H43.3921V8.4H48.9601V0Z" fill="#1682FE"/>
<path d="M32.9601 8H27.3921V16.4H32.9601V8Z" fill="#60D8A4"/>
<path d="M25.0241 40H19.3921V64H25.0241V40Z" fill="#F4BB3B"/>
<path d="M25.0241 16H19.3921V40H25.0241V16Z" fill="#60D8A4"/>
<path d="M72.9601 23.6001H67.3921V32.0001H72.9601V23.6001Z" fill="#1682FE"/>
<path d="M72.9601 48H67.3921V56.4H72.9601V48Z" fill="#FF5A5A"/>
<path d="M64.9601 56H59.3921V64.4H64.9601V56Z" fill="#FF5A5A"/>
<path d="M48.9601 71.6001H43.3921V80.0001H48.9601V71.6001Z" fill="#FF5A5A"/>
<path d="M32.9601 63.6001H27.3921V72.0001H32.9601V63.6001Z" fill="#F4BB3B"/>
<path d="M88.6079 32V16H80.6079V8H64.6079V0H48.6079V8H32.6079V16H24.6079V64H32.6079V72H48.6079V80H64.6079V72H80.6079V64H88.6079V48H72.6079V56H64.6079V64H48.6079V56H40.6079V24H48.6079V16H64.6079V24H72.6079V32H88.6079Z" fill="#3A3A3A"/>
<path d="M161.997 1.04858L185.677 40.1779L162.085 30.0947L161.997 1.04858Z" fill="#2F3030"/>
<path d="M138.382 40.1779L161.997 1.04858L162.085 30.0947L138.382 40.1779Z" fill="#828384"/>
<path d="M161.997 54.6056L138.382 40.1779L162.085 30.0947L161.997 54.6056Z" fill="#343535"/>
<path d="M185.677 40.1779L162.085 30.0947L161.997 54.6056L185.677 40.1779Z" fill="#131313"/>
<path d="M161.997 59.5725L185.677 45.5354L161.997 78.9007V59.5725Z" fill="#2F3030"/>
<path d="M161.997 59.5725L138.382 45.5354L161.997 78.9007V59.5725Z" fill="#828384"/>
<g clip-path="url(#clip0_82_1483)">
<path d="M270 80C292.091 80 310 62.0914 310 40C310 17.9086 292.091 0 270 0C247.909 0 230 17.9086 230 40C230 62.0914 247.909 80 270 80Z" fill="#F69988"/>
<path fill-rule="evenodd" clip-rule="evenodd" d="M270.016 11.7119L284.048 33.6159L270.016 41.7759L255.984 33.6159L270.016 11.7119ZM260.288 32.5919L270.016 17.3919L279.744 32.5919L270 38.2559L260.288 32.5919Z" fill="white"/>
<path d="M270 46.608L253.728 37.136L253.28 37.824C248.272 45.648 249.392 55.904 255.968 62.48C263.712 70.208 276.288 70.208 284.032 62.48C290.624 55.904 291.744 45.664 286.72 37.824L286.272 37.136L270 46.608Z" fill="white"/>
</g>
<path d="M372.16 74.0799C390.991 74.0799 406.256 58.8146 406.256 39.9839C406.256 21.1532 390.991 5.88794 372.16 5.88794C353.33 5.88794 338.064 21.1532 338.064 39.9839C338.064 58.8146 353.33 74.0799 372.16 74.0799Z" fill="#2EB6EA"/>
<path d="M371.968 74.08C338.064 74.08 324.672 29.456 354.624 10.656C351.056 47.936 370.016 48.768 387.6 47.936C417.072 46.576 417.088 74.08 417.088 74.08H371.968Z" fill="#1542CD"/>
<path fill-rule="evenodd" clip-rule="evenodd" d="M404.384 51.136C399.248 64.288 386.64 73.68 371.776 74.096C372.128 74.112 372.48 74.112 372.832 74.112H417.664C417.664 74.112 417.648 58 404.384 51.136Z" fill="#745DDF"/>
<g clip-path="url(#clip1_82_1483)">
<path d="M506.368 26.2241C504.896 25.3601 502.976 25.3601 501.344 26.2241L489.824 32.8961L482 37.2481L470.48 43.9201C469.008 44.7841 467.088 44.7841 465.456 43.9201L456.304 38.7041C454.832 37.8401 453.792 36.2401 453.792 34.4961V24.2081C453.792 22.4641 454.672 20.8801 456.304 20.0001L465.312 14.9281C466.784 14.0641 468.704 14.0641 470.336 14.9281L479.344 20.0001C480.816 20.8641 481.856 22.4641 481.856 24.2081V30.8801L489.68 26.3841V19.7121C489.68 17.9681 488.8 16.3841 487.168 15.5041L470.496 5.93609C469.024 5.07209 467.104 5.07209 465.472 5.93609L448.512 15.5041C446.88 16.3681 446 17.9681 446 19.7121V38.9921C446 40.7361 446.88 42.3201 448.512 43.2001L465.488 52.7681C466.96 53.6321 468.88 53.6321 470.512 52.7681L482.032 46.2401L489.856 41.7441L501.376 35.2161C502.848 34.3521 504.768 34.3521 506.4 35.2161L515.408 40.2881C516.88 41.1521 517.92 42.7521 517.92 44.4961V54.7841C517.92 56.5281 517.04 58.1121 515.408 58.9921L506.4 64.2081C504.928 65.0721 503.008 65.0721 501.376 64.2081L492.368 59.1361C490.896 58.2721 489.856 56.6721 489.856 54.9281V48.2561L482.032 52.7521V59.4241C482.032 61.1681 482.912 62.7521 484.544 63.6321L501.52 73.2001C502.992 74.0641 504.912 74.0641 506.544 73.2001L523.52 63.6321C524.992 62.7681 526.032 61.1681 526.032 59.4241V40.1441C526.032 38.4001 525.152 36.8161 523.52 35.9361L506.368 26.2241Z" fill="#8247E5"/>
</g>
<path d="M631.984 34.7361C631.264 35.8241 629.44 37.8241 624.544 40.3521C623.456 40.8961 622.192 41.4401 620.736 41.9841C619.648 42.3521 619.472 43.4401 619.28 44.1601V45.0721V53.2321C626.528 50.6881 631.616 47.2481 633.424 43.0721C633.792 42.1601 633.968 41.2641 633.968 40.1761C634.16 38.1921 633.248 36.3681 631.984 34.7361Z" fill="#FF8801"/>
<path d="M611.12 43.8081C607.136 44.5281 602.96 45.0721 598.432 45.2641V48.5281C598.432 50.3361 597.168 51.9681 595.712 51.9681C594.256 51.9681 592.992 50.5121 592.992 48.5281V45.4401C576.496 45.2641 562.528 40.7201 557.264 34.5601C556 36.1921 555.264 37.8241 555.264 39.6321C555.264 40.5441 555.44 41.4401 555.808 42.5281C559.072 50.1441 575.216 55.9521 594.624 55.9521C601.52 55.9521 607.856 55.2321 613.488 53.9521V46.7041C613.296 43.9841 611.312 43.8081 611.12 43.8081Z" fill="#FF8801"/>
<path d="M593.536 7.36011C571.584 7.36011 554 14.7841 554 23.8561C554 24.7681 554.176 25.8561 554.544 26.7521C557.808 34.1921 573.216 40.0001 592.08 40.1761V40.0001C592.08 36.7361 591.904 32.2081 589.904 30.2081C588.64 28.9441 583.744 27.1201 581.568 25.8561C580.848 25.4881 580.112 25.1361 579.568 24.7681C579.392 24.5921 579.2 24.4001 579.024 24.2241C578.112 23.3121 577.568 22.4161 577.568 21.3281C577.568 17.5201 585.36 14.4321 594.976 14.4321C604.592 14.4321 612.4 17.5201 612.4 21.3281C612.4 23.3281 610.4 24.9601 607.328 26.2241C606.064 26.9441 600.624 28.2241 599.168 30.9441C597.904 33.2961 597.904 36.9281 597.904 40.1921C615.312 39.4721 629.456 33.8401 632.368 26.7681C632.736 25.8561 632.912 24.9601 632.912 23.8721C632.896 14.7841 615.296 7.36011 593.536 7.36011Z" fill="#FF8801"/>
<path d="M618.016 57.9521V63.5681C618.016 65.0241 616.752 66.2881 615.296 66.2881C613.84 66.2881 612.576 65.0241 612.576 63.5681V59.5841C606.96 60.8481 600.432 61.5841 593.712 61.5841C576.672 61.5841 562.16 57.0401 556.544 50.8801C554.912 52.5121 554 54.5121 554 56.3201C554 65.2001 571.584 72.6401 593.536 72.6401C615.296 72.6401 633.072 65.3921 633.072 56.3201C633.072 54.3201 632.16 52.5121 630.72 50.7041C628 53.6001 623.632 56.1441 618.016 57.9521Z" fill="#FF8801"/>
<g clip-path="url(#clip2_82_1483)">
<path d="M702 79.92C723.328 79.92 740.624 62.768 740.624 41.616C740.624 20.464 723.328 3.31201 702 3.31201C680.672 3.32801 663.376 20.464 663.376 41.616C663.376 62.768 680.672 79.92 702 79.92Z" fill="#ECF3FF"/>
<path d="M691.568 18.2559L678.048 12.8959V14.8159L689.632 25.1519L688.864 35.8719L685.392 50.4319L680.752 56.9439L681.904 66.1279L687.696 66.8959L692.336 66.1279L696.976 66.8959L705.088 61.9199L706.64 53.8719L716.288 44.6879L720.528 47.7439L724.768 53.8719V66.1279L730.56 64.5919L736.352 51.9519L737.904 35.8719L717.056 5.6159L713.584 4.8479L691.568 18.2559Z" fill="white"/>
<path d="M671.104 40.4C671.264 39.104 671.328 37.792 671.728 36.576C672.816 31.52 674.896 26.6879 677.984 22.7839C678.528 22.0959 678.992 21.4879 679.6 20.8639L676.128 17.6479C675.504 18.5599 674.896 19.4879 674.352 20.3999C671.488 25.2959 669.952 30.816 669.568 36.256C669.408 37.632 669.488 39.008 669.488 40.32C669.488 41.696 669.648 43.0079 669.872 44.3839C670.256 47.0719 670.96 49.6639 671.888 52.1279C671.264 49.5199 670.96 46.912 670.88 44.24C670.864 42.992 670.864 41.696 671.104 40.4Z" fill="#94A6C4"/>
<path d="M686.944 15.584C685.008 14.672 682.304 13.44 680.384 12.528C682.16 10.848 685.408 9.08804 688.112 7.93604C686.16 9.45604 686.16 12.672 686.944 15.584Z" fill="#94A6C4"/>
<path d="M679.136 28.592C678.048 31.28 677.36 34.112 677.12 36.864C677.04 37.552 676.96 38.24 677.04 38.928C677.04 39.616 677.04 40.304 677.12 40.992L677.2 42.08C677.2 42.384 677.28 42.768 677.36 43.072L677.664 45.136L677.744 43.072C677.744 42.768 677.744 42.384 677.824 42.08L677.984 41.088C678.064 40.4 678.208 39.712 678.288 39.104C678.368 38.416 678.592 37.808 678.752 37.184C679.44 34.576 680.608 32.208 682 29.984C682.928 28.528 684.016 27.232 685.168 26L682.16 23.168C680.832 24.928 679.904 26.688 679.136 28.592Z" fill="#94A6C4"/>
<path d="M723.856 15.504C719.76 14.048 718.144 14.512 718.144 14.512C718.144 14.512 715.6 21.328 705.856 21.792C705.936 21.856 714.672 26.912 723.856 15.504Z" fill="#94A6C4"/>
<path d="M726.64 29.0559C726.256 37.4879 719.696 40.6239 714.592 40.0159C711.808 39.6319 707.712 40.9279 707.712 40.9279L702.544 49.8079L700.848 50.4159L703.776 45.0559C703.776 45.0559 696.832 47.5839 696.288 47.8079C695.744 48.0319 693.584 51.1839 691.808 54.4639C691.424 52.1599 689.952 50.5599 689.952 50.4799C689.952 50.8639 690.72 57.7599 689.872 59.6639C689.024 61.6479 685.232 62.9599 685.232 62.9599L690.8 65.0239L691.184 65.1839L695.36 61.2799L696.912 55.4559L698.848 54.0799C698.848 54.0799 703.632 53.5359 702.944 57.8399C702.64 59.9039 700.32 59.7599 697.696 61.3599C696.144 62.2719 694.144 63.7279 693.136 64.7359L695.92 66.7199C695.92 66.7199 699.248 66.1759 703.952 62.5119C708.736 58.6879 706.352 54.5439 706.352 54.5439L714.16 45.2799L719.264 45.6639C719.264 45.6639 728.064 47.8879 730.928 56.1599C736.608 40.3199 727.408 29.8239 726.64 29.0559Z" fill="#94A6C4"/>
<path d="M735.6 22.48C736.992 23.088 738.064 24.016 739.072 24.848C732.128 0.943977 709.568 3.63198 709.104 3.77598C709.648 2.92798 711.648 1.63198 713.504 0.943975C713.504 0.943975 703.92 -2.43202 695.2 3.55198C695.36 2.17598 697.056 0.111975 697.056 0.111975C685.008 5.23198 684.24 11.36 686.56 15.04C684.624 14.128 682.704 13.28 680.768 12.352C674.816 9.51997 669.728 7.13597 669.408 7.07197C668.864 6.91197 668.64 7.15197 668.64 7.15197C668.64 7.15197 668.4 7.37597 668.864 7.83997C675.888 14.816 680.368 19.024 687.856 25.84C686.624 28.592 686.464 29.984 687.088 31.424C687.936 33.408 687.856 34.416 687.552 35.712C687.168 37.008 684.08 48.576 683.536 49.888C682.992 51.264 678.896 55.856 678.832 57.392C678.752 58.928 679.984 65.664 681.696 66.656C683.008 67.344 686.176 68.8 688.496 69.104C689.264 69.264 690.048 69.184 690.432 68.88C691.984 67.888 692.368 67.728 693.36 67.808L693.584 67.888C693.968 67.968 694.432 68.112 695.056 68.192C696.368 68.352 698.064 68.352 699.456 67.424C701.472 65.888 704.864 63.984 706.016 62.976C707.408 61.6 708.336 59.68 708.336 57.536C708.336 55.616 709.648 54.096 711.12 52.56C712.512 51.184 715.984 47.808 717.376 46.352C720.928 47.584 722.24 52.64 722.24 55.392C722.24 63.056 715.984 74.24 701.616 75.072C701.072 75.072 700.528 75.152 699.92 75.152C681.232 75.152 665.936 58.768 665.936 39.536C665.936 24.368 675.12 14.096 675.2 14.016C667.776 21.008 663.376 30.736 663.376 41.616C663.376 62.752 680.672 79.92 702 79.92C723.328 79.92 740.624 62.752 740.624 41.616C740.624 34.72 738.848 28.064 735.6 22.48ZM682.848 17.568C681.76 16.656 680.688 15.728 679.6 14.816C681.072 15.584 682.528 16.352 683.84 17.04C687.856 19.104 691.184 20.944 691.792 21.408C691.792 21.408 691.872 21.488 691.952 21.568C692.336 22.032 692.72 22.8 692.032 23.792C691.648 24.336 691.184 24.176 690.48 23.712C689.872 23.312 686.56 20.704 682.848 17.568ZM705.328 57.392C705.328 58.688 704.704 59.84 703.936 60.688C703.552 61.072 702 62.064 700.928 62.752C699.84 63.52 698.688 64.208 697.76 64.896C697.376 65.12 696.752 65.28 695.744 65.12L693.344 64.816C694.816 63.36 698.832 60.224 700.144 59.6C701.696 58.832 702.608 57.984 701.92 56.224C701.296 54.384 698.912 54.464 698.912 54.464C698.912 54.464 700.384 54.08 701.536 54.24C700.064 53.632 698.064 53.776 697.056 54.464C695.968 55.232 695.664 58.368 694.976 60.288C694.288 62.272 692.736 63.12 690.416 64.736C689.104 65.584 688.256 65.808 687.632 65.728C686.32 65.344 684.768 64.656 683.696 64.112C683.072 62.96 682.304 59.36 682.224 57.904C682.528 57.136 683.776 55.6 684.384 54.688C685.616 53.008 686.32 52 686.624 51.088C687.168 49.792 689.408 41.584 690.256 38.144C691.104 39.6 692.272 42.048 691.728 43.424C694.512 40.512 693.28 37.072 692.656 35.68C692.112 34.304 691.504 31.616 692.736 29.024C693.888 26.416 697.904 19.376 697.904 19.376C697.904 19.376 698.592 21.216 700.064 21.056C701.456 20.896 714.816 6.04797 714.816 6.04797C714.816 6.04797 716.896 12.944 713.04 17.152C709.184 21.36 705.936 21.824 705.936 21.824C705.936 21.824 710.256 23.2 714.736 20.912C715.888 25.056 716.896 29.344 716.896 29.872C716.592 30.416 712.256 37.616 711.872 38.064C711.712 38.224 710.48 38.368 709.712 38.368C708.32 38.592 707.472 38.672 707.088 38.912C706.464 39.296 702.912 45.952 701.216 49.168C699.664 49.392 698.128 49.936 696.896 51.392C697.52 51.088 699.296 51.088 700.608 51.088C701.76 51.168 704.928 53.456 705.312 57.056C705.328 57.328 705.328 57.328 705.328 57.392ZM696.288 60.608C697.136 59.696 697.296 57.92 697.44 57.392C697.6 56.848 697.904 55.856 698.592 55.776C699.28 55.696 700.752 56.16 700.608 57.312C700.448 58.384 699.296 58.464 698.368 58.992C697.76 59.392 696.432 60.464 696.288 60.608ZM729.888 61.616C728.96 51.808 722.16 47.216 719.152 45.68C722.624 45.296 731.584 42.624 726.64 29.056C726.8 29.664 728.192 36.416 724.24 39.936C720.224 43.536 714.352 42 713.664 42C713.04 41.92 710.112 44.752 706.096 50.192C705.712 49.968 704.08 49.344 702.08 49.424C704.096 45.664 707.104 40.304 707.568 39.856C707.728 39.696 709.04 39.552 709.808 39.472C711.36 39.312 712.128 39.168 712.432 38.864C712.592 38.64 713.664 36.944 714.752 35.104C715.44 35.184 717.296 35.328 717.536 35.264C717.696 35.104 719.776 31.44 719.856 30.976C719.936 30.672 718.464 24.928 717.536 21.248C736.608 30.208 739.616 49.968 729.888 61.616Z" fill="#1C324F"/>
<path d="M711.504 16.0319C713.664 14.1119 713.36 10.8159 713.36 10.8159L706.88 17.9359C706.784 17.9519 708.8 18.3359 711.504 16.0319Z" fill="#1C324F"/>
<path d="M687.248 56.5599L688.336 53.5039C688.336 53.5039 685.008 57.7119 684.704 58.3359C684.4 59.0239 684.544 60.3199 685.632 60.3999C686.72 60.4799 688.176 59.1039 688.336 58.0319C688.56 56.5599 687.248 56.5599 687.248 56.5599Z" fill="#1C324F"/>
<path d="M697.44 38.0161C699.76 37.7921 703.92 35.9521 705.712 34.4961C707.488 32.9601 707.184 29.6001 704.4 28.5921C705.328 27.0561 706.864 23.8401 706.864 23.8401C706.864 23.8401 696.896 35.4081 696.128 35.5521C695.36 35.7121 695.04 32.8001 695.04 32.8001C692.736 38.4001 696.672 39.7761 697.44 38.0161Z" fill="#1C324F"/>
<path d="M698.288 36.5601L703.456 30.0481C703.456 30.0481 705.696 31.5841 704.224 33.3441C702.384 35.4081 698.288 36.5601 698.288 36.5601Z" fill="#FFD925"/>
<path d="M712.048 7.53589L708.496 11.3599C705.632 12.2079 702.864 13.7279 700.224 16.2559C700.224 14.8159 704.48 8.44789 712.048 7.53589Z" fill="#D82423"/>
<path d="M716.528 10.832C716.608 9.83997 716.528 8.68797 716.368 7.61597C721.008 8.22397 726.48 10.912 732.736 16.96C727.568 14.128 722.08 11.52 716.528 10.832Z" fill="#D82423"/>
<path d="M717.92 15.8081C717.92 15.8081 735.136 23.3121 738.304 44.3841C738.768 16.9601 719.152 15.5841 717.92 15.8081Z" fill="#D82423"/>
<path d="M692.816 3.71191C692.592 4.31991 682.848 14.6719 694.976 18.7199C688.336 12.8159 692.736 3.77591 692.816 3.71191Z" fill="#D82423"/>
<path d="M697.984 17.104C697.984 17.104 698.992 5.39199 706.096 2.23999C705.552 2.39999 691.12 6.76799 697.984 17.104Z" fill="#D82423"/>
</g>
<defs>
<clipPath id="clip0_82_1483">
<rect width="80" height="80" fill="white" transform="translate(230)"/>
</clipPath>
<clipPath id="clip1_82_1483">
<rect width="80" height="80" fill="white" transform="translate(446)"/>
</clipPath>
<clipPath id="clip2_82_1483">
<rect width="80" height="80" fill="white" transform="translate(662)"/>
</clipPath>
</defs>
</svg>
