<?xml version="1.0" encoding="utf-8"?>
<!-- Generator: Adobe Illustrator 27.7.0, SVG Export Plug-In . SVG Version: 6.00 Build 0)  -->
<svg version="1.1" id="Layer_1" xmlns="http://www.w3.org/2000/svg" xmlns:xlink="http://www.w3.org/1999/xlink" x="0px" y="0px"
	 viewBox="0 0 500 500" style="enable-background:new 0 0 500 500;" xml:space="preserve">
<style type="text/css">
	.st0{fill-rule:evenodd;clip-rule:evenodd;fill:#231F20;}
</style>
<path class="st0" d="M488.6,111.2c-12.4-49.1-50.7-87.3-99.8-99.8c-92.1-14.8-185.7-14.8-277.7,0C61.9,23.9,23.7,62,11.3,111.2
	c-14.8,92.1-14.8,185.7,0,277.7c12.4,49.1,50.7,87.3,99.8,99.8c92.1,14.8,185.7,14.8,277.7,0c49.1-12.4,87.3-50.7,99.8-99.8
	C503.4,296.8,503.4,203.2,488.6,111.2z M384.2,129c-0.4,7.4-6.8,13.2-14.2,13.2c-16.9,0-32.9,6.7-45,18.7
	c-12.1,12.1-19,28.1-19.6,45.2v33.6h53c8.1,0,14.5,6.7,14.1,14.8c-0.4,7.6-6.9,13.4-14.5,13.4h-28.8c-13.1,0-23.7,10.6-23.7,23.7
	c0,53.9-44.9,97.4-99.2,95.3c-49.5-1.9-89.6-42-91.5-91.5c-2.1-54.3,41.4-99.2,95.3-99.2c8,0,14.5,6.7,14,14.9
	c-0.4,7.4-6.8,13.2-14.2,13.2c-36.9,0.1-67,30.3-67,67.3c0,37.2,30.5,67.6,67.9,67.2c37-0.4,66.6-31.1,66.6-68.1V239v-33.3
	c0.6-24.6,10.4-47.5,27.8-64.7c17.4-17.4,40.6-26.9,65-26.9C378.2,114,384.7,120.8,384.2,129z"/>
</svg>
