<svg width="648" height="80" viewBox="0 0 648 80" fill="none" xmlns="http://www.w3.org/2000/svg">
<path d="M60.7724 15.622C59.2807 12.0716 56.9261 8.95268 53.9428 6.52413C50.9472 4.09559 47.4092 2.44369 43.6369 1.70401C39.8523 0.964357 35.9568 1.17393 32.2708 2.29572C28.5725 3.41754 25.2194 5.42695 22.4949 8.15137C19.1911 11.4552 19.1911 16.8054 22.4949 20.1092C25.7988 23.4131 31.149 23.413 34.4404 20.1092C35.0445 19.5052 35.7595 19.0244 36.5362 18.6915C37.3498 18.3463 38.2251 18.1738 39.1003 18.1738C39.9879 18.1738 40.8509 18.3463 41.6645 18.6915C42.8479 19.197 43.8588 20.0352 44.5738 21.0954C45.3135 22.1803 45.708 23.4623 45.6957 24.7814C45.6957 29.4536 49.4803 33.2382 54.1401 33.2382C58.7999 33.2382 62.5845 29.4536 62.5845 24.7814C62.6215 21.6255 61.9928 18.5189 60.7724 15.622Z" fill="#00FFBA"/>
<path d="M53.828 46.774C49.1558 46.774 45.3836 50.5586 45.3836 55.2308C45.3836 56.1184 45.211 56.9813 44.8658 57.7949C44.3604 58.9784 43.5344 59.9893 42.4619 60.7043C41.9318 61.0618 41.3524 61.3453 40.7484 61.5302C39.5772 61.9 38.3322 61.9247 37.1487 61.6288C35.9652 61.3206 34.8804 60.6919 34.0421 59.8167C33.4628 59.2126 33.0066 58.51 32.6861 57.7456C32.0204 56.1184 32.0327 54.2939 32.7108 52.6666C33.2162 51.4832 34.0422 50.4723 35.1147 49.7573C36.1995 49.0176 37.4816 48.6355 38.8007 48.6355C43.4729 48.6355 47.2451 44.8509 47.2451 40.1787C47.2451 35.5065 43.4605 31.7219 38.8007 31.7219C34.1901 31.7219 29.6782 33.078 25.832 35.6175C21.9857 38.157 18.9654 41.7813 17.1656 46.0344C15.3658 50.2751 14.848 54.9596 15.6863 59.4962C16.5245 64.0328 18.6819 68.2242 21.8871 71.5403C25.1416 74.9181 29.3207 77.2357 33.9066 78.2219C38.4925 79.1958 43.2633 78.789 47.6026 77.0262C51.942 75.2756 55.6649 72.2553 58.2907 68.3721C60.9042 64.4889 62.3095 59.903 62.3095 55.2185C62.2725 50.5586 58.4879 46.774 53.828 46.774Z" fill="#00CFAB"/>
<path d="M90.1461 14.0442C88.5065 10.8514 86.1519 8.06531 83.2673 5.92029L83.2549 5.90797C79.7539 3.30681 75.6118 1.72889 71.2724 1.34672C66.9331 0.964574 62.5691 1.80285 58.6736 3.76294C54.778 5.72304 51.5112 8.71865 49.2182 12.4293C46.9378 16.1414 45.7303 20.4127 45.7295 24.7693C45.7295 29.4415 49.5141 33.2261 54.1739 33.2261C58.8338 33.2261 62.6184 29.4415 62.6184 24.7693C62.6184 23.8817 62.791 23.0188 63.1362 22.2052C63.6416 21.0217 64.4675 20.0108 65.5401 19.2958C66.0701 18.9383 66.6496 18.6548 67.2536 18.4699C68.2521 18.1617 69.3 18.0877 70.3232 18.2603C71.3464 18.4329 72.3203 18.852 73.1462 19.4684C73.9599 20.0725 74.6256 20.8614 75.094 21.7614C75.5255 22.6243 75.772 23.5612 75.809 24.5228C75.846 25.4844 75.6734 26.4459 75.3036 27.3335C74.7981 28.517 73.9722 29.5278 72.8997 30.2428C72.3696 30.6003 71.7902 30.8839 71.1861 31.0688C70.5451 31.266 69.8917 31.3646 69.2137 31.3646C64.5415 31.3646 60.7693 35.1492 60.7693 39.8214C60.7693 44.4936 64.5539 48.2782 69.2137 48.2782C73.2449 48.2782 77.202 47.2427 80.7154 45.2702C84.2288 43.2978 87.1751 40.4624 89.2708 37.023C91.3666 33.5836 92.55 29.6634 92.6979 25.6446C92.8705 21.6257 91.9829 17.6316 90.1461 14.0442Z" fill="#00CFAB"/>
<path d="M90.7631 45.8248C88.9632 41.5718 85.9553 37.9351 82.1091 35.3833C78.2628 32.8315 73.7386 31.4631 69.1157 31.4754C64.4435 31.4754 60.6712 35.26 60.6712 39.9322C60.6712 44.6044 64.4558 48.389 69.1157 48.389C70.0033 48.389 70.8662 48.5615 71.6798 48.9067C72.8633 49.4122 73.8742 50.2504 74.5892 51.3106C75.1933 52.2105 75.5754 53.2584 75.674 54.3432C75.785 55.4281 75.6247 56.5252 75.2056 57.5238C74.8851 58.3004 74.4166 59.0031 73.8372 59.5948C73.2332 60.2235 72.5058 60.7166 71.7169 61.0618C70.9032 61.407 70.0157 61.5919 69.1281 61.5919C68.2405 61.5919 67.3529 61.4193 66.5393 61.0741C65.3558 60.5687 64.3449 59.7304 63.6299 58.6702C62.8902 57.5854 62.5081 56.291 62.5081 54.9843C62.5081 50.3121 58.7235 46.5275 54.0637 46.5275C49.4038 46.5275 45.6191 50.3121 45.6191 54.9843C45.6191 59.6688 47.0122 64.2424 49.6133 68.1256C52.2268 72.0088 55.9374 75.0168 60.2767 76.7796C64.6161 78.5425 69.3746 78.9616 73.9481 78.0001C78.5217 77.0385 82.7131 74.7332 85.9676 71.3678C89.1852 68.0516 91.3548 63.8602 92.2054 59.3236C93.056 54.7747 92.5506 50.0779 90.7631 45.8248Z" fill="#00FFBA"/>
<path d="M38.8869 31.6025C37.9993 31.6025 37.1364 31.4299 36.3227 31.0847C35.1393 30.5793 34.1284 29.7533 33.4134 28.6808C32.5504 27.4111 32.1683 25.8825 32.3162 24.3538C32.4642 22.8252 33.1422 21.4075 34.227 20.3227C37.5308 17.0189 37.5308 11.6687 34.227 8.36482C30.9232 5.06101 25.573 5.06101 22.2815 8.36482C18.99 11.6563 16.7464 15.8354 15.8342 20.3966C14.9219 24.9578 15.3903 29.6917 17.1655 33.9817C18.9407 38.2841 21.961 41.9454 25.8319 44.5342C29.7028 47.123 34.2517 48.4914 38.8992 48.4914C43.5714 48.4914 47.3437 44.7068 47.3437 40.0346C47.3437 35.3871 43.5591 31.6025 38.8869 31.6025Z" fill="#00FFBA"/>
<g clip-path="url(#clip0_82_1453)">
<path d="M161.968 80C184.059 80 201.968 62.0914 201.968 40C201.968 17.9086 184.059 0 161.968 0C139.876 0 121.968 17.9086 121.968 40C121.968 62.0914 139.876 80 161.968 80Z" fill="#FACFD8"/>
<path d="M152.588 51.8699C153.978 51.8699 155.138 52.3299 156.078 53.2499C157.018 54.1699 157.488 55.3399 157.488 56.7699C157.488 58.1999 157.018 59.3599 156.078 60.2599C155.138 61.1599 153.978 61.6099 152.588 61.6099C151.238 61.6099 150.088 61.1599 149.128 60.2599C148.168 59.3599 147.688 58.1999 147.688 56.7699C147.688 55.3399 148.168 54.1699 149.128 53.2499C150.088 52.3199 151.248 51.8699 152.588 51.8699ZM171.318 51.8699C172.708 51.8699 173.868 52.3299 174.808 53.2499C175.748 54.1699 176.218 55.3399 176.218 56.7699C176.218 58.1999 175.748 59.3599 174.808 60.2599C173.868 61.1599 172.708 61.6099 171.318 61.6099C169.968 61.6099 168.818 61.1599 167.858 60.2599C166.898 59.3599 166.418 58.1999 166.418 56.7699C166.418 55.3399 166.898 54.1699 167.858 53.2499C168.818 52.3199 169.978 51.8699 171.318 51.8699ZM156.568 18.4099V29.7899V30.0399C156.568 31.0799 156.548 32.0899 156.528 33.0799C158.288 32.8599 160.088 32.7599 161.928 32.7599C163.808 32.7599 165.648 32.8699 167.448 33.0999C167.418 32.0299 167.408 30.9299 167.408 29.7899V18.4099H175.308V29.7899V30.0399C175.308 31.7099 175.268 33.3199 175.208 34.8499C175.718 35.0199 176.218 35.1999 176.718 35.3899C181.338 37.1499 185.458 39.5399 189.088 42.5699L185.948 47.3399L185.788 47.2199C182.498 44.8099 178.868 42.9199 174.898 41.5599C174.838 41.5399 174.778 41.5199 174.718 41.4999C174.518 43.5199 174.288 45.5499 174.028 47.5899H168.768L168.698 47.0899C168.358 44.6799 168.088 42.2799 167.868 39.8899C165.948 39.6199 163.978 39.4899 161.948 39.4899C159.958 39.4899 158.028 39.6199 156.158 39.8799C155.928 42.4399 155.648 45.0099 155.308 47.5999H150.048L149.978 47.0999C149.718 45.2199 149.488 43.3499 149.298 41.4799L149.198 41.5099L149.018 41.5699C144.998 42.9499 141.298 44.8799 137.938 47.3399L134.768 42.5599L134.918 42.4299C138.508 39.4599 142.588 37.1099 147.138 35.3799C147.678 35.1699 148.218 34.9799 148.768 34.7999C148.698 33.1999 148.668 31.5199 148.668 29.7799V18.4099H156.568Z" fill="#EC6998"/>
</g>
<path d="M236.916 20.0229C238.15 18.3003 239.296 16.5187 240.686 14.9051C243.214 11.9703 246.077 9.45506 249.355 7.37314C252.296 5.50562 255.397 4.03362 258.715 3.00434C263.882 1.40146 269.157 0.924818 274.529 1.53794C278.456 1.9861 282.24 2.98866 285.843 4.61234C288.025 5.59506 290.076 6.8093 292.087 8.12066C296.14 10.7631 299.386 14.2029 302.1 18.133C304.999 22.3307 306.883 27.0003 307.916 32.009C308.641 35.5263 308.947 39.0763 308.636 42.6496C308.252 47.0554 307.274 51.3034 305.446 55.3863C303.9 58.8395 301.992 62.0104 299.548 64.8744C297.158 67.6762 294.462 70.1274 291.364 72.1482C289.255 73.5242 287.056 74.7523 284.735 75.6642C280.851 77.1901 276.823 78.2219 272.609 78.4026C269.642 78.5298 266.691 78.4799 263.764 77.9605C261.25 77.5144 258.797 76.8632 256.394 75.9611C254.064 75.0859 251.803 74.0491 249.721 72.7383C246.718 70.8483 244.012 68.5547 241.603 65.9122C238.919 62.9677 236.743 59.7029 235.078 56.0971C232.726 51.0035 231.57 45.633 231.501 40.0291C231.475 37.9215 231.717 35.8301 231.998 33.7439C232.018 33.5946 231.997 33.44 231.996 33.2877C232.242 33.1354 232.22 32.8688 232.264 32.6363C232.889 29.3591 233.943 26.2269 235.371 23.2114C235.877 22.1435 236.575 21.1691 236.916 20.0229ZM281.993 40.7221C283.039 40.1663 284.033 39.8477 284.818 39.1461C287.845 36.4423 288.652 30.0784 283.739 27.0128C282.208 26.0578 280.575 25.3499 278.815 24.6277C279.106 22.2707 280.049 20.0651 280.355 17.6512C278.903 17.2914 277.542 16.8138 276.127 16.6603C275.548 18.9287 274.993 21.1034 274.419 23.3543C273.334 23.0221 272.217 23.0536 271.196 22.4786C271.565 20.1762 272.44 18.0191 272.679 15.7083C271.188 15.4741 269.925 14.8933 268.477 14.8307C267.907 17.1042 267.355 19.304 266.783 21.5851C263.912 21.1451 261.276 20.1578 258.38 19.6269C257.743 21.0525 257.462 22.5567 257.206 24.157C258.15 24.3797 258.97 24.5767 259.792 24.7667C261.866 25.2464 262.434 26.3805 261.942 28.1946C261.591 29.485 261.275 30.7848 260.953 32.0827C259.794 36.7483 258.644 41.416 257.478 46.0799C257.215 47.1306 256.56 47.4728 255.494 47.3168C254.444 47.1632 253.453 46.6917 252.295 46.7259C251.794 48.3311 250.795 49.7453 250.441 51.5173C253.199 52.2199 255.867 52.8995 258.656 53.6101C258.447 56.0434 257.438 58.2701 257.14 60.7207C258.539 61.0559 259.855 61.3712 261.227 61.7003C262.132 59.4533 262.34 57.0919 263.183 54.7675C264.2 55.2899 265.327 55.1383 266.321 55.7959C265.779 58.0363 265.239 60.2682 264.693 62.5282C266.131 63.0427 267.533 63.2527 268.974 63.6114C269.557 61.2747 270.121 59.0149 270.667 56.8296C271.006 56.6551 271.255 56.6875 271.49 56.7378C273.748 57.2211 276.032 57.3339 278.318 57.0802C280.297 56.8605 282.053 56.1061 283.461 54.6207C285.028 52.969 285.815 50.9483 286.194 48.7751C286.503 47.0047 286.424 45.2107 285.384 43.6437C284.57 42.4159 283.451 41.4789 281.993 40.7221ZM265.668 49.9472C268.454 50.6392 271.237 51.3792 274.151 50.8471C275.706 50.5632 276.877 49.7703 277.349 48.2066C277.794 46.7317 277.535 45.3917 276.441 44.2259C275.304 43.0138 273.841 42.3837 272.332 41.8568C270.53 41.2274 268.703 40.6555 266.734 40.5C265.979 43.5669 265.247 46.5437 264.498 49.5861C264.975 49.7347 265.317 49.86 265.668 49.9472ZM275.508 37.0954C277.049 36.8765 278.326 35.8573 278.701 34.4725C279.16 32.7792 278.647 31.2941 277.277 30.284C275.722 29.1379 273.932 28.5549 272.082 28.1501C271.393 27.9992 270.715 27.5975 269.881 27.8687C269.218 30.5626 268.552 33.2682 267.865 36.0621C270.498 36.7269 272.923 37.4626 275.508 37.0954Z" fill="#F39321"/>
<g clip-path="url(#clip1_82_1453)">
<path fill-rule="evenodd" clip-rule="evenodd" d="M352.496 12.512C351.28 6 356.256 0 362.88 0C368.72 0 373.44 4.736 373.44 10.56V23.584C374.896 23.488 376.384 23.424 377.888 23.424C379.328 23.424 380.752 23.472 382.16 23.568V10.56C382.16 4.72 386.896 0 392.72 0C399.328 0 404.32 6 403.104 12.512L400.24 27.824C410.064 32.096 417.488 39.536 417.488 48.896V54.56C417.488 62.256 412.4 68.688 405.296 73.024C398.112 77.392 388.416 80 377.888 80C367.344 80 357.664 77.392 350.496 73.024C343.376 68.672 338.288 62.24 338.288 54.544V48.88C338.288 39.584 345.632 32.16 355.36 27.872L352.496 12.512ZM396.576 29.824L399.92 11.904C400.768 7.392 397.296 3.232 392.704 3.232C388.656 3.232 385.376 6.512 385.376 10.56V27.136C384.32 26.992 383.232 26.896 382.144 26.816C380.736 26.72 379.312 26.672 377.872 26.672C376.368 26.672 374.88 26.72 373.424 26.832C372.336 26.912 371.248 27.024 370.192 27.168V10.56C370.192 6.512 366.912 3.232 362.864 3.232C358.272 3.232 354.816 7.392 355.648 11.904L359.008 29.872C348.528 33.776 341.52 40.832 341.52 48.896V54.56C341.52 66.832 357.808 76.784 377.888 76.784C397.968 76.784 414.256 66.832 414.256 54.56V48.896C414.24 40.8 407.168 33.712 396.576 29.824Z" fill="#633001"/>
<path d="M414.24 54.5439C414.24 66.8159 397.952 76.7679 377.872 76.7679C357.792 76.7679 341.504 66.8159 341.504 54.5439V48.8799H414.224V54.5439H414.24Z" fill="#FEDC90"/>
<path fill-rule="evenodd" clip-rule="evenodd" d="M355.664 11.9039C354.816 7.39193 358.288 3.23193 362.88 3.23193C366.928 3.23193 370.208 6.51193 370.208 10.5599V27.1519C372.688 26.8319 375.248 26.6559 377.888 26.6559C380.464 26.6559 382.976 26.8159 385.392 27.1359V10.5599C385.392 6.51193 388.672 3.23193 392.72 3.23193C397.312 3.23193 400.768 7.39193 399.936 11.9039L396.592 29.8239C407.168 33.7119 414.256 40.7999 414.256 48.8799C414.256 61.1519 397.968 71.1039 377.888 71.1039C357.808 71.1039 341.52 61.1519 341.52 48.8799C341.52 40.8319 348.528 33.7759 359.024 29.8719L355.664 11.9039Z" fill="#D1884F"/>
<path d="M367.776 47.2801C367.776 50.6241 365.968 53.3441 363.728 53.3441C361.488 53.3441 359.68 50.6241 359.68 47.2801C359.68 43.9361 361.488 41.2161 363.728 41.2161C365.968 41.2161 367.776 43.9201 367.776 47.2801Z" fill="#633001"/>
<path d="M395.663 47.2801C395.663 50.6241 393.855 53.3441 391.615 53.3441C389.391 53.3441 387.567 50.6241 387.567 47.2801C387.567 43.9361 389.375 41.2161 391.615 41.2161C393.855 41.2161 395.663 43.9201 395.663 47.2801Z" fill="#633001"/>
</g>
<g clip-path="url(#clip2_82_1453)">
<path d="M485.952 80.0321C508.048 80.0321 525.968 62.1121 525.968 40.0161C525.968 17.9201 508.048 0.0161133 485.952 0.0161133C463.856 0.0161133 445.936 17.9201 445.936 40.0321C445.936 62.1281 463.856 80.0321 485.952 80.0321Z" fill="#070A0E"/>
<path fill-rule="evenodd" clip-rule="evenodd" d="M469.056 53.4401C467.856 52.7041 467.12 51.4081 467.12 50.0001V42.1761C467.12 41.8721 467.2 41.5841 467.344 41.3281C467.808 40.5281 468.848 40.2561 469.648 40.7201L487.296 51.0081C488.32 51.6161 488.96 52.7201 488.96 53.9041V62.0001C488.96 62.3681 488.864 62.7361 488.672 63.0561C488.096 64.0001 486.848 64.3041 485.904 63.7281L469.056 53.4401ZM495.36 38.5921C496.384 39.2001 497.024 40.3041 497.024 41.4881V57.9201C497.024 58.4001 496.768 58.8481 496.336 59.0881L492.48 61.2801C492.432 61.3121 492.384 61.3281 492.32 61.3441V52.2241C492.32 51.0401 491.696 49.9521 490.688 49.3441L475.2 40.0801V29.7601C475.2 29.4561 475.28 29.1681 475.424 28.9121C475.888 28.1121 476.928 27.8401 477.728 28.3041L495.36 38.5921ZM503.072 26.4641C504.112 27.0561 504.752 28.1761 504.752 29.3761V53.3761C504.752 53.8721 504.48 54.3201 504.048 54.5601L500.384 56.5441V39.8241C500.384 38.6401 499.76 37.5521 498.752 36.9441L482.912 27.4401V17.6641C482.912 17.3601 482.992 17.0721 483.136 16.8161C483.6 16.0161 484.64 15.7441 485.44 16.2081L503.072 26.4641Z" fill="#00D395"/>
</g>
<g clip-path="url(#clip3_82_1453)">
<path d="M633.297 32.4L620.257 9.776C620.065 9.44 619.777 9.168 619.441 8.96L607.905 2.304C607.569 2.112 607.185 2 606.801 2L580.609 2.08C580.225 2.08 579.841 2.192 579.505 2.384L568.177 8.992C567.841 9.184 567.569 9.456 567.377 9.792L554.257 32.352C554.065 32.688 553.953 33.088 553.953 33.488L554.065 46.88C554.065 47.264 554.177 47.648 554.369 47.968L567.393 70.4C567.585 70.736 567.873 71.024 568.225 71.216L579.601 77.6C579.937 77.792 580.305 77.888 580.673 77.888L606.929 77.984C607.329 77.984 607.713 77.872 608.049 77.68L619.121 71.12C619.441 70.928 619.713 70.672 619.889 70.352L633.265 47.792C633.473 47.456 633.569 47.056 633.569 46.672V33.504C633.601 33.104 633.489 32.736 633.297 32.4ZM607.121 46.08L607.233 41.552L609.409 45.376L609.361 49.904L607.121 46.08ZM604.385 64.88L600.561 58.016L604.865 50.96L608.913 57.856L604.385 64.88ZM577.841 66.272L586.113 66.608L589.985 73.504L581.953 73.472L577.841 66.272ZM558.833 46.848L562.945 39.616L566.785 46.8L562.769 53.632L558.833 46.848ZM570.641 44.624L566.769 37.376L574.545 37.616L578.641 44.496L570.641 44.624ZM581.905 48.848L585.809 51.088L581.409 51.2L577.425 48.928L581.905 48.848ZM582.049 55.616L589.921 55.408L586.161 62.192L577.937 61.856L582.049 55.616ZM595.361 54.704L598.497 52.896L596.385 56.368L593.441 58.176L595.361 54.704ZM593.729 50.544L584.673 45.344L584.513 34.592L593.777 29.44L602.977 34.8L602.721 45.344L593.729 50.544ZM601.425 17.728L609.761 18.224L605.601 24.592L597.569 24.656L601.425 17.728ZM592.161 25.28L588.369 27.392L590.545 23.728L594.257 21.536L592.161 25.28ZM605.777 31.328L601.841 29.04L606.209 29.008L610.097 31.232L605.777 31.328ZM617.297 30.24L609.937 26.032L614.449 19.12L621.633 22.832L617.297 30.24ZM609.745 13.792L601.489 13.312L597.569 6.464L605.537 6.448L609.745 13.792ZM597.169 14.656L589.825 19.008L585.985 11.536L592.977 7.312L597.169 14.656ZM582.881 15.168L586.417 22.032L582.273 28.992L578.321 22.4L582.881 15.168ZM580.065 33.936L580.129 38.384L578.017 34.832L577.985 30.464L580.065 33.936ZM573.537 24.56L573.601 33.168L565.169 32.896L564.961 24.48L573.537 24.56ZM570.129 49.856L577.713 54.176L573.217 61.008L565.857 57.12L570.129 49.856ZM594.577 72.624L590.417 65.216L597.185 61.04L601.297 68.4L594.577 72.624ZM612.945 42.656L608.961 35.68L616.737 35.488L620.529 43.024L612.945 42.656ZM613.809 47.12L622.081 47.52L622.385 55.728L613.713 55.712L613.809 47.12ZM624.385 40.848L620.593 33.328L624.689 26.352L628.801 33.488L624.385 40.848ZM619.041 16.528L615.297 14.592L612.801 10.24L616.721 12.512L619.041 16.528ZM581.217 6.496L585.809 6.48L582.449 8.512L577.649 8.576L581.217 6.496ZM570.577 13.104L579.025 12.992L574.513 20.16L566.513 20.096L570.577 13.104ZM560.673 30.128L560.785 34.496L558.433 38.64L558.401 34.064L560.673 30.128ZM568.529 63.552L572.353 65.568L574.801 69.856L570.929 67.68L568.529 63.552ZM606.337 73.568L601.425 73.552L604.865 71.392L609.969 71.408L606.337 73.568ZM616.753 67.008L608.289 66.976L612.705 60.128L620.817 60.144L616.753 67.008ZM626.625 50.368L626.465 45.984L629.185 41.456V46.048L626.625 50.368Z" fill="black"/>
</g>
<defs>
<clipPath id="clip0_82_1453">
<rect width="80" height="80" fill="white" transform="translate(121.968)"/>
</clipPath>
<clipPath id="clip1_82_1453">
<rect width="80" height="80" fill="white" transform="translate(337.968)"/>
</clipPath>
<clipPath id="clip2_82_1453">
<rect width="80" height="80" fill="white" transform="translate(445.968)"/>
</clipPath>
<clipPath id="clip3_82_1453">
<rect width="80" height="80" fill="white" transform="translate(553.969)"/>
</clipPath>
</defs>
</svg>
