<svg width="756" height="80" viewBox="0 0 756 80" fill="none" xmlns="http://www.w3.org/2000/svg">
<g clip-path="url(#clip0_82_1406)">
<path d="M54 79.3599C76.0914 79.3599 94 61.7378 94 39.9999C94 18.262 76.0914 0.639893 54 0.639893C31.9086 0.639893 14 18.262 14 39.9999C14 61.7378 31.9086 79.3599 54 79.3599Z" fill="url(#paint0_linear_82_1406)"/>
<path d="M62.6879 43.632L85.7439 39.84L62.6879 36.048L76.3039 17.056L57.3119 30.672L53.5199 7.61597L49.7279 30.672L30.7359 17.056L44.3519 36.048L21.2959 39.84L44.3519 43.632L30.7359 62.624L49.7279 49.008L53.5199 72.064L57.3119 49.008L76.3039 62.624L62.6879 43.632Z" fill="white"/>
</g>
<g clip-path="url(#clip1_82_1406)">
<path d="M162 0C184.08 0 202 17.904 202 40C202 62.096 184.08 80 162 80C139.92 80 122 62.08 122 40C122 17.92 139.904 0 162 0Z" fill="black"/>
<path fill-rule="evenodd" clip-rule="evenodd" d="M140.496 36.176H177.52C177.984 36.176 178.416 36.352 178.736 36.688L184.592 42.576C185.68 43.664 184.912 45.52 183.376 45.52H146.352C145.888 45.52 145.456 45.344 145.136 45.008L139.28 39.12C138.192 38.048 138.96 36.176 140.496 36.176ZM139.264 28.368L145.12 22.48C145.456 22.144 145.888 21.968 146.336 21.968H183.344C184.88 21.968 185.664 23.824 184.56 24.912L178.72 30.8C178.4 31.136 177.952 31.312 177.504 31.312H140.496C138.96 31.312 138.192 29.456 139.264 28.368ZM184.576 53.36L178.72 59.264C178.4 59.584 177.952 59.776 177.504 59.776H140.496C138.96 59.776 138.192 57.92 139.264 56.832L145.12 50.928C145.456 50.608 145.888 50.416 146.336 50.416H183.344C184.896 50.4 185.68 52.256 184.576 53.36Z" fill="url(#paint1_linear_82_1406)"/>
</g>
<g clip-path="url(#clip2_82_1406)">
<path d="M309.6 39.952C309.6 61.856 291.856 79.6 269.952 79.6C248.048 79.6 230.304 61.84 230.304 39.952C230.304 18.064 248.048 0.303955 269.952 0.303955C291.856 0.303955 309.6 18.048 309.6 39.952Z" fill="#29296E"/>
<path d="M288.4 29.3439L287.392 26.2239C287.184 25.5839 286.688 25.1039 286.048 24.8959L282.912 23.9359C282.48 23.8079 282.48 23.1999 282.912 23.0559L286.032 22.0479C286.672 21.8399 287.152 21.3439 287.36 20.7039L288.32 17.5679C288.448 17.1359 289.056 17.1359 289.2 17.5679L290.208 20.6879C290.416 21.3279 290.912 21.8079 291.552 22.0159L294.688 22.9759C295.12 23.1039 295.12 23.7119 294.688 23.8559L291.568 24.8639C290.928 25.0719 290.448 25.5679 290.24 26.2079L289.28 29.3439C289.152 29.7759 288.544 29.7759 288.4 29.3439Z" fill="#FAFAFA"/>
<path d="M233.904 39.328C234.848 37.488 236.704 36.096 238.64 35.216C240.592 34.352 242.752 33.808 244.864 33.632C249.136 33.248 253.28 33.952 257.072 35.2C259.024 35.776 260.768 36.592 262.576 37.408C263.456 37.824 264.272 38.304 265.12 38.768L267.456 40.128C270.032 41.712 272.528 43.104 274.864 44.192C277.216 45.264 279.328 46 281.328 46.368C283.328 46.736 285.36 46.736 287.856 46.16C290.336 45.6 293.12 44.384 296.048 42.832C298.976 41.28 301.984 39.376 305.424 37.52C305.072 41.408 303.984 45.056 302.256 48.576C300.496 52.048 298.048 55.456 294.48 58.192C290.976 60.96 286.16 62.896 281.264 63.184C276.368 63.52 271.696 62.432 267.728 60.816C263.744 59.168 260.304 57.008 257.264 54.608C256.416 53.952 255.968 53.568 255.344 53.04L253.6 51.52C252.432 50.608 251.296 49.504 250.144 48.608C247.84 46.672 245.552 44.736 243.04 43.072C241.776 42.224 240.48 41.424 238.992 40.736C238.256 40.4 237.472 40.08 236.64 39.84C235.808 39.52 234.928 39.36 233.904 39.328Z" fill="#FF4F0A"/>
<path d="M233.904 39.3281C234.384 35.3281 236.256 31.5681 239.248 28.3841C242.224 25.2161 246.864 22.7841 252.032 22.4641C254.576 22.2881 257.152 22.5761 259.536 23.2321C261.904 23.8881 264.112 24.8481 266.112 25.9681C267.104 26.5281 268.048 27.1521 268.976 27.7761L271.456 29.6481L275.328 32.7041C277.84 34.7041 280.24 36.5441 282.448 38.0801C284.688 39.6161 286.592 40.7201 288.4 41.3761C290.208 42.0961 292.48 42.2721 295.488 41.5201C296.976 41.1681 298.544 40.5441 300.208 39.8721C301.856 39.1681 303.584 38.3361 305.456 37.5201C305.232 39.5361 304.816 41.5361 304.048 43.4081C303.296 45.3121 302.32 47.1681 300.944 48.8961C300.24 49.7441 299.488 50.5921 298.608 51.3761C297.728 52.1441 296.752 52.8641 295.68 53.5041C293.536 54.7521 290.992 55.6481 288.384 55.9841C285.776 56.3041 283.152 56.1441 280.768 55.6481C278.368 55.1521 276.192 54.3681 274.176 53.4401C270.176 51.5841 266.832 49.2481 263.872 46.7681C262.384 45.5361 260.992 44.2401 259.68 42.9281L258.128 41.3601C257.664 40.9121 257.184 40.4481 256.72 40.0321C254.8 38.3361 253.04 37.0561 251.12 36.2561C249.2 35.4241 246.736 35.0721 243.728 35.6481C240.72 36.1921 237.424 37.5041 233.904 39.3281Z" fill="#FAFAFA"/>
<path d="M249.76 59.9521C249.76 61.1361 248.8 62.0961 247.616 62.0961C246.432 62.0961 245.472 61.1361 245.472 59.9521C245.472 58.7681 246.432 57.8081 247.616 57.8081C248.8 57.8081 249.76 58.7681 249.76 59.9521Z" fill="#FAFAFA"/>
<path d="M249.76 59.9521C249.76 61.1361 248.8 62.0961 247.616 62.0961C246.432 62.0961 245.472 61.1361 245.472 59.9521C245.472 58.7681 246.432 57.8081 247.616 57.8081C248.8 57.8081 249.76 58.7681 249.76 59.9521Z" fill="#FAFAFA"/>
</g>
<path d="M395.6 15.5201C379.168 3.71206 361.424 0.304063 355.968 7.88806C352.848 12.2401 343.648 25.0241 340.528 29.3761C335.088 36.9601 343.984 52.6881 360.416 64.4961C376.848 76.3041 394.592 79.7281 400.048 72.1441C403.168 67.7921 412.368 55.0081 415.488 50.6561C420.944 43.0561 412.032 27.3281 395.6 15.5201Z" fill="white"/>
<path d="M414.368 39.6161C406.08 37.0401 404.592 43.2801 401.616 47.0081C398.528 50.8961 397.328 53.2961 393.44 56.8801C389.552 60.4641 384.672 58.3841 382.576 56.8801C380.48 55.3761 379.536 53.5841 375.04 48.1121C370.56 42.6241 365.664 47.1201 363.376 49.1041C361.088 51.1041 357.84 54.2881 355.552 55.5841C354.608 56.1121 353.648 56.3361 352.864 56.4001C342.592 46.4481 337.6 35.4401 341.776 29.6161C344.752 25.4721 353.52 13.2801 356.496 9.13609C361.696 1.90409 379.104 5.40809 394.784 16.6721C404.624 23.7281 411.728 32.3681 414.368 39.6161Z" fill="url(#paint2_linear_82_1406)"/>
<path d="M414 50.3999C411.024 54.5439 402.256 66.7519 399.28 70.8959C394.08 78.1279 376.912 74.6239 361.248 63.3599C358.192 61.1519 355.376 58.7999 352.88 56.3839C353.664 56.3199 354.608 56.1119 355.568 55.5679C357.856 54.2719 361.104 51.0879 363.392 49.0879C365.68 47.0879 370.576 42.6079 375.056 48.0959C379.536 53.5839 380.496 55.3759 382.592 56.8639C384.688 58.3679 389.568 60.4479 393.456 56.8639C397.344 53.2799 398.544 50.8799 401.632 46.9919C404.592 43.2639 406.096 37.0239 414.384 39.5999C415.936 43.9039 415.936 47.7119 414 50.3999Z" fill="black"/>
<path d="M397.456 53.6161C396.688 53.4401 395.888 53.2481 395.088 53.0081" stroke="white" stroke-width="6.2261" stroke-miterlimit="10" stroke-linecap="round"/>
<path d="M406.992 54.0319C404.784 54.4799 402.144 54.4479 399.2 53.9519" stroke="white" stroke-width="6.2261" stroke-miterlimit="10" stroke-linecap="round"/>
<path d="M355.184 17.5041C355.104 17.0081 355.056 16.5281 355.024 16.0481" stroke="white" stroke-width="6.2261" stroke-miterlimit="10" stroke-linecap="round"/>
<path d="M366.64 35.7601C360.88 30.0961 356.944 24.1921 355.568 19.2161" stroke="white" stroke-width="6.2261" stroke-miterlimit="10" stroke-linecap="round"/>
<path d="M393.376 18.576C378.512 7.984 362.896 4.416 358.496 10.592C354.096 16.768 362.56 30.368 377.424 40.96C392.288 51.552 407.904 55.12 412.304 48.944C416.72 42.768 408.24 29.168 393.376 18.576ZM398.768 39.296C396.688 42.208 389.024 40.304 381.632 35.024C374.24 29.76 369.936 23.136 372.016 20.224C374.096 17.312 381.76 19.216 389.152 24.496C396.544 29.76 400.848 36.4 398.768 39.296Z" fill="white"/>
<g clip-path="url(#clip3_82_1406)">
<path d="M486 79.8399C508 79.8399 525.84 61.9999 525.84 39.9999C525.84 17.9999 508 0.159912 486 0.159912C464 0.159912 446.16 17.9999 446.16 39.9999C446.16 61.9999 464 79.8399 486 79.8399Z" fill="#0088CC"/>
<path fill-rule="evenodd" clip-rule="evenodd" d="M474.912 26.48H497.264C498.048 26.48 498.848 26.592 499.664 26.976C500.656 27.44 501.184 28.16 501.552 28.704C501.584 28.752 501.6 28.784 501.632 28.832C502.064 29.6 502.288 30.432 502.288 31.328C502.288 32.176 502.08 33.104 501.632 33.904L501.616 33.92L487.504 58.176C487.2 58.704 486.624 59.04 486 59.04C485.376 59.04 484.816 58.704 484.496 58.176L470.64 33.968C470.64 33.968 470.64 33.952 470.624 33.952C470.304 33.424 469.824 32.624 469.728 31.584C469.648 30.624 469.872 29.664 470.352 28.832C470.832 28 471.552 27.328 472.432 26.928C473.376 26.48 474.32 26.48 474.912 26.48ZM484.272 29.952H474.912C474.304 29.952 474.064 29.984 473.904 30.064C473.68 30.176 473.488 30.352 473.36 30.56C473.232 30.784 473.168 31.04 473.2 31.296C473.216 31.44 473.28 31.616 473.632 32.192C473.632 32.208 473.648 32.224 473.648 32.224L484.288 50.8V29.952H484.272ZM487.728 29.952V50.896L498.608 32.208C498.736 31.984 498.816 31.664 498.816 31.328C498.816 31.056 498.768 30.832 498.64 30.592C498.512 30.4 498.432 30.304 498.368 30.24C498.304 30.176 498.272 30.144 498.208 30.128C497.952 30.016 497.68 29.952 497.264 29.952H487.728Z" fill="white"/>
</g>
<g clip-path="url(#clip4_82_1406)">
<path d="M586.512 18.2079C585.648 18.0799 585.6 18.0479 586.016 17.9999C586.8 17.8719 588.624 18.0479 589.904 18.3359C592.88 19.0399 595.552 20.8479 598.4 24.0319L599.136 24.8959L600.208 24.7359C604.784 23.9999 609.488 24.5759 613.424 26.3839C614.496 26.8799 616.192 27.8719 616.4 28.1119C616.48 28.1919 616.608 28.7359 616.688 29.2639C616.976 31.1999 616.848 32.6559 616.24 33.7599C615.904 34.3839 615.904 34.5439 616.112 35.0879C616.272 35.5039 616.768 35.7919 617.232 35.7919C618.224 35.7919 619.248 34.2239 619.744 32.0319L619.952 31.1679L620.32 31.5839C622.432 33.9359 624.08 37.1999 624.32 39.5039L624.4 40.1279L624.032 39.5839C623.408 38.6399 622.832 38.0159 622.048 37.4719C620.64 36.5279 619.152 36.2399 615.232 36.0319C611.68 35.8239 609.664 35.5359 607.68 34.8799C604.288 33.7599 602.56 32.3199 598.56 26.9919C596.784 24.6399 595.664 23.3599 594.56 22.2879C592.128 19.9359 589.68 18.7039 586.512 18.2079Z" fill="#FF007A"/>
<path d="M617.264 23.4401C617.344 21.8721 617.552 20.8321 618 19.8881C618.16 19.5201 618.336 19.1841 618.368 19.1841C618.416 19.1841 618.32 19.4721 618.208 19.8081C617.872 20.7201 617.84 22.0001 618.048 23.4401C618.336 25.2961 618.464 25.5521 620.448 27.5681C621.36 28.5121 622.432 29.7121 622.848 30.2081L623.552 31.1201L622.848 30.4641C621.984 29.6321 620 28.0641 619.552 27.8561C619.264 27.6961 619.216 27.6961 619.008 27.9041C618.848 28.0641 618.8 28.3201 618.8 29.5201C618.752 31.3761 618.512 32.5281 617.888 33.7281C617.552 34.3521 617.52 34.2241 617.808 33.5201C618.016 32.9761 618.048 32.7361 618.048 30.9601C618.048 27.3761 617.632 26.4961 615.12 25.0561C614.496 24.6881 613.424 24.1441 612.816 23.8561C612.16 23.5681 611.664 23.3121 611.696 23.3121C611.776 23.2321 614.208 23.9361 615.168 24.3361C616.608 24.9121 616.864 24.9601 617.024 24.9121C617.136 24.8161 617.216 24.4801 617.264 23.4401Z" fill="#FF007A"/>
<path d="M588.208 29.6C586.48 27.2 585.36 23.488 585.6 20.72L585.68 19.856L586.096 19.936C586.832 20.064 588.112 20.56 588.736 20.928C590.384 21.92 591.136 23.28 591.824 26.672C592.032 27.664 592.32 28.816 592.448 29.184C592.656 29.808 593.44 31.248 594.096 32.16C594.544 32.816 594.256 33.152 593.232 33.072C591.664 32.896 589.568 31.456 588.208 29.6Z" fill="#FF007A"/>
<path d="M615.152 47.5519C606.976 44.2559 604.096 41.4079 604.096 36.5759C604.096 35.8719 604.144 35.2959 604.144 35.2959C604.192 35.2959 604.48 35.5359 604.848 35.8399C606.496 37.1679 608.352 37.7439 613.52 38.4799C616.528 38.9279 618.272 39.2639 619.84 39.8079C624.832 41.4559 627.936 44.8479 628.672 49.4239C628.88 50.7519 628.752 53.2639 628.432 54.5759C628.144 55.5999 627.312 57.5039 627.104 57.5519C627.056 57.5519 626.976 57.3439 626.976 57.0079C626.896 55.2799 626.032 53.6159 624.576 52.3359C622.832 50.8639 620.608 49.7439 615.152 47.5519Z" fill="#FF007A"/>
<path d="M609.376 48.9121C609.296 48.2881 609.088 47.5041 608.96 47.1841L608.752 46.5601L609.12 47.0081C609.664 47.6321 610.064 48.3681 610.448 49.4081C610.736 50.1921 610.736 50.4321 610.736 51.7121C610.736 52.9441 610.688 53.2321 610.448 53.9361C610.032 55.0561 609.536 55.8401 608.72 56.7041C607.232 58.2241 605.296 59.0561 602.528 59.4241C602.032 59.4721 600.624 59.5841 599.392 59.6641C596.304 59.8241 594.24 60.1601 592.368 60.8161C592.128 60.8961 591.872 60.9761 591.824 60.9441C591.744 60.8641 593.024 60.1121 594.048 59.6161C595.488 58.9121 596.976 58.5441 600.24 57.9681C601.856 57.7281 603.504 57.3921 603.92 57.2321C608.016 55.9681 610.032 52.8001 609.376 48.9121Z" fill="#FF007A"/>
<path d="M613.136 55.5681C612.064 53.2161 611.808 50.9921 612.4 48.8801C612.48 48.6721 612.56 48.4641 612.64 48.4641C612.72 48.4641 612.976 48.5921 613.216 48.7521C613.712 49.0881 614.736 49.6641 617.392 51.1041C620.736 52.9281 622.64 54.3201 623.952 55.9361C625.104 57.3441 625.808 58.9441 626.144 60.9281C626.352 62.0481 626.224 64.7201 625.936 65.8401C625.024 69.3441 622.96 72.1601 619.952 73.7601C619.504 74.0001 619.12 74.1761 619.088 74.1761C619.056 74.1761 619.216 73.7601 619.456 73.2641C620.448 71.1521 620.576 69.1361 619.824 66.8641C619.376 65.4561 618.416 63.7761 616.528 60.9121C614.24 57.6321 613.712 56.7521 613.136 55.5681Z" fill="#FF007A"/>
<path d="M582.384 68.192C585.44 65.632 589.2 63.824 592.656 63.232C594.144 62.992 596.624 63.072 597.984 63.44C600.176 64.016 602.16 65.2639 603.184 66.7839C604.176 68.2719 604.624 69.552 605.088 72.4C605.248 73.52 605.456 74.672 605.504 74.912C605.84 76.4 606.496 77.552 607.328 78.176C608.608 79.12 610.832 79.168 613.024 78.336C613.392 78.208 613.728 78.0959 613.728 78.1279C613.808 78.2079 612.704 78.9599 611.952 79.3279C610.928 79.8719 610.096 80.032 608.976 80.032C606.992 80.032 605.296 79.0079 603.936 76.9439C603.648 76.5279 603.072 75.3279 602.576 74.2239C601.136 70.8799 600.384 69.8879 598.688 68.7679C597.2 67.8239 595.296 67.616 593.856 68.32C591.952 69.232 591.456 71.664 592.784 73.152C593.328 73.776 594.304 74.2719 595.136 74.3839C596.656 74.5919 597.984 73.392 597.984 71.872C597.984 70.88 597.616 70.304 596.624 69.856C595.296 69.28 593.856 69.936 593.904 71.216C593.904 71.76 594.144 72.08 594.688 72.336C595.024 72.496 595.024 72.4959 594.768 72.4639C593.568 72.2239 593.28 70.736 594.224 69.776C595.376 68.624 597.808 69.12 598.64 70.72C598.976 71.376 599.008 72.7039 598.72 73.5199C598.016 75.3439 596.032 76.2879 594.016 75.7439C592.656 75.3759 592.08 75.008 590.432 73.312C587.536 70.336 586.432 69.76 582.304 69.136L581.52 69.0079L582.384 68.192Z" fill="#FF007A"/>
<path fill-rule="evenodd" clip-rule="evenodd" d="M560.672 1.776C570.288 13.456 585.104 31.616 585.856 32.608C586.48 33.44 586.224 34.224 585.2 34.8C584.624 35.136 583.424 35.456 582.848 35.456C582.192 35.456 581.408 35.12 580.864 34.592C580.496 34.224 578.88 31.872 575.248 26.208C572.48 21.872 570.128 18.288 570.096 18.24C569.936 18.16 569.936 18.16 574.96 27.152C578.144 32.8 579.168 34.832 579.168 35.072C579.168 35.616 579.008 35.904 578.336 36.64C577.216 37.872 576.72 39.28 576.352 42.208C575.936 45.472 574.832 47.776 571.648 51.696C569.792 54 569.504 54.416 569.04 55.376C568.464 56.528 568.304 57.2 568.208 58.672C568.128 60.24 568.288 61.232 568.752 62.72C569.168 64.048 569.616 64.912 570.736 66.608C571.68 68.096 572.256 69.216 572.256 69.616C572.256 69.952 572.336 69.952 573.824 69.616C577.376 68.784 580.304 67.392 581.92 65.648C582.912 64.576 583.152 64 583.152 62.512C583.152 61.568 583.104 61.36 582.864 60.784C582.448 59.872 581.664 59.136 579.968 57.984C577.744 56.464 576.784 55.216 576.544 53.568C576.336 52.16 576.592 51.216 577.824 48.608C579.104 45.92 579.44 44.816 579.648 42.08C579.776 40.352 579.984 39.648 580.48 39.104C581.024 38.528 581.472 38.32 582.752 38.16C584.864 37.872 586.224 37.328 587.296 36.304C588.24 35.44 588.656 34.576 588.704 33.296L588.752 32.352L588.208 31.776C586.256 29.552 559.392 0 559.264 0C559.216 0 559.888 0.784 560.672 1.776ZM573.344 60.48C573.792 59.696 573.552 58.704 572.8 58.208C572.096 57.76 571.024 57.968 571.024 58.576C571.024 58.736 571.104 58.912 571.36 58.992C571.728 59.2 571.776 59.408 571.488 59.856C571.2 60.304 571.2 60.72 571.568 61.008C572.144 61.472 572.928 61.216 573.344 60.48Z" fill="#FF007A"/>
<path fill-rule="evenodd" clip-rule="evenodd" d="M590.064 38.768C589.072 39.056 588.128 40.128 587.84 41.2C587.68 41.856 587.76 43.056 588.048 43.424C588.496 44 588.912 44.16 590.064 44.16C592.336 44.16 594.272 43.168 594.48 41.968C594.688 40.976 593.824 39.616 592.624 38.992C592 38.672 590.72 38.56 590.064 38.768ZM592.704 40.832C593.04 40.336 592.912 39.808 592.288 39.424C591.168 38.72 589.488 39.296 589.488 40.368C589.488 40.912 590.352 41.488 591.184 41.488C591.712 41.488 592.448 41.152 592.704 40.832Z" fill="#FF007A"/>
</g>
<g clip-path="url(#clip5_82_1406)">
<path fill-rule="evenodd" clip-rule="evenodd" d="M699.856 18.688C703.216 20.416 706.896 21.008 710.416 20.992C712.464 22.864 714.16 25.072 715.76 27.344C716.416 28.288 717.024 29.28 717.552 30.304C718.768 32.656 719.68 35.152 720.576 37.664C720.848 38.4 721.104 39.152 721.392 39.888C721.472 40.208 721.568 40.528 721.664 40.848C723.072 45.664 725.12 50.816 727.872 55.056C728.784 56.448 729.792 57.776 730.912 59.008C731.136 59.248 731.36 59.488 731.584 59.712C732.64 60.816 733.696 61.92 734.304 63.312C735.056 65.04 734.992 67.04 734.544 68.864C732.416 77.504 724.096 79.776 716.16 79.984V79.968C713.184 80.032 710.224 79.808 707.6 79.536C707.6 79.536 694.944 78.224 684.208 70.384L683.856 70.128C682.608 69.2 681.408 68.192 680.272 67.104C677.264 64.24 674.592 60.976 672.544 57.408C672.56 57.392 672.576 57.376 672.592 57.36C672.352 56.928 672.112 56.48 671.888 56.032C669.904 52.064 668.704 47.76 668.64 43.168C668.544 35.472 671.184 27.6 676.176 21.888V21.872C678.88 18.912 682.272 16.576 686.272 15.248C688.784 14.416 691.424 14 694.064 14.064C695.696 15.984 697.648 17.536 699.856 18.688Z" fill="url(#paint3_linear_82_1406)"/>
<path fill-rule="evenodd" clip-rule="evenodd" d="M726.128 12.4319L726.24 12.3679C712.128 -11.7121 693.68 7.23189 693.68 7.23189L693.712 7.27989C704.304 25.8879 724.48 13.4879 726.128 12.4319Z" fill="url(#paint4_linear_82_1406)"/>
<path d="M708.64 53.9039C704.752 63.1999 697.28 69.3599 688.24 70.2879C688.048 70.3199 685.568 70.5119 684.208 70.4159C694.944 78.2559 707.6 79.5679 707.6 79.5679C710.304 79.8399 713.376 80.0799 716.464 79.9999C717.552 77.1679 718.16 73.9359 717.984 70.2559C717.584 61.7119 722.528 57.3279 727.888 55.0879C725.136 50.8319 723.088 45.6959 721.68 40.8799C717.472 41.9519 712.16 45.4559 708.64 53.9039Z" fill="url(#paint5_linear_82_1406)"/>
<path d="M717.792 70.176C717.968 73.856 717.232 77.168 716.144 80C724.096 79.792 732.416 77.52 734.528 68.88C734.976 67.04 735.04 65.056 734.288 63.328C733.552 61.648 732.144 60.368 730.896 59.008C729.728 57.712 728.672 56.336 727.728 54.864C722.384 57.12 717.376 61.632 717.792 70.176Z" fill="url(#paint6_linear_82_1406)"/>
<path d="M721.392 39.888C720.176 36.624 719.136 33.344 717.552 30.304C717.024 29.28 716.432 28.288 715.76 27.344C714.16 25.072 712.464 22.88 710.416 20.992C706.896 21.008 703.216 20.416 699.856 18.688C696.448 23.52 692.56 31.712 696.128 41.056C701.392 54.864 690.704 64.304 683.856 70.144L684.208 70.4C685.488 70.496 686.784 70.48 688.064 70.352C697.104 69.424 705.008 63.12 708.896 53.824C712.416 45.392 717.552 42.192 721.728 41.072C721.6 40.672 721.488 40.288 721.392 39.888Z" fill="url(#paint7_linear_82_1406)"/>
<path d="M676.544 21.5039C671.296 27.2479 668.544 35.3119 668.64 43.1999C668.688 47.7919 669.904 52.0959 671.888 56.0639C672.192 56.6559 672.496 57.2479 672.832 57.8239C683.84 46.7679 679.856 30.2879 676.544 21.5039Z" fill="url(#paint8_linear_82_1406)"/>
<path d="M696.304 41.056C692.736 31.696 696.544 23.568 699.952 18.736C697.712 17.584 695.712 16 694.08 14.08C691.424 14.032 688.8 14.432 686.288 15.264C682.288 16.592 678.896 18.928 676.192 21.888C679.44 30.464 683.328 46.592 672.56 57.408C674.608 60.976 677.28 64.24 680.288 67.104C681.472 68.24 682.736 69.296 684.048 70.256C690.88 64.448 701.568 54.864 696.304 41.056Z" fill="url(#paint9_linear_82_1406)"/>
<path d="M709.6 8.76791C717.056 11.7119 722.288 12.5119 726.08 12.3999L726.192 12.3359C712.064 -11.7441 693.616 7.19991 693.616 7.19991L693.648 7.24791C697.616 6.54391 703.408 6.33591 709.6 8.76791Z" fill="url(#paint10_linear_82_1406)"/>
<path d="M709.696 8.60793C703.504 6.17593 697.696 6.25593 693.648 7.26393C704.256 25.8719 724.432 13.4719 726.08 12.4159C722.288 12.5119 717.152 11.5519 709.696 8.60793Z" fill="url(#paint11_linear_82_1406)"/>
</g>
<defs>
<linearGradient id="paint0_linear_82_1406" x1="54" y1="0.957301" x2="54" y2="79.0481" gradientUnits="userSpaceOnUse">
<stop offset="0.1028" stop-color="#00FFAA"/>
<stop offset="0.999" stop-color="#5F00FA"/>
</linearGradient>
<linearGradient id="paint1_linear_82_1406" x1="141.402" y1="61.3864" x2="182.455" y2="20.3336" gradientUnits="userSpaceOnUse">
<stop stop-color="#CB4EE8"/>
<stop offset="1" stop-color="#10F4B1"/>
</linearGradient>
<linearGradient id="paint2_linear_82_1406" x1="385.262" y1="59.6094" x2="365.641" y2="7.18693" gradientUnits="userSpaceOnUse">
<stop offset="0.244" stop-color="#FC51A1"/>
<stop offset="1" stop-color="#1AB0ED"/>
</linearGradient>
<linearGradient id="paint3_linear_82_1406" x1="661.132" y1="24.1291" x2="747.437" y2="75.8473" gradientUnits="userSpaceOnUse">
<stop stop-color="#E54033"/>
<stop offset="0.4896" stop-color="#FECA1A"/>
<stop offset="1" stop-color="#AFD803"/>
</linearGradient>
<linearGradient id="paint4_linear_82_1406" x1="13988.8" y1="13668.8" x2="8585.86" y2="8111.09" gradientUnits="userSpaceOnUse">
<stop offset="0.15" stop-color="#6CBF00"/>
<stop offset="1" stop-color="#AFD803"/>
</linearGradient>
<linearGradient id="paint5_linear_82_1406" x1="675.285" y1="71.056" x2="729.365" y2="57.9065" gradientUnits="userSpaceOnUse">
<stop offset="0.21" stop-color="#E54033"/>
<stop offset="0.84" stop-color="#FECA1A"/>
</linearGradient>
<linearGradient id="paint6_linear_82_1406" x1="717.891" y1="67.4068" x2="734.578" y2="67.5318" gradientUnits="userSpaceOnUse">
<stop stop-color="#FECA1A"/>
<stop offset="0.4" stop-color="#FECA1A"/>
<stop offset="1" stop-color="#AFD803"/>
</linearGradient>
<linearGradient id="paint7_linear_82_1406" x1="680.122" y1="71.393" x2="714.334" y2="25.0763" gradientUnits="userSpaceOnUse">
<stop offset="0.16" stop-color="#E54033"/>
<stop offset="0.84" stop-color="#FECA1A"/>
</linearGradient>
<linearGradient id="paint8_linear_82_1406" x1="675.138" y1="25.3702" x2="673.623" y2="55.2863" gradientUnits="userSpaceOnUse">
<stop stop-color="#FECA1A"/>
<stop offset="0.76" stop-color="#E54033"/>
</linearGradient>
<linearGradient id="paint9_linear_82_1406" x1="691.874" y1="17.602" x2="682.737" y2="52.2972" gradientUnits="userSpaceOnUse">
<stop offset="0.16" stop-color="#FECA1A"/>
<stop offset="1" stop-color="#E54033"/>
</linearGradient>
<linearGradient id="paint10_linear_82_1406" x1="695.414" y1="0.989858" x2="729.244" y2="13.4597" gradientUnits="userSpaceOnUse">
<stop offset="0.15" stop-color="#6CBF00"/>
<stop offset="1" stop-color="#AFD803"/>
</linearGradient>
<linearGradient id="paint11_linear_82_1406" x1="13988.3" y1="13669.2" x2="8585.35" y2="8111.46" gradientUnits="userSpaceOnUse">
<stop offset="0.15" stop-color="#6CBF00"/>
<stop offset="1" stop-color="#AFD803"/>
</linearGradient>
<clipPath id="clip0_82_1406">
<rect width="80" height="80" fill="white" transform="translate(14)"/>
</clipPath>
<clipPath id="clip1_82_1406">
<rect width="80" height="80" fill="white" transform="translate(122)"/>
</clipPath>
<clipPath id="clip2_82_1406">
<rect width="80" height="80" fill="white" transform="translate(230)"/>
</clipPath>
<clipPath id="clip3_82_1406">
<rect width="80" height="80" fill="white" transform="translate(446)"/>
</clipPath>
<clipPath id="clip4_82_1406">
<rect width="80" height="80" fill="white" transform="translate(554)"/>
</clipPath>
<clipPath id="clip5_82_1406">
<rect width="80" height="80" fill="white" transform="translate(662)"/>
</clipPath>
</defs>
</svg>
