<?xml version="1.0" encoding="utf-8"?>
<!-- Generator: Adobe Illustrator 24.1.3, SVG Export Plug-In . SVG Version: 6.00 Build 0)  -->
<svg version="1.1" id="Layer_1" xmlns="http://www.w3.org/2000/svg" xmlns:xlink="http://www.w3.org/1999/xlink" x="0px" y="0px"
	 viewBox="0 0 500 500" style="enable-background:new 0 0 500 500;" xml:space="preserve">
<path d="M381.4,94c21.1-20.9,48.9-32.5,78.4-32.6c12.9,0,24-10,24.8-22.9c0.9-14.2-10.4-26-24.4-26c-42.6,0-82.9,16.6-113.3,46.8
	c-30.3,30-47.4,70-48.4,112.7l0,58.1l0,0v90c0,64.5-51.5,118-116,118.6c-65.1,0.6-118.3-52.2-118.3-117.1
	c0-64.5,52.4-117,116.8-117.2c12.9,0,24-10.1,24.8-23c0.9-14.2-10.4-26-24.4-26c-93.8,0-169.7,78.1-166,172.7
	c3.3,86.2,73.2,156.1,159.4,159.4c94.6,3.7,172.7-72.2,172.7-166v0c0-22.8,18.5-41.2,41.2-41.2h50.3c13.2,0,24.5-10.1,25.2-23.3
	c0.7-14.1-10.5-25.7-24.5-25.7h-92.3v-58.5C348.3,142.9,360.3,115,381.4,94z"/>
</svg>
