<svg width="648" height="80" viewBox="0 0 648 80" fill="none" xmlns="http://www.w3.org/2000/svg">
<g clip-path="url(#clip0_82_1320)">
<path d="M84.7362 50.544L82.5282 46.752L55.7282 0.96L55.5362 0.656C55.5362 0.656 55.3762 0.496 55.2962 0.416C55.2162 0.368 55.1362 0.304 55.0562 0.256C55.0562 0.256 54.8642 0.176 54.7522 0.112C54.6402 0.08 54.5602 0.064 54.4482 0.032C54.3682 0.032 54.2562 0 54.1442 0C54.0962 0 54.0322 0 53.9522 0C53.8722 0 53.8402 0 53.7602 0C53.6482 0 53.5682 0 53.4562 0.032C53.3442 0.032 53.2322 0.08 53.1522 0.112C53.0402 0.144 52.9282 0.192 52.8482 0.256C52.8482 0.256 52.6562 0.368 52.6082 0.416C52.6082 0.416 52.4162 0.576 52.3362 0.656L52.1922 0.896L25.0402 47.344L23.5682 49.92V50C22.4162 52.288 21.8242 54.736 21.8242 57.264C21.8242 57.872 21.8562 58.432 21.9042 59.04C22.1282 61.056 22.7202 63.024 23.6482 64.896C24.8482 67.28 26.5762 69.456 28.7522 71.408C31.0402 73.456 33.8562 75.232 37.0082 76.608C40.0482 77.952 43.4242 78.928 47.0402 79.472C49.2802 79.824 51.6002 79.984 53.9842 79.984C56.3682 79.984 58.6242 79.824 60.8482 79.472C64.4482 78.928 67.8402 77.936 70.8802 76.608C74.0482 75.216 76.8322 73.472 79.1682 71.44C81.3602 69.504 83.1042 67.344 84.3042 64.96C85.2322 63.136 85.8562 61.168 86.0802 59.136C86.1602 58.512 86.1922 57.904 86.1922 57.248C86.1922 54.896 85.6962 52.656 84.7362 50.528V50.544Z" fill="url(#paint0_linear_82_1320)"/>
<path d="M55.2959 0.416016L55.7919 1.37602L76.6239 41.12L86.0799 59.152C86.1599 58.528 86.1919 57.92 86.1919 57.264C86.1919 54.912 85.6959 52.672 84.7359 50.544L82.5279 46.752L55.7279 0.960016L55.5359 0.656016C55.5359 0.656016 55.3759 0.496016 55.2959 0.416016Z" fill="url(#paint1_linear_82_1320)"/>
<path d="M55.0562 0.23999L55.7122 1.71199L72.3842 38.608L84.2722 64.96C85.2002 63.136 85.8241 61.168 86.0481 59.136L76.5922 41.104L55.7922 1.35999L55.2962 0.39999C55.2962 0.41599 55.1362 0.30399 55.0562 0.23999Z" fill="url(#paint2_linear_82_1320)"/>
<path d="M54.752 0.112061L55.44 2.11206L67.216 36.5441L79.168 71.4401C81.36 69.5041 83.104 67.3441 84.304 64.9601L72.4 38.6241L55.712 1.72806L55.056 0.256061C55.056 0.240061 54.864 0.160061 54.752 0.112061Z" fill="url(#paint3_linear_82_1320)"/>
<path d="M54.416 0.0479824L54.928 2.43198L62 35.264L70.88 76.64C74.048 75.248 76.832 73.504 79.168 71.472L67.232 36.576L55.44 2.11198L54.752 0.111982C54.752 0.111982 54.56 0.0639824 54.448 0.0319824L54.416 0.0479824Z" fill="url(#paint4_linear_82_1320)"/>
<path d="M54.144 0L54.368 2.592L57.072 34.656L60.88 79.488C64.48 78.944 67.872 77.952 70.912 76.624L62.032 35.248L54.96 2.448L54.448 0.064C54.448 0.064 54.256 0.032 54.144 0.032V0Z" fill="url(#paint5_linear_82_1320)"/>
<path d="M47.072 79.488C49.312 79.84 51.632 80 54.016 80C56.4 80 58.656 79.84 60.88 79.488L57.088 34.656L54.368 2.592L54.144 0C54.144 0 54 0 53.952 0C53.904 0 53.84 0 53.76 0L53.536 2.592L50.832 34.656L47.04 79.488H47.072Z" fill="url(#paint6_linear_82_1320)"/>
<path d="M37.0398 76.576C40.0798 77.92 43.4558 78.896 47.0718 79.44L50.8638 34.608L53.5358 2.576L53.7598 0C53.7598 0 53.5678 0 53.4558 0.032L52.9438 2.4L45.8878 35.248L37.0078 76.576H37.0398Z" fill="url(#paint7_linear_82_1320)"/>
<path d="M28.7842 71.3921C31.0882 73.4401 33.9042 75.2161 37.0402 76.5921L45.9202 35.2481L52.9762 2.40011L53.4882 0.0161133C53.4882 0.0161133 53.2642 0.0641133 53.1842 0.0961133L52.4962 2.09611L40.6882 36.5441L28.7842 71.3921Z" fill="url(#paint8_linear_82_1320)"/>
<path d="M23.6802 64.8801C24.8802 67.2641 26.6082 69.4401 28.7842 71.3921L40.7042 36.5761L52.5122 2.11206L53.2002 0.112061C53.2002 0.112061 52.9762 0.192061 52.8962 0.256061L52.2402 1.72806L35.5042 38.6401L23.6802 64.8801Z" fill="url(#paint9_linear_82_1320)"/>
<path d="M21.9038 59.0401C22.1278 61.0881 22.7198 63.0241 23.6478 64.8961L35.5038 38.6561L52.2078 1.7281L52.8638 0.256104C52.8638 0.256104 52.6718 0.368103 52.6238 0.416103L52.1278 1.3761L31.2798 41.1841L21.9038 59.0401Z" fill="url(#paint10_linear_82_1320)"/>
<path d="M21.8242 57.2639C21.8242 57.8719 21.8562 58.4319 21.9042 59.0399L31.2482 41.1999L52.1282 1.3599L52.6242 0.399902C52.6242 0.399902 52.4322 0.559902 52.3522 0.639902L52.2082 0.879902L25.0402 47.3439L23.5682 49.9199V49.9999C22.4162 52.2879 21.8242 54.7199 21.8242 57.2639Z" fill="url(#paint11_linear_82_1320)"/>
<path d="M55.5518 0.656006L55.7438 0.960006C55.7438 0.960006 55.6318 0.736006 55.5518 0.656006Z" fill="url(#paint12_linear_82_1320)"/>
</g>
<path d="M162 7.61598C164.4 7.61598 166.48 9.03998 167.424 11.088C168.288 10.608 169.28 10.336 170.336 10.336C173.648 10.336 176.32 13.008 176.32 16.32C176.32 16.64 176.288 16.96 176.24 17.264C178.24 18.16 197.808 27.536 197.168 47.952C196.608 65.648 178.592 72.272 162.912 72.272C148.32 72.272 128.368 68.672 126.704 47.52C125.392 30.8 140.944 19.44 147.536 17.232C147.488 16.928 147.472 16.624 147.472 16.32C147.472 13.008 150.144 10.336 153.456 10.336C154.576 10.336 155.632 10.64 156.528 11.184C157.456 9.08798 159.552 7.61598 162 7.61598ZM162 5.37598C159.504 5.37598 157.184 6.51198 155.632 8.38398C154.928 8.19198 154.192 8.09598 153.44 8.09598C149.104 8.09598 145.536 11.472 145.232 15.728C141.536 17.36 136.56 20.768 132.464 25.456C128.384 30.128 123.68 37.776 124.464 47.696C124.896 53.088 126.48 57.76 129.168 61.6C131.552 64.992 134.848 67.76 138.944 69.824C145.104 72.928 153.168 74.512 162.912 74.512C171.984 74.512 180.496 72.432 186.848 68.672C194.784 63.968 199.12 56.832 199.408 48.016C199.568 42.976 198.576 38.16 196.48 33.712C194.784 30.112 192.352 26.752 189.28 23.696C185.152 19.616 180.816 17.072 178.56 15.904C178.336 11.568 174.736 8.09598 170.352 8.09598C169.664 8.09598 168.992 8.17598 168.336 8.35198C166.784 6.49598 164.464 5.37598 162 5.37598Z" fill="#59251B"/>
<path d="M197.168 47.952C196.608 65.648 178.592 72.272 162.912 72.272C149.904 72.272 132.608 69.408 127.856 53.776C134.32 65.424 149.36 67.712 161.008 67.712C176.672 67.712 194.704 61.088 195.264 43.392C195.376 39.776 194.848 36.496 193.904 33.552C196 37.552 197.344 42.336 197.168 47.952Z" fill="#F1E3D6"/>
<path d="M195.248 43.3921C194.688 61.0881 176.672 67.7121 160.992 67.7121C149.36 67.7121 134.32 65.4241 127.856 53.7761C127.28 51.8881 126.88 49.8081 126.704 47.5361C125.392 30.8161 140.944 19.4561 147.536 17.2481C147.488 16.9441 147.472 16.6401 147.472 16.3361C147.472 13.0241 150.16 10.3521 153.456 10.3521C154.576 10.3521 155.632 10.6561 156.528 11.2001C157.456 9.10408 159.552 7.63208 162 7.63208C164.4 7.63208 166.48 9.05608 167.44 11.1041C168.304 10.6241 169.296 10.3521 170.352 10.3521C171.92 10.3521 173.344 10.9601 174.416 11.9361C174.832 12.3361 175.2 12.7841 175.504 13.2801C176.032 14.1761 176.336 15.2161 176.336 16.3361C176.336 16.6561 176.304 16.9761 176.256 17.2801C177.696 17.9361 188.384 23.0401 193.904 33.5681C194.848 36.4961 195.36 39.7601 195.248 43.3921Z" fill="#FBF7EC"/>
<path d="M155.76 18.176C155.76 18.192 155.76 18.208 155.76 18.224C155.52 20.544 153.632 22.384 151.312 22.576C150.688 22.624 150.08 22.56 149.52 22.4C148.992 22.24 148.624 22.928 149.072 23.264C150 23.968 151.184 24.352 152.464 24.24C154.848 24.032 156.752 22.064 156.896 19.68C156.928 19.136 156.864 18.592 156.736 18.096C156.592 17.552 155.808 17.632 155.76 18.176Z" fill="#59251B"/>
<path d="M168.864 18.7361C168.88 18.7361 168.896 18.7361 168.912 18.7521C170.992 19.2641 172.432 21.3121 172.32 23.5681C172.288 24.1761 172.144 24.7521 171.92 25.2801C171.712 25.7761 172.288 26.2081 172.64 25.8241C173.392 25.0081 173.904 23.9041 173.952 22.6561C174.064 20.3201 172.512 18.2561 170.352 17.8401C169.856 17.7441 169.36 17.7281 168.88 17.8081C168.4 17.8721 168.368 18.6241 168.864 18.7361Z" fill="#59251B"/>
<path d="M162.992 20.128C163.008 20.144 163.008 20.16 163.024 20.176C164.032 21.968 163.6 24.256 162.032 25.568C161.6 25.92 161.136 26.176 160.64 26.352C160.176 26.512 160.272 27.184 160.752 27.2C161.776 27.232 162.832 26.912 163.696 26.176C165.312 24.816 165.68 22.432 164.56 20.624C164.304 20.208 163.984 19.856 163.632 19.568C163.28 19.248 162.752 19.696 162.992 20.128Z" fill="#59251B"/>
<path d="M148.832 45.728C150.414 45.728 151.696 44.4457 151.696 42.864C151.696 41.2823 150.414 40 148.832 40C147.25 40 145.968 41.2823 145.968 42.864C145.968 44.4457 147.25 45.728 148.832 45.728Z" fill="#59251B"/>
<path d="M175.216 45.728C176.797 45.728 178.08 44.4457 178.08 42.864C178.08 41.2823 176.797 40 175.216 40C173.634 40 172.352 41.2823 172.352 42.864C172.352 44.4457 173.634 45.728 175.216 45.728Z" fill="#59251B"/>
<path d="M169.104 46.56C168.736 47.504 168.128 48.64 167.104 49.568C165.968 50.608 164.352 51.392 162 51.392C159.648 51.392 158.032 50.608 156.896 49.568C155.872 48.64 155.264 47.504 154.896 46.56C154.544 45.664 155.216 44.72 156.16 44.72H167.824C168.784 44.72 169.456 45.68 169.104 46.56Z" fill="#59251B"/>
<path d="M167.104 49.584C165.968 50.624 164.352 51.408 162 51.408C159.648 51.408 158.032 50.624 156.896 49.584C158.24 48.336 160.032 47.584 162 47.584C163.968 47.568 165.76 48.336 167.104 49.584Z" fill="#FF8884"/>
<path d="M270 1.552C277.92 1.552 285.552 4.528 291.056 10.032C296.704 15.552 299.824 22.752 299.824 30.528V78.448H240.176V30.528C240.176 22.752 243.28 15.552 248.944 10.032C254.448 4.528 261.936 1.552 270 1.552ZM270 0C261.664 0 253.744 3.104 247.808 8.912C241.872 14.72 238.624 22.336 238.624 30.544V80H301.376V30.528C301.376 22.336 298.128 14.704 292.192 9.04C286.256 3.104 278.336 0 270 0Z" fill="#070001"/>
<path d="M288.464 12.88L287.056 11.472C282.384 7.37605 276.448 5.24805 270.096 5.24805C263.168 5.24805 256.528 7.93605 251.728 12.88C246.768 17.824 244.08 24.336 244.08 31.264V74.5121H296.096V31.392C296.096 24.336 293.264 17.824 288.464 12.88ZM280.416 71.8241C278.016 72.6721 275.328 73.1041 272.64 73.1041H253.84V64.4801C253.408 64.0481 252.992 63.4881 252.704 63.0721C249.456 58.8321 247.76 53.6001 247.76 48.2241V31.968C247.76 25.6 250.16 19.664 254.4 15.008C254.96 15.008 255.68 15.008 256.384 15.152C260.768 15.584 266.704 17.136 271.792 20.672C276.32 23.776 281.824 29.44 281.824 38.624V71.4081C281.392 71.5361 280.976 71.6801 280.416 71.8241Z" fill="#070001"/>
<path d="M271.92 20.6559C266.832 17.2639 260.896 15.5679 256.512 15.1359C255.808 15.1359 255.104 14.9919 254.528 14.9919C250.288 19.6639 247.888 25.5999 247.888 31.9519V48.2079C247.888 53.5839 249.584 58.8159 252.832 63.0559C253.264 63.4879 253.536 64.0479 253.968 64.4639V73.0879H272.768C275.456 73.0879 278 72.6559 280.544 71.8079C281.104 71.6639 281.536 71.5199 282.096 71.2479V38.4639C281.968 29.2799 276.448 23.7599 271.92 20.6559ZM255.392 71.5359V66.0159C257.936 68.4159 260.912 70.3999 264.16 71.5359H255.392ZM280.416 70.2719C278.016 71.1199 275.328 71.5519 272.64 71.5519C266.416 71.5519 260.624 69.1519 256.096 64.6239L255.248 63.7759C254.688 63.2159 254.112 62.4959 253.696 61.7919C250.72 57.8399 249.168 53.0239 249.168 48.0799V31.9679C249.168 26.3199 251.296 20.7999 254.96 16.5599C264.848 16.9919 280.256 23.7759 280.256 38.4639V70.2719C280.272 70.2719 280.416 70.2719 280.416 70.2719Z" fill="#070001"/>
<path d="M264.064 52.64C263.632 52.64 263.216 52.208 263.216 51.792V37.376C263.216 33.552 266.32 30.448 270.144 30.448C273.968 30.448 277.072 33.552 277.072 37.376C277.072 37.808 276.64 38.224 276.224 38.224C275.808 38.224 275.376 37.792 275.376 37.376C275.376 34.544 272.976 32.144 270.144 32.144C267.312 32.144 264.912 34.544 264.912 37.376V51.792C264.912 52.208 264.48 52.64 264.064 52.64Z" fill="#070001"/>
<path d="M272.688 41.4719C272.256 41.4719 271.84 41.0399 271.84 40.6239C271.84 39.6319 271.136 38.9279 270.144 38.9279C269.152 38.9279 268.448 39.6319 268.448 40.6239C268.448 41.0559 268.016 41.4719 267.6 41.4719C267.184 41.4719 266.752 41.0399 266.752 40.6239C266.752 38.6399 268.304 37.0879 270.288 37.0879C272.272 37.0879 273.824 38.6399 273.824 40.6239C273.536 41.0399 273.104 41.4719 272.688 41.4719Z" fill="#070001"/>
<path d="M264.064 52.6401C261.52 52.6401 259.392 50.5121 259.392 47.9681C259.392 47.5361 259.824 47.1201 260.24 47.1201C260.656 47.1201 261.088 47.5521 261.088 47.9681C261.088 49.5201 262.368 50.8001 263.92 50.8001C265.472 50.8001 266.752 49.5201 266.752 47.9681C266.752 47.5361 267.184 47.1201 267.6 47.1201C268.016 47.1201 268.448 47.5521 268.448 47.9681C268.576 50.5121 266.608 52.6401 264.064 52.6401Z" fill="#070001"/>
<path d="M259.12 42.8801C258.832 42.8801 258.688 42.7361 258.56 42.5921L254.736 38.7681V42.0161C254.736 42.4481 254.304 42.8641 253.888 42.8641C253.472 42.8641 252.896 42.4321 252.896 41.8721V36.6401C252.896 36.2081 253.184 35.9361 253.456 35.7921C253.888 35.6481 254.16 35.6481 254.448 35.9361L258.272 39.7601V37.5041C258.272 37.0721 258.704 36.6561 259.12 36.6561C259.536 36.6561 259.968 37.0881 259.968 37.5041V41.8881C259.968 42.3201 259.68 42.5921 259.408 42.7361C259.392 42.8801 259.248 42.8801 259.12 42.8801Z" fill="#070001"/>
<path d="M263.92 38.368C263.488 38.368 263.072 37.936 263.072 37.52C263.072 37.376 263.072 33.84 260.672 33.84C260.24 33.84 259.824 33.408 259.824 32.992C259.824 32.56 260.256 32.144 260.672 32.144C263.92 32.144 264.768 35.68 264.768 37.52C264.768 37.936 264.336 38.368 263.92 38.368Z" fill="#070001"/>
<g clip-path="url(#clip1_82_1320)">
<path d="M378 80C400.091 80 418 62.0914 418 40C418 17.9086 400.091 0 378 0C355.909 0 338 17.9086 338 40C338 62.0914 355.909 80 378 80Z" fill="#FF0420"/>
<path d="M366.341 50.6315C363.96 50.6315 362.008 50.071 360.487 48.9502C358.986 47.8094 358.235 46.1883 358.235 44.0867C358.235 43.6463 358.285 43.1059 358.385 42.4654C358.646 41.0244 359.016 39.2931 359.496 37.2716C360.857 31.7676 364.37 29.0156 370.034 29.0156C371.575 29.0156 372.956 29.2758 374.177 29.7961C375.398 30.2964 376.359 31.0571 377.059 32.0779C377.76 33.0785 378.11 34.2795 378.11 35.6804C378.11 36.1007 378.06 36.6311 377.96 37.2716C377.66 39.0529 377.299 40.7843 376.879 42.4654C376.179 45.2075 374.968 47.259 373.246 48.6199C371.525 49.9609 369.224 50.6315 366.341 50.6315ZM366.762 46.3083C367.883 46.3083 368.833 45.978 369.614 45.3175C370.414 44.6571 370.985 43.6463 371.325 42.2854C371.785 40.4039 372.136 38.7627 372.376 37.3617C372.456 36.9414 372.496 36.5111 372.496 36.0707C372.496 34.2494 371.545 33.3387 369.644 33.3387C368.523 33.3387 367.562 33.6689 366.762 34.3294C365.981 34.99 365.421 36.0007 365.08 37.3617C364.72 38.7027 364.36 40.3439 364 42.2854C363.92 42.6855 363.88 43.1059 363.88 43.5462C363.88 45.3876 364.84 46.3083 366.762 46.3083Z" fill="white"/>
<path d="M379.489 50.3312C379.269 50.3312 379.098 50.2611 378.978 50.121C378.878 49.9608 378.848 49.7808 378.888 49.5806L383.031 30.0662C383.071 29.8461 383.181 29.6659 383.362 29.5258C383.542 29.3858 383.732 29.3157 383.932 29.3157H391.918C394.139 29.3157 395.921 29.776 397.262 30.6966C398.623 31.6174 399.303 32.9483 399.303 34.6896C399.303 35.1899 399.243 35.7104 399.123 36.2507C398.623 38.5525 397.612 40.2538 396.091 41.3546C394.59 42.4554 392.528 43.0058 389.906 43.0058H385.853L384.472 49.5806C384.432 49.8008 384.322 49.9808 384.142 50.121C383.962 50.2611 383.772 50.3312 383.572 50.3312H379.489ZM390.117 38.8627C390.957 38.8627 391.688 38.6325 392.308 38.1722C392.949 37.7118 393.369 37.0514 393.569 36.1907C393.629 35.8504 393.659 35.5502 393.659 35.2901C393.659 34.7096 393.489 34.2693 393.149 33.9691C392.808 33.6488 392.228 33.4888 391.407 33.4888H387.805L386.664 38.8627H390.117Z" fill="white"/>
</g>
<path d="M522.448 14.144C521.632 11.008 519.008 7.872 514.304 4.384C510.528 1.6 506.512 0 503.312 0C502.672 0 502.096 0.064 501.504 0.176C500.048 0.464 498.768 1.536 497.952 3.136C496.96 5.024 496.736 7.568 497.376 9.12C497.616 9.6 497.904 10.192 498.256 10.72C495.168 12.608 493.424 13.152 493.2 13.2C501.232 15.92 507.92 21.6 512.112 28.992L512.176 28.288C512.352 26.336 512.928 24.08 513.744 21.776C514.56 22.016 515.376 22.128 516.192 22.128C518.352 22.128 520.208 21.248 521.376 19.648C522.512 18.048 522.976 15.92 522.448 14.144Z" fill="#5E12A0"/>
<path d="M514.08 20.0641C519.376 21.5361 521.52 17.4081 520.832 14.6241C520.08 11.8401 517.632 9.00805 513.328 5.80805C509.024 2.60805 504.656 1.31205 501.872 1.90405C499.072 2.49605 498.272 6.81605 498.96 8.48005C499.248 9.13605 499.888 10.0801 500.768 11.1361C499.664 11.9041 498.608 12.4961 497.744 13.0241C503.088 15.4561 507.744 19.2321 511.232 23.9681C511.632 22.3681 512.224 20.9441 512.752 19.7121C513.152 19.7601 513.616 19.8881 514.08 20.0641Z" fill="url(#paint13_radial_82_1320)"/>
<path d="M483.776 78.0481C501.728 78.0481 516.288 63.2321 516.288 44.9761C516.288 26.7201 501.728 11.9041 483.776 11.9041C465.824 11.9041 451.264 26.7201 451.264 44.9761C451.264 63.2321 465.808 78.0481 483.776 78.0481Z" fill="url(#paint14_radial_82_1320)"/>
<path opacity="0.6" d="M518.144 11.8881C513.728 7.15207 510 5.92007 505.52 4.91207C502.032 4.08007 502.96 2.06407 507.2 2.48007C505.168 1.77607 503.248 1.60007 501.856 1.88807C499.056 2.48007 498.256 6.80007 498.944 8.46407C499.232 9.12007 499.872 10.0641 500.752 11.1201C499.184 12.1921 497.84 12.9601 496.736 13.5521C497.264 13.7921 497.904 14.0801 498.656 14.4961C500.64 15.5681 502.784 17.3441 502.784 17.3441C499.52 14.4961 500.224 13.2001 504.704 10.0001C506.096 8.99207 508.656 9.12007 511.04 10.3521C513.424 11.5841 516.224 14.7361 516.224 14.7361L513.552 19.9361C513.728 20.0001 513.904 20.0481 514.08 20.1121C515.76 20.5921 517.104 20.4641 518.144 20.0481C519.376 19.2961 522.576 16.6881 518.144 11.8881Z" fill="#A98698"/>
<path d="M505.472 7.74388C506.64 8.22388 508.144 9.03988 510.016 10.2879C512.224 11.7599 514.144 13.4239 515.36 14.7199C513.328 17.4399 511.984 21.1679 511.168 23.7759C511.568 24.3679 512.048 24.9599 512.448 25.5519C512.848 24.0799 513.552 21.8879 514.48 19.6959C514.72 19.7599 515.008 19.7599 515.296 19.7599C516 19.7599 516.816 19.6479 517.456 19.1039C517.92 18.7519 518.448 18.0959 518.384 16.9119C518.384 15.7919 517.504 14.3679 515.712 12.6559C514.432 11.4079 512.688 10.0479 510.944 8.81588C505.936 5.43988 502.448 4.49588 500.88 6.09588C499.84 7.16788 499.952 8.46388 500.304 9.40788C498.448 10.6559 496.864 11.5359 495.824 12.1279C496.528 12.3679 497.168 12.6559 497.856 12.9599C499.712 11.9519 502.384 10.2399 505.472 7.74388ZM516.464 16.2079C516.64 16.4959 516.704 16.7999 516.704 16.9759C516.704 17.5039 516.528 17.6799 516.416 17.8079C516.176 17.9839 515.712 18.0959 515.312 18.0959C515.648 17.3919 516.048 16.7999 516.464 16.2079ZM502.096 7.39188C502.272 7.21588 502.736 7.10388 503.488 7.21588C502.912 7.69588 502.32 8.09588 501.744 8.51188C501.68 8.11188 501.744 7.69588 502.096 7.39188Z" fill="#5E12A0"/>
<path d="M483.776 9.93604C464.752 9.93604 449.344 25.616 449.344 44.96C449.344 64.304 464.752 80 483.776 80C502.8 80 518.208 64.32 518.208 44.976C518.208 25.632 502.736 9.93604 483.776 9.93604ZM483.776 78.048C465.808 78.048 451.264 63.248 451.264 44.976C451.264 26.704 465.792 11.888 483.776 11.888C501.744 11.888 516.288 26.688 516.288 44.96C516.288 63.232 501.68 78.048 483.776 78.048Z" fill="#5E12A0"/>
<path opacity="0.6" d="M483.776 78.0481C501.728 78.0481 516.288 63.2321 516.288 44.9761C516.288 26.7201 501.728 11.9041 483.776 11.9041C465.824 11.9041 451.264 26.7201 451.264 44.9761C451.264 63.2321 465.808 78.0481 483.776 78.0481Z" fill="url(#paint15_linear_82_1320)"/>
<path opacity="0.6" d="M483.536 74.0159C465.792 71.1199 453.76 54.1279 456.656 36.0799C457.936 28.0959 461.888 21.2799 467.472 16.3679C459.328 21.1679 453.28 29.5039 451.648 39.6799C448.8 57.7279 460.832 74.7039 478.528 77.6159C488.416 79.2799 497.952 76.1439 504.992 69.9839C498.784 73.6639 491.216 75.2639 483.536 74.0159Z" fill="#A98698"/>
<path opacity="0.6" d="M488.944 12.3679C480.736 11.0079 472.768 12.8959 466.256 17.1039C466.144 17.2159 466.016 17.3439 466.016 17.3439C468.512 15.8079 472.176 14.4479 472.176 14.4479C462.752 20.0159 459.84 26.3359 459.84 26.3359C463.504 19.1199 474.272 14.0319 482.704 13.6799C491.136 13.3279 496.672 15.8719 503.408 21.3759C510.16 26.9439 514.224 38.3039 513.824 47.2959C513.472 56.2879 508.816 63.5679 508.816 63.5679C512.016 59.3599 513.936 56.2879 515.152 53.1519C515.392 52.2079 515.616 51.2639 515.728 50.2559C518.672 32.2559 506.688 15.2639 488.944 12.3679Z" fill="url(#paint16_linear_82_1320)"/>
<path d="M514.656 44.6721C514.656 62.0161 500.816 76.0961 483.76 76.0961C466.704 76.0961 452.816 62.0161 452.816 44.6721H514.656Z" fill="url(#paint17_linear_82_1320)"/>
<g opacity="0.6">
<path opacity="0.6" d="M512.208 44.6721C512.208 61.6001 499.056 75.4401 482.544 76.0961C482.944 76.0961 483.36 76.0961 483.76 76.0961C500.8 76.0961 514.656 62.0161 514.656 44.6721H512.208Z" fill="url(#paint18_linear_82_1320)"/>
</g>
<g opacity="0.7">
<path opacity="0.7" d="M457.184 44.6721H452.816C452.816 62.0161 466.656 76.0961 483.712 76.0961C484.464 76.0961 485.168 76.0961 485.872 76.0321C469.872 74.8481 457.184 61.2481 457.184 44.6721Z" fill="url(#paint19_linear_82_1320)"/>
</g>
<path d="M514.608 44.976C514.608 41.36 508.448 39.296 500.24 38.592C494.304 38.112 488.32 38.704 481.456 40.848C475.52 42.624 470.176 42.32 466.272 41.856C457.6 40.848 452.832 40.736 452.832 44.992C452.832 51.152 465.168 58.832 483.664 56.176C493.024 54.816 497.856 52.032 503.376 50.144C509.36 48.112 514.608 48.16 514.608 44.976Z" fill="url(#paint20_linear_82_1320)"/>
<path d="M493.888 30.064C496.784 30.064 499.12 27.68 499.12 24.736C499.12 21.792 496.768 19.408 493.888 19.408C491.008 19.408 488.656 21.792 488.656 24.736C488.656 27.68 491.008 30.064 493.888 30.064Z" fill="white"/>
<path d="M502.448 34.0159C503.664 34.0159 504.656 33.0079 504.656 31.7599C504.656 30.5119 503.664 29.5039 502.448 29.5039C501.232 29.5039 500.24 30.5119 500.24 31.7599C500.24 33.0079 501.216 34.0159 502.448 34.0159Z" fill="white"/>
<g opacity="0.6">
<path opacity="0.6" d="M510.352 20.4799C510.288 20.4799 510.24 20.4799 510.24 20.4799C509.888 20.4159 509.664 20.0639 509.712 19.6479C510.24 16.9279 512.448 14.3199 512.56 14.2079C512.8 13.9199 513.264 13.9199 513.488 14.1439C513.776 14.3839 513.776 14.8479 513.552 15.0879C513.488 15.1519 511.456 17.5679 510.992 19.9359C510.928 20.3039 510.64 20.4799 510.352 20.4799Z" fill="url(#paint21_linear_82_1320)"/>
</g>
<path opacity="0.2" d="M481.616 69.6481C482.512 69.6481 483.248 68.9121 483.248 67.9841C483.248 67.0721 482.512 66.3201 481.616 66.3201C480.72 66.3201 479.984 67.0561 479.984 67.9841C480 68.8961 480.72 69.6481 481.616 69.6481Z" fill="white"/>
<g opacity="0.4">
<path opacity="0.6" d="M480.688 69.056C480.048 68.4 480.048 67.344 480.688 66.688C480.8 66.576 480.928 66.512 481.04 66.384C480.8 66.448 480.64 66.56 480.464 66.736C479.824 67.392 479.824 68.448 480.464 69.104C480.992 69.632 481.808 69.76 482.448 69.392C481.856 69.648 481.152 69.536 480.688 69.056Z" fill="url(#paint22_linear_82_1320)"/>
</g>
<path opacity="0.3" d="M482.192 67.5199C482.384 67.5199 482.544 67.3599 482.544 67.1679C482.544 66.9759 482.384 66.8159 482.192 66.8159C482 66.8159 481.84 66.9759 481.84 67.1679C481.856 67.3599 482 67.5199 482.192 67.5199Z" fill="white"/>
<path opacity="0.2" d="M490.112 68.816C491.008 68.816 491.744 68.08 491.744 67.152C491.744 66.24 491.008 65.488 490.112 65.488C489.216 65.488 488.48 66.224 488.48 67.152C488.48 68.08 489.216 68.816 490.112 68.816Z" fill="white"/>
<g opacity="0.4">
<path opacity="0.6" d="M489.184 68.2241C488.544 67.5681 488.544 66.5121 489.184 65.8561C489.296 65.7441 489.424 65.6801 489.536 65.5681C489.296 65.6321 489.136 65.7441 488.96 65.9201C488.32 66.5761 488.32 67.6321 488.96 68.2881C489.488 68.8161 490.304 68.9441 490.944 68.5761C490.336 68.8161 489.648 68.7041 489.184 68.2241Z" fill="url(#paint23_linear_82_1320)"/>
</g>
<path opacity="0.3" d="M490.688 66.6879C490.88 66.6879 491.04 66.5279 491.04 66.3359C491.04 66.1439 490.88 65.9839 490.688 65.9839C490.496 65.9839 490.336 66.1439 490.336 66.3359C490.336 66.5279 490.496 66.6879 490.688 66.6879Z" fill="white"/>
<path opacity="0.2" d="M485.92 72.6559C486.592 72.6559 487.136 72.0959 487.136 71.4079C487.136 70.7199 486.592 70.1599 485.92 70.1599C485.248 70.1599 484.704 70.7199 484.704 71.4079C484.704 72.1119 485.248 72.6559 485.92 72.6559Z" fill="white"/>
<g opacity="0.4">
<path opacity="0.6" d="M485.232 72.192C484.768 71.712 484.768 70.896 485.232 70.416C485.296 70.352 485.408 70.304 485.472 70.24C485.296 70.304 485.184 70.416 485.072 70.528C484.608 71.008 484.608 71.824 485.072 72.304C485.472 72.72 486.064 72.784 486.592 72.48C486.096 72.672 485.568 72.544 485.232 72.192Z" fill="url(#paint24_linear_82_1320)"/>
</g>
<path opacity="0.3" d="M486.336 71.0081C486.464 71.0081 486.576 70.8961 486.576 70.7681C486.576 70.6401 486.464 70.5281 486.336 70.5281C486.208 70.5281 486.096 70.6401 486.096 70.7681C486.096 70.8961 486.208 71.0081 486.336 71.0081Z" fill="white"/>
<path opacity="0.2" d="M493.424 71.776C494.096 71.776 494.64 71.216 494.64 70.528C494.64 69.84 494.096 69.28 493.424 69.28C492.752 69.28 492.208 69.84 492.208 70.528C492.208 71.216 492.752 71.776 493.424 71.776Z" fill="white"/>
<g opacity="0.4">
<path opacity="0.6" d="M492.736 71.296C492.272 70.816 492.272 70 492.736 69.52C492.8 69.456 492.912 69.408 492.976 69.344C492.8 69.408 492.688 69.52 492.576 69.632C492.112 70.112 492.112 70.928 492.576 71.408C492.976 71.824 493.568 71.888 494.096 71.584C493.6 71.776 493.072 71.664 492.736 71.296Z" fill="url(#paint25_linear_82_1320)"/>
</g>
<path opacity="0.3" d="M493.84 70.1121C493.968 70.1121 494.08 70.0001 494.08 69.8721C494.08 69.7441 493.968 69.6321 493.84 69.6321C493.712 69.6321 493.6 69.7441 493.6 69.8721C493.6 70.0161 493.712 70.1121 493.84 70.1121Z" fill="white"/>
<path opacity="0.2" d="M474.688 69.056C476.16 69.056 477.36 67.84 477.36 66.336C477.36 64.832 476.16 63.616 474.688 63.616C473.216 63.616 472.016 64.832 472.016 66.336C472.016 67.84 473.216 69.056 474.688 69.056Z" fill="white"/>
<g opacity="0.4">
<path opacity="0.6" d="M473.184 68.048C472.144 66.976 472.144 65.264 473.184 64.208C473.36 64.032 473.536 63.92 473.76 63.792C473.408 63.904 473.12 64.144 472.832 64.384C471.792 65.456 471.792 67.168 472.832 68.224C473.712 69.104 475.04 69.296 476.096 68.64C475.104 69.056 473.936 68.88 473.184 68.048Z" fill="url(#paint26_linear_82_1320)"/>
</g>
<path opacity="0.3" d="M475.632 65.5041C475.952 65.5041 476.208 65.2321 476.208 64.9121C476.208 64.5921 475.952 64.3201 475.632 64.3201C475.312 64.3201 475.056 64.5921 475.056 64.9121C475.056 65.2321 475.312 65.5041 475.632 65.5041Z" fill="white"/>
<path opacity="0.2" d="M498.608 62.368C500.08 62.368 501.28 61.152 501.28 59.648C501.28 58.144 500.08 56.928 498.608 56.928C497.136 56.928 495.936 58.144 495.936 59.648C495.936 61.152 497.12 62.368 498.608 62.368Z" fill="white"/>
<g opacity="0.4">
<path opacity="0.6" d="M497.04 61.36C496 60.288 496 58.576 497.04 57.52C497.216 57.344 497.392 57.232 497.616 57.104C497.264 57.216 496.976 57.456 496.688 57.696C495.648 58.768 495.648 60.48 496.688 61.536C497.568 62.416 498.896 62.608 499.952 61.952C498.96 62.368 497.84 62.192 497.04 61.36Z" fill="url(#paint27_linear_82_1320)"/>
</g>
<path opacity="0.3" d="M499.536 58.8161C499.856 58.8161 500.112 58.5441 500.112 58.2241C500.112 57.9041 499.856 57.6321 499.536 57.6321C499.216 57.6321 498.96 57.9041 498.96 58.2241C498.96 58.5601 499.216 58.8161 499.536 58.8161Z" fill="white"/>
<g clip-path="url(#clip2_82_1320)">
<path fill-rule="evenodd" clip-rule="evenodd" d="M630.768 79.328C629.12 79.344 627.792 78.016 627.776 76.368C627.76 74.72 629.088 73.392 630.736 73.376C632.384 73.36 633.712 74.688 633.728 76.336V76.352C633.728 78 632.4 79.328 630.768 79.328ZM629.2 47.28C627.536 47.248 626.208 45.888 626.24 44.224C626.272 42.56 627.632 41.232 629.296 41.264C630.96 41.296 632.272 42.656 632.256 44.32C632.224 45.968 630.896 47.28 629.248 47.28H629.2ZM629.2 38.288C627.536 38.288 626.192 36.944 626.192 35.28C626.192 33.616 627.536 32.272 629.2 32.272C630.864 32.272 632.208 33.616 632.208 35.28V35.296C632.208 36.928 630.896 38.272 629.248 38.288H629.2ZM623.184 32.976V38.448H617.184V31.792C617.184 30.992 617.504 30.24 618.064 29.68L625.136 22.672C626.064 21.728 627.472 21.472 628.672 22.032C630.16 22.736 630.784 24.512 630.08 26C629.936 26.32 629.728 26.608 629.488 26.848L623.184 32.976ZM628.624 58.032C627.424 58.592 626.016 58.32 625.088 57.392L618.016 50.384C617.456 49.824 617.136 49.056 617.136 48.272V41.488H623.184V46.96L629.44 53.216C630.592 54.384 630.592 56.272 629.424 57.424C629.2 57.648 628.96 57.824 628.672 57.968L628.624 58.032ZM614.16 28.928V50.592L631.376 67.808C632.576 68.976 632.592 70.896 631.424 72.096C630.256 73.296 628.336 73.312 627.136 72.144L608.992 53.968C608.416 53.408 608.096 52.64 608.096 51.84V27.664C608.096 26.864 608.416 26.096 608.992 25.536L620.08 14.448C621.248 13.248 623.152 13.216 624.368 14.384C625.568 15.552 625.6 17.456 624.432 18.672L614.16 28.928ZM607.2 23.456C606.624 24.032 605.856 24.336 605.056 24.336H580.944C580.144 24.352 579.36 24.032 578.8 23.456L567.712 12.352C566.512 11.184 566.496 9.26398 567.664 8.07998C568.832 6.89598 570.752 6.86398 571.936 8.03198L582.192 18.304H603.84L614.016 8.09598C614.944 7.15198 616.384 6.87998 617.584 7.45598C619.088 8.20798 619.68 10.032 618.928 11.536C618.784 11.824 618.592 12.08 618.368 12.304L607.2 23.456ZM603.84 14.384C603.28 14.96 602.496 15.28 601.696 15.28H594.992V9.23198H600.496L606.688 3.03998C607.616 2.09598 609.04 1.82398 610.24 2.38398C611.744 3.13598 612.336 4.95998 611.584 6.46398C611.44 6.75198 611.248 7.00798 611.024 7.23198L603.84 14.384ZM597.424 6.55998C595.76 6.55998 594.416 5.21598 594.416 3.55198C594.416 1.88798 595.76 0.54398 597.424 0.54398C599.088 0.54398 600.432 1.88798 600.432 3.55198C600.4 5.16798 599.104 6.46398 597.488 6.49598L597.424 6.55998ZM585.216 15.28C584.416 15.28 583.632 14.96 583.072 14.384L576 7.29598C574.8 6.12798 574.784 4.20798 575.952 3.02398C577.12 1.83998 579.04 1.80798 580.224 2.97598L586.48 9.23198H591.984V15.28H585.216ZM588.496 6.49598C586.832 6.49598 585.488 5.15198 585.488 3.48798C585.488 1.82398 586.848 0.47998 588.496 0.47998C590.16 0.47998 591.504 1.82398 591.504 3.48798C591.504 5.15198 590.16 6.49598 588.496 6.49598ZM577.856 27.712V51.872C577.856 52.672 577.552 53.44 576.976 54.016L565.904 65.12C564.976 66.064 563.536 66.336 562.336 65.76C560.848 64.992 560.256 63.168 561.008 61.68C561.152 61.392 561.344 61.12 561.584 60.896L571.824 50.592V28.976L561.584 18.736C560.384 17.568 560.368 15.648 561.536 14.448C562.704 13.248 564.624 13.232 565.824 14.4L577.008 25.552C577.552 26.112 577.872 26.912 577.856 27.712ZM567.84 29.632C568.448 30.192 568.8 30.976 568.8 31.808V38.528H562.752V33.056L556.56 26.864C555.36 25.712 555.328 23.808 556.48 22.608C557.632 21.408 559.536 21.376 560.736 22.528C560.752 22.544 560.752 22.544 560.768 22.56L567.84 29.632ZM556.672 32.288C558.336 32.24 559.712 33.552 559.76 35.216C559.808 36.88 558.496 38.256 556.832 38.304C555.168 38.352 553.792 37.04 553.744 35.376C553.744 35.344 553.744 35.328 553.744 35.296C553.744 33.648 555.088 32.304 556.736 32.288H556.672ZM556.672 41.296C558.336 41.248 559.712 42.56 559.76 44.224C559.808 45.888 558.496 47.264 556.832 47.312C555.168 47.36 553.792 46.048 553.744 44.384C553.744 44.368 553.744 44.352 553.744 44.336C553.728 42.672 555.056 41.312 556.72 41.296H556.736H556.672ZM562.688 46.96V41.488H568.8V48.208C568.784 49.008 568.432 49.776 567.84 50.32L560.832 57.328C559.904 58.272 558.496 58.528 557.296 57.968C555.808 57.264 555.184 55.488 555.904 54C556.048 53.68 556.256 53.408 556.496 53.168L562.688 46.96ZM578.8 55.472C579.36 54.896 580.128 54.576 580.928 54.576H605.04C605.84 54.576 606.624 54.896 607.184 55.472L625.2 73.52C626.4 74.688 626.416 76.608 625.248 77.792C624.08 78.992 622.16 79.008 620.976 77.84L603.744 60.624H582.16L571.968 70.816C571.04 71.76 569.616 72.032 568.416 71.472C566.912 70.72 566.32 68.896 567.072 67.392C567.216 67.104 567.408 66.848 567.632 66.624L578.8 55.472ZM583.088 64.544C583.664 63.984 584.432 63.68 585.232 63.664H592V69.712H586.48L580.368 75.888C579.2 77.088 577.296 77.12 576.096 75.952C574.896 74.784 574.864 72.88 576.032 71.68L583.088 64.544ZM588.512 73.088C590.176 73.072 591.52 74.416 591.536 76.08C591.552 77.744 590.208 79.088 588.544 79.104C586.88 79.12 585.536 77.776 585.52 76.112V76.096C585.536 74.448 586.848 73.104 588.512 73.088ZM601.776 63.696C602.576 63.696 603.344 64.016 603.92 64.576L610.992 71.664C612.192 72.832 612.208 74.752 611.04 75.952C609.872 77.152 607.952 77.168 606.752 76L600.496 69.744H594.992V63.664H601.76L601.776 63.696ZM597.504 73.088C599.168 73.12 600.496 74.48 600.464 76.144C600.432 77.808 599.072 79.136 597.408 79.104C595.76 79.072 594.448 77.744 594.448 76.096C594.448 74.432 595.792 73.088 597.456 73.088C597.472 73.088 597.472 73.088 597.504 73.088Z" fill="#0645F7"/>
<path fill-rule="evenodd" clip-rule="evenodd" d="M623.216 32.976V38.448H617.168V31.792C617.168 30.992 617.488 30.24 618.048 29.68L625.12 22.672C626.048 21.728 627.456 21.472 628.656 22.032C630.144 22.736 630.768 24.512 630.064 26C629.92 26.32 629.712 26.608 629.472 26.848L623.216 32.976ZM628.672 58.032C627.472 58.592 626.064 58.32 625.136 57.392L618.064 50.384C617.504 49.824 617.184 49.056 617.184 48.272V41.488H623.232V46.96L629.488 53.216C630.64 54.4 630.608 56.272 629.44 57.424C629.216 57.648 628.96 57.824 628.688 57.968V58.032H628.672ZM607.2 23.584C606.624 24.16 605.856 24.464 605.056 24.464H580.944C580.128 24.448 579.344 24.08 578.8 23.456L567.712 12.352C566.512 11.184 566.496 9.26398 567.664 8.07998C568.832 6.89598 570.752 6.86398 571.936 8.03198L582.192 18.304H603.84L614.016 8.09598C614.944 7.15198 616.384 6.87998 617.584 7.45598C619.088 8.20798 619.68 10.032 618.928 11.536C618.784 11.824 618.592 12.08 618.368 12.304L607.2 23.584ZM603.84 14.384C603.28 14.96 602.496 15.28 601.696 15.28H594.992V9.23198H600.496L606.688 3.03998C607.616 2.09598 609.04 1.82398 610.24 2.38398C611.744 3.13598 612.336 4.95998 611.584 6.46398C611.44 6.75198 611.248 7.00798 611.024 7.23198L603.84 14.384ZM597.424 6.55998C595.76 6.55998 594.416 5.21598 594.416 3.55198C594.416 1.88798 595.76 0.54398 597.424 0.54398C599.088 0.54398 600.432 1.88798 600.432 3.55198C600.4 5.16798 599.104 6.46398 597.488 6.49598L597.424 6.55998ZM585.216 15.28C584.416 15.28 583.632 14.96 583.072 14.384L576 7.29598C574.8 6.12798 574.784 4.20798 575.952 3.02398C577.12 1.83998 579.04 1.80798 580.224 2.97598L586.48 9.23198H591.984V15.28H585.216ZM588.496 6.49598C586.832 6.49598 585.488 5.15198 585.488 3.48798C585.488 1.82398 586.848 0.47998 588.496 0.47998C590.16 0.47998 591.504 1.82398 591.504 3.48798C591.504 5.15198 590.16 6.49598 588.496 6.49598ZM577.856 27.712V51.872C577.856 52.672 577.552 53.44 576.976 54.016L565.904 65.12C564.976 66.064 563.536 66.336 562.336 65.76C560.848 64.992 560.256 63.168 561.008 61.68C561.152 61.392 561.344 61.12 561.584 60.896L571.824 50.592V28.976L561.584 18.736C560.384 17.568 560.368 15.648 561.536 14.448C562.704 13.248 564.624 13.232 565.824 14.4L577.008 25.552C577.552 26.112 577.872 26.912 577.856 27.712ZM567.84 29.632C568.448 30.192 568.8 30.976 568.8 31.808V38.528H562.752V33.056L556.56 26.864C555.36 25.712 555.328 23.808 556.48 22.608C557.632 21.408 559.536 21.376 560.736 22.528C560.752 22.544 560.752 22.544 560.768 22.56L567.84 29.632ZM556.672 32.288C558.336 32.24 559.712 33.552 559.76 35.216C559.808 36.88 558.496 38.256 556.832 38.304C555.168 38.352 553.792 37.04 553.744 35.376C553.744 35.344 553.744 35.328 553.744 35.296C553.744 33.648 555.088 32.304 556.736 32.288H556.672ZM556.672 41.296C558.336 41.248 559.712 42.56 559.76 44.224C559.808 45.888 558.496 47.264 556.832 47.312C555.168 47.36 553.792 46.048 553.744 44.384C553.744 44.368 553.744 44.352 553.744 44.336C553.728 42.672 555.056 41.312 556.72 41.296H556.736H556.672ZM562.688 46.96V41.488H568.8V48.208C568.784 49.008 568.432 49.776 567.84 50.32L560.832 57.328C559.904 58.272 558.496 58.528 557.296 57.968C555.808 57.264 555.184 55.488 555.904 54C556.048 53.68 556.256 53.408 556.496 53.168L562.688 46.96ZM578.8 55.472C579.36 54.896 580.128 54.576 580.928 54.576H605.04C605.84 54.576 606.624 54.896 607.184 55.472L625.2 73.52C626.4 74.688 626.416 76.608 625.248 77.792C624.08 78.992 622.16 79.008 620.976 77.84L603.744 60.624H582.16L571.968 70.816C571.04 71.76 569.616 72.032 568.416 71.472C566.912 70.72 566.32 68.896 567.072 67.392C567.216 67.104 567.408 66.848 567.632 66.624L578.8 55.472ZM583.088 64.544C583.664 63.984 584.432 63.68 585.232 63.664H592V69.712H586.48L580.368 75.888C579.2 77.088 577.296 77.12 576.096 75.952C574.896 74.784 574.864 72.88 576.032 71.68L583.088 64.544ZM588.512 73.088C590.176 73.072 591.52 74.416 591.536 76.08C591.552 77.744 590.208 79.088 588.544 79.104C586.88 79.12 585.536 77.776 585.52 76.112V76.096C585.536 74.448 586.848 73.104 588.512 73.088ZM601.776 63.696C602.576 63.696 603.344 64.016 603.92 64.576L610.992 71.664C612.192 72.832 612.208 74.752 611.04 75.952C609.872 77.152 607.952 77.168 606.752 76L600.496 69.744H594.992V63.664H601.76L601.776 63.696ZM597.504 73.088C599.168 73.12 600.496 74.48 600.464 76.144C600.432 77.808 599.072 79.136 597.408 79.104C595.76 79.072 594.448 77.744 594.448 76.096C594.448 74.432 595.792 73.088 597.456 73.088C597.472 73.088 597.472 73.088 597.504 73.088Z" fill="#0645F7"/>
</g>
<defs>
<linearGradient id="paint0_linear_82_1320" x1="34.7449" y1="33.9463" x2="92.8799" y2="56.9869" gradientUnits="userSpaceOnUse">
<stop stop-color="#FF5A5A"/>
<stop offset="0.2" stop-color="#FDD55A"/>
<stop offset="0.35" stop-color="#57F7AE"/>
<stop offset="0.69" stop-color="#197CEF"/>
<stop offset="1" stop-color="#3A3A3A"/>
</linearGradient>
<linearGradient id="paint1_linear_82_1320" x1="91.208" y1="65.7076" x2="22.1679" y2="-63.5445" gradientUnits="userSpaceOnUse">
<stop stop-color="#3A3A3A"/>
<stop offset="0.5" stop-color="#1682FE"/>
<stop offset="1" stop-color="#2DBDE1"/>
</linearGradient>
<linearGradient id="paint2_linear_82_1320" x1="88.247" y1="70.4946" x2="9.31257" y2="-111.48" gradientUnits="userSpaceOnUse">
<stop stop-color="#3A3A3A"/>
<stop offset="0.5" stop-color="#1682FE"/>
<stop offset="1" stop-color="#2DBDE1"/>
</linearGradient>
<linearGradient id="paint3_linear_82_1320" x1="94.1907" y1="99.1325" x2="-3.43857" y2="-143.136" gradientUnits="userSpaceOnUse">
<stop stop-color="#3A3A3A"/>
<stop offset="0.5" stop-color="#1682FE"/>
<stop offset="1" stop-color="#2DBDE1"/>
</linearGradient>
<linearGradient id="paint4_linear_82_1320" x1="89.5855" y1="120.128" x2="22.8961" y2="-90.7918" gradientUnits="userSpaceOnUse">
<stop stop-color="#3A3A3A"/>
<stop offset="0.5" stop-color="#1682FE"/>
<stop offset="1" stop-color="#2DBDE1"/>
</linearGradient>
<linearGradient id="paint5_linear_82_1320" x1="78.8551" y1="110.121" x2="13.6143" y2="-106.32" gradientUnits="userSpaceOnUse">
<stop stop-color="#3A3A3A"/>
<stop offset="0.22" stop-color="#1682FE"/>
<stop offset="0.5" stop-color="#57F7AE"/>
<stop offset="1" stop-color="#FED55A"/>
</linearGradient>
<linearGradient id="paint6_linear_82_1320" x1="69.9691" y1="113.538" x2="21.6191" y2="-70.6509" gradientUnits="userSpaceOnUse">
<stop stop-color="#3A3A3A"/>
<stop offset="0.22" stop-color="#1682FE"/>
<stop offset="0.5" stop-color="#57F7AE"/>
<stop offset="1" stop-color="#FED55A"/>
</linearGradient>
<linearGradient id="paint7_linear_82_1320" x1="50.9389" y1="122.311" x2="39.2409" y2="-54.8267" gradientUnits="userSpaceOnUse">
<stop stop-color="#3A3A3A"/>
<stop offset="0.22" stop-color="#1682FE"/>
<stop offset="0.5" stop-color="#57F7AE"/>
<stop offset="1" stop-color="#FED55A"/>
</linearGradient>
<linearGradient id="paint8_linear_82_1320" x1="53.1096" y1="128.888" x2="39.6304" y2="23.9529" gradientUnits="userSpaceOnUse">
<stop offset="0.4" stop-color="#1682FE"/>
<stop offset="0.7" stop-color="#57F7AE"/>
<stop offset="1" stop-color="#FED55A"/>
</linearGradient>
<linearGradient id="paint9_linear_82_1320" x1="42.744" y1="132.176" x2="38.7536" y2="39.8761" gradientUnits="userSpaceOnUse">
<stop offset="0.4" stop-color="#1682FE"/>
<stop offset="0.7" stop-color="#57F7AE"/>
<stop offset="1" stop-color="#FED55A"/>
</linearGradient>
<linearGradient id="paint10_linear_82_1320" x1="25.0217" y1="95.0832" x2="50.6316" y2="-40.5095" gradientUnits="userSpaceOnUse">
<stop offset="0.03" stop-color="#1682FE"/>
<stop offset="0.21" stop-color="#FCA75B"/>
<stop offset="0.52" stop-color="#FF5A5A"/>
</linearGradient>
<linearGradient id="paint11_linear_82_1320" x1="22.6414" y1="84.347" x2="49.1259" y2="-18.3386" gradientUnits="userSpaceOnUse">
<stop offset="0.03" stop-color="#1682FE"/>
<stop offset="0.21" stop-color="#FCA75B"/>
<stop offset="0.52" stop-color="#FF5A5A"/>
</linearGradient>
<linearGradient id="paint12_linear_82_1320" x1="55.6399" y1="0.957238" x2="55.6399" y2="0.655814" gradientUnits="userSpaceOnUse">
<stop stop-color="#2DBDE1"/>
<stop offset="0.5" stop-color="#1682FE"/>
<stop offset="1" stop-color="#3A3A3A"/>
</linearGradient>
<radialGradient id="paint13_radial_82_1320" cx="0" cy="0" r="1" gradientUnits="userSpaceOnUse" gradientTransform="translate(519.764 10.8873) scale(25.9988 26.4464)">
<stop stop-color="#FFEAFF" stop-opacity="0.6"/>
<stop offset="0.6807" stop-color="#A087C9"/>
<stop offset="1" stop-color="#10002F"/>
</radialGradient>
<radialGradient id="paint14_radial_82_1320" cx="0" cy="0" r="1" gradientUnits="userSpaceOnUse" gradientTransform="translate(505.299 22.1659) scale(63.6097 64.705)">
<stop stop-color="#FFEAFF" stop-opacity="0.6"/>
<stop offset="0.6807" stop-color="#A087C9"/>
<stop offset="1" stop-color="#10002F"/>
</radialGradient>
<linearGradient id="paint15_linear_82_1320" x1="478.39" y1="77.5975" x2="489.149" y2="12.344" gradientUnits="userSpaceOnUse">
<stop stop-color="#81FFFF"/>
<stop offset="0.6202" stop-color="white" stop-opacity="0"/>
</linearGradient>
<linearGradient id="paint16_linear_82_1320" x1="506.964" y1="22.8151" x2="479.656" y2="47.4464" gradientUnits="userSpaceOnUse">
<stop offset="0.2888" stop-color="white"/>
<stop offset="0.7796" stop-color="white" stop-opacity="0"/>
</linearGradient>
<linearGradient id="paint17_linear_82_1320" x1="452.824" y1="60.3848" x2="514.659" y2="60.3848" gradientUnits="userSpaceOnUse">
<stop stop-color="#0002E9"/>
<stop offset="0.9952" stop-color="#FF00C7"/>
</linearGradient>
<linearGradient id="paint18_linear_82_1320" x1="517.732" y1="47.6071" x2="483.556" y2="79.358" gradientUnits="userSpaceOnUse">
<stop offset="0.2888" stop-color="white"/>
<stop offset="0.7796" stop-color="white" stop-opacity="0"/>
</linearGradient>
<linearGradient id="paint19_linear_82_1320" x1="452.824" y1="60.3848" x2="485.865" y2="60.3848" gradientUnits="userSpaceOnUse">
<stop stop-color="#000292"/>
<stop offset="0.9952" stop-color="#7D00C7"/>
</linearGradient>
<linearGradient id="paint20_linear_82_1320" x1="452.891" y1="47.5615" x2="514.602" y2="47.5615" gradientUnits="userSpaceOnUse">
<stop stop-color="#000292"/>
<stop offset="0.9952" stop-color="#BE00C7"/>
</linearGradient>
<linearGradient id="paint21_linear_82_1320" x1="513.666" y1="13.9615" x2="509.12" y2="21.2235" gradientUnits="userSpaceOnUse">
<stop offset="0.2888" stop-color="white"/>
<stop offset="0.7796" stop-color="white" stop-opacity="0"/>
</linearGradient>
<linearGradient id="paint22_linear_82_1320" x1="479.975" y1="68.0029" x2="482.436" y2="68.0029" gradientUnits="userSpaceOnUse">
<stop offset="0.2888" stop-color="white"/>
<stop offset="0.7796" stop-color="white" stop-opacity="0"/>
</linearGradient>
<linearGradient id="paint23_linear_82_1320" x1="488.46" y1="67.1738" x2="490.921" y2="67.1738" gradientUnits="userSpaceOnUse">
<stop offset="0.2888" stop-color="white"/>
<stop offset="0.7796" stop-color="white" stop-opacity="0"/>
</linearGradient>
<linearGradient id="paint24_linear_82_1320" x1="484.693" y1="71.4553" x2="486.54" y2="71.4553" gradientUnits="userSpaceOnUse">
<stop offset="0.2888" stop-color="white"/>
<stop offset="0.7796" stop-color="white" stop-opacity="0"/>
</linearGradient>
<linearGradient id="paint25_linear_82_1320" x1="492.171" y1="70.5675" x2="494.019" y2="70.5675" gradientUnits="userSpaceOnUse">
<stop offset="0.2888" stop-color="white"/>
<stop offset="0.7796" stop-color="white" stop-opacity="0"/>
</linearGradient>
<linearGradient id="paint26_linear_82_1320" x1="472.023" y1="66.4083" x2="476.042" y2="66.4083" gradientUnits="userSpaceOnUse">
<stop offset="0.2888" stop-color="white"/>
<stop offset="0.7796" stop-color="white" stop-opacity="0"/>
</linearGradient>
<linearGradient id="paint27_linear_82_1320" x1="495.894" y1="59.7221" x2="499.914" y2="59.7221" gradientUnits="userSpaceOnUse">
<stop offset="0.2888" stop-color="white"/>
<stop offset="0.7796" stop-color="white" stop-opacity="0"/>
</linearGradient>
<clipPath id="clip0_82_1320">
<rect width="80" height="80" fill="white" transform="translate(14)"/>
</clipPath>
<clipPath id="clip1_82_1320">
<rect width="80" height="80" fill="white" transform="translate(338)"/>
</clipPath>
<clipPath id="clip2_82_1320">
<rect width="80" height="80" fill="white" transform="translate(554)"/>
</clipPath>
</defs>
</svg>
