<svg width="25" height="24" viewBox="0 0 25 24" fill="none" xmlns="http://www.w3.org/2000/svg">
<path d="M12.9521 24C19.5796 24 24.9521 18.6274 24.9521 12C24.9521 5.37258 19.5796 0 12.9521 0C6.32473 0 0.952148 5.37258 0.952148 12C0.952148 18.6274 6.32473 24 12.9521 24Z" fill="#090909"/>
<path d="M9.45472 15.1894C8.7402 15.1894 8.15479 15.0213 7.69845 14.685C7.24812 14.3428 7.02295 13.8564 7.02295 13.226C7.02295 13.0939 7.03797 12.9317 7.06797 12.7396C7.14607 12.3073 7.25714 11.7879 7.40124 11.1815C7.80953 9.53025 8.86332 8.70465 10.5626 8.70465C11.0249 8.70465 11.4392 8.7827 11.8055 8.9388C12.1718 9.08889 12.46 9.31708 12.6701 9.62332C12.8802 9.92351 12.9854 10.2838 12.9854 10.7041C12.9854 10.8302 12.9703 10.9893 12.9403 11.1815C12.8502 11.7158 12.7421 12.2352 12.6161 12.7396C12.4059 13.5622 12.0426 14.1777 11.5263 14.5859C11.0099 14.9882 10.3194 15.1894 9.45472 15.1894ZM9.58082 13.8924C9.91711 13.8924 10.2023 13.7934 10.4365 13.5952C10.6767 13.3971 10.8478 13.0939 10.9498 12.6856C11.0879 12.1211 11.193 11.6288 11.2651 11.2085C11.2891 11.0824 11.3011 10.9533 11.3011 10.8212C11.3011 10.2748 11.0159 10.0016 10.4455 10.0016C10.1092 10.0016 9.82101 10.1006 9.58082 10.2988C9.34668 10.497 9.17853 10.8002 9.07649 11.2085C8.96839 11.6108 8.86029 12.1031 8.75225 12.6856C8.7282 12.8056 8.7162 12.9317 8.7162 13.0638C8.7162 13.6163 9.00444 13.8924 9.58082 13.8924Z" fill="white"/>
<path d="M13.3987 15.0993C13.3326 15.0993 13.2815 15.0783 13.2455 15.0363C13.2155 14.9882 13.2065 14.9342 13.2185 14.8742L14.4614 9.01985C14.4734 8.9538 14.5065 8.89975 14.5605 8.8577C14.6146 8.8157 14.6716 8.79468 14.7316 8.79468H17.1274C17.7939 8.79468 18.3283 8.93277 18.7306 9.20897C19.1389 9.48521 19.343 9.88447 19.343 10.4069C19.343 10.5569 19.325 10.7131 19.289 10.8752C19.1389 11.5657 18.8357 12.0761 18.3793 12.4063C17.929 12.7366 17.3105 12.9017 16.5239 12.9017H15.3081L14.8938 14.8742C14.8817 14.9402 14.8487 14.9942 14.7947 15.0363C14.7407 15.0783 14.6836 15.0993 14.6236 15.0993H13.3987ZM16.587 11.6588C16.8392 11.6588 17.0583 11.5897 17.2445 11.4516C17.4366 11.3135 17.5627 11.1154 17.6228 10.8572C17.6408 10.7551 17.6498 10.665 17.6498 10.587C17.6498 10.4129 17.5988 10.2808 17.4967 10.1907C17.3946 10.0946 17.2205 10.0466 16.9743 10.0466H15.8935L15.5512 11.6588H16.587Z" fill="white"/>
</svg>
